<svg width="66" height="52" viewBox="0 0 66 52" fill="none" xmlns="http://www.w3.org/2000/svg">
<path d="M3.16367 39.0804L3.16367 39.0804L3.1615 39.0801C3.14907 39.0782 3.13651 39.0763 3.12384 39.0745V36.0094C3.12384 34.9756 3.56301 34.0968 4.3906 33.4752C5.21863 32.8587 6.18465 32.6845 7.17332 32.9764L7.17345 32.9764L29.9314 39.688C29.9316 39.688 29.9317 39.6881 29.9318 39.6881C31.2974 40.0953 32.1943 41.2953 32.1943 42.7184H32.5943H32.9943C32.9943 41.2959 33.8935 40.0954 35.2595 39.6881C35.2597 39.6881 35.2598 39.6881 35.26 39.688L58.018 32.9764L58.0181 32.9764C59.0077 32.6842 59.9735 32.8565 60.8008 33.4752C61.6284 34.0941 62.0703 34.9755 62.0703 36.0094V39.0737C62.0559 39.0758 62.0415 39.0779 62.0272 39.0801L62.025 39.0804L32.5949 43.7243L3.16367 39.0804ZM62.4949 42.0558C63.5669 41.8936 64.5688 42.6157 64.7581 43.6744L64.7651 43.7208C64.9308 44.8136 64.1853 45.829 63.1073 45.9961L63.1062 45.9962L32.955 50.7546L32.9549 50.7545L32.9439 50.7566C32.7403 50.7946 32.5187 50.7976 32.2934 50.7627C32.2933 50.7627 32.2932 50.7627 32.2932 50.7627L2.09097 45.9962L2.08857 45.9959C0.999907 45.8308 0.255971 44.8131 0.42363 43.7245L0.423752 43.7237C0.588773 42.6375 1.60646 41.8914 2.69441 42.0585C2.69466 42.0585 2.69491 42.0586 2.69517 42.0586L32.531 46.77L32.5934 46.7798L32.6558 46.77L62.4936 42.056C62.494 42.0559 62.4944 42.0559 62.4949 42.0558Z" stroke="#282E38" stroke-width="0.8"/>
<path d="M33.4696 12.572V12.1013C33.4696 11.1387 33.8626 10.2696 34.4961 9.63894C35.1244 9.01068 35.9991 8.6182 36.9583 8.6182C37.9209 8.6182 38.7896 9.01127 39.4198 9.63836L39.4205 9.63906C40.0547 10.2733 40.4414 11.1426 40.4414 12.1013C40.4414 13.0625 40.0521 13.9349 39.4202 14.5639C38.7873 15.1966 37.9186 15.59 36.9583 15.59H36.4876V24.574H38.3392C38.6687 23.6914 39.1619 22.8697 39.8143 22.1051L39.8147 22.1047C40.1615 21.6994 40.5018 21.3195 40.8316 20.9515C41.6969 19.9855 42.4891 19.1012 43.1332 18.0545C44.0043 16.6389 44.59 14.9369 44.59 12.3988C44.59 5.77009 39.2172 0.4 32.5912 0.4C25.9651 0.4 20.5925 5.76735 20.5924 12.3985L33.4696 12.572ZM33.4696 12.572H31.7181V12.1013C31.7181 11.141 31.3249 10.2729 30.6987 9.64045L30.6959 9.63765C30.063 9.01109 29.1919 8.6182 28.2294 8.6182C27.2721 8.6182 26.4011 9.01133 25.7686 9.63766L25.7686 9.63766L25.7665 9.63975C25.1394 10.2699 24.7463 11.1386 24.7463 12.1013C24.7463 13.0602 25.1386 13.9346 25.7665 14.5628C26.3974 15.197 27.2724 15.59 28.2294 15.59H28.7L28.6975 24.574H26.846C26.5163 23.6892 26.0229 22.8696 25.3706 22.1051L25.3705 22.105C25.0207 21.6952 24.6772 21.3114 24.3446 20.9396C23.4843 19.9781 22.6957 19.0969 22.0534 18.0542C21.1813 16.6385 20.5938 14.9366 20.5924 12.3988L33.4696 12.572ZM27.8957 11.7776L27.8958 11.7776L27.9007 11.7727C27.9923 11.6811 28.1079 11.6308 28.2296 11.6308C28.3539 11.6308 28.4723 11.6837 28.5612 11.7726L28.5611 11.7727L28.5662 11.7776C28.6477 11.8563 28.7003 11.9727 28.7003 12.1015V12.5722H28.2296C28.1047 12.5722 27.9899 12.5223 27.9007 12.4331L27.8983 12.4306C27.811 12.3449 27.7589 12.2285 27.7589 12.1015C27.7589 11.976 27.8119 11.8585 27.8957 11.7776ZM36.9579 12.5717H36.4872V12.101C36.4872 11.9723 36.5398 11.8558 36.6213 11.7771L36.6214 11.7772L36.6288 11.7697C36.7145 11.6825 36.8309 11.6304 36.9579 11.6304C37.0809 11.6304 37.199 11.6817 37.2895 11.7722L37.292 11.7747C37.3752 11.8565 37.4286 11.9752 37.4286 12.101C37.4286 12.2233 37.3771 12.3412 37.2858 12.4363C37.2029 12.52 37.0854 12.5717 36.9579 12.5717ZM33.4537 34.0688H31.7399C30.0845 34.0688 28.6376 33.1445 27.8904 31.7829H37.2997C36.5505 33.1448 35.1037 34.0688 33.4537 34.0688ZM27.3481 27.5894L37.8394 27.5919L37.8373 28.7676H27.3481V27.5894ZM31.7178 24.5737V15.5897H33.4692V24.5737H31.7178Z" fill="#007BFC" stroke="#282E38" stroke-width="0.8"/>
</svg>
