<svg width="11" height="13" viewBox="0 0 11 13" fill="none" xmlns="http://www.w3.org/2000/svg">
<path fill-rule="evenodd" clip-rule="evenodd" d="M3.93957 12.2738V12.4164C3.94035 12.5488 4.04667 12.6559 4.178 12.6559H5.24428H5.2435C5.37483 12.6559 5.48115 12.5488 5.48115 12.4164V12.2738H3.93957ZM2.74428 9.99223V11.1898C2.74585 11.527 3.01633 11.8004 3.3509 11.8012H6.0698C6.40439 11.8004 6.67564 11.527 6.67642 11.1898V9.99223H2.74428ZM7.98196 2.83209C7.93818 2.87779 7.87877 2.90379 7.81544 2.90379C7.75291 2.90458 7.69193 2.87936 7.64737 2.83446C7.60359 2.79033 7.57858 2.72888 7.57936 2.66585C7.57936 2.60203 7.60516 2.54137 7.6505 2.49804L8.34469 1.7984C8.38847 1.7527 8.44788 1.7267 8.5112 1.7267C8.57374 1.72592 8.63472 1.75113 8.67928 1.79525C8.72305 1.84016 8.74807 1.90161 8.74729 1.96464C8.74729 2.02846 8.72149 2.08833 8.67615 2.13245L7.98196 2.83209ZM9.10298 6.03156C8.97321 6.03156 8.86845 5.9252 8.86845 5.7952C8.86845 5.66441 8.9732 5.55883 9.10298 5.55883H10.084C10.2138 5.55883 10.3186 5.66441 10.3186 5.7952C10.3186 5.9252 10.2138 6.03156 10.084 6.03156H9.10298ZM4.94498 1.3682C4.94498 1.49898 4.84022 1.60456 4.71045 1.60456C4.58146 1.60456 4.47592 1.49899 4.47592 1.3682V0.379432C4.47592 0.248645 4.58146 0.143066 4.71045 0.143066C4.84022 0.143066 4.94498 0.248641 4.94498 0.379432V1.3682ZM1.77119 2.49801C1.81575 2.54213 1.84155 2.602 1.84233 2.66582C1.84311 2.72885 1.8181 2.7903 1.77354 2.83521C1.72898 2.87933 1.66879 2.90454 1.60625 2.90376C1.54293 2.90376 1.48273 2.87775 1.43895 2.83206L0.74556 2.13242C0.656443 2.04024 0.658006 1.89291 0.748687 1.80152C0.838587 1.71013 0.984775 1.70855 1.07701 1.79837L1.77119 2.49801ZM6.72509 9.51938C6.97525 8.30133 8.12206 7.59146 8.12206 5.7951C8.12206 4.56682 7.47166 3.43145 6.41632 2.81769C5.36098 2.20315 4.06084 2.20315 3.00558 2.81769C1.95025 3.43145 1.29984 4.56676 1.29984 5.7951C1.29984 7.59142 2.44666 8.30135 2.69681 9.51938H4.47604V7.75455L3.65835 6.93045C3.56924 6.83827 3.57002 6.69015 3.6607 6.59877C3.75138 6.50738 3.89835 6.50659 3.99058 6.5964L4.71136 7.32282L5.43213 6.5964H5.43134C5.47512 6.55149 5.53531 6.52628 5.59785 6.5255C5.66039 6.5255 5.72059 6.55071 5.76436 6.59483C5.80892 6.63974 5.83316 6.7004 5.83316 6.76343C5.83316 6.82646 5.80736 6.88634 5.7628 6.93046L4.94511 7.75456V9.5186L6.72509 9.51938Z" fill="url(#paint0_linear_270_19245)"/>
<defs>
<linearGradient id="paint0_linear_270_19245" x1="5.49913" y1="0.143066" x2="5.49913" y2="12.8495" gradientUnits="userSpaceOnUse">
<stop stop-color="#FD9055"/>
<stop offset="1" stop-color="#FE4855"/>
</linearGradient>
</defs>
</svg>
