<svg width="12" height="12" viewBox="0 0 12 12" fill="none" xmlns="http://www.w3.org/2000/svg">
<g clip-path="url(#clip0_261_17106)">
<path d="M3.35562 0.565674C3.13548 0.565674 2.95703 0.744125 2.95703 0.964264V1.76142H3.75419V0.964264C3.75419 0.744125 3.57574 0.565674 3.35562 0.565674Z" fill="white"/>
<path d="M8.9357 0.565674C8.71556 0.565674 8.53711 0.744125 8.53711 0.964264V1.76142H9.33427V0.964264C9.33429 0.744125 9.15584 0.565674 8.9357 0.565674Z" fill="white"/>
<path d="M10.53 1.76147H9.33425V3.35581C9.33425 3.57595 9.1558 3.7544 8.93566 3.7544C8.71552 3.7544 8.53707 3.57595 8.53707 3.35581V1.76147H3.75408V3.35581C3.75408 3.57595 3.57563 3.7544 3.35549 3.7544C3.13535 3.7544 2.9569 3.57595 2.9569 3.35581V1.76147H1.76118C1.10078 1.76147 0.56543 2.29683 0.56543 2.95722V10.5303C0.56543 11.1907 1.10078 11.726 1.76118 11.726H10.53C11.1904 11.726 11.7257 11.1907 11.7257 10.5303V2.95722C11.7257 2.29683 11.1904 1.76147 10.53 1.76147ZM10.9286 10.5303C10.9286 10.7504 10.7501 10.9289 10.53 10.9289H1.76118C1.54104 10.9289 1.36259 10.7504 1.36259 10.5303V5.34872H10.9286V10.5303Z" fill="white"/>
<path d="M3.75434 6.14587H2.95718C2.73705 6.14587 2.55859 6.32433 2.55859 6.54447C2.55859 6.76461 2.73705 6.94306 2.95718 6.94306H3.75434C3.97448 6.94306 4.15293 6.76461 4.15293 6.54447C4.15293 6.32433 3.97448 6.14587 3.75434 6.14587Z" fill="white"/>
<path d="M6.54438 6.14587H5.74722C5.52708 6.14587 5.34863 6.32433 5.34863 6.54447C5.34863 6.76461 5.52708 6.94306 5.74722 6.94306H6.54438C6.76452 6.94306 6.94298 6.76461 6.94298 6.54447C6.94298 6.32433 6.76452 6.14587 6.54438 6.14587Z" fill="white"/>
<path d="M9.33442 6.14587H8.53726C8.31712 6.14587 8.13867 6.32433 8.13867 6.54447C8.13867 6.76461 8.31712 6.94306 8.53726 6.94306H9.33442C9.55456 6.94306 9.73301 6.76461 9.73301 6.54447C9.73301 6.32433 9.55453 6.14587 9.33442 6.14587Z" fill="white"/>
<path d="M3.75434 7.74011H2.95718C2.73705 7.74011 2.55859 7.91856 2.55859 8.1387C2.55859 8.35884 2.73705 8.53729 2.95718 8.53729H3.75434C3.97448 8.53729 4.15293 8.35884 4.15293 8.1387C4.15293 7.91856 3.97448 7.74011 3.75434 7.74011Z" fill="white"/>
<path d="M6.54438 7.74011H5.74722C5.52708 7.74011 5.34863 7.91856 5.34863 8.1387C5.34863 8.35884 5.52708 8.53729 5.74722 8.53729H6.54438C6.76452 8.53729 6.94298 8.35884 6.94298 8.1387C6.94298 7.91856 6.76452 7.74011 6.54438 7.74011Z" fill="white"/>
<path d="M9.33442 7.74011H8.53726C8.31712 7.74011 8.13867 7.91856 8.13867 8.1387C8.13867 8.35884 8.31712 8.53729 8.53726 8.53729H9.33442C9.55456 8.53729 9.73301 8.35884 9.73301 8.1387C9.73299 7.91856 9.55453 7.74011 9.33442 7.74011Z" fill="white"/>
<path d="M3.75434 9.33447H2.95718C2.73705 9.33447 2.55859 9.51292 2.55859 9.73306C2.55859 9.9532 2.73705 10.1316 2.95718 10.1316H3.75434C3.97448 10.1316 4.15293 9.95318 4.15293 9.73304C4.15293 9.5129 3.97448 9.33447 3.75434 9.33447Z" fill="white"/>
<path d="M6.54438 9.33447H5.74722C5.52708 9.33447 5.34863 9.51292 5.34863 9.73306C5.34863 9.9532 5.52708 10.1317 5.74722 10.1317H6.54438C6.76452 10.1317 6.94298 9.9532 6.94298 9.73306C6.94298 9.51292 6.76452 9.33447 6.54438 9.33447Z" fill="white"/>
<path d="M9.33442 9.33447H8.53726C8.31712 9.33447 8.13867 9.51292 8.13867 9.73306C8.13867 9.9532 8.31712 10.1317 8.53726 10.1317H9.33442C9.55456 10.1317 9.73301 9.9532 9.73301 9.73306C9.73301 9.51292 9.55453 9.33447 9.33442 9.33447Z" fill="white"/>
</g>
<defs>
<clipPath id="clip0_261_17106">
<rect width="11.1603" height="11.1603" fill="white" transform="translate(0.56543 0.565674)"/>
</clipPath>
</defs>
</svg>
