<svg width="15" height="15" viewBox="0 0 15 15" fill="none" xmlns="http://www.w3.org/2000/svg">
<path fill-rule="evenodd" clip-rule="evenodd" d="M4.43863 0.369019C4.83468 0.369019 5.19366 0.525943 5.45331 0.779117C5.71296 1.03229 5.8739 1.38231 5.8739 1.76848C5.8739 2.15466 5.71296 2.50468 5.45331 2.75785C5.19366 3.01102 4.83468 3.16795 4.43863 3.16795C4.04258 3.16795 3.6836 3.01102 3.42395 2.75785C3.1643 2.50468 3.00337 2.15466 3.00337 1.76848C3.00337 1.38231 3.1643 1.03229 3.42395 0.779117C3.6836 0.525943 4.04258 0.369019 4.43863 0.369019ZM13.9894 1.20555L13.6401 1.30414C13.5162 1.33914 13.4002 1.36306 13.2841 1.37648C13.1686 1.38989 13.0502 1.39398 12.9215 1.38931L12.2628 1.36423C12.1324 1.35898 12.0116 1.36539 11.8943 1.38289C11.7758 1.40098 11.6592 1.43073 11.5365 1.47331L11.1088 1.62382V3.25952L11.5264 3.1201C11.6658 3.07343 11.8004 3.04135 11.9368 3.0221C12.0726 3.00285 12.2102 2.99701 12.3586 3.00343L13.0005 3.03026C13.1166 3.03493 13.2231 3.03143 13.3278 3.0186C13.4319 3.00576 13.536 2.98301 13.6467 2.94976L13.9883 2.84767L13.9894 1.20555ZM13.5425 0.977468C13.4402 1.00605 13.3427 1.02589 13.2422 1.03814C13.1417 1.05039 13.0412 1.05389 12.9347 1.04922L12.2766 1.02414C12.1246 1.0183 11.9822 1.0253 11.841 1.04689C11.7004 1.06789 11.5628 1.10347 11.4192 1.15364L10.8754 1.34497C10.8042 1.37006 10.7599 1.43539 10.7599 1.50481H10.7593L10.7587 3.49818C10.7587 3.59268 10.8371 3.6691 10.934 3.6691C10.958 3.6691 10.9807 3.66443 11.0016 3.65626L11.6394 3.44334C11.7591 3.40308 11.8727 3.37625 11.987 3.35992C12.1025 3.34358 12.2197 3.33833 12.3448 3.34417L12.9867 3.371C13.1213 3.37683 13.247 3.37217 13.3726 3.35642C13.4988 3.34067 13.6221 3.31383 13.7507 3.27533L13.99 3.20358V9.82584H9.61429C9.51737 9.82584 9.439 9.90226 9.439 9.99676V11.5106H5.06494C4.96802 11.5106 4.88965 11.587 4.88965 11.6815V12.8476H0.515134C0.418214 12.8476 0.339844 12.9241 0.339844 13.0186V14.1981C0.339844 14.2926 0.418218 14.369 0.515134 14.369C0.612054 14.369 0.690424 14.2926 0.690424 14.1981V13.1895H5.06494C5.16186 13.1895 5.24023 13.1131 5.24023 13.0186L5.23963 11.8519H9.61415C9.71107 11.8519 9.78944 11.7754 9.78944 11.6809V10.1671H14.164C14.2609 10.1671 14.3392 10.0907 14.3392 9.99618V2.97264L14.3398 0.979272C14.3398 0.884769 14.2615 0.808354 14.1646 0.808354H14.1508L14.1466 0.808937H14.1406V0.810104L14.1388 0.810687H14.1364L14.1334 0.811271H14.1311L14.1305 0.811854H14.1251L14.1233 0.812437L14.1227 0.813604H14.1215L14.1191 0.814187L14.1179 0.814771H14.1173L14.1161 0.815354H14.1149L14.1113 0.817104L14.1107 0.817687L14.1101 0.817104L14.1077 0.818271H14.1065L14.1041 0.819437L14.1023 0.820021L14.0999 0.821187L13.5425 0.977468ZM3.28749 11.6289C3.2486 11.7514 3.17442 11.8523 3.0769 11.9223C2.97998 11.9917 2.85912 12.0314 2.72751 12.0314H2.68982C2.5923 12.0314 2.50255 12.0116 2.42418 11.9725C2.34521 11.934 2.27581 11.8756 2.21837 11.7998C2.16033 11.7234 2.12384 11.6411 2.10948 11.5566C2.09452 11.4714 2.10111 11.3815 2.12982 11.2911L3.09125 8.25882C3.11817 8.26932 3.14569 8.27865 3.17381 8.28682C3.17919 8.28857 3.18517 8.29032 3.19116 8.29148L4.24771 8.58725L3.28749 11.6289ZM4.58275 8.68184L3.62133 11.7286C3.56031 11.9223 3.44065 12.0833 3.2845 12.1959C3.12776 12.3091 2.93451 12.3732 2.72751 12.3732H2.68982C2.53786 12.3732 2.39547 12.3406 2.26684 12.277C2.13881 12.214 2.02694 12.1212 1.9366 12.0016C1.84626 11.8821 1.78883 11.7508 1.7649 11.6131C1.74097 11.476 1.75114 11.3337 1.79601 11.1919L2.78676 8.06689C2.71856 8.00214 2.66052 7.92805 2.61446 7.84754C2.49899 7.64395 2.4607 7.39894 2.52591 7.15976L2.6671 5.28482L2.35601 5.48199L2.1855 6.9818C2.16157 7.19298 2.05268 7.37672 1.89594 7.50332C1.89235 7.50623 1.88935 7.50915 1.88577 7.51207C1.72303 7.63924 1.51125 7.70574 1.28929 7.68182H1.28869C1.06673 7.6579 0.874687 7.54765 0.744855 7.38956C0.614431 7.23089 0.546223 7.02439 0.570759 6.80797L0.782547 4.94064L0.78494 4.92255L0.786137 4.91555C0.793316 4.77905 0.839981 4.65596 0.914168 4.54628C0.916562 4.54278 0.918955 4.5387 0.921348 4.5352C1.0057 4.41561 1.12297 4.31527 1.25758 4.23419L1.34552 4.18111C2.38114 3.55634 2.57497 3.43849 4.10422 3.26758V3.26816C4.1084 3.26758 4.11319 3.26758 4.11798 3.26699L4.15567 3.26583C4.55592 3.25182 5.70043 3.21099 6.08148 3.72084L6.93942 4.86714L8.31245 4.34096C8.32621 4.33454 8.34177 4.32987 8.35733 4.32754C8.5715 4.28146 8.78629 4.32346 8.96039 4.42904C9.13448 4.53463 9.2679 4.70322 9.32055 4.9109C9.32235 4.91732 9.32414 4.92432 9.32534 4.93132C9.3726 5.14015 9.32953 5.34959 9.22124 5.51934C9.11295 5.68967 8.93885 5.82034 8.72527 5.8711L6.86225 6.52854C6.7073 6.58337 6.54934 6.57521 6.40516 6.52562C6.25679 6.47429 6.12277 6.37745 6.02525 6.25962C6.01687 6.25145 6.0085 6.24328 6.00072 6.23395L5.64475 5.81801L5.55381 7.02264L6.89753 7.3989C6.90351 7.40065 6.9089 7.4024 6.91428 7.40473C6.99385 7.42923 7.07043 7.45606 7.14044 7.4899C7.2218 7.52957 7.29718 7.57857 7.3654 7.64331C7.45693 7.72965 7.51975 7.82824 7.56463 7.93615C7.60651 8.03707 7.63283 8.14499 7.65317 8.25992L7.65437 8.26867L7.87095 10.0141C7.8871 10.1471 7.87633 10.2749 7.83745 10.3957C7.79916 10.5158 7.73335 10.6272 7.64182 10.7282C7.55028 10.8291 7.44438 10.9061 7.32712 10.9574C7.20866 11.0094 7.07943 11.0356 6.94243 11.0356H6.9179C6.68158 11.0356 6.46442 10.951 6.29868 10.8087C6.13356 10.6669 6.01989 10.4674 5.99057 10.2382L5.83383 9.03179L4.58275 8.68184ZM3.0763 7.86106C3.01169 7.81206 2.95904 7.75081 2.91956 7.68197C2.84477 7.55072 2.82144 7.39147 2.86751 7.23571C2.8717 7.22229 2.87349 7.20829 2.87409 7.19487L3.03742 5.02648C3.03802 5.01598 3.03802 5.00606 3.03682 4.99614C3.04819 4.95181 3.04101 4.90339 3.01408 4.86197C2.96144 4.78322 2.85315 4.76047 2.77298 4.8118L2.10471 5.23473C2.05804 5.26098 2.02454 5.30765 2.01855 5.36365L1.83907 6.94335C1.82531 7.06352 1.76428 7.16736 1.67634 7.23912C1.67334 7.24087 1.67035 7.2432 1.66796 7.24553C1.57762 7.31612 1.46035 7.35404 1.33711 7.34295C1.33112 7.34179 1.32514 7.3412 1.31916 7.3412C1.19651 7.32545 1.09061 7.26362 1.01762 7.17494C0.945227 7.08686 0.90634 6.97252 0.917708 6.85234C0.918904 6.84593 0.919502 6.83951 0.919502 6.83309L1.13069 4.96815L1.13189 4.96057C1.13309 4.95299 1.13428 4.9454 1.13428 4.93782C1.13727 4.86432 1.1618 4.79723 1.20308 4.73656C1.20488 4.73422 1.20667 4.73131 1.20847 4.72897C1.26411 4.65022 1.34547 4.58138 1.4406 4.52421L1.52854 4.47113C2.50672 3.88078 2.69039 3.76994 4.14128 3.60718L4.1676 3.60601C4.51999 3.59376 5.52748 3.55759 5.79966 3.92102L6.72938 5.16357C6.77305 5.2324 6.86159 5.26274 6.94176 5.2324L8.43745 4.65897C8.5577 4.63447 8.67795 4.65839 8.77607 4.71789C8.87717 4.77914 8.95436 4.87714 8.98308 4.9979C9.01239 5.11865 8.98786 5.23999 8.92504 5.33857C8.86222 5.43716 8.76171 5.51242 8.63787 5.54042V5.541C8.63129 5.54275 8.62471 5.5445 8.61813 5.54683L6.74316 6.20836C6.67077 6.23403 6.59419 6.22878 6.5218 6.20427C6.43385 6.17394 6.35427 6.11619 6.29624 6.04502C6.29086 6.03744 6.28487 6.03102 6.27829 6.0246L6.2747 6.0211C6.27291 6.01935 6.27051 6.0176 6.26932 6.01585L5.63873 5.27966C5.60942 5.24407 5.56515 5.21957 5.51489 5.21607C5.41857 5.20966 5.33481 5.28024 5.32822 5.37416L5.1954 7.13068C5.18643 7.21177 5.23788 7.28994 5.32164 7.31328L6.80178 7.72804C6.80477 7.7292 6.80836 7.72979 6.81135 7.73037C6.87118 7.74845 6.92921 7.76945 6.98425 7.79629C7.03571 7.82137 7.08297 7.85112 7.12186 7.88846C7.1751 7.93863 7.2122 7.99813 7.24032 8.06522C7.27083 8.13872 7.29117 8.22214 7.30732 8.31315L7.52331 10.055C7.53408 10.1402 7.5269 10.2207 7.50356 10.2948C7.47963 10.3695 7.43835 10.4395 7.38032 10.503C7.32229 10.5666 7.25648 10.6145 7.18288 10.6471C7.11049 10.6786 7.02972 10.695 6.94178 10.695H6.91725C6.76828 10.695 6.63247 10.6419 6.52896 10.5532C6.42546 10.464 6.35427 10.3391 6.33572 10.1956L6.16461 8.87783C6.15564 8.80841 6.10419 8.75358 6.03957 8.73549V8.73491L4.49788 8.30323L3.0763 7.86106ZM5.20551 1.02061C5.00928 0.82928 4.73766 0.710854 4.43852 0.710854C4.13879 0.710854 3.86776 0.829275 3.67154 1.02061C3.47531 1.21195 3.35385 1.4768 3.35385 1.76847C3.35385 2.06072 3.4753 2.32499 3.67154 2.51633C3.86777 2.70766 4.13879 2.82608 4.43852 2.82608C4.73826 2.82608 5.00928 2.70766 5.20551 2.51633C5.40174 2.32499 5.52319 2.06072 5.52319 1.76847C5.52319 1.47621 5.40174 1.21194 5.20551 1.02061Z" fill="white" stroke="white" stroke-width="0.5"/>
</svg>
