<svg width="484" height="227" viewBox="0 0 484 227" fill="none" xmlns="http://www.w3.org/2000/svg">
<path d="M472.553 187.15L463.014 187.354L458.172 187.433C456.551 187.47 454.922 187.433 453.301 187.477H452.981V187.15L452.938 178.992V178.629H453.301L462.927 178.673C466.141 178.673 469.347 178.753 472.553 178.789H472.757V178.992C472.757 180.374 472.699 181.748 472.662 183.108L472.553 187.15ZM472.553 187.15L472.452 183.042C472.415 181.69 472.372 180.352 472.357 179.014L472.553 179.218C469.347 179.254 466.141 179.334 462.927 179.334L453.301 179.378L453.665 179.014V187.15L453.337 186.83C454.922 186.83 456.507 186.83 458.1 186.866L462.833 186.99L472.553 187.15Z" fill="#EBEBEB"/>
<path d="M461.816 197.409L452.277 197.612L447.428 197.692C445.814 197.692 444.185 197.692 442.564 197.736H442.244V197.409V189.273V188.909H442.608L452.234 188.96C455.44 188.96 458.654 189.04 461.86 189.077H462.064V189.273C462.064 190.654 462.005 192.028 461.969 193.388L461.816 197.409ZM461.816 197.409L461.715 193.301C461.678 191.948 461.635 190.611 461.62 189.273L461.816 189.477C458.61 189.513 455.396 189.593 452.19 189.593L442.564 189.636L442.928 189.273V197.409L442.6 197.089C444.185 197.089 445.77 197.089 447.363 197.125L452.139 197.212L461.816 197.409Z" fill="#EBEBEB"/>
<path d="M483.294 197.409L473.755 197.612L468.913 197.692C467.291 197.692 465.663 197.692 464.041 197.736H463.721V197.409L463.678 189.273V188.909H464.041L473.667 188.96C476.881 188.96 480.087 189.04 483.294 189.077H483.497V189.273C483.497 190.654 483.432 192.028 483.403 193.388L483.294 197.409ZM483.294 197.409L483.192 193.301C483.192 191.948 483.112 190.611 483.097 189.273L483.294 189.477C480.087 189.513 476.881 189.593 473.667 189.593L464.041 189.636L464.405 189.273V197.409L464.078 197.089C465.67 197.089 467.248 197.089 468.84 197.125L473.624 197.212L483.294 197.409Z" fill="#EBEBEB"/>
<path d="M198.034 90.3434L188.495 90.547L183.653 90.6269C182.031 90.6269 180.403 90.6269 178.781 90.6269H178.462V90.2997L178.418 82.1641V81.8005H178.781L188.408 81.8442C191.621 81.8442 194.828 81.9241 198.034 81.9605H198.237V82.1568C198.237 83.5382 198.172 84.905 198.136 86.2646L198.034 90.3434ZM198.034 90.3434L197.932 86.2283C197.932 84.876 197.852 83.5382 197.837 82.2077L198.034 82.404C194.828 82.404 191.621 82.5203 188.408 82.5203L178.781 82.5712L179.145 82.2077L179.109 90.3434L178.781 90.0162C180.366 90.0162 181.951 90.0162 183.544 90.0598L188.328 90.1398L198.034 90.3434Z" fill="#EBEBEB"/>
<path d="M187.281 100.602L177.742 100.805L172.892 100.885C171.278 100.885 169.65 100.885 168.028 100.922H167.709V100.595L167.65 92.4734V92.1099H168.014L177.64 92.1535C180.846 92.1535 184.06 92.2335 187.266 92.2698H187.47V92.4734C187.47 93.8548 187.412 95.2216 187.375 96.5812L187.281 100.602ZM187.281 100.602L187.179 96.4867C187.143 95.1344 187.099 93.7966 187.084 92.4661L187.281 92.6624C184.074 92.6988 180.861 92.7787 177.655 92.7787L168.028 92.8296L168.392 92.4661L168.377 100.602L168.05 100.275C169.635 100.275 171.22 100.275 172.812 100.318L177.589 100.398L187.281 100.602Z" fill="#EBEBEB"/>
<path d="M208.77 100.602L199.231 100.805L194.389 100.885C192.768 100.885 191.146 100.885 189.518 100.922H189.198V100.595L189.154 92.4734V92.1099H189.518L199.144 92.1535C202.358 92.1535 205.564 92.2335 208.77 92.2698H208.974V92.4734C208.974 93.8548 208.908 95.2216 208.879 96.5812L208.77 100.602ZM208.77 100.602L208.668 96.4867C208.668 95.1344 208.588 93.7966 208.574 92.4661L208.77 92.6624C205.564 92.6988 202.358 92.7787 199.144 92.7787L189.518 92.8296L189.881 92.4661L189.845 100.602L189.518 100.275C191.11 100.275 192.688 100.275 194.28 100.318L199.064 100.398L208.77 100.602Z" fill="#EBEBEB"/>
<path d="M41.0548 144.174L31.5159 144.378L26.6665 144.458C25.0525 144.458 23.4239 144.458 21.8025 144.494H21.5117V144.167V136.031V135.667H21.8752L31.5014 135.711C34.7077 135.711 37.9213 135.791 41.1275 135.827H41.3311V136.024C41.3311 137.405 41.2729 138.772 41.2366 140.132L41.0548 144.174ZM41.0548 144.174L40.953 140.059C40.953 138.707 40.8731 137.369 40.8585 136.038L41.0548 136.235C37.8485 136.271 34.635 136.351 31.4287 136.351L21.8025 136.402L22.1661 136.038L22.1297 144.174L21.8025 143.847C23.3875 143.847 24.9725 143.847 26.5647 143.89L31.3414 143.97L41.0548 144.174Z" fill="#EBEBEB"/>
<path d="M360.217 90.3358L350.678 90.5394L345.836 90.6194C344.215 90.6557 342.586 90.6194 340.965 90.6557H340.645V90.3286L340.602 82.1929V81.8293H340.965L350.591 81.873C353.805 81.873 357.011 81.9602 360.217 81.9966H360.421V82.1929C360.421 83.5743 360.363 84.9484 360.326 86.3007L360.217 90.3358ZM360.217 90.3358L360.116 86.228C360.079 84.8684 360.036 83.5306 360.021 82.2001L360.217 82.3964C357.011 82.4328 353.805 82.5128 350.591 82.52L340.965 82.5637L341.329 82.2001L341.292 90.3358L340.965 90.0087C342.55 90.0087 344.135 90.0087 345.727 90.0523L350.511 90.1323L360.217 90.3358Z" fill="#EBEBEB"/>
<path d="M471.441 11.32L461.902 11.5236L457.053 11.6036C455.439 11.6036 453.81 11.6036 452.189 11.6472H451.869V11.32V3.18433V2.8208H452.233L461.859 2.86442C465.065 2.86442 468.279 2.95167 471.485 2.98802H471.689V3.18433C471.689 4.56572 471.63 5.93985 471.594 7.29216L471.441 11.32ZM471.441 11.32L471.34 7.21219C471.303 5.8526 471.26 4.51483 471.245 3.18433L471.441 3.38063C468.235 3.38063 465.021 3.49696 461.815 3.50423L452.189 3.54785L452.553 3.18433L452.516 11.32L452.189 10.9928C453.774 10.9928 455.359 10.9928 456.951 11.0365L461.728 11.1164L471.441 11.32Z" fill="#EBEBEB"/>
<path d="M482.18 21.579L472.641 21.7826L467.799 21.8625C466.178 21.8989 464.549 21.8625 462.928 21.8989H462.608V21.5717L462.564 13.436V13.0725H462.928L472.554 13.1161C475.768 13.1161 478.974 13.2034 482.18 13.2397H482.384V13.436C482.384 14.8174 482.318 16.1916 482.282 17.5439L482.18 21.579ZM482.18 21.579L482.078 17.4712C482.078 16.1116 481.999 14.7738 481.984 13.4433L482.18 13.6396C478.974 13.676 475.768 13.7559 472.554 13.7632L462.928 13.8068L463.292 13.4433V21.579L462.964 21.2518C464.549 21.2518 466.134 21.2518 467.726 21.2954L472.51 21.3754L482.18 21.579Z" fill="#EBEBEB"/>
<path d="M19.5795 11.3276L10.0333 11.5312L5.19114 11.6111C3.57709 11.6111 1.9485 11.6111 0.327173 11.6548H0V11.3276V3.19189V2.82837H0.370795L9.99694 2.87926C13.2032 2.87926 16.4095 2.95924 19.6231 2.99559H19.8194V3.19189C19.8194 4.57329 19.754 5.94742 19.7249 7.307L19.5795 11.3276ZM19.5795 11.3276L19.4704 7.21975C19.4704 5.86017 19.3904 4.5224 19.3759 3.19189L19.5795 3.3882C16.3659 3.43182 13.1596 3.50453 9.95332 3.5118L0.327173 3.55542L0.690699 3.19189L0.647074 11.3276L0.327173 11.044C1.91214 11.044 3.48984 11.044 5.08208 11.044L9.86607 11.124L19.5795 11.3276Z" fill="#EBEBEB"/>
<path d="M255.391 112.242C254.499 113.085 253.392 113.666 252.192 113.922C251.465 114.111 250.658 114.22 249.887 114.358H247.255C246.172 114.191 245.074 114.06 244.02 113.849C240.08 113.003 236.348 111.382 233.041 109.08C224.333 103.323 216.996 95.7229 211.55 86.8173C209.724 83.8787 208.466 80.6232 207.842 77.2203C207.682 76.326 207.558 75.4244 207.42 74.5229V71.891C207.638 70.8804 207.813 69.8552 208.082 68.8592C208.347 67.9243 208.847 67.0732 209.536 66.3872C209.666 66.5035 209.783 66.5981 209.899 66.7144C214.087 70.8974 218.277 75.0803 222.47 79.2633C222.606 79.3762 222.702 79.5288 222.747 79.6997C222.791 79.8706 222.781 80.0511 222.717 80.2157C222.398 81.2523 222.356 82.3541 222.593 83.4123C222.83 84.4706 223.339 85.4487 224.069 86.2502C227.646 90.3124 231.475 94.1443 235.535 97.7231C236.344 98.458 237.331 98.9687 238.399 99.2046C239.466 99.4405 240.577 99.3935 241.62 99.0681C241.926 98.9882 242.144 98.9373 242.406 99.199C246.685 103.503 250.975 107.798 255.274 112.082C255.296 112.104 255.325 112.17 255.391 112.242Z" fill="#EBEBEB"/>
<path d="M263.622 102.841V103.714C263.243 104.26 262.832 104.785 262.393 105.284C261.099 106.629 259.761 107.931 258.445 109.247L258.038 109.632L245.111 96.7123C246.805 95.0401 248.492 93.3315 250.237 91.6666C250.426 91.491 250.649 91.3552 250.891 91.2673C251.134 91.1793 251.392 91.141 251.649 91.1545C251.907 91.1681 252.159 91.2333 252.391 91.3462C252.623 91.4592 252.83 91.6175 253 91.812C253.974 92.7572 254.919 93.7241 255.908 94.6766C258.155 96.9304 260.416 99.1697 262.641 101.438C263.004 101.879 263.332 102.349 263.622 102.841Z" fill="#EBEBEB"/>
<path d="M229.731 71.9563C228.132 73.5049 226.496 75.0171 224.911 76.5149L212.086 63.697C212.369 63.4425 212.697 63.1735 212.995 62.8827C214.173 61.7121 215.329 60.5125 216.528 59.3637C217.015 58.9362 217.528 58.538 218.062 58.1714H218.942C219.432 58.4725 219.899 58.8103 220.338 59.182C223.479 62.2938 226.608 65.4201 229.724 68.5609C230.902 69.7388 230.902 70.8002 229.731 71.9563Z" fill="#EBEBEB"/>
<path d="M14.7949 79.0888H98.9365V25.7087H14.7949V79.0888Z" fill="#EBEBEB"/>
<path d="M114.678 79.0886H98.9375V62.6936L114.678 79.0886Z" fill="#EBEBEB"/>
<path d="M89.1951 34.9351H24.5312V35.9529H89.1951V34.9351Z" fill="white"/>
<path d="M57.9538 40.4167H24.5312V41.4346H57.9538V40.4167Z" fill="white"/>
<path d="M76.8207 51.3733H24.5312V52.3912H76.8207V51.3733Z" fill="white"/>
<path d="M89.1951 56.8479H24.5312V57.8658H89.1951V56.8479Z" fill="white"/>
<path d="M89.1951 62.323H24.5312V63.3409H89.1951V62.323Z" fill="white"/>
<path d="M47.506 67.8047H24.5312V68.8226H47.506V67.8047Z" fill="white"/>
<path d="M468.823 100.406H384.682V147.482H468.823V100.406Z" fill="#DBDBDB"/>
<path d="M368.941 147.49H384.682V131.095L368.941 147.49Z" fill="#DBDBDB"/>
<path d="M450.911 124.987H394.615V126.005H450.911V124.987Z" fill="white"/>
<path d="M439.336 130.469H394.615V131.487H439.336V130.469Z" fill="white"/>
<path d="M442.71 114.03H394.615V115.048H442.71V114.03Z" fill="white"/>
<path d="M457.411 108.556H394.615V109.574H457.411V108.556Z" fill="white"/>
<path d="M443.975 135.944H394.615V136.961H443.975V135.944Z" fill="white"/>
<path d="M426.314 50.3699H271.809V57.146H426.314V50.3699Z" fill="#EBEBEB"/>
<path d="M287.241 57.1533H280.465V79.561H287.241V57.1533Z" fill="#EBEBEB"/>
<path d="M287.241 57.1533H280.465V64.0821H287.241V57.1533Z" fill="#DBDBDB"/>
<path d="M417.655 57.1533H410.879V79.561H417.655V57.1533Z" fill="#EBEBEB"/>
<path d="M417.655 57.1533H410.879V64.0821H417.655V57.1533Z" fill="#DBDBDB"/>
<path d="M311.525 50.37V7.19043L300.649 7.19043V50.37H311.525Z" fill="#C7C7C7"/>
<path d="M311.525 9.6263V4.87866L300.649 4.87866V9.6263H311.525Z" fill="#DBDBDB"/>
<path d="M311.52 17.4709V15.7114H300.643V17.4709H311.52Z" fill="#DBDBDB"/>
<path d="M312.879 44.7137V39.9661H300.65V44.7137H312.879Z" fill="#DBDBDB"/>
<path d="M319.125 50.3701V0L311.527 0V50.3701H319.125Z" fill="#DBDBDB"/>
<path d="M317.574 24.1088V4.73291H313.016V24.1088H317.574Z" fill="#EBEBEB"/>
<path d="M373.165 44.9897L337.344 9.57837L332.002 14.9816L367.824 50.3929L373.165 44.9897Z" fill="#C7C7C7"/>
<path d="M363.713 37.7487L349.934 24.127L346.729 27.3689L360.508 40.9906L363.713 37.7487Z" fill="#DBDBDB"/>
<path d="M332.023 50.3845V12.1199H319.118V50.3845H332.023Z" fill="#A6A6A6"/>
<path d="M332.023 46.3201V42.7576H319.118V46.3201H332.023Z" fill="#C7C7C7"/>
<path d="M332.023 40.4239V39.0425H319.118V40.4239H332.023Z" fill="#C7C7C7"/>
<path d="M300.65 50.3847V14.4248H291.737V50.3847H300.65Z" fill="#A6A6A6"/>
<path d="M300.65 46.5678V43.2161H291.737V46.5678H300.65Z" fill="#C7C7C7"/>
<path d="M300.65 25.185V21.8333H291.737V25.185H300.65Z" fill="#C7C7C7"/>
<path d="M300.65 28.7838V27.4824H291.737V28.7838H300.65Z" fill="#C7C7C7"/>
<path d="M410.072 33.619L409.105 36.1855L408.508 37.7487L407.534 40.3224L403.739 50.3775H383.214L379.405 40.3224L378.43 37.7487L377.841 36.1855L376.867 33.619L384.443 22.5751L380.517 15.2974H406.444L402.496 22.5751L410.072 33.619Z" fill="#DBDBDB"/>
<path d="M410.072 33.6187L409.105 36.1851H377.841L376.867 33.6187H410.072Z" fill="#A6A6A6"/>
<path d="M408.508 37.7485L407.534 40.3223H379.404L378.43 37.7485H408.508Z" fill="#A6A6A6"/>
<path d="M235.514 246.325H324.694L306.917 142.887H240.225L235.514 246.325Z" fill="#DBDBDB"/>
<path d="M235.514 246.325H243.337L247.721 142.887H240.225L235.514 246.325Z" fill="#A6A6A6"/>
<path d="M313.003 163.165C323.095 185.704 347.48 223.111 358.393 213.841C374.715 199.983 385.767 169.331 390.129 156.934C392.579 149.991 357.208 138.373 355.042 144.676C351.959 153.634 347.124 172.355 344.325 175.009C342.871 176.398 331.282 160.133 322.513 152.419C309.855 141.303 309.783 155.967 313.003 163.165Z" fill="#AD6359"/>
<path d="M398.961 146.501C395.813 153.582 383.693 165.557 379.665 167.324C375.638 169.09 354.364 149.874 354.808 145.352C355.251 140.83 367.945 117.143 374.976 113.507C382.007 109.872 402.226 139.158 398.961 146.501Z" fill="#AD6359"/>
<path d="M356.474 140.379C356.474 140.379 356.983 130.302 354.438 121.781C352.301 114.62 348.324 104.23 352.126 102.936C359.949 100.282 369.866 126.202 369.866 126.202C369.866 126.202 372.411 138.343 364.901 141.659C360.189 143.738 356.474 140.379 356.474 140.379Z" fill="#AD6359"/>
<path d="M365.292 121.265C365.8 125.344 370.315 122.407 370.315 122.407C370.315 122.407 364.841 128.223 366.993 132.2C369.087 136.046 374.409 132.302 374.794 132.04C374.503 132.353 369.618 137.805 372.199 141.601C374.881 145.541 379.578 140.874 379.883 140.568C379.702 140.939 377.419 145.963 380.036 148.406C384.529 152.586 390.724 139.907 395.493 138.489C395.493 138.489 398.823 146.29 398.961 146.486C398.961 146.486 405.105 134.534 402.836 128.208C402.518 127.284 401.895 126.496 401.069 125.974C400.243 125.452 399.263 125.227 398.292 125.337C398.292 125.337 400.699 121.701 398.765 118.648C397.762 117.084 394.403 117.288 394.403 117.288C394.403 117.288 396.206 114.3 394.315 111.697C392.81 109.61 389.648 110.141 389.648 110.141C389.648 110.141 390.048 106.462 387.823 104.834C383.301 101.547 364.194 112.533 365.292 121.265Z" fill="#AD6359"/>
<path d="M389.102 110.163C389.167 110.127 389.102 110.032 389.066 110.054C381.897 112.133 374.663 116.597 370.053 122.537C369.901 122.734 370.148 123.061 370.359 122.879C376.313 117.681 381.948 113.558 389.102 110.163Z" fill="#263238"/>
<path d="M394.449 117.193C394.529 117.157 394.449 117.026 394.383 117.048C387.004 119.229 378.999 124.507 374.484 131.96C374.331 132.214 374.448 132.599 374.651 132.323C378.025 127.612 387.993 120.225 394.449 117.193Z" fill="#263238"/>
<path d="M379.745 141.186C384.348 134.207 390.724 129.401 397.987 125.409C398.074 125.358 397.987 125.235 397.907 125.257C393.821 126.238 389.459 129.263 386.274 131.909C383.261 134.303 380.929 137.447 379.513 141.026C379.447 141.186 379.651 141.346 379.745 141.186Z" fill="#263238"/>
<path d="M370.172 122.399C369.99 122.632 370.535 122.639 370.361 122.879C369.634 123.882 365.744 130.317 367.525 132.331C368.98 133.937 372.099 133.123 373.189 132.331L375.916 130.36L374.04 133.189C373.196 134.428 372.557 135.795 372.15 137.238C371.924 137.895 371.84 138.593 371.904 139.285C371.968 139.977 372.178 140.647 372.52 141.252C372.841 141.812 373.345 142.244 373.948 142.476C374.551 142.708 375.215 142.725 375.828 142.524C377.196 142.053 378.42 141.24 379.384 140.161L382.146 137.253L380.489 140.888C380.025 141.894 379.691 142.954 379.493 144.043C379.271 145.068 379.354 146.134 379.733 147.112C379.92 147.542 380.223 147.912 380.608 148.18C380.993 148.448 381.445 148.604 381.914 148.631C382.976 148.523 383.984 148.115 384.822 147.453C386.658 146.051 388.381 144.507 389.977 142.837C390.813 142.022 391.649 141.201 392.529 140.415C393.355 139.589 394.346 138.945 395.437 138.525C394.4 139.05 393.476 139.774 392.718 140.655C391.911 141.492 391.14 142.364 390.369 143.244C388.855 145.06 387.175 146.732 385.353 148.239C384.375 149.068 383.178 149.596 381.907 149.758C381.205 149.765 380.517 149.569 379.925 149.193C379.333 148.818 378.862 148.279 378.569 147.642C378.06 146.443 377.921 145.119 378.169 143.84C378.365 142.623 378.719 141.438 379.224 140.314L380.329 141.041C379.209 142.334 377.77 143.311 376.156 143.876C375.251 144.166 374.274 144.13 373.393 143.774C372.541 143.401 371.822 142.781 371.328 141.993C370.895 141.226 370.63 140.376 370.549 139.498C370.469 138.621 370.576 137.737 370.863 136.904C371.327 135.324 372.052 133.832 373.007 132.491L373.858 133.319C372.404 134.265 369.03 135.559 366.493 133.356C363.687 129.946 369.103 123.504 370.172 122.399Z" fill="#263238"/>
<path d="M370.319 122.406C369.533 122.72 368.704 122.914 367.861 122.981C367.522 123.016 367.181 122.959 366.871 122.817C366.562 122.675 366.296 122.453 366.102 122.174C365.759 121.501 365.62 120.743 365.702 119.993C365.745 119.164 365.833 118.299 365.963 117.404C365.41 118.135 365.018 118.975 364.815 119.869C364.675 120.351 364.632 120.857 364.688 121.356C364.744 121.855 364.898 122.338 365.142 122.777C365.46 123.234 365.909 123.583 366.429 123.781C366.929 123.944 367.466 123.964 367.977 123.839C368.889 123.62 369.709 123.119 370.319 122.406Z" fill="#263238"/>
<path d="M352.89 145.352L389.708 170.995C389.708 170.995 367.715 216.56 354.126 216.436C340.538 216.312 320.907 182.185 314.138 167.433C307.37 152.681 311.405 140.183 325.102 153.619C338.8 167.055 343.708 172.595 344.151 172.413C344.98 172.079 352.89 145.352 352.89 145.352Z" fill="white"/>
<path d="M389.707 170.995C389.707 170.995 374.439 202.593 361.505 213.092C358.909 215.2 356.415 216.458 354.125 216.429C340.537 216.312 320.906 182.177 314.101 167.433C309.891 158.301 309.855 150.035 313.679 148.253C316.042 147.155 319.859 148.508 325.072 153.641C338.886 167.171 343.67 172.609 344.121 172.428C344.979 172.079 352.896 145.36 352.896 145.36L389.707 170.995Z" fill="white"/>
<path d="M366.922 207.711C366.472 208.235 366.014 208.744 365.556 209.238C361.412 211.847 356.764 213.549 351.916 214.233C350.579 214.381 349.233 214.434 347.888 214.393L347.052 213.869C348.657 213.966 350.267 213.925 351.865 213.746C353.778 213.537 355.66 213.102 357.471 212.451L358.845 212.001L360.175 211.441C360.619 211.252 361.077 211.092 361.506 210.874L362.793 210.219C364.224 209.478 365.604 208.64 366.922 207.711ZM338.989 167.571C334.788 169.482 330.956 172.117 327.669 175.357C325.537 177.458 323.566 179.716 321.773 182.112C321.86 182.272 321.954 182.439 322.056 182.599C323.871 180.163 325.871 177.87 328.04 175.743C330.794 173.037 333.932 170.751 337.353 168.959L338.64 168.305C338.876 168.185 339.119 168.078 339.367 167.985L338.989 167.571ZM370.79 169.89C367.299 168.181 363.645 166.824 359.885 165.84C359.492 165.746 359.099 165.651 358.699 165.571C358.445 165.513 358.183 165.455 357.929 165.411C354.751 164.745 351.488 164.579 348.259 164.917C347.786 164.982 347.321 165.055 346.848 165.142C346.798 165.31 346.739 165.484 346.689 165.644C347.227 165.549 347.772 165.469 348.317 165.404C351.315 165.087 354.342 165.212 357.303 165.775L358.096 165.92C358.656 166.037 359.216 166.16 359.775 166.298C363.504 167.259 367.128 168.589 370.594 170.268C375.785 172.815 380.82 175.667 385.673 178.811C385.746 178.687 385.811 178.564 385.869 178.447C381.018 175.297 375.982 172.44 370.79 169.89ZM374.607 160.482C368.713 160.725 362.969 162.418 357.885 165.411L357.26 165.775C355.976 166.544 354.736 167.384 353.545 168.29C347.314 173.031 342.341 179.123 337.608 185.253C335.237 188.328 332.911 191.425 330.454 194.421C330.279 194.639 330.097 194.85 329.915 195.068L330.192 195.468C330.403 195.22 330.613 194.973 330.817 194.741C333.289 191.738 335.623 188.641 338 185.572C342.733 179.465 347.699 173.416 353.865 168.741C355.201 167.722 356.599 166.787 358.052 165.942C358.249 165.818 358.452 165.702 358.656 165.593C360.349 164.643 362.114 163.826 363.934 163.15L365.294 162.656C365.745 162.496 366.217 162.387 366.682 162.249L368.071 161.863L369.525 161.58C371.402 161.156 373.323 160.956 375.247 160.984H375.334L374.607 160.482ZM329.421 157.945C326.881 159.073 324.226 159.924 321.503 160.482L320.086 160.758C319.613 160.845 319.133 160.875 318.632 160.94L317.178 161.107L315.723 161.165C314.396 161.258 313.063 161.233 311.739 161.093L311.87 161.573C318.016 162.021 324.175 160.911 329.777 158.344C329.697 158.206 329.559 158.075 329.421 157.945ZM318.937 148.915C316.362 150.664 313.692 152.268 310.939 153.72C310.939 153.917 310.939 154.113 310.939 154.317C313.877 152.78 316.718 151.066 319.446 149.184C319.271 149.089 319.104 148.995 318.937 148.915Z" fill="white"/>
<path d="M381.006 175.27C380.031 174.463 379.05 173.678 378.061 172.893C376.054 171.308 374.048 169.73 372.041 168.16C368.042 165.041 363.956 162.031 359.841 159.072C357.507 157.385 355.21 155.611 352.803 154.033C352.792 154.025 352.779 154.018 352.765 154.015C352.751 154.011 352.737 154.011 352.723 154.013C352.708 154.015 352.695 154.019 352.682 154.027C352.67 154.034 352.659 154.044 352.651 154.055C352.642 154.067 352.636 154.08 352.632 154.093C352.629 154.107 352.628 154.122 352.63 154.136C352.632 154.15 352.637 154.164 352.644 154.176C352.651 154.188 352.661 154.199 352.673 154.208C354.585 155.895 356.635 157.436 358.62 159.043C360.605 160.649 362.575 162.263 364.589 163.834C368.593 166.946 372.645 169.997 376.745 172.987C377.887 173.831 379.014 174.718 380.199 175.51C380.802 175.917 381.376 176.368 381.987 176.761C382.598 177.153 383.252 177.488 383.848 177.931C383.862 177.939 383.878 177.942 383.893 177.939C383.909 177.936 383.923 177.927 383.932 177.915C383.942 177.903 383.947 177.887 383.946 177.872C383.946 177.856 383.939 177.841 383.928 177.83C382.932 176.994 382.002 176.085 381.006 175.27Z" fill="#263238"/>
<path d="M344.436 171.599C343.03 175.397 341.874 179.283 340.975 183.231C340.495 185.18 340.117 187.15 339.746 189.113C339.354 191.064 339.091 193.039 338.961 195.024C338.961 195.097 339.07 195.097 339.085 195.024C339.695 193.127 340.146 191.149 340.582 189.208C341.018 187.267 341.513 185.311 341.949 183.391C342.829 179.48 343.861 175.605 344.625 171.671C344.629 171.659 344.632 171.646 344.631 171.632C344.631 171.619 344.628 171.606 344.623 171.594C344.617 171.582 344.61 171.571 344.6 171.562C344.59 171.552 344.579 171.545 344.567 171.54C344.554 171.536 344.541 171.533 344.528 171.534C344.514 171.534 344.501 171.537 344.489 171.542C344.477 171.548 344.466 171.556 344.457 171.565C344.448 171.575 344.44 171.586 344.436 171.599Z" fill="#263238"/>
<path opacity="0.1" d="M361.505 213.092C358.909 215.2 356.415 216.458 354.125 216.429C340.537 216.312 320.906 182.177 314.101 167.433C309.891 158.301 309.855 150.034 313.679 148.253L361.505 213.092Z" fill="black"/>
<path d="M340.426 246.325H252.038C251.064 244.537 265.547 167.12 295.356 145.316C301.972 140.481 313.707 143.593 316.964 148.297C333.366 171.933 340.426 246.325 340.426 246.325Z" fill="white"/>
<path d="M335.833 211.958C333.626 211.176 331.464 210.276 329.355 209.26C326.396 207.842 323.539 206.272 320.696 204.614L320.281 204.367C317.373 202.644 314.465 200.819 311.615 198.98L311.208 198.718L309.274 197.467C302.73 193.272 296.289 188.954 289.302 185.595C285.848 183.868 282.181 182.606 278.396 181.843C276.496 181.504 274.563 181.397 272.638 181.523C272.158 181.523 271.685 181.625 271.184 181.69C270.856 181.756 270.529 181.799 270.195 181.865C270.246 181.749 270.289 181.64 270.347 181.523C270.609 181.472 270.878 181.429 271.14 181.371C271.62 181.312 272.107 181.24 272.594 181.203C274.538 181.073 276.491 181.178 278.41 181.516C282.235 182.273 285.942 183.537 289.433 185.275C296.456 188.634 302.941 192.952 309.47 197.133L311.389 198.362L311.804 198.623C314.712 200.492 317.62 202.346 320.638 204.098L321.052 204.345C323.815 205.952 326.628 207.479 329.522 208.853C331.543 209.82 333.613 210.681 335.724 211.434L335.833 211.958ZM327.966 175.045L327.668 175.329C322.063 180.789 317.875 187.449 313.927 194.108C313.093 195.529 312.255 196.946 311.411 198.362C311.346 198.485 311.28 198.602 311.208 198.718C310.139 200.521 309.063 202.317 307.943 204.084C306.962 205.639 305.937 207.174 304.846 208.657C304.744 208.795 304.65 208.933 304.548 209.064C303.444 210.554 302.255 211.979 300.985 213.332C299.662 214.736 298.201 216.002 296.623 217.112L296.034 217.527C295.838 217.665 295.62 217.774 295.416 217.898L294.173 218.625C293.316 219.057 292.432 219.433 291.526 219.752C287.859 220.969 284.02 221.591 280.155 221.591C276.305 221.576 272.467 221.139 268.712 220.29C265.076 219.519 261.55 218.486 257.995 217.454C257.995 217.57 257.937 217.687 257.9 217.796C261.448 218.835 265.011 219.882 268.632 220.66C272.432 221.527 276.316 221.976 280.214 221.998C284.122 222 288.005 221.377 291.716 220.151C292.642 219.833 293.546 219.452 294.42 219.01L295.692 218.283C295.908 218.168 296.116 218.042 296.318 217.905L296.921 217.483C298.523 216.362 300.007 215.08 301.349 213.659C302.702 212.21 303.97 210.683 305.144 209.086C305.253 208.948 305.348 208.817 305.442 208.679C306.475 207.268 307.449 205.821 308.35 204.353C309.477 202.586 310.532 200.79 311.622 198.994L311.833 198.638L314.356 194.377C318.311 187.725 322.499 181.123 328.046 175.729L328.141 175.641C328.075 175.431 328.017 175.234 327.966 175.045ZM332.161 192.313C331.601 193.04 331.034 193.723 330.46 194.421C328.053 197.447 325.363 200.237 322.426 202.753C321.844 203.211 321.263 203.669 320.659 204.098L320.281 204.367C319.44 204.961 318.558 205.495 317.642 205.967L317.01 206.308C316.799 206.425 316.566 206.505 316.348 206.606L315.025 207.174C314.123 207.499 313.2 207.764 312.262 207.966C310.008 208.449 307.71 208.692 305.406 208.693H304.846C303.479 208.693 302.112 208.584 300.753 208.439C296.916 207.956 293.144 207.051 289.505 205.741C285.87 204.483 282.286 202.935 278.723 201.379C275.177 199.775 271.535 198.393 267.817 197.242C266.72 196.929 265.636 196.653 264.473 196.45L264.364 196.762C265.498 196.973 266.625 197.242 267.723 197.562C271.419 198.717 275.039 200.101 278.563 201.706C282.126 203.24 285.688 204.796 289.36 206.068C293.03 207.389 296.833 208.306 300.702 208.802C301.981 208.948 303.261 209.042 304.541 209.064C304.73 209.064 304.911 209.064 305.1 209.064C307.542 209.103 309.98 208.874 312.371 208.38C313.327 208.169 314.269 207.9 315.192 207.573L316.544 206.992C316.77 206.89 316.995 206.81 317.213 206.694L317.86 206.345C318.853 205.839 319.806 205.258 320.71 204.607L321.088 204.338C321.641 203.938 322.186 203.516 322.724 203.088C325.69 200.561 328.407 197.757 330.838 194.712C331.323 194.116 331.808 193.512 332.292 192.902C332.249 192.713 332.205 192.509 332.161 192.313ZM323.03 160.141C322.521 160.264 322.012 160.381 321.503 160.482L320.085 160.759C319.612 160.846 319.133 160.875 318.631 160.94L317.177 161.108L315.723 161.166C313.803 161.29 311.875 161.188 309.979 160.86C307.005 160.346 304.123 159.393 301.429 158.032L300.702 157.676C300.193 157.414 299.691 157.138 299.197 156.854C295.869 154.9 292.746 152.616 289.876 150.035L289.556 150.355C292.453 152.963 295.602 155.277 298.957 157.262C299.306 157.465 299.684 157.661 300.018 157.85L300.745 158.214C303.62 159.722 306.71 160.779 309.906 161.348C314.337 161.969 318.846 161.723 323.182 160.621C323.153 160.461 323.088 160.301 323.03 160.141ZM317.853 149.635C313.992 152.225 309.871 154.405 305.559 156.142C303.995 156.751 302.394 157.264 300.767 157.676L300.084 157.85C298.194 158.29 296.274 158.589 294.34 158.745L292.886 158.839C292.406 158.876 291.926 158.839 291.432 158.839H289.978L288.524 158.723C286.772 158.622 285.037 158.332 283.347 157.858C283.245 157.996 283.144 158.134 283.049 158.279C288.856 159.738 294.935 159.715 300.731 158.214L301.458 158.032C302.908 157.648 304.336 157.182 305.733 156.636C310.068 154.888 314.21 152.695 318.093 150.093L317.853 149.635ZM339.599 238.72C338.872 238.72 338.087 238.786 337.331 238.807H337.272L336.829 238.844C333.103 239.234 329.482 240.311 326.149 242.021C323.764 243.267 321.485 244.706 319.336 246.325H319.794C321.845 244.807 324.013 243.455 326.279 242.283C329.642 240.566 333.297 239.498 337.054 239.135H337.323H337.498C338.225 239.135 338.908 239.055 339.606 239.062C339.621 238.931 339.614 238.829 339.599 238.72ZM339.977 242.065C339.187 241.061 338.37 240.075 337.527 239.106C337.447 239.004 337.36 238.909 337.272 238.815L336.974 238.466C334.434 235.505 331.513 232.894 328.286 230.701C326.649 229.633 324.886 228.771 323.037 228.134C322.579 227.982 322.099 227.851 321.634 227.72C321.168 227.589 320.681 227.487 320.18 227.422C319.22 227.24 318.238 227.226 317.271 227.131C313.362 226.988 309.463 227.608 305.791 228.956C302.153 230.339 298.679 232.119 295.431 234.263C289.614 238.008 284.314 242.414 278.65 246.325H278.89C284.525 242.479 289.796 238.153 295.554 234.489C298.79 232.36 302.253 230.597 305.878 229.232C309.514 227.901 313.374 227.291 317.242 227.436C318.195 227.538 319.169 227.553 320.114 227.735C320.594 227.8 321.052 227.938 321.525 228.033C321.997 228.127 322.455 228.287 322.906 228.44C324.728 229.071 326.464 229.925 328.075 230.984C331.274 233.163 334.167 235.76 336.676 238.706C336.72 238.757 336.764 238.8 336.8 238.851L337.054 239.135C338.072 240.32 339.068 241.527 340.028 242.77C340.035 242.537 340.006 242.312 339.963 242.065H339.977Z" fill="white"/>
<path d="M283.622 154.804C265.628 175.619 241.373 212.386 251.283 220.515C267.576 233.878 315.161 241.599 326.082 242.893C330.793 243.46 340.23 212.662 337.082 208.678C333.934 204.694 283.622 201.88 283.28 198.79C283.084 197.038 290.725 181.799 295.64 163.107C301.289 141.557 288.69 148.936 283.622 154.804Z" fill="#AD6359"/>
<path d="M328.838 206.141C328.838 206.141 343.277 206.032 352.722 206.403C357.993 206.606 366.994 207.77 370.796 209.696C376.482 212.568 398.424 228.236 394.745 233.638C391.408 238.524 374.264 222.674 374.264 222.674C374.264 222.674 392.979 237.142 387.882 242.304C382.785 247.466 365.794 226.978 365.794 226.978C365.794 226.978 384.698 242.246 378.598 246.754C373.988 250.135 357.557 232.453 357.557 232.453C357.557 232.453 373.705 245.707 369.117 249.393C364.028 253.465 347.851 238.095 347.851 238.095C334.618 245.496 325.312 243.606 318.769 241.476C317.235 240.93 328.838 206.141 328.838 206.141Z" fill="#AD6359"/>
<path d="M368.113 217.258C370.375 218.879 372.672 220.5 374.781 222.347C376.889 224.194 378.932 226.048 380.866 228.054C385.599 232.969 387.795 236.779 387.627 236.561C383.818 231.333 376.373 224.724 374.264 222.907C372.156 221.089 370.142 219.177 368.041 217.367C367.99 217.287 368.063 217.221 368.113 217.258Z" fill="#263238"/>
<path d="M361.423 224.754C364.215 226.935 367.072 229.014 369.77 231.333C372.467 233.653 376.117 236.997 378.64 239.484C378.829 239.673 378.64 240.036 378.436 239.854C375.819 237.47 371.929 234.212 369.283 231.857C366.636 229.501 364.084 227.051 361.365 224.804C361.321 224.797 361.38 224.717 361.423 224.754Z" fill="#263238"/>
<path d="M326.809 205.683C333.396 205.639 352.743 205.588 359.316 206.097C365.132 206.541 369.923 207.791 374.802 211.019C385.271 217.941 392.018 226.069 393.705 228.468C394.723 229.923 396.199 232.271 394.854 233.9C393.203 235.877 387.133 233.943 380.727 228.149C380.495 227.938 380.64 227.807 380.88 228.003C389.874 235.274 393.451 234.445 394.389 233.202C394.999 232.395 394.389 231.02 393.865 229.93C392.989 228.386 391.919 226.962 390.681 225.691C386.549 221.272 381.979 217.284 377.041 213.789C371.75 209.84 365.447 207.473 358.865 206.962C352.132 206.41 333.505 206.584 326.78 205.937C326.642 205.894 326.664 205.69 326.809 205.683Z" fill="#263238"/>
<path d="M329.057 204.272L311.761 243.533C311.761 243.533 251.314 229.886 247.809 218.413C244.305 206.941 263.245 176.245 280.338 157.079C297.147 138.249 299.634 151.023 295.453 165.586C291.273 180.149 284.416 196.936 285.18 198.194C285.943 199.452 329.057 204.272 329.057 204.272Z" fill="white"/>
<path d="M289.068 185.1C289.025 185.209 288.988 185.325 288.945 185.434C285.587 183.783 282.028 182.576 278.359 181.843C276.46 181.504 274.526 181.397 272.601 181.523C272.121 181.523 271.648 181.625 271.147 181.69C270.645 181.756 270.201 181.836 269.736 181.966C268.791 182.17 267.897 182.534 266.973 182.817C263.411 184.173 260.142 186.202 257.347 188.793L257.805 188.001C260.472 185.647 263.54 183.792 266.864 182.526C267.795 182.235 268.704 181.865 269.663 181.661C270.136 181.53 270.623 181.472 271.118 181.37C271.612 181.268 272.085 181.239 272.572 181.203C274.516 181.072 276.469 181.177 278.388 181.516C282.089 182.241 285.679 183.446 289.068 185.1ZM321.059 204.345L320.644 204.098L318.987 203.116L317.983 203C318.71 203.458 319.503 203.923 320.266 204.367L320.681 204.614C322.862 205.886 325.043 207.108 327.282 208.249L327.457 207.849C325.305 206.737 323.174 205.566 321.059 204.345ZM309.259 201.939C308.822 202.666 308.379 203.393 307.928 204.083C306.947 205.639 305.921 207.173 304.831 208.656C304.729 208.795 304.635 208.933 304.533 209.064C303.429 210.554 302.24 211.979 300.97 213.331C299.647 214.735 298.186 216.002 296.608 217.112L296.019 217.526C295.823 217.665 295.605 217.774 295.401 217.897L294.158 218.624C293.301 219.057 292.417 219.433 291.511 219.751C287.844 220.969 284.005 221.59 280.14 221.591C276.294 221.574 272.462 221.138 268.711 220.289C264.923 219.482 261.208 218.384 257.478 217.301C254.17 216.341 250.84 215.374 247.438 214.742C247.438 214.858 247.438 214.975 247.438 215.084C250.804 215.716 254.097 216.69 257.391 217.643C261.113 218.733 264.843 219.824 268.646 220.66C272.446 221.527 276.33 221.976 280.227 221.998C284.135 222 288.019 221.376 291.729 220.151C292.656 219.833 293.56 219.451 294.434 219.01L295.706 218.283C295.921 218.168 296.13 218.042 296.332 217.905L296.935 217.483C298.537 216.362 300.02 215.08 301.363 213.659C302.716 212.21 303.984 210.683 305.158 209.085C305.267 208.947 305.362 208.816 305.456 208.678C306.489 207.268 307.463 205.821 308.364 204.352C308.859 203.582 309.339 202.796 309.818 202.018L309.259 201.939ZM321.56 203.393C321.262 203.625 320.957 203.858 320.644 204.076L320.266 204.345C319.425 204.939 318.543 205.473 317.627 205.945L316.994 206.286C316.784 206.403 316.551 206.483 316.333 206.584L315.01 207.151C314.107 207.477 313.184 207.742 312.247 207.944C309.993 208.427 307.695 208.67 305.391 208.671H304.831C303.464 208.671 302.097 208.562 300.738 208.417C296.901 207.933 293.129 207.029 289.49 205.719C285.855 204.461 282.27 202.913 278.708 201.357C275.162 199.753 271.52 198.371 267.802 197.22C264.072 196.151 260.095 195.57 256.235 196.326C255.007 196.573 253.818 196.986 252.701 197.554C252.629 197.7 252.556 197.852 252.491 197.998C253.685 197.361 254.966 196.9 256.293 196.631C260.088 195.904 264.014 196.471 267.708 197.54C271.404 198.695 275.024 200.079 278.548 201.684C282.111 203.218 285.673 204.774 289.345 206.046C293.019 207.375 296.827 208.299 300.701 208.802C301.981 208.947 303.26 209.042 304.54 209.064C304.729 209.064 304.911 209.064 305.1 209.064C307.541 209.103 309.979 208.874 312.37 208.38C313.326 208.169 314.268 207.899 315.191 207.573L316.544 206.992C316.769 206.89 316.994 206.81 317.213 206.693L317.86 206.344C318.852 205.838 319.805 205.258 320.71 204.607L321.088 204.338C321.466 204.061 321.815 203.771 322.222 203.48L321.56 203.393ZM289.905 149.998C289.592 149.722 289.287 149.453 288.981 149.169L288.589 149.424L289.606 150.332C291.973 152.452 294.501 154.385 297.168 156.113C297.168 155.931 297.168 155.749 297.168 155.575C294.616 153.907 292.193 152.05 289.919 150.02L289.905 149.998ZM294.325 158.723L292.871 158.817C292.391 158.853 291.911 158.817 291.417 158.817H289.963L288.509 158.701C286.586 158.586 284.683 158.249 282.838 157.697C282.031 157.458 281.231 157.181 280.446 156.861L280.271 157.058L280.104 157.247C280.951 157.602 281.818 157.91 282.699 158.17C287.304 159.4 292.113 159.667 296.826 158.955C296.826 158.774 296.877 158.599 296.906 158.417C296.099 158.577 295.219 158.679 294.34 158.744L294.325 158.723ZM317.271 227.109C313.36 226.973 309.461 227.6 305.791 228.956C302.153 230.339 298.678 232.119 295.43 234.263C293.612 235.441 291.838 236.677 290.086 237.949L290.37 238.029C292.071 236.801 293.794 235.615 295.561 234.489C298.797 232.359 302.26 230.596 305.885 229.232C309.52 227.901 313.38 227.291 317.249 227.436C317.751 227.487 318.252 227.516 318.754 227.56L318.892 227.254C318.376 227.211 317.823 227.182 317.285 227.131L317.271 227.109Z" fill="white"/>
<path d="M304.824 237.04C305.413 235.921 305.98 234.801 306.547 233.674C307.686 231.391 308.82 229.103 309.95 226.811C312.189 222.259 314.312 217.65 316.355 212.997C317.526 210.365 318.798 207.762 319.852 205.079C319.865 205.052 319.866 205.021 319.856 204.993C319.845 204.965 319.825 204.943 319.798 204.93C319.771 204.918 319.74 204.916 319.712 204.927C319.684 204.937 319.661 204.958 319.649 204.985C318.391 207.202 317.3 209.521 316.137 211.797C314.974 214.073 313.788 216.327 312.669 218.624C310.439 223.175 308.277 227.763 306.184 232.387C305.595 233.681 304.955 234.961 304.424 236.284C304.148 236.96 303.828 237.615 303.559 238.298C303.29 238.982 303.086 239.679 302.832 240.356C302.828 240.363 302.827 240.371 302.826 240.378C302.826 240.386 302.827 240.394 302.83 240.402C302.833 240.409 302.837 240.416 302.842 240.422C302.847 240.428 302.854 240.432 302.861 240.436C302.868 240.439 302.876 240.441 302.884 240.441C302.892 240.442 302.9 240.44 302.907 240.438C302.914 240.435 302.921 240.431 302.927 240.425C302.933 240.42 302.938 240.414 302.941 240.407C303.53 239.28 304.221 238.189 304.824 237.04Z" fill="#263238"/>
<path d="M313.06 240.836L311.846 243.584L311.809 243.671H311.693C305.971 242.61 300.285 241.337 294.636 239.92C288.987 238.502 283.382 236.895 277.834 235.107C272.267 233.347 266.807 231.264 261.483 228.868C258.811 227.667 256.231 226.272 253.762 224.695C252.53 223.892 251.365 222.99 250.279 221.998C249.159 221.038 248.301 219.81 247.785 218.428C248.428 219.725 249.367 220.854 250.526 221.722C251.674 222.603 252.892 223.389 254.169 224.07C256.694 225.474 259.301 226.724 261.977 227.814C267.321 230.032 272.81 231.922 278.329 233.696C283.847 235.47 289.416 237.12 295 238.705C300.584 240.29 306.189 241.861 311.802 243.366L311.657 243.439L313.06 240.836Z" fill="#263238"/>
<path d="M328.366 205.799L328.969 204.236L329.035 204.345C322.971 203.945 316.915 203.458 310.858 202.825C304.802 202.193 298.782 201.502 292.762 200.601C291.257 200.368 289.752 200.121 288.247 199.83C287.52 199.677 286.742 199.532 285.964 199.314C285.768 199.256 285.579 199.197 285.368 199.117C285.247 199.078 285.13 199.027 285.019 198.965C284.934 198.919 284.854 198.866 284.779 198.805C284.701 198.739 284.634 198.66 284.583 198.572C284.553 198.515 284.526 198.457 284.503 198.398C284.499 198.369 284.499 198.339 284.503 198.31C284.474 198.034 284.488 197.754 284.546 197.482C284.583 197.285 284.619 197.074 284.67 196.893C285.441 193.875 286.415 191.025 287.404 188.168C289.381 182.417 291.533 176.739 293.802 171.097C292.05 176.913 290.254 182.73 288.465 188.546C287.607 191.454 286.662 194.363 286.001 197.271C285.957 197.453 285.935 197.62 285.899 197.794C285.862 197.969 285.899 198.172 285.862 198.1C285.854 198.061 285.84 198.024 285.819 197.991C285.819 197.918 285.688 197.845 285.717 197.86C285.681 197.86 285.746 197.874 285.717 197.86L285.899 197.932L286.379 198.085C287.106 198.274 287.833 198.412 288.56 198.558C290.014 198.827 291.533 199.059 293.024 199.285C296.019 199.735 299.02 200.16 302.025 200.557L311.047 201.771C317.06 202.571 323.073 203.429 329.086 204.309H329.195L329.151 204.403L328.366 205.799Z" fill="#263238"/>
<path d="M294.45 174.819C294.023 175.845 293.485 176.82 292.843 177.728C292.241 178.656 291.506 179.491 290.662 180.207C291.215 179.24 291.804 178.324 292.429 177.415C293.036 176.5 293.711 175.632 294.45 174.819Z" fill="#263238"/>
<path d="M312.065 161.391C306.932 162.845 297.684 155.334 293.888 149.075C293.627 148.646 294.659 130.964 294.499 127.438C294.499 126.71 316.849 131.8 316.849 131.8C316.849 131.8 315.009 139.288 315.329 145.432C315.351 145.956 317.016 159.98 312.065 161.391Z" fill="#AD6359"/>
<path d="M294.158 138.511C304.62 145.897 314.814 143.062 315.243 142.931C315.415 139.183 315.933 135.459 316.791 131.807C316.791 131.807 294.398 126.718 294.434 127.445C294.565 129.095 294.384 133.865 294.158 138.511Z" fill="#263238"/>
<path d="M316.739 117.237C317.314 122.458 321.494 126.282 326.067 125.773C330.641 125.264 333.891 120.633 333.338 115.42C332.785 110.207 328.59 106.375 324.01 106.884C319.429 107.393 316.165 112.024 316.739 117.237Z" fill="#455A64"/>
<path d="M314.093 117.863C314.733 123.679 319.379 127.918 324.468 127.358C329.557 126.798 333.193 121.643 332.531 115.834C331.869 110.025 327.253 105.779 322.156 106.339C317.059 106.899 313.453 112.061 314.093 117.863Z" fill="#C7C7C7"/>
<path d="M291.402 100.871C288.959 108.709 292.965 131.407 298.512 136.497C306.561 143.876 319.807 144.654 326.089 134.97C332.182 125.576 326.438 96.0945 320.229 91.4632C311.09 84.6289 295.008 89.3039 291.402 100.871Z" fill="#AD6359"/>
<path d="M310.263 115.121C310.263 115.071 310.161 115.216 310.176 115.281C310.51 116.794 310.649 118.589 309.369 119.36C309.325 119.36 309.369 119.462 309.369 119.44C311.034 118.88 310.83 116.503 310.263 115.121Z" fill="#263238"/>
<path d="M308.597 113.791C306.111 114.075 306.86 119.033 309.164 118.771C311.469 118.51 310.684 113.558 308.597 113.791Z" fill="#263238"/>
<path d="M319.088 113.929C319.088 113.871 319.219 113.987 319.226 114.052C319.408 115.594 319.88 117.324 321.342 117.63C321.385 117.63 321.4 117.717 321.342 117.717C319.604 117.731 319.015 115.419 319.088 113.929Z" fill="#263238"/>
<path d="M320.215 112.104C322.658 111.544 323.596 116.466 321.334 116.99C319.073 117.513 318.15 112.591 320.215 112.104Z" fill="#263238"/>
<path d="M306.297 111.82C306.921 111.533 307.528 111.21 308.115 110.853C308.802 110.602 309.387 110.132 309.78 109.516C309.865 109.297 309.875 109.057 309.81 108.832C309.744 108.607 309.606 108.41 309.416 108.272C309.003 108.055 308.538 107.953 308.072 107.976C307.605 107.999 307.153 108.147 306.763 108.403C305.886 108.798 305.189 109.506 304.807 110.388C304.73 110.594 304.716 110.818 304.765 111.032C304.814 111.246 304.924 111.441 305.082 111.593C305.241 111.745 305.44 111.848 305.656 111.888C305.872 111.929 306.095 111.905 306.297 111.82Z" fill="#263238"/>
<path d="M321.785 109.334C321.098 109.3 320.413 109.23 319.734 109.123C319.004 109.151 318.286 108.936 317.691 108.512C317.528 108.343 317.426 108.123 317.401 107.889C317.376 107.655 317.429 107.419 317.553 107.218C317.858 106.863 318.251 106.594 318.692 106.44C319.134 106.285 319.609 106.25 320.069 106.339C321.028 106.378 321.938 106.775 322.621 107.451C322.767 107.613 322.863 107.813 322.898 108.029C322.932 108.244 322.904 108.465 322.815 108.664C322.726 108.864 322.582 109.033 322.399 109.152C322.216 109.271 322.003 109.334 321.785 109.334Z" fill="#263238"/>
<path d="M311.106 129.51C311.527 129.815 311.971 130.237 312.56 130.237C313.129 130.141 313.672 129.925 314.152 129.605C314.161 129.594 314.173 129.587 314.187 129.586C314.201 129.584 314.214 129.589 314.225 129.597C314.235 129.606 314.242 129.618 314.244 129.632C314.245 129.646 314.241 129.659 314.232 129.67C314.06 130.006 313.798 130.289 313.477 130.488C313.155 130.687 312.785 130.793 312.407 130.797C312.082 130.764 311.775 130.635 311.524 130.427C311.272 130.218 311.089 129.939 310.997 129.626C310.931 129.554 311.04 129.466 311.106 129.51Z" fill="#263238"/>
<path d="M312.022 124.675C312.504 125.223 313.093 125.665 313.754 125.974C314.414 126.283 315.132 126.452 315.861 126.471C316.499 126.496 317.138 126.43 317.758 126.275C317.878 126.253 317.995 126.219 318.107 126.173C318.218 126.144 318.327 126.111 318.435 126.071C318.514 126.044 318.583 125.992 318.63 125.922C318.677 125.853 318.701 125.77 318.696 125.686C318.692 125.633 318.68 125.582 318.66 125.533V125.402C318.507 124.217 318.122 122.436 318.122 122.436C318.587 122.588 320.943 123.243 320.812 122.632C319.736 117.543 318.536 111.93 316.392 107.124C316.377 107.092 316.352 107.067 316.32 107.053C316.288 107.038 316.252 107.035 316.219 107.045C316.185 107.055 316.157 107.076 316.138 107.105C316.119 107.134 316.111 107.17 316.115 107.204C316.959 112.112 318.66 116.837 319.591 121.745C318.752 121.499 317.883 121.374 317.01 121.374C316.85 121.447 317.817 124.799 317.838 125.337C317.843 125.356 317.843 125.376 317.838 125.395C315.89 125.947 314.305 125.577 312.175 124.537C312.015 124.464 311.913 124.566 312.022 124.675Z" fill="#263238"/>
<path d="M316.965 125.78C316.448 126.721 315.697 127.512 314.784 128.077C314.275 128.368 313.688 128.494 313.105 128.441C311.832 128.303 311.65 127.183 311.709 126.187C311.757 125.657 311.867 125.135 312.036 124.631C313.515 125.529 315.242 125.931 316.965 125.78Z" fill="#263238"/>
<path d="M314.776 128.099C314.267 128.389 313.681 128.516 313.097 128.463C311.824 128.325 311.643 127.205 311.701 126.209C313.06 126.122 314.471 126.82 314.776 128.099Z" fill="#FF99BA"/>
<path opacity="0.2" d="M295.124 108.934C294.229 111.188 292.39 116.481 291.343 116.852C290.347 109.494 290.311 102.82 292.135 98.7191C292.89 97.0255 293.95 95.4852 295.262 94.175C295.414 96.1454 296.076 106.579 295.124 108.934Z" fill="#263238"/>
<path d="M314.79 98.4137C314.168 99.4927 313.279 100.394 312.208 101.03C311.137 101.667 309.921 102.018 308.676 102.049C307.408 102.082 306.153 101.791 305.03 101.203C303.906 100.615 302.951 99.7503 302.256 98.69C302.252 98.6833 302.247 98.6775 302.241 98.6728C302.235 98.6681 302.228 98.6646 302.221 98.6626C302.213 98.6605 302.205 98.66 302.198 98.661C302.19 98.6619 302.183 98.6644 302.176 98.6682C302.169 98.672 302.163 98.6771 302.159 98.6832C302.154 98.6893 302.151 98.6963 302.149 98.7037C302.147 98.7111 302.146 98.7189 302.147 98.7265C302.148 98.7341 302.15 98.7415 302.154 98.7482C302.787 99.9315 303.73 100.919 304.884 101.605C306.037 102.291 307.356 102.648 308.698 102.638C310.012 102.564 311.284 102.145 312.385 101.424C313.486 100.703 314.379 99.705 314.972 98.5301C314.988 98.506 314.993 98.4767 314.987 98.4488C314.98 98.4208 314.963 98.3965 314.939 98.381C314.915 98.3656 314.886 98.3604 314.858 98.3665C314.83 98.3727 314.806 98.3896 314.79 98.4137Z" fill="#263238"/>
<path d="M329.959 86.7154C328.911 84.7835 327.214 83.2845 325.167 82.484C322.332 81.3644 319.489 82.1132 316.675 82.9202C316.66 82.9202 316.645 82.9264 316.634 82.9373C316.623 82.9482 316.617 82.963 316.617 82.9784C316.617 82.9938 316.623 83.0086 316.634 83.0195C316.645 83.0304 316.66 83.0366 316.675 83.0366C319.067 82.3604 321.539 81.8151 323.982 82.5567C326.004 83.1616 327.756 84.4456 328.941 86.192C330.097 88.0003 330.563 90.1644 330.255 92.2884C329.946 94.4123 328.884 96.3544 327.261 97.7593C326.305 98.544 325.198 99.1249 324.009 99.4662C322.82 99.8076 321.574 99.9022 320.347 99.7442C320.252 99.7442 320.209 99.8751 320.311 99.8896C321.981 100.173 323.697 99.985 325.266 99.3469C326.835 98.7088 328.195 97.6458 329.194 96.2773C330.192 94.9088 330.789 93.2891 330.918 91.6C331.047 89.9109 330.702 88.2194 329.922 86.7154H329.959Z" fill="#263238"/>
<path d="M290.741 105.401C290.741 105.401 285.485 98.6465 288.03 93.768C289.484 90.998 295.744 90.2345 295.744 90.2345C295.744 90.2345 297.198 87.0283 302.149 84.9489C307.1 82.8695 313.782 84.091 313.782 84.091C313.782 84.091 318.224 80.3976 323.313 82.2297C330.409 84.7889 331.311 94.7568 325.378 99.0464C321.205 102.064 314.312 99.1118 314.312 99.1118C313.731 99.2936 308.278 104.034 302.723 99.4027C302.723 99.4027 299.561 103.387 295.787 101.642C295.43 102.709 294.755 103.64 293.853 104.312C292.951 104.984 291.866 105.364 290.741 105.401Z" fill="#263238"/>
<path d="M296.136 119.375C296.136 119.375 290.909 112.104 287.608 113.987C284.307 115.87 288.335 126.434 292.232 127.801C292.722 128.016 293.249 128.131 293.784 128.137C294.319 128.143 294.849 128.042 295.343 127.838C295.837 127.634 296.286 127.333 296.66 126.952C297.035 126.571 297.33 126.118 297.525 125.62L296.136 119.375Z" fill="#AD6359"/>
<path d="M288.829 116.997C288.764 116.997 288.756 117.077 288.829 117.099C291.585 118.175 293.061 120.691 294.108 123.308C293.279 122.305 292.166 121.767 290.821 122.756C290.749 122.806 290.821 122.916 290.894 122.901C291.373 122.748 291.887 122.747 292.367 122.896C292.847 123.046 293.269 123.339 293.577 123.737C294.094 124.414 294.535 125.145 294.893 125.918C295.024 126.158 295.46 126.02 295.365 125.744V125.678C295.365 122.145 292.581 117.295 288.829 116.997Z" fill="#263238"/>
<path d="M291.781 114.286C291.781 114.286 288.953 103.016 291.156 96.1092C293.606 88.4316 302.847 80.9139 313.767 84.1056C313.767 84.1056 301.647 85.6688 295.758 95.7966C293.054 100.45 295.649 113.886 295.649 113.886L291.781 114.286Z" fill="#C7C7C7"/>
<path d="M303.517 118.08C304.622 123.897 301.401 129.379 296.312 130.353C291.222 131.327 286.191 127.445 285.079 121.628C283.966 115.812 287.194 110.33 292.284 109.356C297.373 108.382 302.404 112.279 303.517 118.08Z" fill="#C7C7C7"/>
<path d="M300.768 118.269C301.764 123.482 298.863 128.448 294.29 129.299C289.716 130.149 285.194 126.645 284.198 121.439C283.202 116.234 286.096 111.261 290.669 110.41C295.242 109.559 299.764 113.049 300.768 118.269Z" fill="#455A64"/>
<path d="M12.2793 246.325H101.459L83.6757 142.887H16.9906L12.2793 246.325Z" fill="#DBDBDB"/>
<path d="M12.2793 246.325H20.0951L24.4865 142.887H16.9906L12.2793 246.325Z" fill="#A6A6A6"/>
<path d="M65.1347 97.7735C56.8536 106.011 54.4761 119.585 54.4761 119.585C54.4761 119.585 46.5367 133.246 48.7542 140.669C49.3408 142.774 50.4291 144.705 51.9259 146.297C53.4227 147.889 55.2832 149.094 57.348 149.808L56.5627 145.708C56.5627 145.708 59.2238 150.979 68.1156 153.102C77.0074 155.225 88.7711 152.491 94.8928 149.394C98.5212 147.578 101.617 144.852 103.879 141.484L101.589 147.446C101.589 147.446 110.219 147.14 115.345 137.958C120.47 128.775 105.748 115.579 104.497 112.736C103.247 109.893 101.662 89.1798 79.872 92.7496C79.9011 92.6987 70.8638 92.1025 65.1347 97.7735Z" fill="#263238"/>
<path d="M54.2314 149.22C51.963 147.526 49.7237 145.584 48.4732 143.185C47.1096 140.698 46.6254 137.824 47.0991 135.028C47.7025 131.676 49.4693 128.717 51.1851 125.83C52.9009 122.944 54.9658 120.014 56.6889 116.982C56.7834 116.815 56.5289 116.677 56.4126 116.808C54.4766 119.081 52.6706 121.463 51.0033 123.94C49.2976 126.206 47.8629 128.663 46.7283 131.262C45.6678 133.655 45.3195 136.302 45.7249 138.888C46.1538 140.99 47.087 142.956 48.4441 144.617C50.0509 146.617 52.0794 147.896 54.1151 149.401C54.2314 149.496 54.355 149.314 54.2314 149.22Z" fill="#263238"/>
<path d="M117.216 128.462C114.598 120.835 107.764 115.993 103.569 109.341C101.315 105.742 99.5628 101.758 96.6256 98.6313C96.5456 98.5441 96.4002 98.6822 96.4729 98.7695C98.8867 101.583 100.283 104.971 102.028 108.221C103.887 111.419 106.059 114.425 108.513 117.193C112.832 122.37 118.001 128.499 117.012 135.747C116.554 139.092 114.576 142.8 111.145 143.839C111.014 143.883 111.094 144.101 111.225 144.043C112.578 143.5 113.807 142.686 114.835 141.652C115.864 140.619 116.672 139.386 117.208 138.03C118.365 134.946 118.367 131.548 117.216 128.462Z" fill="#263238"/>
<path d="M117.528 130.513C117.764 127.624 117.098 124.734 115.623 122.239C114.118 119.782 111.755 118.008 109.392 116.423C106.666 114.612 103.794 112.889 102.063 110.017C101.991 109.894 101.816 110.017 101.882 110.141C104.63 114.881 109.879 117.091 113.391 121.083C117.426 125.642 117.433 132.28 114.656 137.492C112.891 140.67 110.4 143.386 107.385 145.417C107.334 145.417 107.385 145.526 107.444 145.49C112.584 142.117 117.113 136.925 117.528 130.513Z" fill="#263238"/>
<path d="M84.579 165.259C106.645 177.371 133.059 192.574 149.243 188.997C156.419 187.412 188.642 145.17 190.009 140.284C191.179 136.089 162.003 119.2 158.745 122.508C153.249 128.055 138.388 159.29 136.207 159.813C134.026 160.336 115.5 156.578 96.2191 153.095C77.6648 149.765 69.2601 156.854 84.579 165.259Z" fill="#EB9481"/>
<path d="M186.872 145.548C189.387 142.378 199.653 126.834 201.536 121.868C203.419 116.902 207.825 102.238 204.176 100.391C200.526 98.5443 198.912 102.725 198.912 102.725C198.912 102.725 199.792 96.2323 195.945 94.7273C192.099 93.2223 189.773 99.8166 189.773 99.8166C189.773 99.8166 190.187 93.0841 186.239 91.8191C182.291 90.554 181.07 97.6355 181.07 97.6355C181.07 97.6355 181.739 91.4992 178.06 91.8191C173.64 92.248 173.698 103.706 171.197 109.028C170.63 110.235 157.957 132.716 157.957 132.716L186.872 145.548Z" fill="#EB9481"/>
<path d="M181.158 97.061C181.158 105.488 179.704 109.181 175.341 116.204C175.254 116.335 175.436 116.495 175.545 116.364C180.489 109.879 182.975 105.517 181.594 97.0392C181.499 96.6248 181.158 96.6612 181.158 97.061Z" fill="#263238"/>
<path d="M189.728 99.1549C189.001 107.88 187.446 111.922 183.367 119.621C183.309 119.73 183.49 119.84 183.556 119.73C188.187 112.518 190.572 108.098 190.165 99.264C190.187 98.8641 189.765 98.7551 189.728 99.1549Z" fill="#263238"/>
<path d="M198.665 103.11C197.334 111.53 195.837 116.008 190.922 122.973C190.909 122.989 190.899 123.007 190.893 123.027C190.887 123.046 190.885 123.067 190.887 123.087C190.89 123.107 190.896 123.127 190.905 123.145C190.915 123.163 190.928 123.179 190.944 123.192C190.959 123.204 190.977 123.214 190.997 123.22C191.016 123.226 191.037 123.228 191.057 123.226C191.077 123.224 191.097 123.218 191.115 123.208C191.133 123.199 191.149 123.185 191.162 123.17C196.869 116.554 198.781 110.984 198.919 103.176C198.912 102.652 198.752 102.58 198.665 103.11Z" fill="#263238"/>
<path d="M151.713 135.26C151.713 135.26 151.095 124.725 151.851 120.036C152.607 115.346 161.833 98.9005 165.468 100.689C170.201 103.008 166.741 113.551 164.37 118.495C164.37 118.495 175.32 123.831 174.476 131.938C173.633 140.044 151.713 135.26 151.713 135.26Z" fill="#EB9481"/>
<path d="M166.586 101.751C169.378 106.978 165.859 113.267 163.911 118.233C163.879 118.305 163.865 118.383 163.87 118.461C163.875 118.54 163.899 118.616 163.94 118.683C163.98 118.75 164.037 118.806 164.104 118.847C164.171 118.887 164.247 118.911 164.325 118.916C168.768 121.461 174.293 126.347 174.766 131.727C174.766 131.76 174.779 131.791 174.802 131.814C174.825 131.837 174.857 131.85 174.889 131.85C174.922 131.85 174.954 131.837 174.977 131.814C175 131.791 175.013 131.76 175.013 131.727C175.289 125.91 170.251 120.647 165.212 118.167C167.277 113.078 170.542 106.644 166.666 101.722C166.616 101.7 166.572 101.722 166.586 101.751Z" fill="#263238"/>
<path d="M130.955 158.09L104.395 180.352C104.395 180.352 88.1821 171.918 76.2076 162.227C64.2331 152.535 77.4945 147.824 98.0555 151.277C118.616 154.731 130.955 158.09 130.955 158.09Z" fill="white"/>
<path d="M99.495 162.561C98.7425 161.534 97.8712 160.599 96.8994 159.776C97.9749 162.088 99.5287 164.145 101.458 165.811C100.937 164.653 100.278 163.561 99.495 162.561ZM76.2294 162.241L76.5493 162.488C76.7601 162.263 76.971 162.023 77.1673 161.761C76.8328 161.914 76.5202 162.074 76.2148 162.27L76.2294 162.241ZM120.689 162.387C119.432 162.202 118.159 162.163 116.893 162.27C118.08 162.718 119.315 163.028 120.572 163.194C121.828 163.384 123.102 163.426 124.367 163.317C123.176 162.865 121.937 162.553 120.674 162.387H120.689ZM111.797 153.778C111.78 154.264 111.797 154.749 111.848 155.232C112.025 154.796 112.175 154.349 112.298 153.895L111.797 153.778Z" fill="white"/>
<path d="M98.4494 175.597C103.851 170.406 109.624 165.586 115.477 160.889C117.135 159.566 118.821 158.272 120.566 157.028C120.617 156.992 120.683 157.028 120.632 157.094C117.883 159.631 115.026 162.052 112.183 164.488C109.341 166.923 106.461 169.359 103.546 171.722C101.896 173.06 100.252 174.398 98.5802 175.699C98.4784 175.75 98.3839 175.663 98.4494 175.597Z" fill="#263238"/>
<path d="M115.678 170.893L104.387 180.344C104.387 180.344 88.1735 171.918 76.199 162.226C71.9457 158.787 70.877 155.981 72.1784 153.938L115.678 170.893Z" fill="#263238"/>
<path d="M110.214 246.238H25.5781C25.5781 246.238 43.9652 175.227 60.9855 155.233C61.3636 154.775 61.7562 154.338 62.1488 153.931C62.2287 153.837 62.3015 153.771 62.3814 153.691C63.699 152.284 65.233 151.096 66.9255 150.172C67.2236 150.012 67.5217 149.86 67.8343 149.729C74.3778 146.712 81.3138 149.213 86.3087 153.488C87.8936 154.84 105.837 178.207 107.393 187.085C108.767 194.944 103.46 203.385 103.46 203.385L110.214 246.238Z" fill="white"/>
<path d="M90.7773 200.346C87.1736 200.698 83.6012 201.317 80.0897 202.2C78.3447 202.665 76.6434 203.203 74.9349 203.778C74.0842 204.069 73.2336 204.33 72.3756 204.585C71.4824 204.875 70.5571 205.056 69.6201 205.123C69.6028 205.123 69.5861 205.13 69.5738 205.142C69.5616 205.154 69.5547 205.171 69.5547 205.188C69.5547 205.206 69.5616 205.222 69.5738 205.235C69.5861 205.247 69.6028 205.254 69.6201 205.254C70.5077 205.291 71.3969 205.267 72.2811 205.181C73.1325 205.074 73.9754 204.909 74.804 204.687C76.578 204.229 78.3229 203.698 80.0897 203.232C83.6522 202.287 87.2075 201.342 90.8282 200.651C90.8687 200.645 90.9048 200.622 90.9287 200.589C90.9526 200.555 90.9622 200.514 90.9554 200.473C90.9487 200.433 90.9261 200.397 90.8927 200.373C90.8593 200.349 90.8178 200.339 90.7773 200.346Z" fill="#263238"/>
<path d="M99.721 203.465C96.7467 203.179 93.7587 203.06 90.771 203.109C89.3169 203.145 87.7974 203.261 86.3069 203.414C85.5799 203.494 84.8528 203.581 84.184 203.676C83.5151 203.77 82.6426 203.988 81.8647 204.083C81.7847 204.083 81.7847 204.221 81.8647 204.214C82.5917 204.148 83.3551 204.214 84.0967 204.177L86.3288 204.097C87.7829 204.054 89.3024 204.017 90.7928 203.952C93.7738 203.828 96.7474 203.734 99.7283 203.705C99.8883 203.712 99.8737 203.479 99.721 203.465Z" fill="#263238"/>
<path d="M52.9401 171.925C52.5403 171.417 52.1331 170.915 51.6896 170.471L51.377 171.126C51.6678 171.576 51.9804 172.02 52.3003 172.449C53.0535 173.469 53.9248 174.396 54.8959 175.212C54.3652 174.049 53.7094 172.947 52.9401 171.925ZM62.7626 153.298C62.6145 154.434 62.5901 155.582 62.6899 156.723C63.1416 155.531 63.4468 154.288 63.5987 153.022C63.5987 152.833 63.6496 152.637 63.6714 152.448C63.3661 152.717 63.0607 153 62.7626 153.298ZM88.4493 176.957C87.9965 178.147 87.6842 179.387 87.5187 180.65C87.3355 181.909 87.294 183.184 87.3951 184.453C87.8516 183.264 88.1593 182.023 88.3112 180.759C88.5107 179.502 88.5571 178.225 88.4493 176.957ZM72.2724 217.904C71.8244 219.09 71.5169 220.325 71.3563 221.583C71.172 222.842 71.1329 224.118 71.24 225.385C72.1041 222.991 72.4559 220.443 72.2724 217.904ZM44.7754 186.99C44.3314 188.185 44.0241 189.426 43.8593 190.691C43.6742 191.947 43.6352 193.22 43.743 194.486C44.1879 193.294 44.4929 192.055 44.6518 190.792C44.8423 189.534 44.8838 188.258 44.7754 186.99ZM67.5321 181.799C66.2757 181.614 65.0022 181.575 63.7368 181.682C64.9237 182.13 66.1581 182.44 67.4157 182.606C68.6715 182.796 69.9454 182.838 71.2109 182.729C70.0281 182.269 68.7961 181.947 67.5393 181.77L67.5321 181.799ZM97.9809 216.697C96.7221 216.513 95.4462 216.474 94.1784 216.581C96.5724 217.445 99.1212 217.797 101.66 217.613C100.475 217.164 99.2435 216.852 97.9882 216.683L97.9809 216.697ZM41.1401 213.346C39.9053 213.167 38.6547 213.123 37.4103 213.215H37.3376H37.4031C38.5775 213.648 39.7969 213.948 41.0383 214.109C42.2947 214.293 43.5682 214.332 44.8335 214.225C43.6405 213.79 42.4011 213.495 41.1401 213.346ZM73.0722 243.365C71.8158 243.181 70.5423 243.142 69.277 243.249C71.673 244.115 74.225 244.464 76.7656 244.274C75.5634 243.83 74.3145 243.526 73.0431 243.365H73.0722ZM38.7263 239.687C37.4675 239.502 36.1916 239.463 34.9238 239.57C36.1114 240.013 37.3457 240.318 38.6027 240.479C39.8606 240.674 41.1377 240.713 42.4052 240.595C41.2083 240.151 39.964 239.846 38.6972 239.687H38.7263ZM73.901 163.724C72.8768 164.486 71.9426 165.362 71.1164 166.334C72.2765 165.807 73.3739 165.151 74.3881 164.379C75.4103 163.62 76.3379 162.741 77.1509 161.761C75.9987 162.294 74.9088 162.952 73.901 163.724ZM82.9601 202.643C81.9383 203.394 81.0107 204.266 80.1973 205.239C81.3539 204.714 82.4447 204.055 83.4472 203.276C84.4707 202.527 85.3985 201.655 86.21 200.68C85.0541 201.212 83.9636 201.876 82.9601 202.658V202.643ZM51.1952 226.432C50.1676 227.182 49.2371 228.056 48.4252 229.035C49.5774 228.502 50.6673 227.844 51.6751 227.072C52.6971 226.314 53.6311 225.443 54.4597 224.477C53.2925 224.992 52.1955 225.655 51.1952 226.447V226.432ZM103.95 192.21C103.197 191.183 102.326 190.248 101.354 189.426C102.43 191.737 103.984 193.794 105.913 195.46C105.391 194.307 104.732 193.221 103.95 192.225V192.21ZM93.1242 236.248C92.3657 235.225 91.4951 234.291 90.5287 233.463C91.0383 234.63 91.6956 235.727 92.4844 236.727C93.2356 237.751 94.107 238.681 95.08 239.498C94.5498 238.345 93.8939 237.256 93.1242 236.248ZM61.2503 201.611C60.4957 200.585 59.6247 199.651 58.6548 198.826C59.1703 199.992 59.8297 201.089 60.6178 202.091C61.3668 203.116 62.2385 204.047 63.2134 204.861C62.6839 203.707 62.0254 202.617 61.2503 201.611Z" fill="white"/>
<path d="M59.2533 155.785C42.9747 168.908 1.28558 220.914 10.6863 232.932C20.0871 244.95 82.5698 239.476 100.71 233.79C106.104 232.103 91.389 197.866 85.558 196.289C80.7013 194.973 53.7714 202.934 53.2479 201.378C52.659 199.619 59.9004 189.883 69.1049 168.792C79.7198 144.465 66.4439 149.99 59.2533 155.785Z" fill="#EB9481"/>
<path d="M114.967 193.431C127.407 194.886 130.38 197.147 141.526 192.784C148.84 189.927 153.806 193.366 148.455 199.539C139.73 209.637 123.27 211.171 117.417 210.037L114.967 193.431Z" fill="#EB9481"/>
<path d="M80.0742 196.725C80.0742 196.725 95.5095 192.734 108.916 192.952C118.193 193.104 138.333 195.685 152.001 219.758C155.244 225.465 155.818 235.906 147.13 228.483C140.965 223.226 138.645 218.028 134.501 215.621C134.501 215.621 133.651 228.977 127.805 232.009C122.692 234.652 117.398 236.929 111.963 238.821C111.387 237.906 110.872 236.954 110.421 235.971C110.421 235.971 104.692 238.283 95.8803 235.077L80.0742 196.725Z" fill="#EB9481"/>
<path d="M117.752 194.515C121.387 197.772 128.89 204.795 133.02 212.691C137.644 221.459 144.187 239.592 137.68 242.944C132.911 245.401 129.799 238.69 129.799 238.69C129.799 238.69 130.926 246.761 126.164 248.033C121.801 249.196 119.7 243.86 119.7 243.86C119.7 243.86 119.54 248.869 115.12 249.182C109.798 249.545 111.005 239.003 105.29 234.706C104.003 233.739 117.752 194.515 117.752 194.515Z" fill="#EB9481"/>
<path d="M122.971 216.072C125.879 219.707 130.321 229.595 129.943 238.56C129.943 238.763 129.776 238.865 129.747 238.676C128.383 230.913 126.081 223.345 122.891 216.138C122.882 216.127 122.878 216.113 122.879 216.1C122.881 216.086 122.887 216.074 122.898 216.065C122.908 216.056 122.922 216.052 122.936 216.053C122.949 216.055 122.962 216.062 122.971 216.072Z" fill="#263238"/>
<path d="M114.255 220.958C116.436 224.338 120.573 234.772 119.875 243.823C119.875 244.027 119.694 244.114 119.672 243.925C118.711 236.098 116.864 228.405 114.168 220.994C114.168 220.984 114.171 220.974 114.176 220.965C114.182 220.957 114.19 220.95 114.199 220.946C114.209 220.942 114.219 220.941 114.229 220.943C114.239 220.945 114.248 220.95 114.255 220.958Z" fill="#263238"/>
<path d="M134.524 215.563C138.159 217.744 140.188 220.311 142.892 223.459C144.214 225.035 145.622 226.538 147.109 227.96C148.476 229.232 150.49 231.144 152.54 230.235C153.682 229.726 153.994 228.359 154.089 227.225C154.178 225.95 153.992 224.671 153.543 223.474C153.543 223.415 153.631 223.372 153.653 223.437C154.099 224.493 154.393 225.607 154.525 226.745C154.698 227.815 154.543 228.913 154.081 229.893C152.947 231.9 150.33 231.522 148.687 230.468C147.715 229.795 146.811 229.028 145.989 228.178C145.182 227.385 144.412 226.556 143.663 225.713C142.129 223.968 140.696 222.143 139.184 220.391C137.702 218.72 136.114 217.146 134.429 215.68C134.364 215.621 134.451 215.52 134.524 215.563Z" fill="#263238"/>
<path d="M139.148 231.456C138.719 228.963 135.636 218.246 134.415 215.636C134.407 215.622 134.405 215.606 134.409 215.591C134.413 215.576 134.423 215.564 134.436 215.556C134.45 215.548 134.466 215.546 134.481 215.55C134.496 215.554 134.509 215.564 134.516 215.578C136.821 219.264 139.729 228.214 140.238 230.969C140.747 233.725 141.234 237.135 140.529 239.847C139.468 243.933 136.559 244.005 135.505 243.947C134.26 243.856 133.083 243.343 132.168 242.493C131.126 241.407 130.315 240.121 129.783 238.712C129.783 238.647 129.849 238.589 129.885 238.654C130.888 240.632 132.83 242.835 135.127 243.118C135.636 243.197 136.155 243.173 136.655 243.049C137.154 242.924 137.623 242.7 138.035 242.391C138.898 241.565 139.433 240.455 139.54 239.265C139.857 236.659 139.725 234.018 139.148 231.456Z" fill="#263238"/>
<path d="M28.7838 209.165C32.6704 207.289 36.6868 205.695 40.802 204.396C44.8742 203.122 49.0344 202.15 53.2491 201.487C55.6556 201.088 58.0694 200.804 60.5196 200.506C60.5923 200.506 60.6068 200.608 60.5196 200.615C56.2847 201.3 52.0924 202.228 47.9634 203.392C43.8532 204.512 39.7671 205.707 35.7054 206.977C33.4079 207.704 31.1395 208.518 28.8638 209.31C28.7838 209.369 28.7111 209.216 28.7838 209.165Z" fill="#263238"/>
<path d="M25.2422 187.361L59.6971 191.105C59.6971 191.105 68.4871 175.11 73.0603 160.372C77.6334 145.635 64.6483 148.5 49.4748 162.786C34.3012 177.073 25.2422 187.361 25.2422 187.361Z" fill="white"/>
<path d="M25.2422 187.361L59.6971 191.105C59.6971 191.105 68.4871 175.11 73.0603 160.372C77.6334 145.635 64.6483 148.5 49.4748 162.786C34.3012 177.073 25.2422 187.361 25.2422 187.361Z" fill="white"/>
<path d="M62.8208 152.819C62.8244 152.855 62.8244 152.891 62.8208 152.928C62.6363 154.186 62.5973 155.462 62.7045 156.73C63.1562 155.538 63.4614 154.295 63.6133 153.029C63.6133 152.811 63.6715 152.6 63.6933 152.382L62.8208 152.819ZM44.7754 186.99C44.4599 187.783 44.2165 188.603 44.0484 189.44L44.7754 189.513C44.8553 188.674 44.8553 187.829 44.7754 186.99ZM32.8227 179.232L32.4883 179.581C32.8663 179.581 33.2153 179.581 33.6298 179.516C33.3535 179.407 33.0917 179.312 32.8227 179.232ZM63.7442 181.653C63.9478 181.733 64.1586 181.813 64.3694 181.879C64.4071 181.784 64.4508 181.692 64.5003 181.602C64.2531 181.61 63.9986 181.624 63.7442 181.653ZM52.9402 171.925C52.1817 170.903 51.3111 169.969 50.3446 169.141C50.8559 170.31 51.513 171.409 52.3004 172.413C53.0536 173.433 53.9249 174.36 54.896 175.175C54.363 174.025 53.7072 172.935 52.9402 171.925Z" fill="white"/>
<path d="M58.3 190.785C58.4891 190.785 59.7541 190.785 59.7541 190.785C59.9068 190.342 62.8732 183.515 63.6002 182.061C65.098 179.072 66.7702 176.164 68.3988 173.249C68.4497 173.154 68.5951 173.249 68.5442 173.314C67.3954 175.859 66.2903 178.403 65.1198 180.963C65.4106 180.621 65.7014 180.279 65.985 179.93C66.5593 179.203 67.0828 178.476 67.6281 177.705C67.679 177.64 67.7808 177.705 67.7444 177.785C67.2241 178.837 66.5664 179.815 65.7887 180.694C65.4585 181.08 65.1013 181.442 64.7199 181.777C64.6254 181.988 64.5309 182.206 64.4291 182.409C63.702 183.864 60.1177 191.192 59.9868 191.185L58.3291 190.981C58.2055 191.01 58.2055 190.778 58.3 190.785Z" fill="#263238"/>
<path d="M31.7339 181.508C39.208 182.01 46.6603 183.035 54.0689 184.198C56.1725 184.533 58.2616 184.913 60.3361 185.34C60.3943 185.34 60.3943 185.441 60.3361 185.434C56.6136 185.107 52.8984 184.627 49.1831 184.169C45.4679 183.711 41.7236 183.217 38.0084 182.628C35.9145 182.308 33.8133 181.988 31.7267 181.632C31.6394 181.639 31.6394 181.501 31.7339 181.508Z" fill="#263238"/>
<path d="M71.3359 150.71C71.4668 152.222 77.0942 162.736 83.8339 163.383C86.0151 163.586 87.6946 151.655 87.6946 151.655L88.0145 150.805L92.544 138.867L79.3844 127.488L77.4722 125.961C77.4722 125.961 76.4471 129.306 75.2184 133.486C75.1602 133.683 75.0948 133.879 75.0366 134.083C74.9785 134.286 74.8912 134.541 74.8258 134.759C74.6367 135.384 74.4404 136.017 74.266 136.656C74.1278 137.143 73.9897 137.616 73.8588 138.11C73.7279 138.605 73.5971 139.128 73.4517 139.637C72.4952 143.276 71.7883 146.975 71.3359 150.71Z" fill="#EB9481"/>
<path d="M75.2207 133.486C75.9701 137.128 77.5027 140.564 79.7123 143.554C81.9219 146.545 84.7556 149.019 88.0168 150.805L92.5463 138.867L79.3867 127.488L77.4746 125.961C77.4746 125.961 76.4494 129.306 75.2207 133.486Z" fill="#263238"/>
<path d="M96.5292 120.53C97.6852 125.62 102.266 128.971 106.759 127.961C111.252 126.95 113.949 121.97 112.793 116.852C111.637 111.733 107.057 108.403 102.564 109.421C98.0706 110.439 95.3732 115.405 96.5292 120.53Z" fill="#455A64"/>
<path d="M93.9614 121.446C95.2555 127.139 100.345 130.84 105.347 129.713C110.349 128.586 113.345 123.053 112.058 117.353C110.771 111.653 105.674 107.959 100.679 109.086C95.6845 110.213 92.6745 115.739 93.9614 121.446Z" fill="#C7C7C7"/>
<path d="M108.662 114.162C114.77 135.719 102.548 141.789 97.8948 143.127C93.6706 144.32 79.1441 147.839 70.8412 127.023C62.5383 106.208 70.6304 96.5524 80.1402 93.317C89.65 90.0816 102.555 92.5972 108.662 114.162Z" fill="#EB9481"/>
<path d="M101.159 111.449C100.647 111.5 100.132 111.522 99.6178 111.515C99.0767 111.618 98.5167 111.539 98.0256 111.289C97.8857 111.181 97.7856 111.03 97.7409 110.859C97.6961 110.688 97.7093 110.507 97.7784 110.344C97.9638 110.045 98.2263 109.8 98.5383 109.637C98.8503 109.473 99.2005 109.396 99.5524 109.414C100.269 109.334 100.989 109.523 101.574 109.944C101.7 110.05 101.793 110.19 101.842 110.347C101.891 110.504 101.894 110.671 101.85 110.83C101.806 110.989 101.718 111.131 101.596 111.241C101.473 111.351 101.322 111.423 101.159 111.449Z" fill="#263238"/>
<path d="M86.9464 116.466C87.4404 116.313 87.9258 116.133 88.4005 115.928C88.9387 115.809 89.4237 115.518 89.7819 115.099C89.8668 114.944 89.8986 114.766 89.8723 114.591C89.846 114.417 89.7632 114.255 89.6365 114.132C89.3481 113.929 89.0109 113.807 88.6595 113.777C88.308 113.748 87.9551 113.813 87.6371 113.965C86.9475 114.173 86.3594 114.628 85.9867 115.245C85.9101 115.39 85.8773 115.554 85.8922 115.718C85.907 115.882 85.9689 116.037 86.0704 116.167C86.1719 116.296 86.3087 116.393 86.4641 116.446C86.6195 116.499 86.787 116.506 86.9464 116.466Z" fill="#263238"/>
<path d="M91.3091 120.269C91.3091 120.21 91.2146 120.37 91.2364 120.429C91.7017 121.883 91.9635 123.628 90.8002 124.493C90.7639 124.493 90.8002 124.587 90.8366 124.573C92.3779 123.882 91.9708 121.556 91.3091 120.269Z" fill="#263238"/>
<path d="M89.5493 119.106C87.1355 119.6 88.2988 124.384 90.5381 123.926C92.7774 123.468 91.5705 118.691 89.5493 119.106Z" fill="#263238"/>
<path d="M88.6708 119.585C88.3218 119.963 88.0237 120.537 87.5366 120.712C87.0494 120.886 86.4024 120.515 85.908 120.123C85.8571 120.087 85.8207 120.123 85.8353 120.203C86.0461 121.119 86.6278 121.977 87.6456 121.875C88.6635 121.773 89.0197 120.814 89.0197 119.832C89.027 119.65 88.8162 119.439 88.6708 119.585Z" fill="#263238"/>
<path d="M99.8086 117.644C99.8086 117.586 99.9467 117.687 99.954 117.746C100.259 119.243 100.856 120.908 102.317 121.083C102.361 121.083 102.375 121.163 102.317 121.17C100.63 121.323 99.8595 119.105 99.8086 117.644Z" fill="#263238"/>
<path d="M100.758 115.783C103.099 115.056 104.394 119.782 102.212 120.472C100.031 121.163 98.8025 116.401 100.758 115.783Z" fill="#263238"/>
<path d="M101.851 115.819C102.294 115.965 102.789 116.321 103.247 116.226C103.705 116.132 104.017 115.499 104.214 114.91C104.214 114.852 104.286 114.91 104.301 114.91C104.577 115.812 104.541 116.837 103.712 117.251C102.883 117.666 102.163 117.012 101.698 116.168C101.611 116.052 101.669 115.739 101.851 115.819Z" fill="#263238"/>
<path d="M94.668 132.221C95.0897 132.505 95.5404 132.948 96.1221 132.854C96.6783 132.733 97.2032 132.498 97.6634 132.163C97.6721 132.153 97.6846 132.146 97.6983 132.145C97.7119 132.143 97.7255 132.147 97.7361 132.156C97.7467 132.165 97.7535 132.177 97.7548 132.191C97.7562 132.204 97.7521 132.218 97.7434 132.229C97.5859 132.565 97.3408 132.852 97.0337 133.061C96.7266 133.269 96.369 133.391 95.9985 133.414C95.674 133.398 95.3619 133.284 95.1026 133.088C94.8434 132.893 94.6489 132.624 94.5444 132.316C94.4935 132.236 94.6025 132.185 94.668 132.221Z" fill="#263238"/>
<path d="M99.5472 124.834C99.5472 124.834 100.412 126.965 100.681 128.004C100.681 128.106 97.1043 129.851 94.7922 127.714C94.7681 127.697 94.7515 127.672 94.7461 127.643C94.7406 127.615 94.7468 127.585 94.7632 127.561C94.7796 127.537 94.8048 127.52 94.8335 127.515C94.8621 127.509 94.8917 127.515 94.9159 127.532C96.4751 128.1 98.1762 128.148 99.7653 127.67C99.7653 127.365 98.1512 124.071 98.3112 124.035C99.1379 123.899 99.979 123.874 100.812 123.962C99.1255 119.476 96.7407 115.295 95.134 110.795C95.1197 110.762 95.1185 110.724 95.1304 110.69C95.1423 110.656 95.1665 110.627 95.1983 110.61C95.2301 110.593 95.2673 110.588 95.3024 110.597C95.3376 110.605 95.3683 110.627 95.3884 110.657C98.2021 114.867 100.252 119.992 102.106 124.58C102.354 125.14 100.034 124.907 99.5472 124.834Z" fill="#263238"/>
<path d="M99.7566 128.171C99.3703 129.136 98.7448 129.987 97.9389 130.643C97.4865 130.983 96.941 131.176 96.3758 131.196C95.1325 131.196 94.8053 130.171 94.7617 129.204C94.7442 128.692 94.7857 128.18 94.8853 127.677C96.4143 128.359 98.1217 128.532 99.7566 128.171Z" fill="#263238"/>
<path d="M97.9389 130.644C97.4865 130.983 96.941 131.176 96.3758 131.196C95.1325 131.196 94.8053 130.171 94.7617 129.204C96.0341 128.979 97.4882 129.473 97.9389 130.644Z" fill="#FF99BA"/>
<path d="M71.8848 126.303C76.058 126.572 76.5379 117.026 76.5379 117.026C76.5379 117.026 93.9871 112.962 94.6124 98.5079C94.6124 98.5079 98.1967 107.48 107.699 111.057C107.699 111.057 106.122 95.3525 93.4563 93.0551C93.4563 93.0551 77.6212 88.3583 69.66 101.183C61.6988 114.009 69.0856 126.121 71.8848 126.303Z" fill="#263238"/>
<path d="M94.6089 97.4392C94.9536 99.6444 94.8222 101.898 94.2236 104.048C93.6587 106.233 92.6434 108.276 91.2427 110.046C90.8993 110.491 90.5277 110.914 90.1303 111.311L89.5487 111.929C89.3451 112.118 89.127 112.293 88.9089 112.475C88.4726 112.824 88.0509 113.202 87.6002 113.529C87.1494 113.856 86.655 114.125 86.1461 114.416C85.9061 114.554 85.6735 114.707 85.419 114.838L84.692 115.187L83.1724 115.877C82.1255 116.241 81.064 116.546 80.0098 116.837C80.9913 116.335 82.0091 115.935 82.9761 115.434L84.3939 114.634L85.1209 114.234C85.3463 114.089 85.5572 113.921 85.7753 113.761C86.2115 113.442 86.6477 113.129 87.0912 112.824C87.5347 112.518 87.891 112.097 88.2909 111.769L88.8943 111.239L89.4323 110.642C89.8022 110.261 90.1494 109.858 90.472 109.436C91.7933 107.75 92.8185 105.852 93.5038 103.823C93.8545 102.804 94.122 101.758 94.3036 100.696C94.4969 99.6212 94.5991 98.5316 94.6089 97.4392Z" fill="#263238"/>
<path d="M74.9924 126.078C74.9924 126.078 68.8706 120.123 66.086 122.442C63.3014 124.762 68.8198 134.024 72.7386 134.679C73.2351 134.798 73.7507 134.816 74.2544 134.731C74.758 134.646 75.2392 134.46 75.6691 134.184C76.099 133.908 76.4687 133.548 76.756 133.126C77.0433 132.704 77.2422 132.228 77.3408 131.727L74.9924 126.078Z" fill="#EB9481"/>
<path d="M67.7384 125.053C67.7249 125.053 67.712 125.058 67.7024 125.068C67.6929 125.077 67.6875 125.09 67.6875 125.104C67.6875 125.117 67.6929 125.13 67.7024 125.14C67.712 125.149 67.7249 125.154 67.7384 125.154C70.5085 125.7 72.3115 127.823 73.7366 130.106C72.7914 129.306 71.6499 128.986 70.5521 130.106C70.4939 130.171 70.5521 130.258 70.6466 130.229C71.0712 130 71.5561 129.908 72.035 129.966C72.5139 130.023 72.9634 130.227 73.3221 130.549C73.919 131.091 74.4553 131.695 74.9217 132.352C75.0816 132.563 75.4742 132.352 75.3361 132.112L75.2997 132.054C74.7326 128.826 71.3082 124.711 67.7384 125.053Z" fill="#263238"/>
<path d="M70.8066 123.046C70.8066 123.046 66.8369 112.467 68.211 105.56C69.7378 97.8683 79.2695 89.0928 90.1679 92.379C90.1679 92.379 77.2046 94.3203 72.6242 104.739C70.5158 109.537 74.5 122.239 74.5 122.239L70.8066 123.046Z" fill="#C7C7C7"/>
<path d="M76.9269 138.122C81.7382 136.624 84.2534 130.961 82.5447 125.475C80.8359 119.989 75.5504 116.757 70.739 118.255C65.9277 119.754 63.4125 125.416 65.1213 130.902C66.83 136.388 72.1155 139.621 76.9269 138.122Z" fill="#C7C7C7"/>
<path d="M79.9236 125.918C81.4577 130.847 79.1965 135.936 74.8342 137.282C70.4719 138.627 65.7606 135.726 64.2193 130.796C62.678 125.867 64.9464 120.777 69.3087 119.425C73.671 118.073 78.3895 121.017 79.9236 125.918Z" fill="#455A64"/>
<path d="M87.9662 150.877L83.9674 160.969L71.3895 148.282L67.8633 152.382C67.8633 152.382 80.2231 172.58 80.2668 171.664L84.3819 162.939L90.4018 168.952L89.8566 153.815L87.9662 150.877Z" fill="#EBEBEB"/>
<path d="M90.583 161.463C90.4013 158.969 90.2995 156.439 90.0087 153.953C90.0087 153.865 89.856 153.829 89.8342 153.953C89.347 156.367 90.0668 165.927 90.0668 168.217C89.8196 167.956 84.4904 162.925 84.4395 163.005C83.5452 164.386 80.5279 170.726 80.3243 171.3C78.3686 168.094 70.0947 155.45 67.79 152.397C67.7763 152.383 67.7582 152.374 67.7388 152.372C67.7194 152.369 67.6998 152.373 67.683 152.383C67.6662 152.393 67.6533 152.409 67.6463 152.427C67.6394 152.445 67.6388 152.465 67.6446 152.484C69.3677 155.872 80.0553 172.558 80.208 172.514C81.798 169.524 83.2345 166.454 84.5122 163.317C85.4137 164.415 90.7939 170.093 90.8084 169.722C90.8759 166.967 90.8007 164.211 90.583 161.463Z" fill="#263238"/>
<path d="M160.727 83.6399C160.291 87.8222 158.701 91.8009 156.135 95.1322C153.569 98.4634 150.128 101.016 146.195 102.505C142.263 103.995 137.994 104.362 133.865 103.566C129.736 102.771 125.909 100.843 122.812 97.9991L111.455 99.6641L117.141 89.8489C115.854 86.6563 115.31 83.2128 115.551 79.7791C115.792 76.3453 116.81 73.0113 118.53 70.0295C120.25 67.0477 122.625 64.4963 125.477 62.5683C128.328 60.6403 131.581 59.3863 134.989 58.9012C138.397 58.4162 141.87 58.7128 145.147 59.7686C148.423 60.8244 151.416 62.6118 153.899 64.9953C156.383 67.3789 158.291 70.2962 159.481 73.5264C160.67 76.7566 161.109 80.215 160.764 83.6399H160.727Z" fill="white"/>
<path d="M160.728 83.6399C160.288 87.8245 158.703 91.8069 156.147 95.1491C154.892 96.8186 153.392 98.2892 151.698 99.5114C150.025 100.779 148.182 101.805 146.223 102.558C144.263 103.325 142.205 103.814 140.109 104.012C139.062 104.108 138.01 104.127 136.961 104.07C135.907 104.045 134.856 103.936 133.82 103.743C129.632 102.989 125.737 101.083 122.572 98.2391L122.841 98.3191L111.499 100.064L110.678 100.188L111.092 99.4605L116.756 89.6235V90.0162C115.424 86.7626 114.858 83.2465 115.101 79.7394C115.345 76.2323 116.391 72.8281 118.159 69.7896C119.925 66.7625 122.353 64.1748 125.262 62.221C128.169 60.2961 131.474 59.0542 134.929 58.5883C138.384 58.1224 141.9 58.4447 145.213 59.5309C148.485 60.6491 151.466 62.4848 153.937 64.9038C156.412 67.3103 158.309 70.2465 159.485 73.4918C160.661 76.737 161.086 80.2067 160.728 83.6399ZM160.728 83.6399C161.091 80.2221 160.664 76.7665 159.48 73.5397C158.297 70.3128 156.388 67.4008 153.901 65.028C151.415 62.6552 148.417 60.8849 145.138 59.8537C141.859 58.8225 138.387 58.5579 134.99 59.0802C131.625 59.5857 128.419 60.854 125.619 62.7881C122.845 64.7336 120.528 67.2592 118.828 70.1895C117.155 73.1304 116.171 76.4124 115.949 79.7886C115.727 83.1648 116.274 86.5473 117.548 89.6817L117.628 89.8853L117.519 90.067L111.805 99.8677L111.398 99.2642L122.761 97.672H122.921L123.03 97.7811C126.075 100.623 129.852 102.562 133.936 103.379C134.95 103.583 135.978 103.707 137.012 103.75C138.045 103.823 139.082 103.823 140.116 103.75C142.189 103.588 144.229 103.141 146.18 102.42C148.141 101.713 149.986 100.718 151.654 99.4678C153.359 98.2537 154.865 96.7821 156.118 95.1055C158.682 91.7814 160.277 87.8135 160.728 83.6399Z" fill="#263238"/>
<path d="M148.063 84.716C149.581 84.716 150.811 83.4855 150.811 81.9677C150.811 80.4499 149.581 79.2195 148.063 79.2195C146.545 79.2195 145.314 80.4499 145.314 81.9677C145.314 83.4855 146.545 84.716 148.063 84.716Z" fill="#263238"/>
<path d="M138.211 84.716C139.729 84.716 140.959 83.4855 140.959 81.9677C140.959 80.4499 139.729 79.2195 138.211 79.2195C136.693 79.2195 135.463 80.4499 135.463 81.9677C135.463 83.4855 136.693 84.716 138.211 84.716Z" fill="#263238"/>
<path d="M128.367 84.716C129.885 84.716 131.116 83.4855 131.116 81.9677C131.116 80.4499 129.885 79.2195 128.367 79.2195C126.85 79.2195 125.619 80.4499 125.619 81.9677C125.619 83.4855 126.85 84.716 128.367 84.716Z" fill="#263238"/>
<path d="M386.491 83.6398C386.055 87.8221 384.465 91.8008 381.899 95.1321C379.332 98.4633 375.891 101.016 371.959 102.505C368.026 103.995 363.757 104.362 359.628 103.566C355.499 102.77 351.673 100.843 348.575 97.999L337.219 99.664L342.897 89.8488C341.605 86.6546 341.057 83.208 341.294 79.7705C341.532 76.3329 342.549 72.9946 344.269 70.0086C345.988 67.0225 348.365 64.4672 351.219 62.5363C354.073 60.6053 357.329 59.3495 360.74 58.8639C364.152 58.3784 367.629 58.6759 370.908 59.7339C374.187 60.7918 377.183 62.5825 379.667 64.9702C382.152 67.3578 384.06 70.2798 385.247 73.5145C386.434 76.7492 386.87 80.2118 386.52 83.6398H386.491Z" fill="white"/>
<path d="M386.491 83.6399C386.048 87.8237 384.463 91.8051 381.91 95.1491C381.272 95.9767 380.585 96.7657 379.853 97.512C379.096 98.2369 378.294 98.9144 377.453 99.5405C375.783 100.811 373.939 101.837 371.979 102.587C370.021 103.354 367.965 103.843 365.872 104.041C364.823 104.137 363.768 104.156 362.716 104.099C361.662 104.074 360.612 103.964 359.575 103.772C355.392 103.004 351.504 101.085 348.35 98.2318L348.619 98.3118L337.277 100.057L336.455 100.18L336.87 99.4532L342.519 89.6162V90.0088C341.188 86.7555 340.621 83.2399 340.863 79.7331C341.105 76.2263 342.149 72.8219 343.915 69.7823C345.683 66.7549 348.114 64.1673 351.025 62.2137C353.932 60.2888 357.237 59.0468 360.692 58.5809C364.147 58.1151 367.663 58.4373 370.975 59.5236C374.248 60.6408 377.229 62.4767 379.7 64.8965C382.177 67.3028 384.075 70.2401 385.252 73.487C386.428 76.7338 386.852 80.2054 386.491 83.6399ZM386.491 83.6399C386.853 80.222 386.427 76.7665 385.243 73.5396C384.059 70.3128 382.151 67.4007 379.664 65.0279C377.178 62.6551 374.179 60.8849 370.901 59.8537C367.622 58.8225 364.15 58.5578 360.753 59.0801C357.387 59.5857 354.182 60.854 351.381 62.7881C348.608 64.7336 346.291 67.2591 344.591 70.1894C342.906 73.1292 341.912 76.4133 341.683 79.7938C341.469 83.1673 342.013 86.5458 343.275 89.6817L343.362 89.8852L343.253 90.067L337.538 99.8676L337.131 99.2642L348.495 97.6719H348.655L348.764 97.781C351.799 100.617 355.562 102.555 359.633 103.379C360.647 103.583 361.676 103.707 362.709 103.75C363.742 103.823 364.78 103.823 365.813 103.75C367.886 103.588 369.927 103.141 371.877 102.42C373.838 101.712 375.683 100.717 377.352 99.4678C379.053 98.2512 380.556 96.7798 381.808 95.1055C384.401 91.7909 386.022 87.8216 386.491 83.6399Z" fill="#263238"/>
<path d="M373.789 84.716C375.307 84.716 376.538 83.4855 376.538 81.9677C376.538 80.4499 375.307 79.2195 373.789 79.2195C372.271 79.2195 371.041 80.4499 371.041 81.9677C371.041 83.4855 372.271 84.716 373.789 84.716Z" fill="#263238"/>
<path d="M363.945 84.716C365.463 84.716 366.694 83.4855 366.694 81.9677C366.694 80.4499 365.463 79.2195 363.945 79.2195C362.428 79.2195 361.197 80.4499 361.197 81.9677C361.197 83.4855 362.428 84.716 363.945 84.716Z" fill="#263238"/>
<path d="M356.85 81.9678C356.851 82.5116 356.691 83.0437 356.39 83.4966C356.089 83.9495 355.661 84.3029 355.159 84.512C354.656 84.7211 354.104 84.7766 353.57 84.6714C353.036 84.5662 352.546 84.305 352.161 83.9209C351.776 83.5369 351.513 83.0472 351.407 82.5139C351.3 81.9806 351.354 81.4276 351.562 80.925C351.77 80.4224 352.122 79.9928 352.574 79.6905C353.026 79.3882 353.558 79.2268 354.102 79.2268C354.829 79.2268 355.527 79.5154 356.042 80.0292C356.558 80.543 356.848 81.2402 356.85 81.9678Z" fill="#263238"/>
<path d="M231.142 234.314H135.869L151.021 163.383H246.294L231.142 234.314Z" fill="#455A64"/>
<path d="M234.669 234.314H139.389L154.54 163.383H249.82L234.669 234.314Z" fill="#37474F"/>
<path d="M202.84 194.741C202.548 196.355 201.711 197.821 200.469 198.893C199.226 199.965 197.654 200.578 196.013 200.63C195.273 200.653 194.538 200.508 193.862 200.206C193.186 199.903 192.587 199.452 192.11 198.885C191.634 198.318 191.292 197.651 191.111 196.933C190.929 196.215 190.912 195.466 191.062 194.741C191.351 193.125 192.186 191.658 193.428 190.585C194.669 189.511 196.242 188.897 197.882 188.844C198.623 188.82 199.361 188.964 200.038 189.266C200.716 189.568 201.316 190.02 201.793 190.588C202.271 191.156 202.613 191.825 202.795 192.544C202.976 193.263 202.992 194.014 202.84 194.741Z" fill="#263238"/>
<path d="M220.463 252.832H195.3L180.148 213.084H205.312L220.463 252.832Z" fill="#455A64"/>
<path d="M224.601 252.832H199.445L184.293 213.084H209.449L224.601 252.832Z" fill="#263238"/>
<path d="M454.247 234.314H358.975L374.126 163.383H469.399L454.247 234.314Z" fill="#455A64"/>
<path d="M457.773 234.314H362.5L377.652 163.383H472.924L457.773 234.314Z" fill="#37474F"/>
<path d="M425.942 194.741C425.65 196.354 424.814 197.819 423.573 198.891C422.332 199.962 420.761 200.576 419.122 200.63C418.382 200.654 417.645 200.51 416.968 200.208C416.291 199.906 415.692 199.455 415.214 198.888C414.737 198.321 414.394 197.653 414.212 196.935C414.031 196.217 414.014 195.466 414.164 194.741C414.454 193.126 415.29 191.659 416.531 190.586C417.772 189.513 419.344 188.898 420.984 188.844C421.725 188.82 422.462 188.964 423.14 189.266C423.817 189.568 424.418 190.02 424.895 190.588C425.373 191.156 425.715 191.825 425.896 192.544C426.078 193.263 426.093 194.014 425.942 194.741Z" fill="#263238"/>
<path d="M443.565 252.832H418.402L403.25 213.084H428.413L443.565 252.832Z" fill="#455A64"/>
<path d="M447.709 252.832H422.546L407.395 213.084H432.558L447.709 252.832Z" fill="#263238"/>
</svg>
