<svg width="47" height="41" viewBox="0 0 47 41" fill="none" xmlns="http://www.w3.org/2000/svg">
<path d="M16.2151 1C12.0591 1 8.32579 1.77484 5.57862 3.11321C2.90189 4.38113 1.07044 6.21258 1 8.39623C1 8.39623 1 8.39623 1 8.46667C1 8.53711 1 8.53712 1 8.60756V14.6654C1 14.7358 1 14.7359 1 14.7359V21.2164V21.2868V27.2742C1 29.5283 2.83145 31.4302 5.57862 32.7686C8.32579 34.1069 12.0591 34.8818 16.2151 34.8818C17.7648 34.8818 19.244 34.7409 20.6528 34.5296C23.2591 37.7698 27.2742 39.883 31.712 39.883C39.5308 39.883 45.8704 33.5434 45.8704 25.6541C45.8704 17.8352 39.5308 11.4252 31.712 11.4252H31.3597V8.60756C31.3597 8.53712 31.3597 8.46667 31.3597 8.46667C31.3597 8.46667 31.3597 8.46667 31.3597 8.39623C31.3597 8.39623 31.3597 8.39622 31.3597 8.32578C31.2189 6.21258 29.4579 4.38113 26.7811 3.04276C24.034 1.77484 20.3711 1 16.2151 1ZM16.2151 2.12705C20.1597 2.12705 23.7522 2.90188 26.2881 4.09937C28.7535 5.29685 30.2327 6.84655 30.3031 8.46667V8.53712C30.3031 8.53712 30.3031 8.53712 30.3031 8.60756C30.3031 9.73461 29.5987 10.9321 28.2604 11.9182C26.5698 12.3409 24.9497 13.1157 23.6113 14.1019C21.4277 14.7359 18.9623 15.0881 16.2855 15.0881C12.2704 15.0881 8.67798 14.3132 6.14213 13.1157C3.74716 11.9887 2.33836 10.5094 2.19748 8.95976V8.67798C2.19748 8.60754 2.19748 8.60756 2.19748 8.53712C2.26792 6.98743 3.67673 5.43774 6.21258 4.24026C8.67798 2.90189 12.2704 2.12705 16.2151 2.12705ZM2.12704 11.4956C2.90188 12.4818 4.16981 13.3975 5.57862 14.1019C8.32579 15.4403 12.0591 16.2151 16.2151 16.2151C18.117 16.2151 19.9484 16.0742 21.639 15.722C20.1597 17.2717 18.9623 19.1032 18.3283 21.1459C17.6239 21.2164 16.9195 21.2164 16.2151 21.2164C12.2 21.2164 8.67799 20.4415 6.0717 19.244C3.53585 18.0465 2.12704 16.4264 2.12704 14.8063V14.7359V11.4956ZM2.12704 17.6944C2.90188 18.6805 4.16981 19.5962 5.57862 20.3006C8.32579 21.639 12.0591 22.4138 16.2151 22.4138C16.8491 22.4138 17.4126 22.4139 17.9761 22.3434C17.6943 23.4 17.5535 24.5975 17.5535 25.7245C17.5535 26.4289 17.6239 27.1333 17.6943 27.8377C17.2013 27.9082 16.7082 27.9082 16.1447 27.9082C12.1296 27.9082 8.60754 27.1333 6.00125 25.9358C3.4654 24.7384 2.0566 23.1182 2.0566 21.4277V21.3572V17.6944H2.12704ZM2.12704 24.2453C2.90188 25.2315 4.16981 26.1472 5.57862 26.8516C8.32579 28.19 12.0591 28.9648 16.2151 28.9648C16.7786 28.9648 17.3421 28.9648 17.9761 28.8943C18.3987 30.5849 19.0327 32.1346 20.0189 33.5434C18.8214 33.6843 17.6239 33.8252 16.2855 33.8252C12.2704 33.8252 8.67798 33.0503 6.14213 31.8528C3.60628 30.6554 2.19748 29.0352 2.19748 27.4151L2.12704 24.2453Z" fill="#282E38"/>
<path d="M44.8138 25.6541C44.8138 32.9094 38.9673 38.756 31.7824 38.756C24.5975 38.756 18.7509 32.9094 18.7509 25.6541M16.2151 1C12.0591 1 8.32579 1.77484 5.57862 3.11321C2.90189 4.38113 1.07044 6.21258 1 8.39623C1 8.39623 1 8.39623 1 8.46667C1 8.53711 1 8.53712 1 8.60756V14.6654C1 14.7358 1 14.7359 1 14.7359V21.2164V21.2868V27.2742C1 29.5283 2.83145 31.4302 5.57862 32.7686C8.32579 34.1069 12.0591 34.8818 16.2151 34.8818C17.7648 34.8818 19.244 34.7409 20.6528 34.5296C23.2591 37.7698 27.2742 39.883 31.712 39.883C39.5308 39.883 45.8704 33.5434 45.8704 25.6541C45.8704 17.8352 39.5308 11.4252 31.712 11.4252H31.3597V8.60756C31.3597 8.53712 31.3597 8.46667 31.3597 8.46667C31.3597 8.46667 31.3597 8.46667 31.3597 8.39623C31.3597 8.39623 31.3597 8.39622 31.3597 8.32578C31.2189 6.21258 29.4579 4.38113 26.7811 3.04276C24.034 1.77484 20.3711 1 16.2151 1ZM16.2151 2.12705C20.1597 2.12705 23.7522 2.90188 26.2881 4.09937C28.7535 5.29685 30.2327 6.84655 30.3031 8.46667V8.53712C30.3031 8.53712 30.3031 8.53712 30.3031 8.60756C30.3031 9.73461 29.5987 10.9321 28.2604 11.9182C26.5698 12.3409 24.9497 13.1157 23.6113 14.1019C21.4277 14.7359 18.9623 15.0881 16.2855 15.0881C12.2704 15.0881 8.67798 14.3132 6.14213 13.1157C3.74716 11.9887 2.33836 10.5094 2.19748 8.95976V8.67798C2.19748 8.60754 2.19748 8.60756 2.19748 8.53712C2.26792 6.98743 3.67673 5.43774 6.21258 4.24026C8.67798 2.90189 12.2704 2.12705 16.2151 2.12705ZM2.12704 11.4956C2.90188 12.4818 4.16981 13.3975 5.57862 14.1019C8.32579 15.4403 12.0591 16.2151 16.2151 16.2151C18.117 16.2151 19.9484 16.0742 21.639 15.722C20.1597 17.2717 18.9623 19.1032 18.3283 21.1459C17.6239 21.2164 16.9195 21.2164 16.2151 21.2164C12.2 21.2164 8.67799 20.4415 6.0717 19.244C3.53585 18.0465 2.12704 16.4264 2.12704 14.8063V14.7359V11.4956ZM2.12704 17.6944C2.90188 18.6805 4.16981 19.5962 5.57862 20.3006C8.32579 21.639 12.0591 22.4138 16.2151 22.4138C16.8491 22.4138 17.4126 22.4139 17.9761 22.3434C17.6943 23.4 17.5535 24.5975 17.5535 25.7245C17.5535 26.4289 17.6239 27.1333 17.6943 27.8377C17.2013 27.9082 16.7082 27.9082 16.1447 27.9082C12.1296 27.9082 8.60754 27.1333 6.00125 25.9358C3.4654 24.7384 2.0566 23.1182 2.0566 21.4277V21.3572V17.6944H2.12704ZM2.12704 24.2453C2.90188 25.2315 4.16981 26.1472 5.57862 26.8516C8.32579 28.19 12.0591 28.9648 16.2151 28.9648C16.7786 28.9648 17.3421 28.9648 17.9761 28.8943C18.3987 30.5849 19.0327 32.1346 20.0189 33.5434C18.8214 33.6843 17.6239 33.8252 16.2855 33.8252C12.2704 33.8252 8.67798 33.0503 6.14213 31.8528C3.60628 30.6554 2.19748 29.0352 2.19748 27.4151L2.12704 24.2453Z" stroke="#282E38" stroke-width="0.3"/>
</svg>
