<svg width="13" height="15" viewBox="0 0 13 15" fill="none" xmlns="http://www.w3.org/2000/svg">
<path d="M11.1213 4.48543C11.1617 4.55016 11.2006 4.61641 11.2382 4.68265L11.06 4.80008L10.9473 4.87535L10.8818 4.91901C10.847 4.85728 10.8108 4.79706 10.7732 4.73684L11.1199 4.48543H11.1213ZM11.8926 7.78247L11.6838 7.7915C11.6865 7.86376 11.6879 7.93603 11.6879 8.0098C11.6879 8.08206 11.6879 8.15282 11.6838 8.22508L11.8926 8.23261L12.1014 8.24014C12.1042 8.16336 12.1056 8.08658 12.1056 8.0098C12.1056 7.93151 12.1056 7.85172 12.1014 7.77343L11.8926 7.78247ZM11.5905 6.01953L11.3928 6.09179C11.4359 6.22729 11.4749 6.3673 11.5083 6.50731L11.7102 6.4501L11.9121 6.39289C11.8759 6.24234 11.8341 6.09179 11.7868 5.94726L11.5891 6.02103L11.5905 6.01953ZM11.4415 5.59949L11.6336 5.51067C11.5779 5.36915 11.5153 5.22613 11.4499 5.08913L11.2647 5.19301L11.0795 5.29689C11.1408 5.42486 11.1979 5.55734 11.2508 5.68832L11.4429 5.59949H11.4415ZM11.6545 7.35792L11.862 7.33383L12.0694 7.30974C12.0541 7.15618 12.0332 7.00111 12.0068 6.84906L11.8007 6.88971L11.596 6.93036C11.6197 7.07187 11.6392 7.2164 11.6545 7.35942V7.35792ZM11.6545 8.65565C11.6406 8.80018 11.6211 8.9432 11.596 9.08472L11.8007 9.12537L12.0068 9.16602C12.0332 9.01396 12.0541 8.8589 12.0694 8.70383L11.862 8.67974L11.6545 8.65565ZM11.2508 10.3268C11.1979 10.4592 11.1408 10.5917 11.0795 10.7182L11.2647 10.8221L11.4499 10.9259C11.5153 10.7889 11.5779 10.6474 11.6336 10.5044L11.4415 10.4156L11.2494 10.3268H11.2508ZM11.5097 9.50777C11.4763 9.64778 11.4373 9.78628 11.3942 9.92178L11.5919 9.99555L11.7896 10.0693C11.8355 9.92328 11.8773 9.77273 11.9149 9.62218L11.713 9.56498L11.5111 9.50777H11.5097ZM12.2768 2.03297L11.0934 3.31264C11.0531 3.3563 10.9988 3.37889 10.9459 3.37889C10.893 3.37889 10.8387 3.3563 10.7983 3.31264C10.7162 3.22382 10.7162 3.0808 10.7983 2.99348L11.6253 2.09921H6.22203C3.20923 2.09921 0.757513 4.75039 0.757513 8.00829C0.757513 11.2662 3.20923 13.9174 6.22203 13.9174C8.0542 13.9174 9.75551 12.9313 10.7732 11.2812C10.8108 11.221 10.847 11.1593 10.8818 11.0976L10.9473 11.1412L11.06 11.2165H11.0614L11.0628 11.218L11.2368 11.3339C11.1993 11.4002 11.1603 11.4664 11.1199 11.5312C10.0242 13.3076 8.19343 14.369 6.22203 14.369C2.97812 14.369 0.339844 11.5161 0.339844 8.00829C0.339844 4.50048 2.97952 1.64907 6.22342 1.64907H11.6267L10.7997 0.754802C10.7175 0.665978 10.7175 0.522956 10.7997 0.435637C10.8818 0.346812 11.0141 0.346812 11.0948 0.435637L12.2782 1.71531C12.3604 1.80413 12.3604 1.94716 12.2782 2.03448L12.2768 2.03297ZM9.90448 5.02138C9.92676 5.14935 10.4544 8.16185 9.9003 10.2018C9.31835 12.3426 6.46984 12.5173 6.34872 12.5233C6.34593 12.5233 6.34176 12.5233 6.33897 12.5233C6.33619 12.5233 6.33201 12.5233 6.32923 12.5233C6.2081 12.5173 3.3596 12.3411 2.77764 10.2018C2.22353 8.16185 2.7498 5.14935 2.77347 5.02138C2.79296 4.91148 2.88345 4.83771 2.98648 4.83922C4.30075 4.89041 5.35466 4.54565 6.20671 3.78236C6.28328 3.71311 6.39605 3.71311 6.47263 3.78236C7.32467 4.54414 8.37859 4.89041 9.69286 4.83922C9.79171 4.83621 9.88638 4.91299 9.90587 5.02138H9.90448ZM9.5244 5.29388C8.27 5.31194 7.19798 4.95665 6.33758 4.24455C5.47857 4.95665 4.40656 5.31194 3.15076 5.29388C3.04634 5.9834 2.72752 8.41929 3.17582 10.0738C3.65753 11.8473 6.15381 12.0581 6.33758 12.0716C6.51996 12.0581 9.01763 11.8473 9.49934 10.0738C9.94903 8.41779 9.63021 5.9834 9.5244 5.29388Z" fill="white" stroke="white" stroke-width="0.3"/>
</svg>
