<svg width="16" height="16" viewBox="0 0 16 16" fill="none" xmlns="http://www.w3.org/2000/svg">
<path fill-rule="evenodd" clip-rule="evenodd" d="M6.55721 16H0.347088C0.157068 16 0 15.8431 0 15.6532V9.44841C0 9.25855 0.157073 9.10162 0.347088 9.10162H6.55721C6.74724 9.10162 6.9043 9.25856 6.9043 9.44841V15.6532C6.9043 15.8431 6.74723 16 6.55721 16ZM15.6529 6.89838H9.44279C9.25276 6.89838 9.0957 6.74144 9.0957 6.55159V0.34679C9.0957 0.156933 9.25277 0 9.44279 0H15.6529C15.8429 0 16 0.156939 16 0.34679V6.55159C16 6.74145 15.8429 6.89838 15.6529 6.89838ZM6.55721 6.89838H0.347088C0.157068 6.89838 0 6.74144 0 6.55159V0.34679C0 0.156933 0.157073 0 0.347088 0H6.55721C6.74724 0 6.9043 0.156939 6.9043 0.34679V6.55159C6.9043 6.74145 6.74723 6.89838 6.55721 6.89838ZM15.6529 16H9.44279C9.25276 16 9.0957 15.8431 9.0957 15.6532V9.44841C9.0957 9.25855 9.25277 9.10162 9.44279 9.10162H15.6529C15.8429 9.10162 16 9.25856 16 9.44841V15.6532C16 15.8431 15.8429 16 15.6529 16Z" fill="white"/>
</svg>
