<svg width="13" height="13" viewBox="0 0 13 13" fill="none" xmlns="http://www.w3.org/2000/svg">
<path d="M10.5818 2.98268H8.58239V1.69702C8.58239 1.29917 8.25127 0.976196 7.84582 0.976196H4.72964C4.32172 0.976196 3.98931 1.29914 3.98931 1.69702V2.98268H1.98993C1.05066 2.98268 0.285156 3.72928 0.285156 4.64535V10.3135C0.285156 11.2308 1.04941 11.9762 1.98993 11.9762H10.5804C11.5196 11.9762 12.2852 11.2296 12.2852 10.3135V4.64535C12.2864 3.72805 11.521 2.98268 10.5818 2.98268ZM4.36842 1.69702C4.36842 1.503 4.53084 1.34459 4.73103 1.34459H7.84595C8.04362 1.34459 8.20479 1.503 8.20479 1.69702V2.98268H4.36855L4.36842 1.69702ZM10.5818 11.6078H1.99003C1.25853 11.6078 0.662978 11.0269 0.662978 10.3135V5.85245L1.1452 7.11356C1.36428 7.68946 2.05549 8.15732 2.68627 8.15732H9.88817C10.5278 8.15732 11.2051 7.6993 11.4292 7.11356L11.9089 5.8549V10.315C11.9089 11.0272 11.3133 11.6078 10.5818 11.6078ZM11.9088 4.79753L11.0753 6.98451C10.9079 7.42043 10.3652 7.78883 9.88804 7.78883H2.68614C2.20895 7.78883 1.66504 7.42043 1.50011 6.98574L0.664074 4.79875V4.64771C0.664074 3.93428 1.25962 3.35344 1.99113 3.35344H10.5816C11.3131 3.35344 11.9086 3.93428 11.9086 4.64771L11.9088 4.79753Z" fill="white" stroke="white" stroke-width="0.5"/>
</svg>
