<svg width="49" height="49" viewBox="0 0 49 49" fill="none" xmlns="http://www.w3.org/2000/svg">
<path d="M41.157 34.542C40.5628 33.9769 39.9265 33.3707 39.2442 32.7198C41.355 29.4159 42.5795 25.4938 42.5795 21.2903C42.5795 9.55052 33.0289 0 21.2891 0C9.54931 0 0 9.55052 0 21.2903C0 33.0301 9.55052 42.5807 21.2903 42.5807C25.3851 42.5807 29.2131 41.4178 32.4638 39.406C33.6605 40.6824 34.6941 41.7994 35.6215 42.8016C39.8866 47.4121 41.3236 48.9662 43.0432 49C43.0613 49 43.0794 49 43.0975 49C44.3582 49 45.2264 48.133 46.4195 46.9387C47.662 45.6961 48.5605 44.7977 48.5435 43.4465C48.5194 41.547 46.8131 39.9228 41.157 34.542ZM2.4151 21.2903C2.4151 10.8824 10.8824 2.4151 21.2903 2.4151C31.6982 2.4151 40.1656 10.8824 40.1656 21.2903C40.1656 31.6982 31.6982 40.1656 21.2903 40.1656C10.8824 40.1656 2.4151 31.6982 2.4151 21.2903ZM44.7108 45.23C44.0756 45.8652 43.3571 46.5837 43.0915 46.5837H43.089C42.3971 46.5704 40.2984 44.3014 37.393 41.1606C36.5248 40.2211 35.5624 39.1814 34.4611 38.0052C35.6976 37.0283 36.8231 35.9174 37.8169 34.6954C38.4098 35.2617 38.9689 35.793 39.493 36.2917C43.624 40.2223 46.1176 42.5951 46.1297 43.4767C46.1333 43.8087 45.4752 44.4681 44.712 45.23H44.7108Z" fill="#282E38"/>
<path d="M30.0582 25.2952L30.0582 25.2952C30.7415 25.8974 31.103 26.6913 31.2893 27.9116C31.4782 29.1491 31.4792 30.7665 31.4792 32.9806C31.4792 33.4263 31.1174 33.7882 30.6717 33.7882H12.3169C11.8713 33.7882 11.5094 33.4263 11.5094 32.9806C11.5094 30.7659 11.5105 29.1485 11.6994 27.9112C11.8856 26.691 12.2471 25.8974 12.9304 25.2952L12.9304 25.2952C13.5859 24.7173 14.4763 24.404 15.8525 24.2439C17.2343 24.0831 19.0416 24.0825 21.4943 24.0825C23.947 24.0825 25.7544 24.0831 27.1361 24.2439C28.5123 24.404 29.4027 24.7173 30.0582 25.2952Z" fill="#007BFC" stroke="#282E38" stroke-width="0.8"/>
<path d="M27.6152 14.8673C27.6152 18.2425 24.8696 20.9881 21.4944 20.9881C18.1192 20.9881 15.3736 18.2425 15.3736 14.8673C15.3736 11.4922 18.1192 8.74656 21.4944 8.74656C24.8696 8.74656 27.6152 11.4922 27.6152 14.8673Z" fill="#007BFC" stroke="#282E38" stroke-width="0.8"/>
</svg>
