<svg width="141" height="50" viewBox="0 0 141 50" fill="none" xmlns="http://www.w3.org/2000/svg">
<g clip-path="url(#clip0_257_16745)">
<g filter="url(#filter0_d_257_16745)">
<path d="M9.21333 25.4696L5.03231 22.7901C4.45889 22.4225 3.69624 22.512 3.22907 23.0014L2.17991 24.1007C1.59018 24.7186 1.71107 25.7032 2.43381 26.1688L8.2295 29.9021C9.3282 30.6099 10.7634 30.5807 11.8307 29.8287L25.4833 20.2096C26.6364 19.3973 26.5957 17.714 25.4049 16.9551C24.7049 16.509 23.7953 16.5255 23.1129 16.9966L10.8794 25.4415C10.3831 25.7841 9.72148 25.7953 9.21333 25.4696Z" fill="#007BFC"/>
<path d="M8.725 33.4075C7.42488 32.7973 5.311 31.5497 4.38859 31.0652C4.34208 31.0408 4.28613 31.0738 4.28613 31.1252L4.28627 38.8586C4.28629 40.3633 5.0822 41.7622 6.39319 42.5618L8.35069 43.7557L13.051 46.9948C14.1255 47.7353 15.5583 47.7558 16.6547 47.0462L18.1187 45.8729L21.0988 42.9484L23.6504 40.5134L31.9831 32.262C33.4653 30.7943 33.2866 28.395 31.6023 27.1502L26.2179 23.1711C25.8218 22.8783 25.2749 22.8736 24.8735 23.1594L22.4129 24.9117C22.1013 25.1336 22.1074 25.5879 22.4249 25.8017L26.4484 28.5121C26.9919 28.8783 27.0583 29.6352 26.5863 30.0856L15.3632 40.794C15.0007 41.1398 14.4362 41.1851 14.0203 40.9018L10.8654 38.7524C10.0209 38.1771 9.5181 37.2376 9.5181 36.2351V34.5598C9.5181 34.0666 9.18179 33.6219 8.725 33.4075Z" fill="url(#paint0_linear_257_16745)"/>
<path d="M10.016 10.6367V20.8945C10.016 21.3833 9.45759 21.6766 9.03705 21.4087L4.34425 18.4181C4.32444 18.4055 4.3125 18.3839 4.3125 18.3609V10.2483C4.3125 8.72288 4.96833 7.26687 6.12139 6.23236L7.38348 5.10006L11.3169 1.7179C12.2158 0.944972 13.5346 0.850157 14.5407 1.48615L25.0472 8.128C26.2869 8.91175 27.5071 9.91359 27.7029 11.3387C27.923 12.941 27.3631 14.48 26.9258 15.166L14.7858 7.46448C14.1735 7.07595 13.3691 7.13572 12.8245 7.61011L10.46 9.67008C10.1774 9.91626 10.016 10.2678 10.016 10.6367Z" fill="url(#paint1_linear_257_16745)"/>
</g>
<path d="M39.2578 20.9016V4.5082H46.6204C50.92 4.5082 52.8309 5.847 52.8309 8.68853C52.8309 10.847 51.5663 12.0765 49.2901 12.541V12.7869C52.4094 13.0874 53.5335 14.0984 53.5335 16.4208C53.5335 19.1257 51.7911 20.9016 47.323 20.9016H39.2578ZM43.3045 14.153V18.0055H47.1825C48.7843 18.0055 49.5149 17.2404 49.5149 16.0656C49.5149 14.8361 48.9529 14.153 47.0701 14.153H43.3045ZM43.3045 7.51366V11.4754H46.5361C48.1098 11.4754 48.981 10.929 48.981 9.42623C48.981 8.11476 48.3346 7.51366 46.6485 7.51366H43.3045ZM55.5027 3.36066H59.3246V20.9016H55.5027V3.36066ZM70.6305 20.9016V17.459H70.3495C69.5909 19.9727 67.961 21.2842 65.8534 21.2842C63.2962 21.2842 62.0316 19.5628 62.0316 16.7213V7.95082H65.8534V15.6831C65.8534 17.0219 66.4436 17.9235 67.8767 17.9235C69.4785 17.9235 70.5181 16.8033 70.5181 15.1639V7.95082H74.368V20.9016H70.6305ZM83.1975 21.2568C79.179 21.2568 76.425 19.071 76.425 14.6995C76.425 10.2186 78.898 7.59563 83.2538 7.59563C87.3285 7.59563 89.2956 9.94536 89.2956 13.5246C89.2956 14.071 89.2956 14.6175 89.2113 15.2732H80.2188C80.4155 17.3497 81.399 18.2787 83.2257 18.2787C85.0242 18.2787 85.5862 17.459 85.9234 16.4754L89.127 17.3224C88.5088 19.5628 87.0194 21.2568 83.1975 21.2568ZM80.2188 13.388H85.7829C85.7548 11.3934 84.8555 10.3825 83.1413 10.3825C81.3709 10.3825 80.4436 11.2842 80.2188 13.388ZM95.2749 8.11476H90.4133V4.5082H104.183V8.11476H99.3216V20.9016H95.2749V8.11476ZM109.135 7.95082V20.9016H105.313V7.95082H109.135ZM109.219 3.44262V6.12022H105.229V3.44262H109.219ZM124.26 12.5683L120.72 13.224C120.382 11.8306 119.764 10.847 118.078 10.847C116.308 10.847 115.212 11.9672 115.212 14.3989C115.212 16.694 116.195 18.0328 118.134 18.0328C119.82 18.0328 120.467 16.8852 120.776 15.5738L124.288 16.3934C123.839 19.4262 121.956 21.2842 118.162 21.2842C113.919 21.2842 111.306 19.0437 111.306 14.5902C111.306 10.1913 113.891 7.59563 118.134 7.59563C122.097 7.59563 123.783 9.42623 124.26 12.5683ZM126.471 3.36066H130.292V13.0055H131.332L134.732 7.95082H139.088V8.25137L134.339 14.2623L139.369 20.6011V20.9016H135.013L131.276 15.7104H130.292V20.9016H126.471V3.36066Z" fill="white"/>
<path d="M48.9788 38.9241H41.6026L39.8041 43.5109H37.8232L44.1047 28.306H46.5548L52.8102 43.5109H50.8033L48.9788 38.9241ZM45.6165 29.9279H44.9909C44.4436 31.6258 43.6356 33.7798 42.9058 35.6044L42.176 37.4796H48.4053L47.6495 35.6044C46.9197 33.7798 46.1377 31.5751 45.6165 29.9279ZM65.1685 35.7057L63.4744 36.0605C63.0313 34.1599 62.0669 33.0195 59.695 33.0195C57.1147 33.0195 55.5769 34.5907 55.5769 37.6317C55.5769 40.4699 57.0625 42.2185 59.7732 42.2185C62.3015 42.2185 63.0313 40.8247 63.5525 39.1015L65.2207 39.5323C64.6212 42.2439 62.9531 43.7897 59.7993 43.7897C56.02 43.7897 53.7524 41.4836 53.7524 37.6317C53.7524 33.7291 56.1764 31.4484 59.7211 31.4484C63.0313 31.4484 64.6212 32.9942 65.1685 35.7057ZM70.948 43.7643C68.5762 43.7643 67.1166 42.7507 67.1166 40.5206C67.1166 38.5693 68.472 37.0742 71.3653 37.0742H75.5356V35.9845C75.5356 34.0332 74.7537 32.9435 72.5638 32.9435C70.7133 32.9435 69.723 33.8305 69.306 35.5537L67.5858 35.1229C68.1331 32.8168 69.8794 31.4737 72.5898 31.4737C75.8482 31.4737 77.3081 33.0449 77.3081 35.9592V43.5109H75.6136V40.698H75.4049C74.7797 42.7 73.1638 43.7643 70.948 43.7643ZM75.5356 39.1775V38.3666H71.574C69.7752 38.3666 68.8629 39.0255 68.8629 40.3686C68.8629 41.3822 69.4885 42.3199 71.4433 42.3199C73.9197 42.3199 75.5356 40.9768 75.5356 39.1775ZM79.8422 37.657C79.8422 33.6277 81.6407 31.4484 84.6904 31.4484C87.2701 31.4484 88.6 32.9182 89.1993 34.9201H89.3553V27.2417H91.1278V43.5109H89.3553V40.3432H89.1993C88.6 42.3452 87.0622 43.7897 84.6637 43.7897C81.5627 43.7897 79.8422 41.6103 79.8422 37.657ZM89.3553 38.1132V37.2009C89.3553 34.7428 87.7914 33.0449 85.3676 33.0449C82.8659 33.0449 81.6147 34.5907 81.6147 37.657C81.6147 40.698 82.8659 42.2185 85.3676 42.2185C87.7654 42.2185 89.3553 40.622 89.3553 38.1132ZM99.7852 43.7897C96.0322 43.7897 93.7904 41.5089 93.7904 37.657C93.7904 33.7798 96.1622 31.4484 99.7332 31.4484C103.304 31.4484 105.129 33.6277 105.129 36.8714C105.129 37.1755 105.155 37.6317 105.077 38.1132H95.5889C95.7196 40.7487 97.1788 42.2945 99.7852 42.2945C102.183 42.2945 103.044 41.0781 103.46 39.583L105.05 40.0391C104.451 42.3706 102.835 43.7897 99.7852 43.7897ZM95.6149 36.7701H103.46C103.356 34.312 102.21 32.8928 99.6812 32.8928C97.3094 32.8928 95.8496 34.2106 95.6149 36.7701ZM109.556 31.7271V34.7681H109.764C110.416 32.7154 112.006 31.4484 114.274 31.4484C116.697 31.4484 117.949 32.8421 118.183 34.9708H118.418C118.965 32.8421 120.398 31.4484 122.979 31.4484C125.794 31.4484 127.097 33.2476 127.097 35.8071V43.5109H125.299V36.1872C125.299 34.388 124.491 33.0449 122.38 33.0449C119.903 33.0449 118.339 34.5147 118.339 36.7194V43.5109H116.541V36.1872C116.541 34.388 115.733 33.0449 113.622 33.0449C111.198 33.0449 109.582 34.5147 109.582 36.7194V43.5109H107.784V31.7271H109.556ZM133.986 43.4349L128.643 31.7271H130.624L132.318 35.8831C132.97 37.4796 134.012 40.0645 134.742 41.9651H135.055C135.784 40.0138 136.723 37.5303 137.348 35.9338L138.965 31.7271H140.867L135.602 43.663C134.325 46.5773 132.891 47.7683 130.493 47.7683C129.737 47.7683 129.164 47.6923 128.721 47.6163L129.007 46.0197C129.529 46.1211 130.024 46.1718 130.545 46.1718C132.005 46.1718 132.891 45.7917 133.986 43.4349Z" fill="white"/>
</g>
<defs>
<filter id="filter0_d_257_16745" x="-23.1953" y="-13.9334" width="81.1846" height="96.498" filterUnits="userSpaceOnUse" color-interpolation-filters="sRGB">
<feFlood flood-opacity="0" result="BackgroundImageFix"/>
<feColorMatrix in="SourceAlpha" type="matrix" values="0 0 0 0 0 0 0 0 0 0 0 0 0 0 0 0 0 0 127 0" result="hardAlpha"/>
<feOffset dy="10"/>
<feGaussianBlur stdDeviation="12.5"/>
<feComposite in2="hardAlpha" operator="out"/>
<feColorMatrix type="matrix" values="0 0 0 0 0 0 0 0 0 0 0 0 0 0 0 0 0 0 0.2 0"/>
<feBlend mode="normal" in2="BackgroundImageFix" result="effect1_dropShadow_257_16745"/>
<feBlend mode="normal" in="SourceGraphic" in2="effect1_dropShadow_257_16745" result="shape"/>
</filter>
<linearGradient id="paint0_linear_257_16745" x1="19.5313" y1="22.6776" x2="19.5313" y2="48.6193" gradientUnits="userSpaceOnUse">
<stop stop-color="#FD9055"/>
<stop offset="1" stop-color="#FE4855"/>
</linearGradient>
<linearGradient id="paint1_linear_257_16745" x1="16.0325" y1="0.409836" x2="16.0325" y2="22.3671" gradientUnits="userSpaceOnUse">
<stop stop-color="#FD9055"/>
<stop offset="1" stop-color="#FE4855"/>
</linearGradient>
<clipPath id="clip0_257_16745">
<rect width="141" height="50" fill="white"/>
</clipPath>
</defs>
</svg>
