<svg width="45" height="46" viewBox="0 0 45 46" fill="none" xmlns="http://www.w3.org/2000/svg">
<ellipse cx="22.5036" cy="23" rx="22.5036" ry="23" fill="#017BFC"/>
<path d="M33.6923 23.3662C34.0163 23.7096 34.2145 24.1411 34.2148 24.6013C34.2152 25.3177 33.7661 25.9391 33.11 26.3202C33.2184 26.5542 33.2898 26.8097 33.2899 27.0881C33.2904 27.7974 32.85 28.4188 32.1862 28.7992C32.3659 29.1648 32.4207 29.5964 32.304 30.0201C32.0442 30.9929 30.9125 31.644 29.6896 31.6445L22.2758 31.6478C21.1164 31.6483 19.9842 31.4806 18.9055 31.1518L18.8995 20.0825C20.6872 18.9853 22.3402 17.727 23.8039 16.3292L26.0219 14.2226C26.1652 14.0908 26.3816 14.0035 26.6147 14.0034C28.2587 14.0026 28.4222 16.5105 27.2101 18.0025L25.5575 20.0501L31.6588 20.0474C33.061 20.0468 34.2123 20.9746 34.2131 22.1298C34.2134 22.5907 34.0158 23.0225 33.6923 23.3662ZM12.5814 31.9813L17.1761 31.9793C17.6334 31.9791 18.0048 31.6767 18.0045 31.3046L17.997 19.422C17.9968 19.0499 17.6251 18.7478 17.1678 18.748L12.573 18.75C12.1157 18.7502 11.7444 19.0519 11.7446 19.4247L11.7521 31.3081C11.7523 31.6802 12.1241 31.9815 12.5814 31.9813Z" fill="#E6E6E6"/>
</svg>
