<svg width="28" height="28" viewBox="0 0 28 28" fill="none" xmlns="http://www.w3.org/2000/svg">
<circle cx="14" cy="14" r="13.5" fill="#F6F6F6" stroke="#DCDCDC"/>
<path d="M12.0039 18.6096C12.0039 18.6096 14.2211 20.5366 16.7109 20.9001C16.7109 20.9001 18.4375 21.282 19.6374 19.882C19.6374 19.882 20.4553 19.282 19.7098 18.3371L17.8376 16.5011C17.8376 16.5011 17.3833 15.992 16.6563 16.4286L15.9839 17.101C15.7298 17.3551 15.3116 17.4098 15.0028 17.2103C14.1487 16.6835 12.513 15.4837 11.5495 13.7571C11.3678 13.4482 11.4224 13.0485 11.6766 12.8121L12.131 12.3577C12.131 12.3577 12.9851 11.6123 12.1494 10.7582L10.2958 8.92214C10.2958 8.92214 9.64117 8.4493 8.96884 9.03147C8.96884 9.03147 7.3693 10.3761 7.87834 12.6479C7.87834 12.6479 7.91455 15.0468 12.0224 18.6271L12.0039 18.6096Z" fill="#282E38"/>
<path d="M14.6581 10.6126C15.3851 10.6311 16.0574 10.9399 16.548 11.4667C17.0385 11.9935 17.3112 12.6843 17.275 13.4113C17.275 13.6115 17.4205 13.7748 17.62 13.7932C17.8202 13.7932 17.9835 13.6299 17.9835 13.4482C18.0197 12.521 17.6747 11.6492 17.0563 10.976C16.4201 10.3037 15.5661 9.92174 14.6574 9.88553C14.4571 9.88553 14.2939 10.0311 14.2754 10.2306C14.2754 10.4308 14.4209 10.5941 14.6204 10.6125L14.6581 10.6126Z" fill="#282E38"/>
<path d="M14.8036 8.48635C16.0944 8.52256 17.312 9.0678 18.2022 10.0128C19.0925 10.9577 19.5653 12.1938 19.5106 13.5022C19.5106 13.7024 19.6562 13.8657 19.8557 13.8841C20.0559 13.8841 20.2192 13.7208 20.2192 13.5391C20.2738 12.0489 19.7286 10.6311 18.7105 9.54061C17.6924 8.45011 16.3116 7.83245 14.8214 7.77778C14.6212 7.77778 14.4579 7.92332 14.4395 8.12281C14.4395 8.32303 14.585 8.48631 14.7845 8.50478L14.8036 8.48635Z" fill="#282E38"/>
</svg>
