<svg width="55" height="61" viewBox="0 0 55 61" fill="none" xmlns="http://www.w3.org/2000/svg">
<path d="M54.074 37.4286C53.5645 37.4286 53.1486 37.834 53.1486 38.3362V48.3077H47.6043V38.3362C47.6043 37.8365 47.191 37.4286 46.6789 37.4286C46.1695 37.4286 45.7536 37.834 45.7536 38.3362V48.3077H40.2093V38.3362C40.2093 37.8365 39.796 37.4286 39.2839 37.4286C38.7744 37.4286 38.3586 37.834 38.3586 38.3362V42.8695H32.8142V38.3362C32.8142 37.8365 32.4009 37.4286 31.8889 37.4286H24.4966C23.9872 37.4286 23.5713 37.834 23.5713 38.3362V60.0924C23.5713 60.5921 23.9846 61 24.4966 61C25.0061 61 25.422 60.5946 25.422 60.0924V50.1209H30.9663V60.0924C30.9663 60.5921 31.3796 61 31.8917 61C32.4011 61 32.817 60.5946 32.817 60.0924V55.5591H38.3614V60.0924C38.3614 60.5921 38.7747 61 39.2867 61H54.0745C54.584 61 54.9999 60.5946 54.9999 60.0924V38.3362C54.9999 37.8365 54.586 37.4286 54.074 37.4286ZM25.424 39.2414H30.9683V42.867H25.424V39.2414ZM25.424 47.4002V44.6797H38.3632V48.3053H25.424V47.3977V47.4002ZM32.8162 50.1207H53.1484V53.7463H32.8162V50.1207ZM53.151 59.1849H40.2118V55.5593H53.151V59.1849Z" fill="#007BFC"/>
<path d="M40.4693 0.609607H40.6167C42.8855 0.684659 44.6759 2.48888 44.6759 4.66725L44.6785 45.2081H43.7966V37.501C43.7966 35.7045 42.2872 34.2644 40.4723 34.2644C38.6573 34.2644 37.1479 35.7045 37.1479 37.501V39.7375H36.2659V37.501C36.2659 35.7045 34.7565 34.2644 32.9416 34.2644H25.4139C23.5989 34.2644 22.0895 35.7045 22.0895 37.501V50.6786H4.70631C2.36834 50.6786 0.5 48.8438 0.5 46.6185V4.66968C0.5 2.44223 2.37061 0.609607 4.70631 0.609607H40.4693Z" stroke="#282E38"/>
<path d="M20.626 9.80429C19.3133 8.60631 17.6647 7.96436 15.9188 7.96436C15.6514 7.96436 15.3774 7.98018 15.1012 8.01182C11.9652 8.36444 9.36392 10.9367 8.91755 14.1195C8.53964 16.7483 9.53857 19.2866 11.5805 20.903C12.7208 21.8116 13.5606 23.1769 13.9452 24.7523L14.0159 25.0326C14.1021 25.3943 14.4159 25.6429 14.7784 25.6429H17.0414C17.4038 25.6429 17.7176 25.3943 17.8038 25.0326L17.9209 24.5512C18.2657 23.1294 19.1077 21.8433 20.3408 20.8216C22.0226 19.4383 22.9817 17.3904 22.9817 15.1956C22.9817 13.1386 22.1243 11.1767 20.6237 9.80237L20.626 9.80429ZM18.8271 16.5716L17.2559 18.1787C17.099 18.3324 16.9023 18.4115 16.699 18.4115C16.4957 18.4115 16.299 18.3301 16.1421 18.1787L15.1277 17.1344L14.1133 18.1787C13.8061 18.4929 13.3044 18.4929 12.9972 18.1787C12.6901 17.8645 12.6901 17.3514 12.9972 17.0372L14.5685 15.4301C14.8757 15.1159 15.3773 15.1159 15.6845 15.4301L16.6989 16.4744L17.7133 15.4301C18.0205 15.1159 18.5222 15.1159 18.8294 15.4301C19.1366 15.7443 19.1366 16.2574 18.8294 16.5716H18.8271Z" fill="#007BFC"/>
</svg>
