<svg width="186" height="189" viewBox="0 0 186 189" fill="none" xmlns="http://www.w3.org/2000/svg">
<path d="M150.869 13.4742C157.767 23.6941 156.085 48.6053 154.382 59.7834H168.115C168.115 46.753 166.838 27.7396 166.199 19.8617C163.133 1.7212 149.592 -0.684757 143.204 0.379824C123.531 2.93482 106.05 29.5493 99.7691 42.5372C89.8046 21.3308 71.3448 23.0554 63.3605 26.5685C44.709 35 44.0915 52.2249 46.1142 59.7834C52.5017 80.4789 73.8998 79.2653 83.8004 76.0715C79.4569 90.124 60.2732 110.458 51.2242 118.868C30.0178 138.03 20.4578 152.402 18.3287 157.193L28.868 161.344C30.912 157.512 54.8438 133.133 66.5542 121.423C94.9146 94.0843 100.514 70.6422 99.7691 62.3384C105.135 59.2725 115.418 41.0468 119.89 32.3172C137.264 9.06679 147.782 10.0675 150.869 13.4742Z" fill="url(#paint0_linear_269_18946)"/>
<path d="M167.262 50.681L166.657 50.5946C165.486 50.4274 164.301 50.7726 163.403 51.5419C162.425 52.3806 161.897 53.6299 161.977 54.916L162.273 59.6527L163.544 62.1949L162.054 64.8779C161.666 65.5755 160.931 66.0081 160.133 66.0081C159.601 66.0081 159.087 65.8149 158.686 65.4644L158.09 64.9424C156.798 63.8125 156.393 61.9734 157.09 60.4054L157.613 59.229H155.918L154.223 61.7712L149.448 69.485C148.966 70.2643 148.663 71.1413 148.562 72.0523C148.388 73.6131 148.816 75.1812 149.758 76.4375L150.777 77.7952C151.622 78.9226 152.906 79.639 154.309 79.7666C155.922 79.9132 157.547 79.6643 159.042 79.0414L161.85 77.8714L166.087 78.7188L176.406 79.4559C177.425 79.5287 178.449 79.3998 179.419 79.0766C180.131 78.8393 180.804 78.5002 181.419 78.0699L182.758 77.1326C184.023 76.2471 184.898 74.908 185.201 73.3939L186 69.3976V68.7407C186 68.3339 185.934 67.9298 185.806 67.5439L185.642 67.0539C185.327 66.1076 184.674 65.3108 183.808 64.8159C182.741 64.2063 181.55 63.8472 180.324 63.7654L175.831 63.4659L174.56 63.0422L169.052 60.5001L169.258 59.5733C169.682 57.6669 169.735 55.6967 169.414 53.7703L169.217 52.5917C169.112 51.9606 168.75 51.4013 168.218 51.0464C167.931 50.8547 167.604 50.7299 167.262 50.681Z" fill="#040404"/>
<path d="M153.376 90.5821L149.563 91.0058L139.818 91.4295L138.547 91.8532L136.428 93.5479L137.699 104.564L138.547 110.919H127.954H122.446H119.481H115.244L113.125 111.767L112.702 114.732L113.125 118.122V121.511L113.549 123.206V126.172L105.499 126.596H104.651L104.228 128.291L115.667 127.443L114.82 117.275V116.427V113.461L115.667 112.19H118.633L124.565 112.614H126.26H127.531H128.378H140.241V108.801V108.377L139.818 107.106V105.835L139.394 104.564L138.547 97.3612V96.0901L138.123 94.3953L140.241 93.5479L141.513 93.1243L156.342 91.8532V90.5821H153.376Z" fill="#040404"/>
<path d="M91.0934 126.596L89.3986 128.714V130.833L91.0934 144.391H67.7904L65.672 146.933L66.5194 155.407L66.9431 156.678V163.457H47.4533L45.7585 163.881H42.369L41.5216 164.304L68.2141 165.575L68.6378 157.101L68.2141 152.441L67.7904 150.322L68.2141 146.509H69.4852H69.9089H71.18H72.8747H76.2642H80.0775H83.467H87.7039H90.6697H92.7882V142.272L91.5171 133.799L91.0934 132.527V130.833V128.714L100.838 128.291V126.596H91.0934Z" fill="#040404"/>
<path d="M8.05011 173.625L8.8975 175.744L11.4396 180.404L16.9476 186.76L22.0319 188.878H26.2688L29.2346 187.607L31.7768 183.794H30.082L28.3872 185.489H24.574L16.1002 177.015L11.8633 170.66L8.8975 160.915L13.5581 159.644V165.152L14.8292 166.846L21.1845 166.423L22.0319 168.117L19.4898 169.812L19.0661 171.931L21.1845 173.625L20.7608 175.744L22.8793 177.439V179.557L26.6925 180.828L29.2346 179.557L30.082 181.676L31.7768 181.252L31.3531 178.71L26.6925 172.778L25.8451 167.27L30.9294 163.881L32.2005 159.644L31.3531 158.796L30.5057 157.949H24.9977L22.8793 160.067L21.6082 164.304H19.9134L16.5239 165.575L15.2528 162.186V159.22L19.4898 157.949L18.2187 156.678L3.81321 159.22L0.42369 163.033L0.155911 165.443C0.0537164 166.363 0.19161 167.293 0.556147 168.144C1.01981 169.226 1.82701 170.125 2.8529 170.702L8.05011 173.625Z" fill="#040404"/>
<path d="M119.48 110.495V110.919H122.446L119.48 110.495Z" fill="#61625B"/>
<path d="M119.481 110.495L115.244 110.919H119.481V110.495Z" fill="#41433D"/>
<path d="M162.273 91.0057L156.342 90.582V91.8531L162.273 91.0057Z" fill="#1D211C"/>
<path d="M102.533 126.172L100.838 126.596V128.29H104.228L104.652 126.596L102.533 126.172Z" fill="#1D211C"/>
<path d="M31.7768 181.252L30.082 181.675V183.794H31.7768V181.252Z" fill="#1D211C"/>
<path d="M102.533 126.172L91.0938 126.596H100.839L102.533 126.172Z" fill="#A7A8A8"/>
<path d="M109.312 126.172L105.499 126.596L113.549 126.172H109.312Z" fill="#C0C1C0"/>
<path d="M66.5195 155.406V156.678H66.9432L66.5195 155.406Z" fill="#C0C1C0"/>
<path fill-rule="evenodd" clip-rule="evenodd" d="M173.289 73.6342L163.121 73.2106L152.952 68.55L154.223 64.7368L161.002 68.1263L165.663 63.042L166.934 63.4657L166.51 66.0078L167.781 68.1263H171.171L172.442 69.3973H173.713L178.374 70.2447L180.492 65.5841L184.305 67.7026V70.2447L181.763 73.2106H175.831L173.289 73.6342ZM169.476 63.042L171.171 64.3131L170.324 66.4315H168.629L169.476 63.042ZM176.679 65.1604H178.374V66.8552L176.679 68.55L175.831 67.7026L176.679 65.1604ZM22.4556 169.812H24.1504L24.5741 171.507L21.1846 171.93L22.4556 169.812ZM24.1504 173.201H25.4215L25.8452 174.896L22.8793 175.744L24.1504 173.201Z" fill="#F4F4F4"/>
<path d="M174.56 64.7373H172.865L172.441 67.7031H174.136L174.56 66.0084V64.7373Z" fill="#EEEED4"/>
<path d="M27.9637 178.286L26.6927 176.167L24.5742 177.439V179.133L27.9637 178.286Z" fill="#C0C1C0"/>
<circle cx="11.8169" cy="11.8169" r="11.8169" transform="matrix(-1 0 0 1 81.8838 39.6626)" fill="white"/>
<defs>
<linearGradient id="paint0_linear_269_18946" x1="93.222" y1="0.167236" x2="93.222" y2="163.838" gradientUnits="userSpaceOnUse">
<stop stop-color="#FD9055"/>
<stop offset="1" stop-color="#FE4855"/>
</linearGradient>
</defs>
</svg>
