<svg width="292" height="296" viewBox="0 0 292 296" fill="none" xmlns="http://www.w3.org/2000/svg">
<path d="M55 21C44.2 37 46.8334 76 49.5 93.5H28C28 73.1 30 43.3334 31 31.0001C35.8 2.60006 57 -1.16661 67 0.500055C97.8 4.50006 125.167 46.1667 135 66.5001C150.6 33.3001 179.5 36.0001 192 41.5001C221.2 54.7001 222.167 81.6667 219 93.5C209 125.9 175.5 124 160 119C166.8 141 196.833 172.833 211 186C244.2 216 259.167 238.5 262.5 246L246 252.5C242.8 246.5 205.333 208.333 187 190C142.6 147.2 133.833 110.5 135 97.5001C126.6 92.7001 110.5 64.1667 103.5 50.5C76.3 14.1 59.8334 15.6667 55 21Z" fill="url(#paint0_linear_269_18945)"/>
<path d="M29.3361 79.2497L30.2832 79.1144C32.1153 78.8527 33.9713 79.3932 35.3764 80.5976C36.9082 81.9105 37.7348 83.8664 37.609 85.88L37.1455 93.2955L35.1556 97.2754L37.4892 101.476C38.0959 102.568 39.2469 103.245 40.4962 103.245C41.3294 103.245 42.1343 102.943 42.7614 102.394L43.6954 101.577C45.7171 99.8079 46.3515 96.9287 45.2605 94.4739L44.442 92.6322H47.0952L49.7485 96.6121L57.2243 108.689C57.9796 109.909 58.4537 111.282 58.6122 112.708C58.8837 115.151 58.2137 117.606 56.7386 119.573L55.1445 121.699C53.8206 123.464 51.8108 124.585 49.6135 124.785C47.0883 125.015 44.5453 124.625 42.2048 123.65L37.8088 121.818L31.1757 123.145L14.9861 124.301C13.4128 124.413 11.8327 124.214 10.3364 123.716L10.2795 123.697C9.18097 123.331 8.14127 122.807 7.19266 122.143L3.96082 119.881C2.69583 118.996 1.82095 117.656 1.51813 116.142L0 108.552V107.523C0 106.886 0.102661 106.254 0.304047 105.65L0.559753 104.883C1.05359 103.401 2.07629 102.154 3.43219 101.379C5.10211 100.424 6.96701 99.8622 8.88605 99.7342L15.9195 99.2653L17.9095 98.602L26.5325 94.6221L26.2101 93.1712C25.5468 90.1865 25.4642 87.1021 25.9669 84.0863L26.2744 82.241C26.4391 81.2531 27.0053 80.3774 27.8386 79.8218C28.2888 79.5217 28.8005 79.3262 29.3361 79.2497Z" fill="#040404"/>
<path d="M51.0751 141.717L57.0449 142.381L72.3011 143.044L74.291 143.707L77.6076 146.361L75.6177 163.607L74.291 173.556H90.8739H99.4969H104.14H110.773L114.09 174.883L114.753 179.526L114.09 184.833V190.139L113.426 192.792V197.436L126.029 198.099H127.356L128.019 200.752L110.11 199.426L111.437 183.506V182.179V177.536L110.11 175.546H105.467L96.1804 176.21H93.5271H91.5372H90.2105H71.6378V170.24V169.576L72.3011 167.587V165.597L72.9644 163.607L74.291 152.33V150.34L74.9543 147.687L71.6378 146.361L69.6478 145.697L46.4319 143.707V141.717H51.0751Z" fill="#040404"/>
<path d="M148.582 198.099L151.235 201.416V204.732L148.582 225.958H185.064L188.381 229.938L187.054 243.204L186.391 245.194V255.807H216.903L219.557 256.47H224.863L226.19 257.134L184.401 259.124L183.738 245.857L184.401 238.561L185.064 235.244L184.401 229.275H182.411H181.748H179.758H177.105H171.798H165.828H160.522H153.889H149.245H145.929V222.642L147.919 209.375L148.582 207.385V204.732V201.416L133.326 200.752V198.099H148.582Z" fill="#040404"/>
<path d="M278.591 271.727L277.265 275.043L273.285 282.34L264.662 292.289L256.702 295.606H250.069L245.426 293.616L241.446 287.646H244.099L246.752 290.299H252.722L265.988 277.033L272.622 267.083L277.265 251.827L269.968 249.837V258.46L267.978 261.114L258.029 260.45L256.702 263.104L260.682 265.757L261.345 269.073L258.029 271.727L258.692 275.043L255.375 277.696V281.013L249.406 283.003L245.426 281.013L244.099 284.33L241.446 283.666L242.109 279.686L249.406 270.4L250.732 261.777L242.772 256.47L240.783 249.837L242.109 248.511L243.436 247.184H252.059L255.375 250.501L257.365 257.134H260.019L265.325 259.124L267.315 253.817V249.174L260.682 247.184L262.672 245.194L285.225 249.174L290.531 255.144L290.95 258.917C291.11 260.357 290.894 261.814 290.324 263.145C289.598 264.839 288.334 266.246 286.728 267.15L278.591 271.727Z" fill="#040404"/>
<path d="M104.14 172.893V173.556H99.4965L104.14 172.893Z" fill="#61625B"/>
<path d="M104.139 172.893L110.772 173.556H104.139V172.893Z" fill="#41433D"/>
<path d="M37.145 142.381L46.4314 141.717V143.707L37.145 142.381Z" fill="#1D211C"/>
<path d="M130.672 197.436L133.325 198.099V200.752H128.019L127.356 198.099L130.672 197.436Z" fill="#1D211C"/>
<path d="M241.445 283.666L244.099 284.33V287.646H241.445V283.666Z" fill="#1D211C"/>
<path d="M130.673 197.436L148.582 198.099H133.326L130.673 197.436Z" fill="#A7A8A8"/>
<path d="M120.06 197.436L126.03 198.099L113.427 197.436H120.06Z" fill="#C0C1C0"/>
<path d="M187.055 243.204V245.194H186.391L187.055 243.204Z" fill="#C0C1C0"/>
<path fill-rule="evenodd" clip-rule="evenodd" d="M19.9 115.184L35.8195 114.521L51.739 107.225L49.7491 101.255L39.1361 106.561L31.8396 98.6016L29.8497 99.2649L30.513 103.245L28.5231 106.561H23.2166L21.2266 108.551H19.2367L11.9402 109.878L8.62366 102.581L2.65385 105.898V109.878L6.63373 114.521H15.9201L19.9 115.184ZM25.8698 98.6016L23.2166 100.592L24.5432 103.908H27.1964L25.8698 98.6016ZM14.5935 101.918H11.9402V104.571L14.5935 107.225L15.9201 105.898L14.5935 101.918ZM256.039 265.756H253.386L252.723 268.41L258.029 269.073L256.039 265.756ZM253.386 271.063H251.396L250.733 273.716L255.376 275.043L253.386 271.063Z" fill="#F4F4F4"/>
<path d="M17.91 101.255H20.5632L21.2266 105.899H18.5733L17.91 103.245V101.255Z" fill="#EEEED4"/>
<path d="M247.415 279.023L249.405 275.706L252.722 277.696V280.349L247.415 279.023Z" fill="#C0C1C0"/>
<circle cx="181.5" cy="80.5" r="18.5" fill="white"/>
<defs>
<linearGradient id="paint0_linear_269_18945" x1="145.25" y1="0.167236" x2="145.25" y2="256.404" gradientUnits="userSpaceOnUse">
<stop stop-color="#FD9055"/>
<stop offset="1" stop-color="#FE4855"/>
</linearGradient>
</defs>
</svg>
