<svg width="40" height="40" viewBox="0 0 40 40" fill="none" xmlns="http://www.w3.org/2000/svg">
<rect width="40" height="40" rx="6" fill="#EEEEEE"/>
<path d="M14.7766 20.2155L12.3289 18.5886C11.9933 18.3655 11.5468 18.4198 11.2733 18.7169L10.6591 19.3844C10.3139 19.7595 10.3846 20.3574 10.8078 20.6401L14.2006 22.9068C14.8438 23.3366 15.684 23.3188 16.3088 22.8622L24.3012 17.0219C24.9762 16.5286 24.9524 15.5066 24.2553 15.0458C23.8455 14.775 23.313 14.785 22.9135 15.071L15.7519 20.1985C15.4614 20.4065 15.074 20.4132 14.7766 20.2155Z" fill="#007BFC"/>
<path d="M14.4902 25.0351C13.7291 24.6646 12.4916 23.9071 11.9516 23.6129C11.9244 23.5981 11.8916 23.6182 11.8916 23.6493L11.8917 28.3448C11.8917 29.2584 12.3576 30.1078 13.1251 30.5933L14.271 31.3182L17.0226 33.2849C17.6517 33.7345 18.4904 33.7469 19.1323 33.3161L19.9893 32.6037L21.7339 30.828L23.2277 29.3495L28.1057 24.3396C28.9735 23.4484 28.8688 21.9917 27.8828 21.2359L24.7307 18.8199C24.4989 18.6421 24.1787 18.6393 23.9437 18.8128L22.5032 19.8767C22.3208 20.0114 22.3244 20.2873 22.5103 20.4171L24.8656 22.0627C25.1838 22.2851 25.2227 22.7446 24.9464 23.0181L18.3762 29.5199C18.1641 29.7299 17.8336 29.7574 17.5901 29.5854L15.7432 28.2803C15.2488 27.931 14.9545 27.3606 14.9545 26.7519V25.7347C14.9545 25.4353 14.7576 25.1653 14.4902 25.0351Z" fill="url(#paint0_linear_269_18994)"/>
<path d="M15.2461 11.2093V17.4376C15.2461 17.7344 14.9192 17.9124 14.673 17.7497L11.9258 15.934C11.9142 15.9263 11.9072 15.9132 11.9072 15.8992V10.9735C11.9072 10.0473 12.2912 9.16329 12.9662 8.53517L13.705 7.84767L16.0077 5.79414C16.5339 5.32484 17.306 5.26727 17.8949 5.65342L24.0456 9.68614C24.7713 10.162 25.4856 10.7703 25.6003 11.6356C25.7292 12.6084 25.4013 13.5429 25.1453 13.9594L18.0384 9.28327C17.6799 9.04738 17.209 9.08366 16.8903 9.37169L15.5061 10.6224C15.3406 10.7719 15.2461 10.9853 15.2461 11.2093Z" fill="url(#paint1_linear_269_18994)"/>
<defs>
<linearGradient id="paint0_linear_269_18994" x1="20.8163" y1="18.5202" x2="20.8163" y2="34.2712" gradientUnits="userSpaceOnUse">
<stop stop-color="#FD9055"/>
<stop offset="1" stop-color="#FE4855"/>
</linearGradient>
<linearGradient id="paint1_linear_269_18994" x1="18.7682" y1="4.99992" x2="18.7682" y2="18.3316" gradientUnits="userSpaceOnUse">
<stop stop-color="#FD9055"/>
<stop offset="1" stop-color="#FE4855"/>
</linearGradient>
</defs>
</svg>
