<svg width="78" height="27" viewBox="0 0 78 27" fill="none" xmlns="http://www.w3.org/2000/svg">
<path d="M38.1231 18.3181L29.582 22.8435L32.042 14.5915L24.3037 9.13514L34.3658 8.5594L38.1231 0.662659L41.8803 8.5594L51.9424 9.13514L44.2042 14.5915L46.6641 22.8435L38.1231 18.3181Z" fill="white"/>
<mask id="mask0_487_57860" style="mask-type:luminance" maskUnits="userSpaceOnUse" x="0" y="11" width="19" height="16">
<path d="M11.2691 22.8989L6.70591 26.8724L6.74503 21.3394L0.856445 18.9057L7.10496 17.2273L8.02826 11.7511L11.8497 16.2448L18.3094 15.294L14.4239 19.7495L17.491 24.6394L11.2691 22.8989Z" fill="white"/>
</mask>
<g mask="url(#mask0_487_57860)">
<path d="M11.2691 22.8989L6.70591 26.8724L6.74503 21.3394L0.856445 18.9057L7.10496 17.2273L8.02826 11.7511L11.8497 16.2448L18.3094 15.294L14.4239 19.7495L17.491 24.6394L11.2691 22.8989Z" fill="white"/>
</g>
<mask id="mask1_487_57860" style="mask-type:luminance" maskUnits="userSpaceOnUse" x="59" y="11" width="19" height="16">
<path d="M66.7919 22.8989L71.3535 26.8724L71.3144 21.3394L77.203 18.9057L70.9545 17.2273L70.0312 11.7511L66.2082 16.2448L59.75 15.294L63.6356 19.7495L60.5685 24.6394L66.7919 22.8989Z" fill="white"/>
</mask>
<g mask="url(#mask1_487_57860)">
<path d="M66.7919 22.8989L71.3535 26.8724L71.3144 21.3394L77.203 18.9057L70.9545 17.2273L70.0312 11.7511L66.2082 16.2448L59.75 15.294L63.6356 19.7495L60.5685 24.6394L66.7919 22.8989Z" fill="white"/>
</g>
</svg>
