<svg width="133" height="95" viewBox="0 0 133 95" fill="none" xmlns="http://www.w3.org/2000/svg">
<path d="M21.8468 14.0432L20.7148 15.4016L21.1676 16.3072L22.4128 16.5336L23.092 15.5148L22.7524 15.4016L22.526 14.3828L21.8468 14.0432Z" fill="#FEFDFE"/>
<path d="M83.1999 88.414L83.4263 90.112L83.9923 89.8856L85.3507 88.414H83.1999Z" fill="#FEFDFE"/>
<path d="M84.3319 90.112L83.9923 90.2252L83.5395 90.4516L82.9735 90.7912L83.4263 92.6023H84.1055H84.5583L84.3319 90.112Z" fill="#FEFDFE"/>
<path d="M38.3745 57.8516H26.1492L25.8096 58.1912V59.776L27.7339 61.8135H28.6395L29.2055 62.8323H33.8466L34.2994 63.5115L36.5633 63.7379H39.7329L40.1857 64.0775V65.0963H41.9968L42.11 63.2851H46.0719L46.5247 63.6247V64.6435H47.8831L48.3359 64.9831V66.4546L47.8831 66.9074V69.1714L46.9775 70.077V71.4353L46.5247 71.8881H44.7136V72.3409V74.0389L44.2608 74.6049H43.808V76.416L46.1851 75.85L46.5247 74.1521L47.4303 73.4729V72.9069L48.2227 72.4541L48.3359 71.3221L49.3547 70.8693V70.4166L50.147 69.6242L50.2602 68.7186L51.1658 68.0394L51.845 66.5678L51.9582 64.7567L52.8638 64.4171L52.977 63.2851L53.8826 62.3795H55.1277V57.9648L54.675 57.512L49.2415 57.3988H46.9775L46.5247 56.946H43.3552H38.8273L38.3745 57.8516Z" fill="#007BFC"/>
<path d="M120.216 70.077V70.5298L120.556 70.8693L121.122 74.4917L122.593 74.6049L122.707 74.1521V69.3978L121.122 69.1714L120.216 70.077Z" fill="#007BFC"/>
<path d="M38.8276 55.1345V56.9457H43.3555V55.1345H38.8276Z" fill="#007BFC"/>
<path d="M24.5647 63.2847L26.3759 64.4167L28.6398 65.0959L34.2997 65.2091V63.5111L33.8469 62.832H29.2058L28.6398 61.8132H27.7343L25.8099 59.7756V58.1909L26.1495 57.8513V56.4929V55.2477L22.5272 55.3609L22.3008 57.3985L23.2064 61.4736L24.5647 63.2847Z" fill="#007BFC"/>
<path d="M49.2418 55.4741V57.3985L54.6753 57.5117L55.1281 57.9645V62.3792L54.9017 63.7375L53.9961 64.7563L52.1849 68.9446L51.053 70.303V71.435L51.619 72.1142L52.4113 70.9822L53.3169 69.5106L56.9392 62.4924L57.958 59.5492L58.0712 57.7381L57.8448 57.0589L56.826 56.4929L52.9773 55.8137L49.2418 55.4741Z" fill="#007BFC"/>
<path d="M121.575 61.8132L117.613 62.1528V63.7375H122.254L123.952 66.1147L124.405 67.2467L124.631 73.4725L123.952 74.1517H122.707L122.594 74.6045L121.122 74.4913L120.556 70.869L120.217 70.5294H118.632L118.066 69.171H116.594L116.708 70.1898L118.632 74.7177L118.972 76.5289L125.877 78.4532H126.556V78.0004L126.216 70.869L125.763 67.9258L124.745 64.7563L123.499 62.832L122.707 62.266L121.575 61.8132Z" fill="#007BFC"/>
<path d="M42.1104 63.2847L41.9972 65.0959L46.4119 65.2091L46.5251 64.6431V63.6243L46.0723 63.2847H42.1104Z" fill="#007BFC"/>
<path d="M113.538 65.6619V67.2467L116.142 67.1335L116.594 67.0203L116.481 66.1147L116.028 65.6619L113.991 65.5487L113.538 65.6619Z" fill="#007BFC"/>
<path d="M42.45 72.001L41.318 74.4913L42.45 74.6045H43.3555V72.3406L42.45 72.001Z" fill="#007BFC"/>
<path d="M51.9585 75.5101V78.2268L53.4301 78.34L53.7697 80.038L55.1281 83.3207L55.3545 85.6979L53.9961 85.9243L52.6377 83.5471L51.5058 82.9811L50.9398 83.0943L51.1662 83.7735L51.2794 83.8867V83.9999L51.3926 84.1131V84.2263L53.5433 88.075L57.958 87.9618L57.7316 87.2826L54.1093 75.5101H51.9585Z" fill="#007BFC"/>
<path d="M41.5444 84.5659H40.6388V86.3771L41.5444 86.6034L41.884 87.0562H41.9972L44.2611 83.5471L44.0347 83.2075H43.3555H42.7895L41.5444 84.5659Z" fill="#007BFC"/>
<path fill-rule="evenodd" clip-rule="evenodd" d="M43.3537 56.9457V55.1345L46.5233 55.2477V56.9457H43.3537ZM43.8065 76.4157L46.1837 75.8497L46.5233 74.1517L47.4289 73.4725V72.9065L48.2212 72.4538L48.3344 71.3218L49.3532 70.869V70.4162L50.1456 69.6238L50.2588 68.7182L51.1644 68.039L51.8436 66.5675L51.9568 64.7563L52.8623 64.4167L52.9755 63.2847L53.8811 62.3792H55.1263L54.8999 63.7375L53.9943 64.7563L52.1832 68.9446L51.0512 70.303V71.435L51.6172 72.1142L51.0512 73.3593L48.674 77.0949L47.0893 79.472L46.9761 79.5852V79.6984L44.2593 83.5471L44.0329 83.2075H43.3537V81.6228L43.8065 80.9436V79.6984L43.3537 79.3588V76.8685L43.8065 76.4157ZM114.102 64.1903H117.159L117.611 63.7375H122.252L123.95 66.1147L124.403 67.2467L124.63 73.4725L123.95 74.1517H122.705V69.3974L121.12 69.171L120.215 70.0766V70.5294H118.63L118.064 69.171H116.593V67.3599L119.196 66.5675L118.97 66.2279L116.593 67.0203L116.479 66.1147L116.027 65.6619L113.989 65.5487L114.102 64.1903ZM46.4101 65.2091L46.5233 64.6431H47.8816L48.3344 64.9827V66.4543L47.8816 66.9071H46.5233L46.4101 65.5487V65.2091ZM43.3537 74.6045V72.3406H44.7121V74.0385L44.2593 74.6045H43.3537ZM51.504 82.9811V80.038H53.7679L55.1263 83.3207L55.3527 85.6979L53.9943 85.9243L52.6359 83.5471L51.504 82.9811ZM38.373 85.4715L38.939 85.3583L39.1654 84.5659H40.637V86.3771H38.373V85.4715Z" fill="#007BFC"/>
<path d="M34.5258 12.233L34.7522 13.0253H35.6578L35.8842 10.8746L32.941 10.3086L33.0542 11.667L33.507 12.1198L34.5258 12.233Z" fill="#201D29"/>
<path d="M27.0548 11.2142L26.036 11.3274L25.2436 12.5725L25.1304 12.6857V12.7989L25.2436 13.2517L26.036 12.0066L26.2624 12.1198V14.0441L25.5832 16.3081L25.47 17.1004L25.3568 17.44L25.5832 19.3644L26.2624 20.6096L29.0923 18.572L28.6395 17.8928L27.5076 17.3268V15.7421V11.667L27.0548 11.2142Z" fill="#201D29"/>
<path d="M34.7522 24.2319L34.5258 25.2507H36.337L37.0162 25.7035L36.903 26.9486L36.1106 27.8542L34.9786 28.307L35.0918 31.3633V32.0425L35.205 32.1557L35.4314 31.3633V31.2501L37.8085 30.9106L38.8273 28.4202L38.2613 26.9486L39.0537 26.4958L39.2801 28.4202L39.9593 28.5334L40.4121 27.5146L40.6385 25.9299L42.1101 25.7035L42.4496 27.5146L42.7892 28.5334L43.0156 29.2126L43.3552 28.9862L43.242 28.873V28.6466L43.1288 28.5334L42.2233 24.4583L40.5253 22.9867L38.0349 22.6471L36.1106 23.0999L34.7522 24.2319Z" fill="#201D29"/>
<path d="M125.989 48.2298L124.291 49.0222L124.857 49.475L124.631 51.0597L123.612 52.1917H123.046V52.6445L122.141 52.3049V55.814L122.707 56.4932L123.726 56.7196L124.178 55.814V54.5688L125.423 55.1348L127.914 54.9084L129.272 53.8897L129.838 52.6445L129.725 50.3805L128.367 48.6826L125.989 48.2298Z" fill="#201D29"/>
<path d="M73.013 53.5501V60.5683H74.5978V53.5501H73.013Z" fill="#201D29"/>
<path d="M73.013 67.813V72.7937H74.5978L74.4846 67.813H73.013Z" fill="#201D29"/>
<path d="M77.7673 72.2277L76.8617 72.3409L76.9749 73.9256L78.7861 77.3216L79.918 77.4348L77.7673 72.2277Z" fill="#201D29"/>
<path d="M51.0527 73.3596L50.2603 74.6048L50.9395 74.9444L51.5055 73.6992L51.0527 73.3596Z" fill="#201D29"/>
<path d="M14.9426 84.9058L14.7162 84.6794L14.4898 84.9058L11.5467 86.717L11.6599 87.2829L15.735 86.8302L15.8482 86.4906L17.3198 85.9246V84.3398L14.9426 84.9058Z" fill="#201D29"/>
<path d="M79.1257 85.4718V86.9434H79.6917L80.1444 86.8302L81.8424 86.717V85.8114L81.3896 85.4718H79.1257Z" fill="#201D29"/>
<path d="M7.81119 90.7921L7.3584 92.0372L8.71677 92.3768V93.8484H16.1878V92.2636L13.9239 91.8108H11.0939L10.7543 91.3581V89.3205L10.4147 89.0941L9.28276 88.8677L7.81119 90.7921Z" fill="#201D29"/>
<path d="M19.3573 92.2636V93.8484H26.602V92.3768L26.1492 92.2636H19.3573Z" fill="#201D29"/>
<path d="M28.8652 9.7421V11.6665V11.8929L31.1292 12.3456V13.0248L30.2236 13.9304H29.5444L29.318 15.2888L28.6388 15.7416H27.5068V17.3263L28.6388 17.8923L29.0916 18.5715L31.8083 18.3451L32.9403 17.7791L33.9591 16.7603L34.5251 14.836L35.0911 14.3832L34.7515 14.1568V13.0248L34.5251 12.2324L33.5063 12.1192L33.0535 11.6665L32.9403 10.3081L30.6764 9.96849L29.4312 9.28931L28.8652 9.7421Z" fill="#211D2A"/>
<path d="M77.3138 59.6622H76.7478L76.6346 62.0394L76.0686 62.945L75.5026 63.0582V66.9069H75.9554H77.3138L78.5589 63.2845L80.9361 58.983L83.0868 54.4551L84.332 50.7196L84.7848 48.5689L82.7473 48.3425L82.4077 48.5689L81.2757 52.5308L80.7097 52.7572L80.0305 55.7003L79.2381 56.3795L78.3326 58.6434L77.3138 59.6622Z" fill="#211D2A"/>
<path d="M73.8046 49.0217H73.0123V53.5496H74.597V48.7953L74.1442 48.6821L73.8046 49.0217Z" fill="#211D2A"/>
<path d="M75.9554 72.3404L75.729 72.7931V73.5855L76.7478 75.1703L77.3138 77.321L78.2194 78.9058V80.4906L79.1249 81.1698V85.0185V85.4713H81.3889L81.8417 85.8109V86.7164L84.2188 86.4901L83.2 88.4144H85.3508L83.9924 89.886V90.2256L84.332 90.1124L85.2376 89.4332L85.9168 88.5276V88.0748H83.766L85.3508 85.0185H85.0112L84.4452 86.0373H83.8792L83.0868 83.7733L79.9173 77.4342L78.7853 77.321L76.9742 73.9251L76.861 72.3404H75.9554Z" fill="#211D2A"/>
<path d="M23.0921 85.8109L22.5261 85.9241L22.6393 87.056L25.9221 89.6596L26.1485 90.9048L27.5068 91.2443V92.2631L28.6388 92.8291V93.8479H45.1657H49.0144H49.354L49.2408 93.5083H46.524H44.8261L44.2601 92.9423V93.2819L38.487 93.5083L38.3738 92.7159H38.0342L38.1474 93.5083L35.7703 93.3951H35.4307L31.016 93.5083L29.7708 90.3388L28.4124 88.4144L25.9221 86.2637L23.5449 85.1317H23.2053L23.0921 85.8109Z" fill="#211D2A"/>
<path d="M15.7343 86.8296L11.6592 87.2824V89.0936H13.0176L13.6967 88.4144H14.8287L15.7343 88.188V86.8296Z" fill="#211D2A"/>
<path d="M28.9772 13.4771L29.5431 13.9299H30.2223L31.1279 13.0243V12.3451L28.864 11.8923L28.9772 13.4771Z" fill="#221E2B"/>
<path d="M75.0486 43.814V44.2668L75.275 45.1724L76.8597 46.1912L76.7465 59.6617H77.3125L78.3313 58.6429L79.2369 56.379L80.0293 55.6998L80.7085 52.7567L81.2744 52.5303L82.4064 48.5683L82.746 48.342V45.6252H80.8216L80.4821 45.0592V43.814H80.0293H77.7653H75.0486Z" fill="#221E2B"/>
<path d="M77.1993 80.6033L76.8597 85.018H79.1237V81.1693L78.2181 80.4901L77.1993 80.6033Z" fill="#221E2B"/>
<path d="M20.7137 85.9235L19.129 86.1499L19.0158 86.9423L17.7706 87.0555L17.0914 88.1875H15.733L14.8275 88.4139V89.0931L14.2615 89.5459V90.5646L13.9219 90.791V91.8098L16.1858 92.2626H19.3554H26.1472V90.9042L25.9208 89.6591L22.6381 87.0555L22.5249 85.9235H20.7137Z" fill="#221E2B"/>
<path d="M35.7702 55.1345L32.4875 55.2477V56.4929L32.0347 56.9457H28.186L27.5068 56.4929H26.1484V57.8513H38.3738L38.8266 56.9457V55.1345H35.7702Z" fill="#007BFC"/>
<path d="M46.524 55.2477V56.9457L46.9768 57.3985H49.2407V55.4741L47.2032 55.3609L46.524 55.2477Z" fill="#007BFC"/>
<path d="M46.524 66.9071L46.0712 67.3599V70.0766H46.9768L47.8824 69.171V66.9071H46.524Z" fill="#007BFC"/>
<path d="M42.4489 76.8685L41.5433 77.3212V78.6796L40.7509 79.5852L40.4113 80.9436L39.7321 81.17V84.5659H40.6377H41.5433L42.7885 83.2075H43.3545V81.6228L43.8073 80.9436V79.6984L43.3545 79.3588V76.8685H42.4489Z" fill="#007BFC"/>
<path d="M69.1642 27.9668V29.0988H72.1073H73.9185H74.5977V27.9668H69.1642Z" fill="#FDFEFE"/>
<path d="M70.8622 32.4947L69.1642 33.0607L68.8246 33.4003L68.0322 34.5323L68.9378 35.3246L68.8246 37.5886L70.183 37.815L71.5414 37.3622L72.7865 36.0038L73.1261 34.8718L72.8997 33.6267L71.8809 32.7211L70.8622 32.4947Z" fill="#FDFEFE"/>
<path d="M78.3332 38.2678L77.654 38.381L77.088 39.7393L76.0693 42.1165L77.7672 42.3429H78.22V40.7581L78.8992 39.9657H79.352L79.8048 39.1734L78.3332 38.2678Z" fill="#FDFEFE"/>
<path d="M34.751 14.1569L35.0906 14.3833L36.2226 13.5909L35.6566 13.0249H34.751V14.1569Z" fill="#211D29"/>
<path d="M97.0097 21.5147L95.8777 22.8731L96.1041 22.9863L97.0097 21.9675L98.7076 21.5147L100.519 22.4203L100.972 23.8919H101.085L101.424 24.1183L100.972 22.4203L99.9528 21.5147L98.934 21.1751L97.0097 21.5147Z" fill="#211D29"/>
<path d="M32.4871 33.8533L28.4119 35.438L28.2987 35.5512L28.1855 35.6644V35.8908V36.004L29.9967 34.9852L32.7134 34.0797L32.4871 33.8533Z" fill="#211D29"/>
<path d="M73.0118 46.7578V49.0217H73.8042L74.1438 48.6821V46.9842L73.0118 46.7578Z" fill="#211D29"/>
<path d="M73.0118 60.5679V67.8125H74.4834L75.0493 66.907H75.5021V63.0582L74.9361 62.8318L74.5966 60.5679H73.0118Z" fill="#211D29"/>
<path d="M91.1234 74.6044L85.0107 85.0186H85.3503L92.8214 72.7932L97.5757 66.7938H97.2361L95.3117 68.8313L91.1234 74.6044Z" fill="#211D29"/>
<path d="M100.292 78.2267L97.4625 81.0566L97.3493 81.1698L97.2361 81.283L97.1229 81.3962L97.0097 81.5094L96.8965 81.6226L96.7833 81.7358L96.6701 81.849L96.5569 81.9622L96.4437 82.0754V82.3018L96.5569 82.415L99.0472 80.1511L101.877 76.6419L102.556 74.8308L104.028 77.0947L104.141 76.6419V76.5287L104.028 76.4155L102.896 74.4912L103.575 70.8689H103.236L102.443 74.6044L101.651 76.3023L100.292 78.2267Z" fill="#211D29"/>
<path d="M73.0118 72.7932V87.2825V88.9805H73.3514V88.4145L73.4646 88.1881V87.5089L76.5209 87.1693H76.8605L78.6717 87.0561L79.0113 86.9429H79.1245V85.4714V85.0186H76.8605H75.0493L74.8229 84.3394L74.5966 72.7932H73.0118Z" fill="#211D29"/>
<path d="M26.035 8.04419L23.0918 11.7797L22.9786 11.8929L22.8654 12.0061L22.7522 12.2325L22.639 12.3457L22.5258 12.4589L22.2994 12.7985L22.1862 12.9117L22.073 13.0249L21.9598 13.2513L21.8467 13.3645L21.7335 13.4777L21.6203 13.5909L21.3939 13.9305L21.2807 14.0437L21.1675 14.2701L21.0543 14.3833L20.9411 14.4965L20.8279 14.6096L20.6015 14.9492L20.4883 15.0624V15.6284L20.7147 15.402L21.8467 14.0437L23.9974 11.3269L25.2426 9.51576L25.5822 9.28936L25.6954 9.51576L25.9218 9.40256V8.72337L26.3746 8.27058L27.1669 8.38378V8.04419H26.035Z" fill="#211E2A"/>
<path d="M75.0495 66.9069L74.4835 67.8125L74.5967 72.7932H75.7287L75.9551 72.3404V66.9069H75.5023H75.0495Z" fill="#211E2A"/>
<path d="M116.706 70.1897L116.48 70.3029V70.5293L116.593 71.2084L115.008 72.4536L114.782 72.5668V72.68L115.008 73.0196L115.121 73.1328L115.235 73.246L116.48 74.6044L116.593 74.7176L117.046 75.2835L117.159 74.944L116.933 74.6044L116.819 74.4912L116.367 73.9252L116.253 73.812H115.914V73.4724L115.461 72.9064L115.348 72.7932L116.819 71.548L118.631 75.9627V76.5287L118.404 76.4155L118.178 76.5287L119.423 78.1135L119.536 78.2267L120.329 79.2455L120.442 79.3587L123.611 83.4338L123.724 83.547L124.177 84.113L124.404 83.8866L124.29 83.6602H123.951V83.3206L123.838 83.0942L123.724 82.981L121.461 80.0378L119.649 77.8871V77.2079L123.158 78.1135L126.554 79.0191L126.328 82.3018H126.668L126.894 78.0003H126.554V78.4531H125.875L118.97 76.5287L118.631 74.7176L116.706 70.1897Z" fill="#211E2A"/>
<path d="M26.1482 90.9048V92.2632L26.6009 92.3764L27.5065 92.2632V91.2444L26.1482 90.9048Z" fill="#211E2A"/>
<path d="M27.5068 11.6665V15.7416H28.6388L29.318 15.2888L29.5444 13.9305L28.9784 13.4777L28.8652 11.8929V11.6665H27.5068Z" fill="#221E2A"/>
<path d="M80.8229 45.6258H82.7473L83.2001 45.173V43.8146H80.4833V45.0598L80.8229 45.6258Z" fill="#221E2A"/>
<path d="M73.0123 44.2674V46.7578L74.1442 46.9841V48.6821L74.597 48.7953V53.5496V60.5679L74.9366 62.8318L75.5026 63.0582L76.0686 62.945L76.6346 62.0394L76.7478 59.6623L76.861 46.1918L75.2762 45.173L75.0498 44.2674H73.0123Z" fill="#221E2A"/>
<path d="M96.6706 55.9268L96.331 56.04V57.3983L95.5386 58.5303V59.0963L96.5574 57.7379L97.6893 59.4359L101.312 62.945L101.425 62.6054L100.519 61.6998L98.5949 59.6623L97.6893 58.6435L96.7838 57.5115L96.6706 55.9268Z" fill="#221E2A"/>
<path d="M118.857 61.5866L116.367 61.9262L116.254 62.0394L116.367 62.379L117.612 62.1526L121.574 61.813L122.706 62.2658V61.9262L121.914 61.4734L119.423 61.5866L119.31 60.7943H118.97L118.857 61.5866Z" fill="#221E2A"/>
<path d="M75.0498 85.0185H76.861L77.2006 80.6038L78.2194 80.4906V78.9059L77.3138 77.3211L76.7478 75.1703L75.729 73.5856V72.7932H74.597L74.8234 84.3393L75.0498 85.0185Z" fill="#221E2A"/>
<path d="M108.33 83.2074L107.99 83.3206L108.217 83.7734L106.632 83.8866L106.519 84.2262L108.556 84.113L112.179 88.9804L112.292 89.0936L114.669 91.6972L116.82 93.1688V92.8292L112.745 89.2068L108.33 83.2074Z" fill="#221E2A"/>
<path d="M110.934 67.3596H112.858L113.537 67.2464V65.6616L113.99 65.5484L114.103 64.1901V62.7185L110.934 63.1713V67.3596Z" fill="#007BFC"/>
<path d="M44.6 67.2464L44.034 68.3784L42.4492 72.0007L43.3548 72.3403H44.7132V71.8875V70.6423L45.2792 70.0763H46.0715V67.3596L44.6 67.2464Z" fill="#007BFC"/>
<path d="M10.4141 89.0935L10.7537 89.3199L10.8669 89.0935H10.4141Z" fill="#221D2A"/>
<path d="M27.5068 55.2476V56.4927L28.186 56.9455H32.0347L32.4875 56.4927V55.2476H27.5068Z" fill="#007BFC"/>
<path d="M36.5626 63.7374L36.6758 65.2089L40.185 65.0957V64.077L39.7322 63.7374H36.5626Z" fill="#007BFC"/>
<path d="M40.0718 77.2079L38.487 80.9434L39.7322 81.1698L40.4114 80.9434L40.751 79.585L41.5433 78.6795V77.3211L40.0718 77.2079Z" fill="#007BFC"/>
<path d="M48.9012 79.4718L50.7123 82.8678L50.8255 82.981L50.9387 83.0942L51.5047 82.981V80.0378V79.1322L49.2408 78.7927L48.9012 79.4718Z" fill="#007BFC"/>
<path d="M80.03 42.3433V43.8148H80.4827H83.1995V42.3433H82.0675H80.03Z" fill="#201C29"/>
<path d="M28.6383 65.096V65.5488H37.9205L40.2976 65.662L39.8448 67.1335L39.1656 67.8127L38.5996 68.2655L38.4864 68.3787V68.7183L39.392 68.2655L40.0712 67.3599L40.6372 65.5488H41.3164L42.3352 67.5863L43.1275 69.1711L43.3539 68.7183V68.6051L43.2407 68.4919L41.7692 65.5488H43.3539H44.8255L44.1463 67.1335L43.9199 67.8127L44.0331 68.3787L44.5991 67.2467L45.3915 65.5488H46.4103V65.2092L41.9956 65.096H40.1844L36.6753 65.2092H34.2981L28.6383 65.096Z" fill="#201C29"/>
<path d="M75.9548 66.9071V72.3406H76.8604L77.766 72.2274L77.2 69.5107L77.3132 66.9071H75.9548Z" fill="#201C29"/>
<path d="M16.1865 92.2634V93.8482H19.3561V92.2634H16.1865Z" fill="#201C29"/>
<path d="M118.743 60.1152L116.932 60.3416L116.705 61.0208H116.253V61.9264H116.366L118.856 61.5868L118.969 60.7944L118.743 60.1152Z" fill="#FDFDFC"/>
<path d="M37.9199 65.5487V66.7939L39.1651 67.8127L39.8443 67.1335L40.2971 65.6619L37.9199 65.5487Z" fill="#FDFDFC"/>
<path d="M40.6367 65.5487L40.0707 67.3599L41.5422 67.8127L42.3346 67.5863L41.3158 65.5487H40.6367Z" fill="#FDFDFC"/>
<path d="M119.649 77.8873L121.46 80.038L123.158 78.5664V78.1136L119.649 77.2081V77.8873Z" fill="#FDFDFC"/>
<path d="M48.3341 82.302V83.2075V86.8299L49.3529 87.1695V82.4152L48.3341 82.302Z" fill="#FDFDFC"/>
<path d="M34.5263 25.2495L34.9791 28.3058L36.1111 27.8531L36.9035 26.9475L37.0167 25.7023L36.3375 25.2495H34.5263Z" fill="#201D2A"/>
<path d="M77.7678 42.3423V43.8139H80.0318V42.3423H78.2206H77.7678Z" fill="#201D2A"/>
<path d="M83.2013 45.1723L82.7485 45.6251V48.3418L84.7861 48.5682L85.2389 43.8139H83.2013V45.1723Z" fill="#201D2A"/>
<path d="M17.6599 84.2255L17.3203 84.3386V85.9234L19.1315 86.1498L20.7162 85.9234L20.8294 84.4518L17.9995 84.2255H17.6599Z" fill="#201D2A"/>
<path d="M71.6544 40.9846V42.343H72.56H74.5975L74.7107 40.9846H71.6544Z" fill="#FCFCFD"/>
<path d="M96.8975 54.6815L96.6711 55.9267L96.7843 57.5115L97.6899 58.6434L98.1427 57.7379L97.8031 57.5115L98.0295 56.0399V55.8135H97.5767L97.0107 56.7191V54.6815H96.8975Z" fill="#FCFCFD"/>
<path d="M95.8787 84.9053L97.4635 84.7921L99.6142 84.5657L100.859 83.9997L101.425 83.4337L100.52 82.3017L98.935 83.6601L95.9919 84.6789L95.8787 84.9053Z" fill="#FCFCFD"/>
<path d="M4.41504 93.8479V94.9799H6.4526V93.8479H4.64143H4.41504Z" fill="#FCFCFD"/>
<path d="M35.8846 10.8738L35.6582 13.0245L36.2242 13.5905L37.809 12.3453L35.8846 10.8738Z" fill="#201D28"/>
<path d="M117.16 55.134L116.481 57.2848L116.368 57.5112V57.964H116.708L117.274 56.0396L117.84 54.6812H118.292L119.085 55.8132L120.104 56.4924L120.443 55.8132L121.349 55.7L121.462 56.832L122.82 57.7376L123.726 56.7188L122.707 56.4924L122.141 55.8132V52.3041L120.67 52.0777L118.632 52.9833L117.16 55.134Z" fill="#201D28"/>
<path d="M11.5472 86.7162L9.2832 88.8669L10.4152 89.0933H10.868H11.6604V87.2821L11.5472 86.7162Z" fill="#201D28"/>
<path d="M83.4272 4.53442L83.2008 4.76082L84.2196 5.44L81.9557 6.68518L82.0688 7.02477L84.7856 5.5532L84.6724 5.10041L83.4272 4.53442Z" fill="#201C28"/>
<path d="M22.8665 61.586L23.8853 63.0576L25.2437 64.3027L26.1492 64.6423L26.3756 64.4159L24.5645 63.284L23.2061 61.4728L22.3005 57.3977L22.5269 55.3601L26.1492 55.2469H27.5076H32.4883L35.771 55.1337V54.7941L29.3188 54.9073H25.2437L22.5269 55.0205L22.6401 54.2282H22.3005L21.9609 56.2657L22.0741 59.0956L22.8665 61.586Z" fill="#201C28"/>
<path d="M126.216 70.8682L126.555 77.9996H126.895L126.782 72.7926L126.669 72.3398L126.555 70.8682H126.216Z" fill="#201C28"/>
<path d="M35.3183 88.4138H36.5634V88.0742L35.771 87.8478L37.0162 84.4519L37.469 87.2818H37.8086V86.3763L37.6954 85.4707L37.469 83.2067H37.0162L35.3183 87.961V88.4138Z" fill="#201C28"/>
<path d="M27.5076 92.2625L26.602 92.3757V93.8473H28.6396V92.8285L27.5076 92.2625Z" fill="#201C28"/>
<path d="M44.7129 70.6429V71.8881H46.5241L46.9768 71.4353V70.0769H46.0713H45.2789L44.7129 70.6429Z" fill="#007BFC"/>
<path d="M51.5047 78.3403V79.1327V80.0383H53.7687L53.4291 78.3403L51.9575 78.2271L51.5047 78.3403Z" fill="#007BFC"/>
<path d="M27.1675 8.04419V8.38378L27.2807 8.61018L26.4883 9.17617L27.0543 9.62896V11.2137L27.5071 11.6665H28.8654V9.74215L29.4314 9.28936L28.7522 8.61018L27.1675 8.04419Z" fill="#1F1C28"/>
<path d="M83.2003 42.3431V43.8146H85.2378V42.3431H85.0114H83.6531H83.2003Z" fill="#1F1C28"/>
<path d="M123.159 50.3801L123.046 52.1912H123.612L124.631 51.0593L124.857 49.4745L124.291 49.0217L123.159 50.3801Z" fill="#1F1C28"/>
<path d="M121.123 58.7563L120.67 58.8695L120.217 59.6619L119.312 60.0015V60.7939L119.425 61.5863L121.915 61.4731L122.707 61.9259H122.934L122.707 61.4731L121.123 58.7563Z" fill="#FCFCFC"/>
<path d="M116.821 71.5477L115.35 72.7928L115.463 72.906L115.916 73.472L116.255 73.8116L116.368 73.9248L116.821 74.4908L116.934 74.604L117.161 74.9436L118.406 76.4152L118.632 76.5284V75.9624L116.821 71.5477Z" fill="#FCFCFC"/>
<path d="M39.3923 53.5493L39.2791 53.7757L39.0527 54.6813H40.7507L40.4111 53.5493H39.3923Z" fill="#FEFDFD"/>
<path d="M46.7502 80.7167L44.8258 83.6599H45.6182H46.5238L46.8634 83.2071H48.3349V82.3015L47.5426 81.1695L46.7502 80.7167Z" fill="#FEFDFD"/>
<path d="M116.254 67.4734L114.896 67.5866V69.1714H116.141L116.254 67.4734Z" fill="#FEFEFC"/>
<path d="M13.0169 89.0937H11.6585H10.8661L10.7529 89.3201V91.3577L11.0925 91.8105H13.9225V90.7917L14.2621 90.5653V89.5465L14.828 89.0937V88.4146H13.6961L13.0169 89.0937Z" fill="#221D2B"/>
<path d="M42.4492 74.604V76.868H43.3548L43.8076 76.4152V74.604H43.3548H42.4492Z" fill="#007BFC"/>
<path d="M26.1484 55.2476V56.4927H27.5068V55.2476H26.1484Z" fill="#007BFC"/>
<path d="M34.2987 63.511V65.2089H36.6758L36.5626 63.7374L34.2987 63.511Z" fill="#007BFC"/>
<path d="M41.3169 74.4911L40.0717 77.2079L41.5433 77.3211L42.4489 76.8683V74.6043L41.3169 74.4911Z" fill="#007BFC"/>
<path d="M39.2794 86.3769V87.9617L41.3169 88.0749L41.8829 87.0561L41.5433 86.6033L40.6377 86.3769H39.2794Z" fill="#007BFC"/>
<path d="M65.54 29.0989V30.6836V31.5892H66.8984L68.7096 31.7024L69.1624 33.0608L70.8603 32.4948L71.8791 32.7212L72.1055 29.0989H69.1624H65.54Z" fill="#FD6E1F"/>
<path d="M76.8598 29.5517L76.5202 30.3441L76.8598 30.4572L76.973 33.174L79.1237 33.4004L80.7085 29.5517H76.8598Z" fill="#FD6E1F"/>
<path d="M67.5776 37.2491L66.672 37.7019L66.4456 40.645H75.5014L75.275 38.6075L74.3694 37.9283H73.2375H72.4451L72.1055 37.3623L70.7471 38.1547H69.3888L68.2568 37.9283L67.5776 37.2491Z" fill="#FD6E1F"/>
<path d="M65.9941 37.1353L66.6733 37.7013L67.5789 37.2485L67.2393 36.3429L67.3525 34.7582L68.1449 33.3998H68.8241L69.1637 33.0602L68.7109 31.7018L66.8997 31.5886V32.947L65.9941 34.079V37.1353Z" fill="#FD6E1E"/>
<path d="M72.5596 36.9089L72.1068 37.3617L72.4464 37.9277H73.2388V37.3617L72.5596 36.9089Z" fill="#FD6E1E"/>
<path d="M64.1829 35.2109L63.2773 35.4373V37.4749L63.7301 38.4937L63.5037 40.3048L63.8433 40.6444H66.4469L66.6733 37.7013L65.9941 37.1353V34.079L66.8997 32.947V31.5886H65.5413L64.6357 33.0602L64.1829 35.2109Z" fill="#FE6E1F"/>
<path d="M95.5387 24.6842L96.5575 26.269L96.6707 25.9294L96.3311 25.4766L96.2179 25.3634L95.8783 24.4578L96.1047 22.9862L95.8783 22.873L95.5387 24.6842Z" fill="#1F1C27"/>
<path d="M72.5596 42.343V42.6826H73.0124V44.2674H75.0499V43.8146V42.343H74.5971H72.5596Z" fill="#1F1C27"/>
<path d="M117.613 62.1521L116.367 62.3785L114.104 62.7181V64.1897H117.16L117.613 63.7369V62.1521Z" fill="#007BFC"/>
<path d="M50.8261 75.3962L49.8073 77.3206L49.2413 78.7921L51.5052 79.1317V78.3394L51.958 78.2262V75.5094L50.8261 75.3962Z" fill="#007BFC"/>
<path d="M38.3743 80.9429L37.4688 83.2069L37.6951 85.4708H38.3743L38.9403 85.3576L39.1667 84.5652H39.7327V81.1693L38.4875 80.9429H38.3743Z" fill="#007BFC"/>
<path d="M68.4848 37.5883H68.8244L68.9376 35.3244L68.032 34.532L67.6924 35.098V36.4563L68.4848 37.5883Z" fill="#FCFEFE"/>
<path d="M100.745 25.4764L99.8398 26.2688L99.953 26.6083L101.085 25.5896L101.425 24.118L101.085 23.8916L100.745 25.4764Z" fill="#08080A"/>
<path d="M72.1076 29.0989L71.8812 32.7212L72.9 33.6268L73.466 33.8532L74.1451 33.6268L73.466 34.1928V35.2115L74.8243 35.5511L75.5035 35.7775L77.8807 36.6831L78.6731 34.872L79.1258 33.4004L76.9751 33.174L76.8619 30.4572L76.5223 30.3441L75.2771 32.1552V31.476L76.2959 29.5517H73.9188V29.0989H72.1076Z" fill="#FC6F1F"/>
<path d="M61.9198 34.7588L61.0142 36.7963H61.3538V37.1359L60.4482 39.2867L63.5046 40.3054L63.731 38.4943L63.2782 37.4755V35.4379L62.8254 34.872L61.9198 34.7588Z" fill="#FC6F1F"/>
<path d="M73.2396 35.7775L72.5604 36.9095L73.2396 37.3623V37.9283H74.3715L75.2771 38.6075L75.5035 40.645H76.1827L76.8619 39.3999L77.4279 37.5887L75.5035 36.5699L74.7111 36.2303L73.2396 35.7775Z" fill="#FC6F1F"/>
<path d="M97.4639 50.4934V51.965H98.5958V50.4934H97.4639Z" fill="#FC6F1E"/>
<path d="M26.4878 9.17554L25.9218 9.40193L25.6954 9.51513L25.8086 10.1943V10.5339L26.035 11.3263L27.0537 11.2131V9.62833L26.4878 9.17554Z" fill="#1E1C27"/>
<path d="M48.6745 77.0941L47.0897 79.4712L46.9765 79.5844V79.6976L46.8633 80.49L48.1085 78.6788L49.3537 80.9428V82.4144V87.1687V92.2626L49.2405 93.5077L49.3537 93.8473H49.8064L49.6933 93.5077V89.093V86.8291V81.8484V81.7352L51.278 84.7915L51.3912 84.9047V84.2255V84.1123L51.278 83.9991V83.8859L51.1648 83.7727L50.9384 83.0936L50.8252 82.9804L50.712 82.8672L48.9009 79.4712L49.2405 78.792L49.8064 77.3205L48.6745 77.0941Z" fill="#1E1C27"/>
<path d="M6.79138 93.5077H5.31981H4.75382L4.64062 93.8473H6.45179H8.71574V92.3758L7.35737 92.0362L6.79138 93.5077Z" fill="#1E1C27"/>
<path d="M83.4261 92.6021L83.1997 93.8473H84.1053V92.6021H83.4261Z" fill="#1E1C27"/>
<path d="M45.3928 65.5483L44.6004 67.2463L46.072 67.3595L46.5248 66.9067L46.4116 65.5483H45.3928Z" fill="#007BFC"/>
<path d="M51.8451 73.2458L51.5055 73.6986L50.9395 74.9437L50.8263 75.3965L51.9583 75.5097H54.109L53.4299 73.2458H51.8451Z" fill="#007BFC"/>
<path d="M37.8086 86.3767V87.2823L38.035 88.0747L39.2802 87.9615V86.3767H38.3746H37.8086Z" fill="#007BFC"/>
<path d="M64.1832 29.0989L63.6172 30.5704L65.5415 30.6836V29.0989H64.1832Z" fill="#FC6F1D"/>
<path d="M121.461 56.832L120.669 57.5112L121.122 58.7564L122.707 61.4731L123.046 61.3599L122.141 59.5488V58.53L122.82 57.7376L121.461 56.832Z" fill="#1E1B26"/>
<path d="M75.6158 42.3425H75.0498V43.8141H77.7665V42.3425L76.0686 42.1161L75.729 42.0029L75.6158 42.3425Z" fill="#201C2A"/>
<path d="M50.2594 74.604L48.6746 77.0944L49.8066 77.3207L50.8254 75.3964L50.9386 74.9436L50.2594 74.604Z" fill="#1F1C29"/>
<path d="M22.526 84.2258H22.1864V84.6786L20.828 84.4522L20.7148 85.9238H22.526L23.092 85.8106L23.2052 85.1314L23.092 84.905L22.6392 84.7918L22.526 84.2258Z" fill="#1F1C29"/>
<path d="M7.58398 43.8145L8.14997 47.4368L8.37637 47.0972V46.418L8.26317 46.3048L7.92358 43.8145H7.58398Z" fill="#211E29"/>
<path d="M15.8466 86.4896L15.7334 86.8292V88.1875H17.0918L17.771 87.0556L19.0161 86.9424L19.1293 86.15L17.3182 85.9236L15.8466 86.4896Z" fill="#211E2B"/>
<path d="M63.6179 30.5701L61.9199 34.7584L62.8255 34.8716L63.2783 35.4376L64.1839 35.2112L64.6367 33.0604L65.5422 31.5888V30.6833L63.6179 30.5701Z" fill="#FD6F1F"/>
<path d="M110.481 67.6992L111.613 68.9444L112.065 69.1708L113.424 67.8124L112.858 67.6992H110.481Z" fill="#FDFCFC"/>
<path d="M48.1088 78.6794L46.8636 80.4905L46.7504 80.7169L47.5428 81.1697L48.3352 82.3017L49.3539 82.4149V80.9433L48.1088 78.6794Z" fill="#FDFCFC"/>
<path d="M38.0342 88.8672L38.2606 90.9047H40.0717L39.6189 89.8859L39.7321 88.5276L38.0342 88.8672Z" fill="#FDFCFC"/>
<path d="M49.6934 81.7351V81.8483V86.829H51.0517H52.2969L51.3913 84.9046L51.2781 84.7914L49.6934 81.7351Z" fill="#FCFCFB"/>
<path d="M11.3194 32.3821L11.2062 32.4953L10.3006 33.9668L10.0742 33.7405L9.7346 33.8536L9.5082 35.0988L8.71582 35.778L8.82902 36.0044L10.0742 35.0988L10.6402 37.5892L10.7534 38.042L10.8666 38.3816L12.5645 45.6262L12.6777 45.7394V45.9658L12.7909 46.079V46.5318L12.9041 46.645V46.7582L13.0173 46.9846V47.211L13.1305 47.5506V47.8901L13.2437 48.0033L13.3569 48.6825H13.6965V48.4561L13.5833 48.2297V48.0033L13.4701 47.7769V47.5506L13.3569 47.3242V47.0978L13.2437 46.8714V46.645L13.1305 46.3054V46.1922L13.0173 46.079V45.7394L12.9041 45.513V45.1734L12.7909 45.0602V44.7206L12.6777 44.4942L12.4513 43.249L12.3381 43.0227L11.8854 40.8719L11.7722 40.7587L10.7534 36.344L10.3006 34.4196L11.4326 32.9481L11.659 32.4953L11.3194 32.3821Z" fill="#1C1A22"/>
<path d="M57.9568 39.7399L56.8248 39.9663L57.1644 40.1927L58.07 39.9663L57.9568 39.7399Z" fill="#1C1A22"/>
<path d="M58.07 87.1697L57.7304 87.2829L57.9568 87.9621L53.5421 88.0753L53.2025 88.3017L55.1268 88.4149L55.806 93.2824L56.1456 93.1692L55.5796 90.4524L55.806 89.2073L58.1832 88.5281L59.0887 90.4524L60.2207 91.5844L64.5222 93.2824L64.0694 93.5088L63.9562 93.8484H65.541V93.5088L61.5791 91.924L59.9943 90.9052L58.9755 89.6601L58.07 87.1697Z" fill="#1C1A22"/>
<path d="M87.0485 92.6032H86.0298L85.9166 93.8484H123.045H126.894H132.667V93.5088H131.535H129.384H121.008L122.14 92.8296L121.687 92.7164L119.649 93.5088H118.291L116.82 92.8296V93.1692L117.159 93.5088H114.216H87.9541L87.7277 92.6032L87.9541 92.2636L87.6145 92.1504L87.0485 92.6032Z" fill="#1C1A22"/>
<path d="M98.2558 23.8916L98.1426 26.6083L99.8405 26.2688L100.746 25.4764L101.086 23.8916H100.973H98.2558Z" fill="#FDF55F"/>
<path d="M41.771 65.5483L43.2425 68.4915L43.3557 68.6047V68.7179L43.9217 67.8123L44.1481 67.1331L43.3557 66.6803V65.5483H41.771Z" fill="#007BFC"/>
<path d="M52.6379 71.2082L51.8455 73.2458H53.4303L52.6379 71.2082Z" fill="#007BFC"/>
<path d="M35.7715 87.8483L36.5639 88.0747L37.5826 87.9615L37.4694 87.2823L37.0167 84.4523L35.7715 87.8483Z" fill="#007BFC"/>
<path d="M37.6958 85.4711L37.809 86.3767H38.375V85.4711H37.6958Z" fill="#007BFC"/>
<path d="M77.7662 37.9287L77.653 38.3815L78.3322 38.2683L77.7662 37.9287Z" fill="#FCFDFD"/>
<path d="M66.6729 42.3434H71.6535V40.985H67.2388L66.6729 42.3434Z" fill="#FCFDFD"/>
<path d="M119.651 36.1177L119.424 39.4004L119.311 39.74L119.198 41.3248L119.085 41.438L118.971 42.4567L118.858 42.5699V42.9095L118.745 43.1359V43.4755L118.632 43.5887V43.8151L118.858 44.2679L119.764 39.9664L119.99 36.1177H119.651Z" fill="#1C1B25"/>
<path d="M49.468 42.0039L47.2041 42.6831L47.4305 42.9095L49.9208 42.2303L49.468 42.0039Z" fill="#1C1B25"/>
<path d="M43.695 47.5506L42.2234 47.3242L41.8838 47.4374L42.9026 47.8902H44.0345L47.2041 46.7582L47.0909 46.5319L43.695 47.5506Z" fill="#1C1B25"/>
<path d="M67.1268 85.2454V89.0941H68.2588L68.4852 88.0754L68.5984 89.5469L69.0512 93.0561H69.2776V92.7165V91.9241L69.1644 91.6977V90.9053L69.0512 90.7921V90.4525V90.1129L68.938 89.7733L68.8248 87.6226L69.9568 87.0566L71.4284 88.9809L73.0131 89.4337V92.0373L72.8999 92.1505H72.7867L72.6735 92.4901H73.0131V93.2825H73.3527V88.9809H73.0131L71.8811 88.8677L70.9756 87.6226L69.6172 85.3586L69.3908 85.4718L69.504 86.0378L68.4852 86.2642V85.2454H67.1268Z" fill="#1C1B25"/>
<path d="M83.0877 90.3393L80.371 91.4713L80.4842 91.6977L81.6161 91.3581L82.0689 92.6033H80.4842V93.8484H83.2009L83.4273 92.6033L82.9745 90.7921L83.5405 90.4525L83.0877 90.3393Z" fill="#1C1B25"/>
<path d="M97.0099 21.967L96.1043 22.9857L95.8779 24.4573L96.2175 25.3629L96.3307 25.4761L96.6703 25.9289L98.1419 26.6081L98.2551 23.8913H100.972L100.519 22.4197L98.7079 21.5142L97.0099 21.967Z" fill="#FDF760"/>
<path d="M38.2598 26.9479L38.8258 28.4195H39.2785L39.0521 26.4951L38.2598 26.9479Z" fill="#FBFCFD"/>
<path d="M74.7094 40.9844L74.5962 42.3428H75.049H75.615L75.7282 42.0032L76.1809 40.9844H74.7094Z" fill="#FBFCFD"/>
<path d="M71.5414 37.3617L70.183 37.8145L69.3906 38.1541H70.749L72.1074 37.3617L72.5602 36.909L73.2393 35.777L74.7109 36.2298L74.8241 35.5506L73.4657 35.211V34.1922L74.1449 33.6262L73.4657 33.8526L72.8997 33.6262L73.1261 34.8714L72.7866 36.0034L71.5414 37.3617Z" fill="#1D1A24"/>
<path d="M40.6385 25.9293L40.4121 27.514H42.4497L42.1101 25.7029L40.6385 25.9293Z" fill="#FDFCFE"/>
<path d="M98.5957 50.4934V51.965L100.18 52.1914V50.4934H98.5957Z" fill="#FB6F1E"/>
<path d="M97.4639 51.9651V54.0026L97.6903 54.9082L97.9167 54.229L98.5958 53.8894L98.709 54.9082H100.181V52.1915L98.5958 51.9651H97.4639Z" fill="#FB701E"/>
<path d="M24.5632 75.3965L24.3368 77.3208L24.2236 77.434V78H24.5632L24.9028 75.3965H24.5632Z" fill="#191820"/>
<path d="M37.4677 82.4147L37.2414 82.3015H36.9018L37.015 83.2071H37.4677L38.3733 80.9432H38.0337L37.4677 82.4147Z" fill="#191820"/>
<path d="M11.0928 64.8691L11.4324 67.2463L11.5456 67.3595H11.772L11.4324 64.8691H11.0928Z" fill="#222129"/>
<path d="M99.6133 84.5655L97.4625 84.7919L97.3493 85.1315H97.9153L98.5945 85.0183L101.424 84.7919L101.99 84.6787L103.575 84.5655L102.896 84.3391H102.556H102.33H101.651L101.198 84.4523L100.858 84.3391L101.311 84.1127L100.858 83.9995L99.6133 84.5655Z" fill="#222129"/>
<path d="M84.1055 92.6025V93.8477H85.6902H85.9166L86.0298 92.6025H84.5583H84.1055Z" fill="#1E1C24"/>
<path d="M36.7898 77.2073H36.4502L36.903 82.3012H37.2426L37.1294 80.1504L37.0162 79.8108L36.903 78.1129V77.9997L36.7898 77.6601V77.2073Z" fill="#0F0E13"/>
<path d="M38.6014 54.7954H35.7715V55.135H38.8278H43.3557L46.5253 55.2482L47.2044 55.3614L47.0912 54.9086L41.3182 54.7954L40.8654 54.6822H40.7522H39.0542L39.2806 53.7766H38.941L38.6014 54.7954Z" fill="#17161D"/>
<path d="M118.972 66.2283L116.595 67.0207L116.142 67.1339L116.255 67.4735L116.142 69.1715L116.481 70.3035L116.708 70.1903L116.595 69.1715V67.3603L119.198 66.5679L118.972 66.2283Z" fill="#17161D"/>
<path d="M88.6348 87.9623L85.918 88.0755V88.5283L88.0688 89.0943L87.8424 90.113L87.7292 90.2262V90.4526V90.7922L87.616 91.9242V92.1506L87.9556 92.2638V91.811L88.0688 91.0186L88.7479 88.4151H89.7667V88.0755H89.2007L88.6348 87.9623Z" fill="#17161D"/>
<path d="M67.1272 93.509H65.5424V93.8486H77.6546V93.509L73.3531 93.2826H73.0135L71.0891 93.509L71.7683 93.0562L71.3155 92.943H71.2023L71.0891 93.0562L70.2967 93.509H69.7308L69.3912 93.0562H69.278H69.0516L69.1648 93.509H68.3724L68.2592 92.7166H67.1272V93.509Z" fill="#17161D"/>
<path d="M77.8801 36.683L75.5029 35.7774V36.5698L77.4273 37.5886L76.8613 39.3997L77.0877 39.7393L77.6537 38.381L77.7669 37.9282L78.3329 38.2678L79.8044 39.1733L81.842 40.3053L83.0872 40.7581L83.2004 40.8713H83.4268V40.5317H83.3136L83.2004 40.4185L80.8232 39.3997L78.4461 37.815L77.9933 37.249L78.6725 37.4754L81.1628 38.2678V37.9282L78.2197 36.9094L79.0121 34.8718H78.6725L77.8801 36.683Z" fill="#1B1924"/>
<path d="M97.0105 50.1535V53.4362L96.8973 53.5494V53.7758L97.4633 54.0022V51.9647V50.4931H98.5952H100.18V52.1911V54.9078V55.1342H100.633L100.406 50.1535H97.0105Z" fill="#1B1924"/>
<path d="M79.578 92.6026V93.8478H80.2572H80.4836V92.6026H79.578Z" fill="#1B1924"/>
<path d="M7.01855 40.4185L7.58454 43.8144H7.92414L7.35815 40.4185H7.01855Z" fill="#1A1921"/>
<path d="M53.09 55.4737L52.9768 55.8133L56.8255 56.4925L57.8443 57.0585L58.0707 57.7377H58.4103L58.2971 57.0585L57.5047 56.3793L53.09 55.4737Z" fill="#1A1921"/>
<path d="M77.6538 92.7157V93.5081V93.8477H79.5782V92.6025H78.6726L79.3518 92.1497L79.2386 91.9234L77.6538 92.7157Z" fill="#1A1921"/>
<path d="M52.4101 70.9819L51.6177 72.1139L51.0518 73.3591L51.5045 73.6987L51.8441 73.2459L52.6365 71.2083L52.4101 70.9819Z" fill="#1F1C2A"/>
<path d="M68.4854 84.4524V85.2448V86.2636L69.5041 86.0372L69.3909 85.4712L68.4854 84.4524Z" fill="#606FFB"/>
<path d="M28.1872 35.6646L27.7344 35.8909H28.1872V35.6646Z" fill="#606FFD"/>
<path d="M43.3555 66.6803L44.1479 67.1331L44.827 65.5483H43.3555V66.6803Z" fill="#007BFC"/>
<path d="M25.9229 8.72281V9.402L26.4888 9.1756L27.2812 8.60961L27.168 8.38322L26.3756 8.27002L25.9229 8.72281Z" fill="#C8C8C9"/>
<path d="M41.3168 88.0752L39.2792 87.962L38.0341 88.0752L37.8077 87.2828H37.4681L37.5813 87.962L36.5625 88.0752V88.4148L36.9021 88.6412L36.5625 89.5467L36.9021 89.6599L37.2417 89.094H37.6945V89.5467L37.8077 89.9995L38.0341 92.7163H38.3737V91.9239L38.2605 91.6975V90.9051L38.0341 88.8676L39.732 88.528L39.6188 89.8863L40.0716 90.9051L41.5432 92.2635L44.2599 93.2823V92.9427L41.5432 91.6975L40.298 90.6787L40.0716 88.4148H41.5432L42.3356 87.0564H41.996H41.8828L41.3168 88.0752Z" fill="#171621"/>
<path d="M81.615 91.3574L80.483 91.697L79.3511 92.1498L78.6719 92.6026H79.5775H80.483H82.0678L81.615 91.3574Z" fill="#C6C6C8"/>
<path d="M123.046 61.3604L122.706 61.4735L122.932 61.9263H122.706V62.2659L123.498 62.8319L124.744 64.7563L125.762 67.9258L126.215 70.8689H126.555L125.423 65.4355L123.046 61.3604Z" fill="#201D26"/>
<path d="M67.126 83.6597V85.2444H68.4843V84.4521L69.3899 85.4708L69.6163 85.3576L69.5031 84.9048L68.3711 84.1125V83.6597H67.126Z" fill="#191823"/>
<path d="M98.4819 56.1532L98.0291 56.04L97.8027 57.5116L98.1423 57.738L99.3875 58.6436L101.425 60.002L103.01 60.9075L106.745 62.4923L110.254 63.0583V62.7187L106.179 61.9263L100.972 59.3228L98.2555 57.2852V56.606L99.9535 56.4928V56.1532H98.4819Z" fill="#18161E"/>
<path d="M42.1099 31.3627L41.4308 32.0418L41.544 32.2682L42.4495 31.589L43.0155 29.2119L42.7891 28.5327L42.4495 28.7591L42.1099 31.3627Z" fill="#505052"/>
<path d="M40.2988 43.3616L40.6384 45.9651L40.8648 45.7387V45.3992L40.6384 44.9464L40.8648 43.3616V43.022H39.6196V43.3616H40.2988Z" fill="#505052"/>
<path d="M116.82 47.3235L114.67 48.4555V48.7951L116.254 48.2291L117.613 46.9839L118.858 44.2672L118.632 43.8144L117.613 46.3047L116.82 47.3235Z" fill="#505052"/>
<path d="M14.0369 50.0403L13.8105 50.2667L14.6029 53.4362H14.9425L14.0369 50.0403Z" fill="#505052"/>
<path d="M119.877 59.4357L118.745 59.7752V60.1148L118.971 60.794H119.311V60.0016L120.216 59.6621L120.669 58.8697L120.329 58.7565L119.877 59.4357Z" fill="#505052"/>
<path d="M43.9211 67.8123L43.3551 68.7179L43.1287 69.1707L42.2231 71.2082L39.1668 78.2265L38.0348 80.9432H38.3744H38.4876L40.0724 77.2077L41.3176 74.4909L42.4495 72.0006L44.0343 68.3783L43.9211 67.8123Z" fill="#505052"/>
<path d="M46.9774 79.698L44.2607 83.5467L41.9967 87.0559H42.3363L44.8267 83.6599L46.751 80.7168L46.8642 80.4904L46.9774 79.698Z" fill="#505052"/>
<path d="M22.1872 83.094L21.9608 83.5467L22.1872 84.2259H22.5268L22.1872 83.094Z" fill="#505052"/>
<path d="M14.3765 84.4523L14.4897 84.9051L14.7161 84.6787V84.4523H14.3765Z" fill="#505052"/>
<path d="M25.016 37.7023L22.4125 40.5322L22.5257 40.985L25.3556 38.0419L27.9592 36.2307L28.1856 36.0043V35.8911H27.7328L25.016 37.7023Z" fill="#19181F"/>
<path d="M10.074 56.4931L9.73438 56.6063L10.3004 60.3418L10.4136 60.6814V61.021L10.7532 61.1342V60.7946L10.64 60.455V60.1154L10.5268 59.7758L10.074 56.4931Z" fill="#19181F"/>
<path d="M67.1255 89.094V92.7163H68.2575L68.3707 89.66L68.2575 89.094H67.1255Z" fill="#19181F"/>
<path d="M115.915 62.0393L115.688 62.1525H115.236L115.009 62.2657L112.632 62.6053L110.255 62.7185V63.0581L110.481 66.7936V67.2464L110.255 67.586L110.481 67.6992H112.858V67.3596H110.934V63.1713L114.104 62.7185L116.368 62.3789L116.254 62.0393H116.141H115.915Z" fill="#15141C"/>
<path d="M59.8828 39.4002L57.9585 39.7398L58.0717 39.9662H58.2981L61.128 39.7398L63.1656 40.5322L61.3544 40.6453L61.128 40.9849H66.7879L66.2219 42.3433H64.2975L64.1843 42.6829H72.561V42.3433H71.6554H66.6747L67.2407 40.9849H71.6554H74.7117H76.1833V40.6453H75.5041H66.4483H63.8448L63.5052 40.3058L60.4488 39.287L61.3544 37.1362V36.7966H61.0148L59.8828 39.4002Z" fill="#1E1E21"/>
<path d="M56.9397 62.4925L53.3174 69.5107L53.5438 69.6239L54.223 68.6052L57.8453 61.2473L58.4113 59.2098V57.7382H58.0717L57.9585 59.5493L56.9397 62.4925Z" fill="#1E1E21"/>
<path fill-rule="evenodd" clip-rule="evenodd" d="M7.3584 31.5898L9.28276 29.2126L9.50915 29.439L9.16956 30.005L7.69799 31.703L7.3584 31.5898ZM34.8654 32.0426L35.0918 31.3634V32.0426H34.8654ZM83.4272 40.872V40.5324H83.6536L85.5779 41.0984L85.4647 41.438L85.0119 41.3248L83.7668 41.0984L83.4272 40.872ZM85.9175 64.9831L87.9551 65.0963L90.5586 63.8511L93.3886 61.2476L95.5393 58.5308V59.0968L95.1997 59.6628L92.0302 63.1719L90.4454 64.4171L87.7287 65.5491L85.8043 65.3227L85.9175 64.9831ZM114.783 72.5673V72.2277L115.009 72.4541L114.783 72.5673ZM116.254 73.8125H115.915V73.4729L116.254 73.8125ZM117.047 75.2841L117.16 74.9445L118.405 76.416L118.179 76.5292L117.047 75.2841Z" fill="#555557"/>
<path d="M53.3167 69.5105L52.4111 70.9821L52.6375 71.2085L53.4299 73.246L54.1091 75.51L57.7314 87.2825L58.071 87.1693L53.7695 72.9064L53.0903 71.0953L53.5431 69.6237L53.3167 69.5105Z" fill="#161617"/>
<path fill-rule="evenodd" clip-rule="evenodd" d="M39.0522 31.3625V30.5701H39.3918L39.6182 31.8152L41.4294 32.0416L41.5426 32.268L41.203 32.3812L39.505 32.1548L39.6182 34.1924L40.637 34.6452L42.4482 35.8904L44.0329 37.5883L45.2781 39.6259L46.0705 42.2294H45.7309L45.0517 40.0787L43.3537 37.3619L40.5238 34.9848L38.3731 34.0792L38.5994 33.8528L39.2786 33.966L39.0522 31.3625ZM38.939 53.7756L40.2974 48.5685L40.637 48.6817L39.3918 53.5492L39.2786 53.7756H38.939ZM23.2046 49.7005L23.431 48.6817L23.6574 49.2477L23.5442 49.8137L23.2046 49.7005ZM14.9412 54.9075L14.6016 53.436H14.9412L15.2807 54.9075H14.9412ZM15.5071 57.5111L15.8467 57.3979L16.2995 59.2091L16.0731 59.4355L15.5071 57.5111ZM23.7706 68.944L23.997 68.7177H26.1477V69.1704H25.8081L25.4685 71.4344H25.1289L25.4685 69.1704L23.7706 68.944ZM16.5259 72.34L16.7523 72.0004L18.4503 72.4532L19.3559 73.3588V72.7928L19.5823 72.6796L20.1482 74.6039H19.6955L19.2427 73.5851L18.4503 72.906L16.5259 72.34ZM124.29 83.6597H123.95V83.3201L124.29 83.6597ZM103.235 84.2257L106.631 83.8861L106.518 84.2257L103.575 84.5653L102.896 84.3389L103.235 84.2257ZM124.177 84.1125L124.403 83.8861L125.535 85.3577L125.309 85.4709L124.177 84.1125ZM121.686 92.7155L123.384 91.244L124.403 89.6592L125.648 86.0369H125.988L124.516 90.2252L123.611 91.5836L122.139 92.8287L121.686 92.7155ZM72.3323 92.2627L72.7851 92.1496L72.6719 92.4891L71.7663 93.0551L71.3135 92.9419L72.3323 92.2627Z" fill="#4E4E4F"/>
<path d="M68.5974 89.5469L68.371 89.6601L68.2578 92.7164L68.371 93.5088H69.1634L69.0502 93.056L68.5974 89.5469Z" fill="#C9C9CB"/>
<path d="M100.18 55.1345L99.9541 56.1533V56.4929H100.633V55.1345H100.18Z" fill="#1F1C21"/>
<path d="M45.8449 43.0221H45.3921L45.1657 43.3617H46.4109L47.4296 42.9089L47.2032 42.6825L46.1845 42.9089L46.0713 42.2297H45.7317L45.8449 43.0221Z" fill="#2E2E31"/>
<path d="M13.3572 76.5286L13.0176 76.6418L14.0364 82.7545H14.3759V82.4149L14.2628 81.9621L14.1496 80.8301L13.6968 78.1134L14.7155 79.019L15.6211 79.2453L17.9983 79.1321L17.8851 78.7926L17.2059 79.019L15.1683 78.7926L13.81 77.6606L13.3572 76.5286Z" fill="#2E2E31"/>
<path d="M77.9938 1.36499L77.7674 1.59139L79.805 2.83656L83.2009 4.76092L83.4273 4.53452L77.9938 1.36499Z" fill="#403F41"/>
<path d="M77.4278 2.94976L77.0882 3.06295L77.3146 6.79847L76.0694 10.4208L77.4278 9.74161L77.0882 9.51522L77.4278 7.93045L77.6542 4.87411L77.4278 2.94976Z" fill="#403F41"/>
<path d="M118.745 31.136L114.104 35.8903L113.991 36.0034L113.877 36.1166L113.764 36.2298L113.651 36.343L113.425 36.909L117.5 33.1735L119.198 31.0228H119.764V33.9659L119.651 36.1166H119.99L120.216 31.0228L122.82 30.7964V25.2497H117.16V31.0228L118.745 31.136Z" fill="#403F41"/>
<path d="M96.6714 25.9289L96.5582 26.2685L97.2374 27.0608L93.0491 35.5507L93.2755 35.6639L96.445 29.7776L97.577 26.9476L98.143 27.0608L98.3694 29.6644L98.5958 30.57L98.9353 30.6832L98.5958 27.0608L99.9541 26.608L99.8409 26.2685L98.143 26.608L96.6714 25.9289Z" fill="#403F41"/>
<path d="M99.7277 33.9659L99.3881 34.0791L101.086 38.2674L102.671 39.9654L104.482 40.7577L106.52 40.6445V40.305L104.708 40.4182L102.784 39.6258L101.199 37.7014L99.7277 33.9659Z" fill="#403F41"/>
<path d="M83.2009 37.9278H81.1633V38.2674L83.6537 38.1542L85.4648 36.6826L85.1252 36.5694L83.2009 37.9278Z" fill="#403F41"/>
<path d="M76.8618 39.3994L76.1826 40.6445V40.9841L75.7298 42.0029L76.0694 42.1161L77.0882 39.739L76.8618 39.3994Z" fill="#403F41"/>
<path d="M87.9552 40.8709L85.578 41.0973L85.4648 41.4369H87.3892L88.0684 41.0973L87.9552 40.8709Z" fill="#403F41"/>
<path d="M99.3881 42.9085L97.3506 43.2481L97.4638 43.5877L99.8409 43.2481L102.558 43.4745V43.1349L99.3881 42.9085Z" fill="#403F41"/>
<path d="M23.2062 49.7004L22.6402 52.3039H22.9798L23.5458 49.8136L23.2062 49.7004Z" fill="#403F41"/>
<path d="M8.83008 51.3983L9.39607 54.681H9.73566L9.16967 51.3983H8.83008Z" fill="#403F41"/>
<path d="M84.5593 54.7942L84.4461 54.9074L83.5405 58.3034L83.8801 58.4166L84.8988 54.9074L84.5593 54.7942Z" fill="#403F41"/>
<path d="M14.9427 54.9074L15.5087 57.511L15.8483 57.3978L15.2823 54.9074H14.9427Z" fill="#403F41"/>
<path d="M116.255 59.3221L116.934 60.3409L118.745 60.1145V59.7749L116.934 59.8881L116.594 59.0958L116.707 57.9638H116.368L116.255 59.3221Z" fill="#403F41"/>
<path d="M26.3757 64.416L26.1493 64.6424L27.1681 65.2084H25.6965V65.548H27.5077H28.6397V65.0952L26.3757 64.416Z" fill="#403F41"/>
<path d="M22.7534 68.6043L23.7722 68.9439L23.9986 68.7175L22.3006 67.812L21.7346 67.0196L21.395 65.548H24.1118V65.2084L23.4326 65.0952H21.2818L21.0554 66.114L21.7346 67.6988L22.7534 68.6043Z" fill="#403F41"/>
<path d="M18.7915 68.9439L18.4519 69.1703L19.3575 72.7927L19.5838 72.6795L18.7915 68.9439Z" fill="#403F41"/>
<path d="M13.1316 74.3774L12.6788 72.7927L12.4524 72.9059L13.0184 76.6414L13.358 76.5282L13.4712 74.3774L14.3768 73.1322L15.2823 72.6795L14.7164 72.5663L13.6976 73.2454L13.1316 74.3774Z" fill="#403F41"/>
<path d="M107.425 81.9617L107.199 82.0749L107.991 83.32L108.331 83.2068L107.425 81.9617Z" fill="#403F41"/>
<path d="M90.1059 88.0743H89.7663V88.4139H90.3323L92.9359 85.584L94.181 85.4708L94.0678 85.1312L93.5019 85.018L94.9734 83.7728H94.5206L90.1059 88.0743Z" fill="#403F41"/>
<path d="M80.3709 91.4703L79.239 91.923L79.3522 92.1494L80.4841 91.6967L80.3709 91.4703Z" fill="#403F41"/>
<path d="M33.8458 33.5133L32.4874 33.8529L32.7138 34.0793L36.789 33.7397L37.0154 33.4001H34.525L35.2042 32.1549L35.091 32.0417H34.8646L33.8458 33.5133Z" fill="#38383A"/>
<path d="M52.297 40.6448L51.0518 41.5503L50.9387 41.8899L51.9574 41.6635L56.7117 40.4184L57.1645 40.192L56.8249 39.9656L54.3346 40.6448H52.297Z" fill="#38383A"/>
<path d="M51.9574 44.2671L51.8442 44.3803H51.731L47.0899 46.531L47.2031 46.7574L47.9955 46.531L49.3539 45.965V48.229V54.9077H49.6935V51.5117V45.7387L51.2782 45.0595L52.5234 44.3803L52.0706 44.2671H51.9574Z" fill="#38383A"/>
<path d="M22.6393 52.3041L22.2997 54.2285H22.6393L22.9789 52.3041H22.6393Z" fill="#38383A"/>
<path d="M11.5459 67.3594L12.2251 71.8873L12.3383 72.1137L12.4515 72.9061L12.6779 72.7929L11.7723 67.3594H11.5459Z" fill="#38383A"/>
<path d="M21.0545 78.2264L20.7149 78.3396L21.9601 83.5466L22.1865 83.0939L22.0733 82.3015L21.0545 78.2264Z" fill="#38383A"/>
<path d="M36.5626 89.5461L35.4306 93.3948H35.7702L36.9022 89.6593L36.5626 89.5461Z" fill="#38383A"/>
<path d="M85.1249 42.2297L85.0117 42.3429H85.2381L85.1249 42.2297Z" fill="#ABABAC"/>
<path d="M27.96 37.4763V37.7027L28.2996 37.8159L28.4128 37.5895L27.96 37.4763Z" fill="#B1B1B3"/>
<path d="M116.254 61.9263L116.141 62.0395H116.254L116.367 61.9263H116.254Z" fill="#727173"/>
<path d="M74.8232 35.5508L74.71 36.23L75.5023 36.5696V35.7772L74.8232 35.5508Z" fill="#170D1B"/>
<path d="M24.1111 46.078L22.6396 45.9648L22.5264 46.3044L23.9979 46.4176L23.7715 47.4364L23.6583 47.5496V47.8892L23.5451 48.0024V48.2288L23.4319 48.5684V48.6816L23.6583 49.2475V49.0212L23.7715 48.6816L25.0167 44.7196L24.6771 44.6064L24.1111 46.078Z" fill="#1F1F20"/>
<path d="M97.1229 54.4556L96.8965 54.682H97.0097L97.1229 54.4556Z" fill="#BEBEC2"/>
<path d="M98.2549 54.682L97.5757 55.8139H98.0285L98.2549 54.682Z" fill="#BEBEC2"/>
<path d="M79.8048 13.4773L79.4652 17.326H79.8048L80.1444 13.4773H79.8048Z" fill="#464649"/>
<path d="M19.5837 16.194L13.8106 23.5519L14.037 23.6651L15.5086 21.9671L19.9233 16.3072L19.5837 16.194Z" fill="#464649"/>
<path d="M78.4464 23.3255L77.2013 27.7402L77.4277 28.0798L78.786 23.3255H78.4464Z" fill="#464649"/>
<path d="M6 33.4001V34.4188H6.33959L6.45279 33.2869L7.81116 32.3813L9.05633 32.7209L9.73552 33.8529L10.0751 33.7397L9.28273 32.3813L7.47157 32.1549L7.69796 31.7021L7.35837 31.5889L6 33.4001Z" fill="#464649"/>
<path d="M89.4266 39.9655L87.955 40.8711L88.0682 41.0975L89.653 40.3051L91.1246 38.8336L93.2753 35.664L93.0489 35.5508L91.1246 38.2676L89.4266 39.9655Z" fill="#464649"/>
<path d="M6.90558 38.1544L6.67919 38.3808L7.01878 40.4183H7.35837L7.13198 38.8336L6.90558 38.1544Z" fill="#464649"/>
<path d="M21.1685 45.7386L22.5268 46.3046L22.64 45.965L21.5081 45.5122L20.9421 44.7198L21.1685 43.1351L22.5268 40.9843L22.4136 40.5315L20.8289 43.0219L20.6025 44.833L21.1685 45.7386Z" fill="#464649"/>
<path d="M59.4293 40.6447L58.5237 40.9843L57.3917 41.6635L57.5049 41.8899L59.6556 40.9843H61.1272L61.3536 40.6447H59.4293Z" fill="#464649"/>
<path d="M111.274 48.229V48.5685L112.066 48.9081L114.67 48.7949V48.4553L112.406 48.5685L111.274 48.229Z" fill="#464649"/>
<path d="M13.3578 48.6817L13.8106 50.2665L14.037 50.0401L13.6974 48.6817H13.3578Z" fill="#464649"/>
<path d="M9.39593 54.6812L9.73552 56.6056L10.0751 56.4924L9.73552 54.6812H9.39593Z" fill="#464649"/>
<path d="M47.0907 54.9076L47.2039 55.3604L49.2415 55.4736L52.977 55.8132L53.0902 55.4736L49.6943 54.9076H49.3547H47.0907Z" fill="#464649"/>
<path d="M25.6964 65.2086H24.1116V65.5482H25.6964V65.2086Z" fill="#464649"/>
<path d="M26.1492 68.7177V69.1705H27.5075H28.4131H32.4882H35.5446L36.4501 77.2075H36.7897L35.8842 69.2837L36.5633 69.1705V68.7177H31.5826H29.7715H26.1492Z" fill="#464649"/>
<path d="M19.4705 77.4339L17.8857 78.7923L17.9989 79.1319L19.3573 78.2263L20.2629 76.5283L20.6025 78.3395H20.7157L21.0553 78.2263L20.1497 74.604H19.6969L19.9233 75.6228L19.4705 77.4339Z" fill="#464649"/>
<path d="M104.142 76.6415L104.029 77.0943L104.142 77.6603L100.973 80.9431L99.388 82.8674L98.3692 83.5466L94.0677 85.1314L94.1809 85.471L97.3504 85.1314L97.4636 84.7918L95.8789 84.905L95.9921 84.6786L98.9352 83.6598L100.52 82.3014L100.973 81.7354L104.029 78.1131L104.595 77.8867L105.727 80.0375L101.992 82.9806L101.426 83.4334L100.86 83.9994L101.312 84.1126L102.897 82.8674L105.84 80.3771L107.199 82.075L107.425 81.9618L104.142 76.6415Z" fill="#464649"/>
<path d="M125.876 85.2446L125.537 85.3578L125.31 85.471L125.65 86.0369H125.989L126.669 82.3014H126.329L125.876 85.2446Z" fill="#464649"/>
<path d="M81.9549 6.68579L78.3326 8.72335L77.0874 9.51573L77.427 9.74213L80.0306 8.38375L79.9174 11.6665L80.257 11.8929L80.3702 8.04416L82.0681 7.02538L81.9549 6.68579Z" fill="#49484B"/>
<path d="M79.4646 17.3264L78.8986 21.0619H79.2382L79.8042 17.3264H79.4646Z" fill="#49484B"/>
<path d="M16.4135 25.2502L11.4328 32.042L11.3196 32.3816L11.6592 32.4948L16.7531 25.2502H16.4135Z" fill="#49484B"/>
<path d="M98.595 30.5705L99.3874 34.0796L99.7269 33.9664L98.9346 30.6837L98.595 30.5705Z" fill="#49484B"/>
<path d="M110.028 38.8339L109.915 38.9471L106.519 40.3055V40.6451L108.33 40.1923L110.481 39.0603L110.141 38.8339H110.028Z" fill="#49484B"/>
<path d="M40.8642 43.0222V43.3618H42.449H45.1657L45.3921 43.0222H40.8642Z" fill="#49484B"/>
<path d="M102.557 43.1354V43.475L105.5 44.7202L110.028 48.1161L111.273 48.5689V48.2293L108.217 46.4181L105.5 44.2674L102.557 43.1354Z" fill="#49484B"/>
<path d="M40.8642 45.739L40.6378 45.9653L40.8642 46.5313L40.2982 48.5689L40.6378 48.6821L41.0906 46.9841L41.883 47.4369L42.2226 47.3237L41.317 46.6445L40.8642 45.739Z" fill="#49484B"/>
<path d="M96.897 53.776L96.331 56.0399L96.6706 55.9267L96.897 54.6816L97.1234 54.4552L97.0102 54.6816V56.7191L97.5762 55.8135L98.2554 54.6816L98.029 55.8135V56.0399L98.4818 56.1531L98.7082 54.908L98.595 53.8892L97.9158 54.2288L97.6894 54.908L97.463 54.0024L96.897 53.776Z" fill="#49484B"/>
<path d="M83.5397 58.3039L83.3133 60.2282L83.6529 63.2846L84.8981 64.9825L85.8036 65.3221L85.9168 64.9825L84.8981 64.5297L83.7661 62.379L83.8793 58.4171L83.5397 58.3039Z" fill="#49484B"/>
<path d="M10.4141 61.0206L10.6405 62.2658H10.9801L10.7537 61.1338L10.4141 61.0206Z" fill="#49484B"/>
<path d="M101.425 62.6054L101.312 62.945L101.651 63.3978L99.6137 64.4165L97.2366 66.7937H97.5762L99.9533 64.6429L102.104 63.6242L105.613 66.2277L109.802 67.6993L109.915 67.2465L106.179 66.1145L102.217 63.2846L101.425 62.6054Z" fill="#49484B"/>
<path d="M38.4871 68.3785L36.5627 68.7181V69.1708L38.4871 68.7181V68.3785Z" fill="#49484B"/>
<path d="M24.2242 78.0003L23.6582 81.3962H23.9978L24.5638 78.0003H24.2242Z" fill="#49484B"/>
<path d="M14.0364 82.7546L14.376 84.4525H14.7156L14.376 82.7546H14.0364Z" fill="#49484B"/>
<path d="M83.9925 89.886L83.4265 90.1124L83.0869 90.3388L83.5397 90.452L83.9925 90.2256V89.886Z" fill="#49484B"/>
<path d="M56.1459 93.1687L55.8063 93.2819L49.6936 93.5083L49.8068 93.8479H63.9565L64.0697 93.5083H60.1078H56.2591L56.1459 93.1687Z" fill="#49484B"/>
<path d="M27.9595 37.7014L26.8275 39.739L24.6768 44.6065L25.0164 44.7197L28.2991 37.8146L27.9595 37.7014Z" fill="#1F1F20"/>
<path d="M78.8992 21.0615L78.4464 23.3255H78.786L79.2388 21.0615H78.8992Z" fill="#3C3D3D"/>
<path d="M6 34.4188L6.67919 38.3808L6.90558 38.1544L6.56599 35.7772L7.47157 36.23L8.82994 36.0036L8.71674 35.7772L7.69796 35.8904L6.90558 35.5508L6.33959 34.4188H6Z" fill="#3C3D3D"/>
<path d="M51.0526 41.5503L49.4679 42.0031L49.9207 42.2295L50.9394 41.8899L51.0526 41.5503Z" fill="#3C3D3D"/>
<path d="M8.37715 47.097L8.15075 47.4366L8.49035 49.7005L8.60354 49.9269V50.4929L8.71674 50.6061L8.82994 51.3985H9.16953V51.1721L9.05633 50.9457V50.6061L8.94314 50.2665V49.9269L8.82994 49.5873L8.37715 47.097Z" fill="#3C3D3D"/>
<path d="M10.6411 62.2654L11.0939 64.869H11.4335L10.9807 62.2654H10.6411Z" fill="#3C3D3D"/>
<path d="M116.141 67.1329L113.538 67.2461L112.858 67.3593V67.6989L113.424 67.8121L112.066 69.1705L111.613 68.9441L111.274 69.0573L113.538 71.4344L113.651 71.5476L113.764 71.6608L113.877 71.774L114.783 72.6796V72.5664V72.2268L114.217 71.5476L112.179 69.3969L113.99 67.6989L114.896 67.5857L116.254 67.4725L116.141 67.1329Z" fill="#3C3D3D"/>
<path d="M25.1304 71.4344L24.5644 75.3964H24.904L25.47 71.6608V71.4344H25.1304Z" fill="#3C3D3D"/>
<path d="M23.6588 81.3958L23.5456 82.3014L23.0928 84.905L23.206 85.1314H23.5456L23.9984 81.3958H23.6588Z" fill="#3C3D3D"/>
<path d="M76.2949 0.686196L77.0873 3.06334L77.4269 2.95015L76.9741 1.36538L77.7665 1.59178L77.9929 1.36538L76.7477 0.572998L76.2949 0.686196Z" fill="#6E6D70"/>
<path d="M94.6329 44.4937L97.4629 43.5881L97.3497 43.2485L94.7461 43.9277L94.6329 44.4937Z" fill="#6E6D70"/>
<path d="M87.2751 50.0403L86.4827 50.9459L84.5583 54.7946L84.8979 54.9078L87.1619 50.8327L87.2751 50.0403Z" fill="#6E6D70"/>
<path d="M96.1045 82.3017L94.5197 83.7732H94.9725L96.5573 82.4149L96.4441 82.3017H96.1045Z" fill="#6E6D70"/>
<path fill-rule="evenodd" clip-rule="evenodd" d="M79.8053 13.4777L79.9185 11.6665L80.2581 11.8929L80.1449 13.4777H79.8053ZM25.1309 12.5721H25.2441V12.6853H25.1309V12.5721ZM23.0933 15.5152L25.1309 12.7985L25.2441 13.2513L23.5461 15.7416L16.7542 25.2502H16.4147L17.6598 23.2127L19.2446 21.0619L19.3578 20.9487L22.4141 16.534L23.0933 15.5152ZM19.5842 16.1944L20.4898 15.0624V15.6284L19.9238 16.3076L19.5842 16.1944ZM9.2832 29.2121L13.8111 23.5522L14.0375 23.6654L9.5096 29.4385L9.2832 29.2121ZM76.6358 29.0989L77.2018 27.7406L77.4281 28.0802L77.0886 29.0989H81.3901L79.0129 34.872H78.6733L79.1261 33.4004L80.7109 29.5517H76.8622L76.5226 30.3441L75.2774 32.1553V31.4761L76.2962 29.5517H73.919V29.0989H76.6358ZM36.7902 33.74L37.0166 33.4004L38.6014 33.8532L38.375 34.0796L36.7902 33.74ZM56.8262 41.7771L57.3922 41.6639L57.5054 41.8903L56.8262 42.343H64.2972L64.184 42.6826H55.9206L52.5247 44.3806L52.0719 44.2674L52.5247 43.9278L56.8262 41.7771ZM51.8455 44.2674H51.9587V44.3806H51.8455V44.2674ZM87.2763 50.0405L88.8611 48.0029L90.8987 46.1918L93.6154 44.4938L94.521 44.607L90.6723 46.8709L88.8611 48.5689L87.1631 50.8329L87.2763 50.0405ZM16.0751 59.4359L16.3015 59.2095L17.8862 65.6617L17.9994 65.7749V66.0013L18.1126 66.2277L18.2258 67.0201L18.339 67.2465V67.4729L18.4522 67.8125V67.9257L18.5654 68.0389V68.3785L18.6786 68.4917L18.7918 68.9445L18.4522 69.1709L18.339 68.7181L18.2258 68.6049L18.1126 67.8125L17.9994 67.6993L16.0751 59.4359ZM109.803 67.6993L109.916 67.2465H110.482L110.255 67.5861L110.482 67.6993L111.614 68.9445L111.274 69.0577L109.803 67.6993ZM51.3927 84.9053V84.2262L53.5435 88.0749L53.2039 88.3013L52.9775 88.1881L52.2983 86.8297L51.3927 84.9053Z" fill="#5A5A5C"/>
<path d="M103.689 68.9443L103.236 70.8687H103.576L104.255 68.9443H103.689Z" fill="#868588"/>
<path d="M0 93.8478H4.41471H4.6411L4.7543 93.5082H2.26395H0V93.8478Z" fill="#868588"/>
<path d="M15.396 72.1137L14.7168 72.5665L15.2828 72.6797L16.528 72.3401L16.7544 72.0005L15.396 72.1137Z" fill="#8B8A8E"/>
<path d="M77.9929 37.249L78.4457 37.815L78.6721 37.4754L77.9929 37.249Z" fill="#79797C"/>
<path d="M72.6727 92.4894L71.7671 93.0554L71.0879 93.5082L73.0122 93.2818V92.4894H72.6727Z" fill="#79797C"/>
<path d="M96.4441 82.0752L96.1045 82.3016H96.4441V82.0752Z" fill="#838285"/>
<path d="M98.7088 54.908L98.4824 56.1531H99.954L100.18 55.1344V54.908H98.7088Z" fill="#FA721B"/>
<path d="M87.5014 33.4008L85.1243 36.5703L85.4638 36.6835L87.6146 33.9668L89.6522 30.0049H89.1994L87.5014 33.4008Z" fill="#6F6F71"/>
<path d="M113.65 36.3439L110.141 38.8343L110.481 39.0607L113.424 36.9099L113.65 36.3439Z" fill="#6F6F71"/>
<path d="M68.4842 88.0752L68.2578 89.094L68.371 89.66L68.5974 89.5468L68.4842 88.0752Z" fill="#6F6F71"/>
<path d="M69.2766 92.7163V93.0559H69.3898L69.2766 92.7163Z" fill="#6F6F71"/>
<path d="M67.2393 36.3435L67.5789 37.2491L68.258 37.9283L69.39 38.1547L70.1824 37.8151L68.824 37.5887H68.4844L67.692 36.4567V35.0984L68.0316 34.5324L68.824 33.4004H68.1448L67.3525 34.7588L67.2393 36.3435Z" fill="#717176"/>
<path d="M112.405 9.7419V10.6475L112.632 11.5531L113.424 12.4586L115.348 12.9114L117.16 11.7795L117.499 10.5343L117.046 8.72312L115.688 7.81754L114.783 7.70435L112.971 8.60993L112.405 9.7419Z" fill="#FEFEFE"/>
<path d="M34.0726 15.1754L31.9219 16.7602L32.4879 17.5525L33.5066 16.7602L34.0726 15.1754Z" fill="#FEFEFE"/>
<path d="M118.971 27.0611H117.612V30.5703H122.48V25.7028H119.424V26.6083L118.971 27.0611Z" fill="#FEFEFE"/>
<path d="M31.0159 18.1184L32.4875 17.5524L31.9215 16.76L30.1104 18.0052L31.0159 18.1184Z" fill="#FDFDFD"/>
<path d="M117.5 25.7029L117.613 27.0613H118.972L119.424 26.6085V25.7029H117.5Z" fill="#FEFEFD"/>
<path d="M115.349 12.9113L113.424 12.4585L113.085 13.2509L112.066 13.4773L112.292 18.458L113.311 19.5899L114.783 20.2691L112.405 24.6838L110.028 27.627L110.255 27.8534L113.085 24.3442L115.122 20.1559L116.594 19.5899L117.613 18.458L117.839 11.8925L117.16 11.7793L115.349 12.9113Z" fill="#201D29"/>
<path d="M104.141 6.79883L103.915 6.91203L104.707 9.28917L105.047 9.17598L104.821 7.81761L104.141 6.79883Z" fill="#211D29"/>
<path d="M117.5 10.5342L117.16 11.7794L117.839 11.8926V10.7606L117.5 10.5342Z" fill="#1E1C27"/>
<path d="M112.064 10.6479V13.4779L113.083 13.2515L113.423 12.4591L112.63 11.5535L112.404 10.6479H112.064Z" fill="#1C1A22"/>
<path d="M28.2987 35.4377H28.4119V35.5509H28.2987V35.6641H28.1855V35.5509H28.2987V35.4377Z" fill="#606FFD"/>
<path d="M112.178 9.17591L112.065 10.6475H112.405V9.74189L112.971 8.60992L114.782 7.70434L115.688 7.81754L117.046 8.72312L117.499 10.5343L117.838 10.7607V9.5155L117.272 8.38352L115.461 7.36475L113.99 7.47794L112.971 8.04393L112.178 9.17591Z" fill="#505052"/>
<path d="M43.2411 28.5327H43.1279V28.6459H43.2411V28.5327Z" fill="#505052"/>
<path d="M43.3543 28.8723H43.2411V28.9855H43.3543V28.8723Z" fill="#505052"/>
<path d="M119.197 41.324H119.083V41.4372H119.197V41.324Z" fill="#505052"/>
<path d="M118.97 42.456H118.857V42.5692H118.97V42.456Z" fill="#505052"/>
<path d="M118.744 43.4748H118.631V43.588H118.744V43.4748Z" fill="#505052"/>
<path d="M43.3543 68.4914H43.2411V68.6046H43.3543V68.4914Z" fill="#505052"/>
<path d="M47.0898 79.4716H46.9766V79.5848H47.0898V79.4716Z" fill="#505052"/>
<path d="M19.356 20.9487H19.2432V21.0615H19.356V20.9487Z" fill="#C0C0C1"/>
<path d="M96.3319 25.3638H96.2187V25.477H96.3319V25.3638Z" fill="#555557"/>
<path d="M105.614 28.8729L105.388 29.0993L106.18 29.7785L107.199 29.6653L107.312 29.3257L106.293 29.4389L105.614 28.8729Z" fill="#555557"/>
<path d="M35.4316 31.25H35.3184V31.3632H35.4316V31.25Z" fill="#555557"/>
<path d="M83.3141 40.419H83.2009V40.5322H83.3141V40.419Z" fill="#555557"/>
<path d="M83.2009 40.7586H83.0877V40.8718H83.2009V40.7586Z" fill="#555557"/>
<path d="M115.462 72.7936H115.349V72.9067H115.462V72.7936Z" fill="#555557"/>
<path d="M115.009 73.0199H115.123V73.1331H115.236V73.2463H115.123V73.1331H115.009V73.0199Z" fill="#555557"/>
<path d="M116.368 73.8123H116.255V73.9255H116.368V73.8123Z" fill="#555557"/>
<path d="M116.934 74.4915H116.821V74.6047H116.934V74.4915Z" fill="#555557"/>
<path d="M116.594 74.6047H116.481V74.7179H116.594V74.6047Z" fill="#555557"/>
<path d="M12.904 45.0596H12.7908V45.1728H12.904V45.0596Z" fill="#4E4E4F"/>
<path d="M12.6777 45.6256H12.5645V45.7388H12.6777V45.6256Z" fill="#4E4E4F"/>
<path d="M12.7908 45.9652H12.6777V46.0783H12.7908V45.9652Z" fill="#4E4E4F"/>
<path d="M13.1304 46.0783H13.0172V46.1915H13.1304V46.0783Z" fill="#4E4E4F"/>
<path d="M12.904 46.5311H12.7908V46.6443H12.904V46.5311Z" fill="#4E4E4F"/>
<path d="M23.771 47.4367H23.6578V47.5499H23.771V47.4367Z" fill="#4E4E4F"/>
<path d="M23.6578 47.8895H23.5446V48.0027H23.6578V47.8895Z" fill="#4E4E4F"/>
<path d="M123.838 82.9808H123.724V83.094H123.838V82.9808Z" fill="#4E4E4F"/>
<path d="M123.724 83.4336H123.611V83.5467H123.724V83.4336Z" fill="#4E4E4F"/>
<path d="M87.8408 90.1122H87.7276V90.2254H87.8408V90.1122Z" fill="#4E4E4F"/>
<path d="M73.012 92.0366H72.8988V92.1498H73.012V92.0366Z" fill="#4E4E4F"/>
<path d="M71.2008 92.9422H71.0876V93.0553H71.2008V92.9422Z" fill="#4E4E4F"/>
<path d="M105.047 9.17554L104.707 9.28873L105.047 11.5527L104.821 17.6654V17.8917L104.594 25.7024H104.934L105.387 15.9674V10.8735L105.047 9.17554Z" fill="#38383A"/>
<path d="M11.5458 67.2459H11.4326V67.3591H11.5458V67.2459Z" fill="#38383A"/>
<path d="M101.765 6.00724L101.199 6.46003L101.312 6.79962L101.991 6.34683H103.01L103.915 6.91282L104.142 6.79962L103.915 6.34683L102.897 5.89404L101.765 6.00724Z" fill="#727173"/>
<path d="M89.7656 29.7787L91.8032 25.364L91.69 24.798L89.7656 28.76V29.7787Z" fill="#727173"/>
<path d="M112.292 88.9811H112.179V89.0943H112.292V88.9811Z" fill="#727173"/>
<path d="M13.2441 47.8892H13.1309V48.0024H13.2441V47.8892Z" fill="#464649"/>
<path d="M104.142 76.4149H104.029V76.5281H104.142V76.4149Z" fill="#464649"/>
<path d="M104.82 27.9668L105.386 29.0988L105.613 28.8724L104.934 25.7029H104.594L104.82 27.9668Z" fill="#49484B"/>
<path d="M11.3193 32.3815H11.2061V32.4947H11.3193V32.3815Z" fill="#49484B"/>
<path d="M97.0098 53.4363H96.8966V53.5495H97.0098V53.4363Z" fill="#49484B"/>
<path d="M38.5999 68.2652H38.4867V68.3784H38.5999V68.2652Z" fill="#49484B"/>
<path d="M24.337 77.321H24.2238V77.4342H24.337V77.321Z" fill="#49484B"/>
<path d="M108.329 28.9863L107.311 29.3259L107.197 29.6655L108.556 29.3259L110.254 27.8543L110.027 27.6279L108.329 28.9863Z" fill="#3C3D3D"/>
<path d="M8.37589 46.3055H8.2627V46.4187H8.37589V46.3055Z" fill="#3C3D3D"/>
<path d="M11.8847 40.7588H11.7715V40.872H11.8847V40.7588Z" fill="#6E6D70"/>
<path d="M84.5575 54.7953H84.4443V54.9085H84.5575V54.7953Z" fill="#6E6D70"/>
<path d="M22.9786 11.7793H23.0918V11.8925H22.9786V12.0057H22.8654V11.8925H22.9786V11.7793Z" fill="#5A5A5C"/>
<path d="M22.639 12.2321H22.7522V12.3453H22.639V12.4585H22.5258V12.3453H22.639V12.2321Z" fill="#5A5A5C"/>
<path d="M22.1862 12.7981H22.2994V12.9113H22.1862V13.0245H22.0731V12.9113H22.1862V12.7981Z" fill="#5A5A5C"/>
<path d="M21.8467 13.2509H21.9599V13.3641H21.8467V13.4773H21.7335V13.5905H21.6203V13.4773H21.7335V13.3641H21.8467V13.2509Z" fill="#5A5A5C"/>
<path d="M96.3307 13.7037L91.6896 24.797L91.8028 25.363L96.7834 13.7037H96.3307Z" fill="#5A5A5C"/>
<path d="M21.3939 13.9301H21.2807V14.0432H21.3939V13.9301Z" fill="#5A5A5C"/>
<path d="M21.0543 14.2696H21.1675V14.3828H21.0543V14.496H20.9411V14.6092H20.8279V14.496H20.9411V14.3828H21.0543V14.2696Z" fill="#5A5A5C"/>
<path d="M20.6015 14.9488H20.4883V15.062H20.6015V14.9488Z" fill="#5A5A5C"/>
<path d="M8.71574 50.4929H8.60254V50.6061H8.71574V50.4929Z" fill="#5A5A5C"/>
<path d="M113.65 71.4344H113.537V71.5476H113.65V71.4344Z" fill="#5A5A5C"/>
<path d="M113.876 71.6608H113.763V71.774H113.876V71.6608Z" fill="#5A5A5C"/>
<path d="M119.536 78.1131H119.423V78.2263H119.536V78.1131Z" fill="#5A5A5C"/>
<path d="M120.442 79.245H120.329V79.3582H120.442V79.245Z" fill="#5A5A5C"/>
<path d="M49.6933 81.7354H49.5801V81.8486H49.6933V81.7354Z" fill="#5A5A5C"/>
<path d="M50.8252 82.8674H50.712V82.9806H50.8252V82.8674Z" fill="#5A5A5C"/>
<path d="M51.278 83.7729H51.1648V83.8861H51.278V83.7729Z" fill="#5A5A5C"/>
<path d="M51.3912 83.9993H51.278V84.1125H51.3912V83.9993Z" fill="#5A5A5C"/>
<path d="M51.3912 84.7917H51.278V84.9049H51.3912V84.7917Z" fill="#5A5A5C"/>
<path d="M51.8442 44.2668H51.7314V44.3796H51.8442V44.2668Z" fill="#868588"/>
<path d="M97.3509 81.0562H97.4641V81.1693H97.3509V81.2825H97.2377V81.3957H97.1245V81.5089H97.0113V81.6221H96.8981V81.7353H96.7849V81.8485H96.6717V81.9617H96.5585V82.0749H96.4453V81.9617H96.5585V81.8485H96.6717V81.7353H96.7849V81.6221H96.8981V81.5089H97.0113V81.3957H97.1245V81.2825H97.2377V81.1693H97.3509V81.0562Z" fill="#838285"/>
<path d="M99.388 8.83638L101.312 6.79882L101.199 6.45923L99.1616 8.49678L97.4636 11.4399V12.2323L99.388 8.83638Z" fill="#6F6F71"/>
<path d="M113.99 35.8906H114.104V36.0038H113.99V36.117H113.877V36.2302H113.764V36.3434H113.651V36.2302H113.764V36.117H113.877V36.0038H113.99V35.8906Z" fill="#6F6F71"/>
<path d="M110.029 38.8337H109.915V38.9469H110.029V38.8337Z" fill="#6F6F71"/>
<path d="M17.9989 65.6616H17.8857V65.7748H17.9989V65.6616Z" fill="#6F6F71"/>
<path d="M18.1121 67.6991H17.9989V67.8123H18.1121V67.6991Z" fill="#6F6F71"/>
<path d="M18.5649 67.9255H18.4517V68.0387H18.5649V67.9255Z" fill="#6F6F71"/>
<path d="M18.6781 68.3783H18.5649V68.4915H18.6781V68.3783Z" fill="#6F6F71"/>
<path d="M18.3385 68.6047H18.2253V68.7179H18.3385V68.6047Z" fill="#6F6F71"/>
<path d="M69.1642 90.7914H69.051V90.9046H69.1642V90.7914Z" fill="#6F6F71"/>
</svg>
