<svg width="161" height="111" viewBox="0 0 161 111" fill="none" xmlns="http://www.w3.org/2000/svg">
<path d="M58.525 13V4.552H55.661V2.568H63.757V4.552H60.893V13H58.525ZM69.1861 13.192C68.2475 13.192 67.4208 12.9733 66.7061 12.536C66.0021 12.0987 65.4475 11.4747 65.0421 10.664C64.6475 9.85333 64.4501 8.87733 64.4501 7.736C64.4501 6.60533 64.6475 5.64 65.0421 4.84C65.4475 4.04 66.0021 3.432 66.7061 3.016C67.4208 2.58933 68.2475 2.376 69.1861 2.376C70.1248 2.376 70.9515 2.58933 71.6661 3.016C72.3808 3.432 72.9355 4.04 73.3301 4.84C73.7248 5.64 73.9221 6.60533 73.9221 7.736C73.9221 8.87733 73.7248 9.85333 73.3301 10.664C72.9355 11.4747 72.3808 12.0987 71.6661 12.536C70.9515 12.9733 70.1248 13.192 69.1861 13.192ZM69.1861 11.16C69.6661 11.16 70.0768 11.0213 70.4181 10.744C70.7701 10.456 71.0368 10.056 71.2181 9.544C71.4101 9.032 71.5061 8.42933 71.5061 7.736C71.5061 7.04267 71.4101 6.45067 71.2181 5.96C71.0368 5.45867 70.7701 5.08 70.4181 4.824C70.0768 4.55733 69.6661 4.424 69.1861 4.424C68.7168 4.424 68.3061 4.55733 67.9541 4.824C67.6021 5.08 67.3301 5.45867 67.1381 5.96C66.9568 6.45067 66.8661 7.04267 66.8661 7.736C66.8661 8.42933 66.9568 9.032 67.1381 9.544C67.3301 10.056 67.6021 10.456 67.9541 10.744C68.3061 11.0213 68.7168 11.16 69.1861 11.16ZM75.8836 13V2.568H79.4676C80.2356 2.568 80.929 2.67467 81.5476 2.888C82.177 3.09067 82.6783 3.43733 83.0516 3.928C83.425 4.41867 83.6116 5.08533 83.6116 5.928C83.6116 6.73867 83.425 7.40533 83.0516 7.928C82.6783 8.45067 82.1823 8.84 81.5636 9.096C80.945 9.34133 80.2676 9.464 79.5316 9.464H78.2356V13H75.8836ZM78.2356 7.592H79.3876C80.0383 7.592 80.5183 7.448 80.8276 7.16C81.1476 6.872 81.3076 6.46133 81.3076 5.928C81.3076 5.37333 81.137 4.98933 80.7956 4.776C80.4543 4.552 79.9636 4.44 79.3236 4.44H78.2356V7.592ZM88.506 13V11.096H90.714V5.224H88.81V3.768C89.3647 3.66133 89.834 3.53333 90.218 3.384C90.6127 3.23467 90.986 3.05333 91.338 2.84H93.066V11.096H94.97V13H88.506ZM100.063 13.192C98.9751 13.192 98.0951 12.7387 97.4231 11.832C96.7618 10.9253 96.4311 9.608 96.4311 7.88C96.4311 6.14133 96.7618 4.83467 97.4231 3.96C98.0951 3.08533 98.9751 2.648 100.063 2.648C101.151 2.648 102.026 3.09067 102.687 3.976C103.359 4.85067 103.695 6.152 103.695 7.88C103.695 9.608 103.359 10.9253 102.687 11.832C102.026 12.7387 101.151 13.192 100.063 13.192ZM100.063 11.368C100.33 11.368 100.57 11.272 100.783 11.08C100.996 10.8773 101.162 10.5253 101.279 10.024C101.407 9.512 101.471 8.79733 101.471 7.88C101.471 6.952 101.407 6.24267 101.279 5.752C101.162 5.26133 100.996 4.92533 100.783 4.744C100.57 4.56267 100.33 4.472 100.063 4.472C99.7965 4.472 99.5565 4.56267 99.3431 4.744C99.1298 4.92533 98.9591 5.26133 98.8311 5.752C98.7138 6.24267 98.6551 6.952 98.6551 7.88C98.6551 8.79733 98.7138 9.512 98.8311 10.024C98.9591 10.5253 99.1298 10.8773 99.3431 11.08C99.5565 11.272 99.7965 11.368 100.063 11.368ZM56.5526 30V19.504H59.1766C60.2539 19.504 61.1606 19.7067 61.8966 20.112C62.6326 20.5173 63.1872 21.1093 63.5606 21.888C63.9446 22.656 64.1366 23.5947 64.1366 24.704C64.1366 25.8133 63.9446 26.768 63.5606 27.568C63.1872 28.3573 62.6379 28.96 61.9126 29.376C61.1872 29.792 60.2966 30 59.2406 30H56.5526ZM57.8806 28.912H59.0806C59.9019 28.912 60.5846 28.7467 61.1286 28.416C61.6726 28.0747 62.0779 27.5947 62.3446 26.976C62.6112 26.3573 62.7446 25.6 62.7446 24.704C62.7446 23.8293 62.6112 23.0827 62.3446 22.464C62.0779 21.8453 61.6726 21.3813 61.1286 21.072C60.5846 20.752 59.9019 20.592 59.0806 20.592H57.8806V28.912ZM66.3963 30V19.504H67.7243V30H66.3963ZM74.7274 30.192C73.7994 30.192 72.9781 29.9787 72.2634 29.552C71.5594 29.1147 71.0048 28.4907 70.5994 27.68C70.1941 26.8693 69.9914 25.8933 69.9914 24.752C69.9914 23.9093 70.1088 23.152 70.3434 22.48C70.5888 21.808 70.9248 21.2373 71.3514 20.768C71.7888 20.288 72.3008 19.9253 72.8874 19.68C73.4741 19.4347 74.1141 19.312 74.8074 19.312C75.5328 19.312 76.1408 19.4453 76.6314 19.712C77.1328 19.9787 77.5328 20.2773 77.8314 20.608L77.0954 21.44C76.8394 21.1627 76.5301 20.9333 76.1674 20.752C75.8154 20.5707 75.3728 20.48 74.8394 20.48C74.1354 20.48 73.5221 20.656 72.9994 21.008C72.4768 21.3493 72.0714 21.8347 71.7834 22.464C71.5061 23.0933 71.3674 23.8453 71.3674 24.72C71.3674 25.6053 71.5008 26.368 71.7674 27.008C72.0448 27.648 72.4394 28.144 72.9514 28.496C73.4741 28.848 74.1088 29.024 74.8554 29.024C75.2288 29.024 75.5861 28.9707 75.9274 28.864C76.2688 28.7467 76.5408 28.592 76.7434 28.4V25.664H74.5194V24.56H77.9594V28.976C77.6288 29.328 77.1808 29.6213 76.6154 29.856C76.0608 30.08 75.4314 30.192 74.7274 30.192ZM80.4744 30V19.504H81.8024V30H80.4744ZM86.8536 30V20.64H83.6856V19.504H91.3656V20.64H88.1976V30H86.8536ZM91.2231 30L94.7751 19.504H96.2791L99.8311 30H98.4231L96.5831 24.128C96.3911 23.5413 96.2097 22.96 96.0391 22.384C95.8684 21.7973 95.6977 21.2 95.5271 20.592H95.4631C95.3031 21.2 95.1377 21.7973 94.9671 22.384C94.7964 22.96 94.6151 23.5413 94.4231 24.128L92.5671 30H91.2231ZM93.0791 26.8V25.744H97.9271V26.8H93.0791ZM101.303 30V19.504H102.631V28.864H107.223V30H101.303ZM42.7479 47V36.504H44.4279L46.4119 42.12C46.5399 42.472 46.6572 42.824 46.7639 43.176C46.8812 43.528 46.9985 43.9013 47.1159 44.296H47.1799C47.2972 43.9013 47.4092 43.528 47.5159 43.176C47.6225 42.824 47.7345 42.472 47.8519 42.12L49.8359 36.504H51.4999V47H50.2519V41.224C50.2519 40.9147 50.2625 40.568 50.2839 40.184C50.3052 39.8 50.3265 39.4213 50.3479 39.048C50.3799 38.664 50.4119 38.3173 50.4439 38.008H50.3799L49.5639 40.536L47.5959 45.96H46.6199L44.6519 40.536L43.8359 38.008H43.7719C43.8039 38.3173 43.8305 38.664 43.8519 39.048C43.8839 39.4213 43.9105 39.8 43.9319 40.184C43.9532 40.568 43.9639 40.9147 43.9639 41.224V47H42.7479ZM52.9809 47L56.5329 36.504H58.0369L61.5889 47H60.1809L58.3409 41.128C58.1489 40.5413 57.9675 39.96 57.7969 39.384C57.6262 38.7973 57.4555 38.2 57.2849 37.592H57.2209C57.0609 38.2 56.8955 38.7973 56.7249 39.384C56.5542 39.96 56.3729 40.5413 56.1809 41.128L54.3249 47H52.9809ZM54.8369 43.8V42.744H59.6849V43.8H54.8369ZM63.0604 47V36.504H66.3404C67.055 36.504 67.6897 36.6 68.2444 36.792C68.799 36.9733 69.231 37.2827 69.5404 37.72C69.8604 38.1467 70.0204 38.7227 70.0204 39.448C70.0204 40.152 69.8604 40.7333 69.5404 41.192C69.231 41.6507 68.799 41.9973 68.2444 42.232C67.6897 42.456 67.055 42.568 66.3404 42.568H64.3884V47H63.0604ZM64.3884 41.48H66.1484C66.9697 41.48 67.599 41.3147 68.0364 40.984C68.4737 40.6427 68.6924 40.1307 68.6924 39.448C68.6924 38.7653 68.4737 38.2853 68.0364 38.008C67.599 37.72 66.9697 37.576 66.1484 37.576H64.3884V41.48ZM68.8204 47L66.0844 42.2L67.1244 41.496L70.3244 47H68.8204ZM72.1697 47V36.504H73.4977V41.768H73.5457L77.9137 36.504H79.4177L76.1377 40.504L79.9297 47H78.4417L75.3057 41.544L73.4977 43.672V47H72.1697ZM81.4354 47V36.504H87.4834V37.624H82.7634V40.92H86.7474V42.056H82.7634V45.864H87.6434V47H81.4354ZM92.0489 47V37.64H88.8809V36.504H96.5609V37.64H93.3929V47H92.0489ZM98.451 47V36.504H99.779V47H98.451ZM102.654 47V36.504H104.11L107.838 43.032C108.041 43.384 108.233 43.752 108.414 44.136C108.595 44.5093 108.777 44.8933 108.958 45.288H109.022C108.99 44.744 108.953 44.1893 108.91 43.624C108.867 43.048 108.846 42.4933 108.846 41.96V36.504H110.126V47H108.67L104.942 40.472C104.75 40.12 104.553 39.752 104.35 39.368C104.158 38.984 103.977 38.6 103.806 38.216H103.742C103.785 38.7387 103.822 39.2773 103.854 39.832C103.897 40.3867 103.918 40.9467 103.918 41.512V47H102.654ZM117.142 47.192C116.214 47.192 115.392 46.9787 114.678 46.552C113.974 46.1147 113.419 45.4907 113.014 44.68C112.608 43.8693 112.406 42.8933 112.406 41.752C112.406 40.9093 112.523 40.152 112.758 39.48C113.003 38.808 113.339 38.2373 113.766 37.768C114.203 37.288 114.715 36.9253 115.302 36.68C115.888 36.4347 116.528 36.312 117.222 36.312C117.947 36.312 118.555 36.4453 119.046 36.712C119.547 36.9787 119.947 37.2773 120.246 37.608L119.51 38.44C119.254 38.1627 118.944 37.9333 118.582 37.752C118.23 37.5707 117.787 37.48 117.254 37.48C116.55 37.48 115.936 37.656 115.414 38.008C114.891 38.3493 114.486 38.8347 114.198 39.464C113.92 40.0933 113.782 40.8453 113.782 41.72C113.782 42.6053 113.915 43.368 114.182 44.008C114.459 44.648 114.854 45.144 115.366 45.496C115.888 45.848 116.523 46.024 117.27 46.024C117.643 46.024 118 45.9707 118.342 45.864C118.683 45.7467 118.955 45.592 119.158 45.4V42.664H116.934V41.56H120.374V45.976C120.043 46.328 119.595 46.6213 119.03 46.856C118.475 47.08 117.846 47.192 117.142 47.192ZM40.6059 64L44.1579 53.504H45.6619L49.2139 64H47.8059L45.9659 58.128C45.7739 57.5413 45.5925 56.96 45.4219 56.384C45.2512 55.7973 45.0805 55.2 44.9099 54.592H44.8459C44.6859 55.2 44.5205 55.7973 44.3499 56.384C44.1792 56.96 43.9979 57.5413 43.8059 58.128L41.9499 64H40.6059ZM42.4619 60.8V59.744H47.3099V60.8H42.4619ZM54.5131 64.192C53.6385 64.192 52.8491 63.9787 52.1451 63.552C51.4518 63.1147 50.9078 62.4907 50.5131 61.68C50.1185 60.8693 49.9211 59.8933 49.9211 58.752C49.9211 57.9093 50.0331 57.152 50.2571 56.48C50.4918 55.808 50.8225 55.2373 51.2491 54.768C51.6758 54.288 52.1665 53.9253 52.7211 53.68C53.2865 53.4347 53.9051 53.312 54.5771 53.312C55.2065 53.312 55.7665 53.44 56.2571 53.696C56.7585 53.952 57.1585 54.256 57.4571 54.608L56.7371 55.424C56.4598 55.1253 56.1398 54.896 55.7771 54.736C55.4251 54.5653 55.0305 54.48 54.5931 54.48C53.9425 54.48 53.3665 54.656 52.8651 55.008C52.3745 55.3493 51.9905 55.84 51.7131 56.48C51.4358 57.1093 51.2971 57.856 51.2971 58.72C51.2971 59.6053 51.4305 60.368 51.6971 61.008C51.9638 61.648 52.3478 62.144 52.8491 62.496C53.3505 62.8373 53.9371 63.008 54.6091 63.008C55.0998 63.008 55.5371 62.9173 55.9211 62.736C56.3158 62.544 56.6731 62.2667 56.9931 61.904L57.6971 62.688C57.2811 63.168 56.8171 63.5413 56.3051 63.808C55.7931 64.064 55.1958 64.192 54.5131 64.192ZM58.2777 64L61.8297 53.504H63.3337L66.8857 64H65.4777L63.6377 58.128C63.4457 57.5413 63.2644 56.96 63.0937 56.384C62.9231 55.7973 62.7524 55.2 62.5817 54.592H62.5177C62.3577 55.2 62.1924 55.7973 62.0217 56.384C61.8511 56.96 61.6697 57.5413 61.4777 58.128L59.6217 64H58.2777ZM60.1337 60.8V59.744H64.9817V60.8H60.1337ZM68.3572 64V53.504H70.9812C72.0586 53.504 72.9652 53.7067 73.7012 54.112C74.4372 54.5173 74.9919 55.1093 75.3652 55.888C75.7492 56.656 75.9412 57.5947 75.9412 58.704C75.9412 59.8133 75.7492 60.768 75.3652 61.568C74.9919 62.3573 74.4426 62.96 73.7172 63.376C72.9919 63.792 72.1012 64 71.0452 64H68.3572ZM69.6852 62.912H70.8852C71.7066 62.912 72.3892 62.7467 72.9332 62.416C73.4772 62.0747 73.8826 61.5947 74.1492 60.976C74.4159 60.3573 74.5492 59.6 74.5492 58.704C74.5492 57.8293 74.4159 57.0827 74.1492 56.464C73.8826 55.8453 73.4772 55.3813 72.9332 55.072C72.3892 54.752 71.7066 54.592 70.8852 54.592H69.6852V62.912ZM78.201 64V53.504H84.249V54.624H79.529V57.92H83.513V59.056H79.529V62.864H84.409V64H78.201ZM86.6385 64V53.504H88.3185L90.3025 59.12C90.4305 59.472 90.5478 59.824 90.6545 60.176C90.7718 60.528 90.8892 60.9013 91.0065 61.296H91.0705C91.1878 60.9013 91.2998 60.528 91.4065 60.176C91.5132 59.824 91.6252 59.472 91.7425 59.12L93.7265 53.504H95.3905V64H94.1425V58.224C94.1425 57.9147 94.1532 57.568 94.1745 57.184C94.1958 56.8 94.2172 56.4213 94.2385 56.048C94.2705 55.664 94.3025 55.3173 94.3345 55.008H94.2705L93.4545 57.536L91.4865 62.96H90.5105L88.5425 57.536L87.7265 55.008H87.6625C87.6945 55.3173 87.7212 55.664 87.7425 56.048C87.7745 56.4213 87.8012 56.8 87.8225 57.184C87.8438 57.568 87.8545 57.9147 87.8545 58.224V64H86.6385ZM99.9595 64V59.936L96.8075 53.504H98.2315L99.5915 56.464C99.7515 56.848 99.9115 57.2267 100.072 57.6C100.242 57.9733 100.418 58.3573 100.6 58.752H100.664C100.856 58.3573 101.037 57.9733 101.208 57.6C101.389 57.2267 101.56 56.848 101.72 56.464L103.064 53.504H104.456L101.288 59.936V64H99.9595ZM109.076 64V53.504H110.404V64H109.076ZM113.279 64V53.504H114.735L118.463 60.032C118.666 60.384 118.858 60.752 119.039 61.136C119.22 61.5093 119.402 61.8933 119.583 62.288H119.647C119.615 61.744 119.578 61.1893 119.535 60.624C119.492 60.048 119.471 59.4933 119.471 58.96V53.504H120.751V64H119.295L115.567 57.472C115.375 57.12 115.178 56.752 114.975 56.368C114.783 55.984 114.602 55.6 114.431 55.216H114.367C114.41 55.7387 114.447 56.2773 114.479 56.832C114.522 57.3867 114.543 57.9467 114.543 58.512V64H113.279ZM64.1697 81V70.504H65.4977V81H64.1697ZM68.3729 81V70.504H69.8289L73.5569 77.032C73.7595 77.384 73.9515 77.752 74.1329 78.136C74.3142 78.5093 74.4955 78.8933 74.6769 79.288H74.7409C74.7089 78.744 74.6715 78.1893 74.6289 77.624C74.5862 77.048 74.5649 76.4933 74.5649 75.96V70.504H75.8449V81H74.3889L70.6609 74.472C70.4689 74.12 70.2715 73.752 70.0689 73.368C69.8769 72.984 69.6955 72.6 69.5249 72.216H69.4609C69.5035 72.7387 69.5409 73.2773 69.5729 73.832C69.6155 74.3867 69.6369 74.9467 69.6369 75.512V81H68.3729ZM78.7322 81V70.504H81.3562C82.4336 70.504 83.3402 70.7067 84.0762 71.112C84.8122 71.5173 85.3669 72.1093 85.7402 72.888C86.1242 73.656 86.3162 74.5947 86.3162 75.704C86.3162 76.8133 86.1242 77.768 85.7402 78.568C85.3669 79.3573 84.8176 79.96 84.0922 80.376C83.3669 80.792 82.4762 81 81.4202 81H78.7322ZM80.0602 79.912H81.2602C82.0816 79.912 82.7642 79.7467 83.3082 79.416C83.8522 79.0747 84.2576 78.5947 84.5242 77.976C84.7909 77.3573 84.9242 76.6 84.9242 75.704C84.9242 74.8293 84.7909 74.0827 84.5242 73.464C84.2576 72.8453 83.8522 72.3813 83.3082 72.072C82.7642 71.752 82.0816 71.592 81.2602 71.592H80.0602V79.912ZM88.576 81V70.504H89.904V81H88.576ZM91.3871 81L94.9391 70.504H96.4431L99.9951 81H98.5871L96.7471 75.128C96.5551 74.5413 96.3738 73.96 96.2031 73.384C96.0325 72.7973 95.8618 72.2 95.6911 71.592H95.6271C95.4671 72.2 95.3018 72.7973 95.1311 73.384C94.9605 73.96 94.7791 74.5413 94.5871 75.128L92.7311 81H91.3871ZM93.2431 77.8V76.744H98.0911V77.8H93.2431Z" fill="#EDA221" fill-opacity="0.9"/>
<mask id="mask0_487_57627" style="mask-type:luminance" maskUnits="userSpaceOnUse" x="26" y="72" width="8" height="18">
<path d="M33.1093 89.7411C34.8046 85.3071 34.131 77.5526 28.4118 72.4393C24.3093 79.0608 28.6434 86.6225 33.1093 89.7411Z" fill="white"/>
</mask>
<g mask="url(#mask0_487_57627)">
<path d="M33.1093 89.7411C34.8046 85.3071 34.131 77.5526 28.4118 72.4393C24.3093 79.0608 28.6434 86.6225 33.1093 89.7411Z" fill="#EDA221" fill-opacity="0.9"/>
</g>
<mask id="mask1_487_57627" style="mask-type:luminance" maskUnits="userSpaceOnUse" x="18" y="62" width="7" height="19">
<path d="M21.5234 62.5419C19.3916 64.6533 16.2034 73.158 23.3078 80.0745C25.504 75.0911 25.9901 67.4283 21.5234 62.5419Z" fill="white"/>
</mask>
<g mask="url(#mask1_487_57627)">
<path d="M21.5234 62.5419C19.3916 64.6533 16.2034 73.158 23.3078 80.0745C25.504 75.0911 25.9901 67.4283 21.5234 62.5419Z" fill="#EDA221" fill-opacity="0.9"/>
</g>
<mask id="mask2_487_57627" style="mask-type:luminance" maskUnits="userSpaceOnUse" x="6" y="1" width="10" height="25">
<path d="M15.3453 1.57317C6.4902 10.1434 5.3217 16.8921 7.8379 25.2879C11.748 21.7759 15.0406 11.6791 15.3453 1.57317Z" fill="white"/>
</mask>
<g mask="url(#mask2_487_57627)">
<path d="M15.3453 1.57317C6.4902 10.1434 5.3217 16.8921 7.8379 25.2879C11.748 21.7759 15.0406 11.6791 15.3453 1.57317Z" fill="#EDA221" fill-opacity="0.9"/>
</g>
<mask id="mask3_487_57627" style="mask-type:luminance" maskUnits="userSpaceOnUse" x="12" y="52" width="7" height="16">
<path d="M16.4804 52.2473C11.7059 54.8925 12.2404 63.3854 15.0629 67.8036C18.2521 63.6857 20.5808 58.5711 16.4804 52.2473Z" fill="white"/>
</mask>
<g mask="url(#mask3_487_57627)">
<path d="M16.4804 52.2473C11.7059 54.8925 12.2404 63.3854 15.0629 67.8036C18.2521 63.6857 20.5808 58.5711 16.4804 52.2473Z" fill="#EDA221" fill-opacity="0.9"/>
</g>
<mask id="mask4_487_57627" style="mask-type:luminance" maskUnits="userSpaceOnUse" x="9" y="41" width="8" height="15">
<path d="M15.5958 41.9458C12.7063 42.8651 7.40338 48.0925 9.81287 55.6411C13.4832 52.8714 17.9136 47.021 15.5958 41.9458Z" fill="white"/>
</mask>
<g mask="url(#mask4_487_57627)">
<path d="M15.5958 41.9458C12.7063 42.8651 7.40338 48.0925 9.81287 55.6411C13.4832 52.8714 17.9136 47.021 15.5958 41.9458Z" fill="#EDA221" fill-opacity="0.9"/>
</g>
<mask id="mask5_487_57627" style="mask-type:luminance" maskUnits="userSpaceOnUse" x="8" y="30" width="8" height="15">
<path d="M15.3907 30.3672C13.2594 30.9338 7.1691 35.6248 8.27328 44.0088C12.2713 41.8882 17.054 37.8699 15.3907 30.3672Z" fill="white"/>
</mask>
<g mask="url(#mask5_487_57627)">
<path d="M15.3907 30.3672C13.2594 30.9338 7.1691 35.6248 8.27328 44.0088C12.2713 41.8882 17.054 37.8699 15.3907 30.3672Z" fill="#EDA221" fill-opacity="0.9"/>
</g>
<mask id="mask6_487_57627" style="mask-type:luminance" maskUnits="userSpaceOnUse" x="8" y="19" width="9" height="14">
<path d="M8.08787 32.9059C11.86 31.2929 17.5143 24.5495 16.475 19.0572C12.6683 20.122 7.86025 26.6661 8.08787 32.9059Z" fill="white"/>
</mask>
<g mask="url(#mask6_487_57627)">
<path d="M8.08787 32.9059C11.86 31.2929 17.5143 24.5495 16.475 19.0572C12.6683 20.122 7.86025 26.6661 8.08787 32.9059Z" fill="#EDA221" fill-opacity="0.9"/>
</g>
<mask id="mask7_487_57627" style="mask-type:luminance" maskUnits="userSpaceOnUse" x="14" y="85" width="20" height="8">
<path d="M33.9999 91.1339C28.2989 86.1176 19.203 84.2515 14.9102 85.8881C20.7387 95.1088 29.9409 93.4053 33.9999 91.1339Z" fill="white"/>
</mask>
<g mask="url(#mask7_487_57627)">
<path d="M33.9999 91.1339C28.2989 86.1176 19.203 84.2515 14.9102 85.8881C20.7387 95.1088 29.9409 93.4053 33.9999 91.1339Z" fill="#EDA221" fill-opacity="0.9"/>
</g>
<mask id="mask8_487_57627" style="mask-type:luminance" maskUnits="userSpaceOnUse" x="36" y="83" width="9" height="15">
<path d="M44.6184 97.1598C45.1396 92.5199 43.1443 84.5765 37.2683 83.0789C35.8447 85.6191 35.5836 92.8216 44.6184 97.1598Z" fill="white"/>
</mask>
<g mask="url(#mask8_487_57627)">
<path d="M44.6184 97.1598C45.1396 92.5199 43.1443 84.5765 37.2683 83.0789C35.8447 85.6191 35.5836 92.8216 44.6184 97.1598Z" fill="#EDA221" fill-opacity="0.9"/>
</g>
<mask id="mask9_487_57627" style="mask-type:luminance" maskUnits="userSpaceOnUse" x="26" y="95" width="21" height="7">
<path d="M46.6437 98.6562C42.545 96.7153 32.7155 94.0478 26.4707 96.9933C35.1437 104.4 44.5405 100.381 46.6437 98.6562Z" fill="white"/>
</mask>
<g mask="url(#mask9_487_57627)">
<path d="M46.6437 98.6562C42.545 96.7153 32.7155 94.0478 26.4707 96.9933C35.1437 104.4 44.5405 100.381 46.6437 98.6562Z" fill="#EDA221" fill-opacity="0.9"/>
</g>
<mask id="mask10_487_57627" style="mask-type:luminance" maskUnits="userSpaceOnUse" x="46" y="90" width="12" height="13">
<path d="M57.2268 102.32C56.7831 97.6098 54.1108 91.4775 46.7806 90.0087C45.981 92.5673 47.0131 99.5441 57.2268 102.32Z" fill="white"/>
</mask>
<g mask="url(#mask10_487_57627)">
<path d="M57.2268 102.32C56.7831 97.6098 54.1108 91.4775 46.7806 90.0087C45.981 92.5673 47.0131 99.5441 57.2268 102.32Z" fill="#EDA221" fill-opacity="0.9"/>
</g>
<mask id="mask11_487_57627" style="mask-type:luminance" maskUnits="userSpaceOnUse" x="36" y="102" width="24" height="7">
<path d="M59.2788 103.463C54.7359 102.277 42.3214 100.878 36.9229 104.941C47.6117 111.944 57.5934 105.459 59.2788 103.463Z" fill="white"/>
</mask>
<g mask="url(#mask11_487_57627)">
<path d="M59.2788 103.463C54.7359 102.277 42.3214 100.878 36.9229 104.941C47.6117 111.944 57.5934 105.459 59.2788 103.463Z" fill="#EDA221" fill-opacity="0.9"/>
</g>
<mask id="mask12_487_57627" style="mask-type:luminance" maskUnits="userSpaceOnUse" x="59" y="95" width="14" height="11">
<path d="M72.5856 105.425C71.2807 99.3776 64.6224 96.6748 59.4021 95.5522C58.9484 101.553 65.5233 104.939 72.5856 105.425Z" fill="white"/>
</mask>
<g mask="url(#mask12_487_57627)">
<path d="M72.5856 105.425C71.2807 99.3776 64.6224 96.6748 59.4021 95.5522C58.9484 101.553 65.5233 104.939 72.5856 105.425Z" fill="#EDA221" fill-opacity="0.9"/>
</g>
<mask id="mask13_487_57627" style="mask-type:luminance" maskUnits="userSpaceOnUse" x="53" y="105" width="20" height="6">
<path d="M53.8379 108.893C67.1609 113.714 72.5311 109.146 72.5762 106.251C67.8534 105.878 56.5719 105.253 53.8379 108.893Z" fill="white"/>
</mask>
<g mask="url(#mask13_487_57627)">
<path d="M53.8379 108.893C67.1609 113.714 72.5311 109.146 72.5762 106.251C67.8534 105.878 56.5719 105.253 53.8379 108.893Z" fill="#EDA221" fill-opacity="0.9"/>
</g>
<mask id="mask14_487_57627" style="mask-type:luminance" maskUnits="userSpaceOnUse" x="7" y="72" width="17" height="10">
<path d="M7.385 72.1535C6.90062 82.4417 18.3642 81.8778 23.7497 81.9447C22.0588 79.7795 12.6692 71.9516 7.385 72.1535Z" fill="white"/>
</mask>
<g mask="url(#mask14_487_57627)">
<path d="M7.385 72.1535C6.90062 82.4417 18.3642 81.8778 23.7497 81.9447C22.0588 79.7795 12.6692 71.9516 7.385 72.1535Z" fill="#EDA221" fill-opacity="0.9"/>
</g>
<mask id="mask15_487_57627" style="mask-type:luminance" maskUnits="userSpaceOnUse" x="1" y="57" width="15" height="14">
<path d="M1.36454 57.9073C0.997839 66.2834 8.46888 70.4931 15.6727 70.3659C13.498 66.3188 7.71719 58.6417 1.36454 57.9073Z" fill="white"/>
</mask>
<g mask="url(#mask15_487_57627)">
<path d="M1.36454 57.9073C0.997839 66.2834 8.46888 70.4931 15.6727 70.3659C13.498 66.3188 7.71719 58.6417 1.36454 57.9073Z" fill="#EDA221" fill-opacity="0.9"/>
</g>
<mask id="mask16_487_57627" style="mask-type:luminance" maskUnits="userSpaceOnUse" x="0" y="44" width="10" height="14">
<path d="M9.73478 57.6371C8.73463 54.0241 7.32204 47.6217 1.05343 44.5057C-1.31637 52.0294 5.62454 57.1427 9.73478 57.6371Z" fill="white"/>
</mask>
<g mask="url(#mask16_487_57627)">
<path d="M9.73478 57.6371C8.73463 54.0241 7.32204 47.6217 1.05343 44.5057C-1.31637 52.0294 5.62454 57.1427 9.73478 57.6371Z" fill="#EDA221" fill-opacity="0.9"/>
</g>
<mask id="mask17_487_57627" style="mask-type:luminance" maskUnits="userSpaceOnUse" x="0" y="32" width="8" height="14">
<path d="M7.79714 45.7397C7.47437 41.8185 4.81402 34.0221 0.801188 32.7972C-2.44207 42.0048 5.02742 45.0106 7.79714 45.7397Z" fill="white"/>
</mask>
<g mask="url(#mask17_487_57627)">
<path d="M7.79714 45.7397C7.47437 41.8185 4.81402 34.0221 0.801188 32.7972C-2.44207 42.0048 5.02742 45.0106 7.79714 45.7397Z" fill="#EDA221" fill-opacity="0.9"/>
</g>
<mask id="mask18_487_57627" style="mask-type:luminance" maskUnits="userSpaceOnUse" x="1" y="18" width="7" height="18">
<path d="M7.42843 35.7268C7.7391 32.1505 8.13776 23.7875 3.00809 18.8735C-0.624393 30.1493 5.44179 34.8049 7.42843 35.7268Z" fill="white"/>
</mask>
<g mask="url(#mask18_487_57627)">
<path d="M7.42843 35.7268C7.7391 32.1505 8.13776 23.7875 3.00809 18.8735C-0.624393 30.1493 5.44179 34.8049 7.42843 35.7268Z" fill="#EDA221" fill-opacity="0.9"/>
</g>
<mask id="mask19_487_57627" style="mask-type:luminance" maskUnits="userSpaceOnUse" x="126" y="72" width="8" height="18">
<path d="M127.465 89.7411C125.769 85.3071 126.443 77.5526 132.162 72.4393C136.264 79.0608 131.93 86.6225 127.465 89.7411Z" fill="white"/>
</mask>
<g mask="url(#mask19_487_57627)">
<path d="M127.465 89.7411C125.769 85.3071 126.443 77.5526 132.162 72.4393C136.264 79.0608 131.93 86.6225 127.465 89.7411Z" fill="#EDA221" fill-opacity="0.9"/>
</g>
<mask id="mask20_487_57627" style="mask-type:luminance" maskUnits="userSpaceOnUse" x="135" y="62" width="7" height="19">
<path d="M139.047 62.5419C141.178 64.6533 144.366 73.158 137.262 80.0745C135.066 75.0911 134.58 67.4283 139.047 62.5419Z" fill="white"/>
</mask>
<g mask="url(#mask20_487_57627)">
<path d="M139.047 62.5419C141.178 64.6533 144.366 73.158 137.262 80.0745C135.066 75.0911 134.58 67.4283 139.047 62.5419Z" fill="#EDA221" fill-opacity="0.9"/>
</g>
<mask id="mask21_487_57627" style="mask-type:luminance" maskUnits="userSpaceOnUse" x="145" y="1" width="9" height="25">
<path d="M145.226 1.57317C154.08 10.1434 155.25 16.8921 152.733 25.2879C148.822 21.7759 145.53 11.6791 145.226 1.57317Z" fill="white"/>
</mask>
<g mask="url(#mask21_487_57627)">
<path d="M145.226 1.57317C154.08 10.1434 155.25 16.8921 152.733 25.2879C148.822 21.7759 145.53 11.6791 145.226 1.57317Z" fill="#EDA221" fill-opacity="0.9"/>
</g>
<mask id="mask22_487_57627" style="mask-type:luminance" maskUnits="userSpaceOnUse" x="141" y="52" width="7" height="16">
<path d="M144.092 52.2472C148.867 54.8923 148.332 63.3852 145.508 67.8034C142.32 63.6855 139.991 58.5709 144.092 52.2472Z" fill="white"/>
</mask>
<g mask="url(#mask22_487_57627)">
<path d="M144.092 52.2472C148.867 54.8923 148.332 63.3852 145.508 67.8034C142.32 63.6855 139.991 58.5709 144.092 52.2472Z" fill="#EDA221" fill-opacity="0.9"/>
</g>
<mask id="mask23_487_57627" style="mask-type:luminance" maskUnits="userSpaceOnUse" x="144" y="41" width="8" height="15">
<path d="M144.974 41.9458C147.864 42.8651 153.167 48.0925 150.757 55.6411C147.087 52.8714 142.656 47.021 144.974 41.9458Z" fill="white"/>
</mask>
<g mask="url(#mask23_487_57627)">
<path d="M144.974 41.9458C147.864 42.8651 153.167 48.0925 150.757 55.6411C147.087 52.8714 142.656 47.021 144.974 41.9458Z" fill="#EDA221" fill-opacity="0.9"/>
</g>
<mask id="mask24_487_57627" style="mask-type:luminance" maskUnits="userSpaceOnUse" x="144" y="30" width="9" height="15">
<path d="M145.18 30.3672C147.311 30.9338 153.402 35.6248 152.298 44.0088C148.301 41.8882 143.517 37.8699 145.18 30.3672Z" fill="white"/>
</mask>
<g mask="url(#mask24_487_57627)">
<path d="M145.18 30.3672C147.311 30.9338 153.402 35.6248 152.298 44.0088C148.301 41.8882 143.517 37.8699 145.18 30.3672Z" fill="#EDA221" fill-opacity="0.9"/>
</g>
<mask id="mask25_487_57627" style="mask-type:luminance" maskUnits="userSpaceOnUse" x="143" y="19" width="10" height="14">
<path d="M152.481 32.906C148.71 31.2929 143.055 24.5495 144.094 19.0572C147.9 20.1221 152.709 26.6662 152.481 32.906Z" fill="white"/>
</mask>
<g mask="url(#mask25_487_57627)">
<path d="M152.481 32.906C148.71 31.2929 143.055 24.5495 144.094 19.0572C147.9 20.1221 152.709 26.6662 152.481 32.906Z" fill="#EDA221" fill-opacity="0.9"/>
</g>
<mask id="mask26_487_57627" style="mask-type:luminance" maskUnits="userSpaceOnUse" x="126" y="85" width="20" height="8">
<path d="M126.57 91.1339C132.271 86.1176 141.368 84.2515 145.66 85.8881C139.832 95.1088 130.63 93.4053 126.57 91.1339Z" fill="white"/>
</mask>
<g mask="url(#mask26_487_57627)">
<path d="M126.57 91.1339C132.271 86.1176 141.368 84.2515 145.66 85.8881C139.832 95.1088 130.63 93.4053 126.57 91.1339Z" fill="#EDA221" fill-opacity="0.9"/>
</g>
<mask id="mask27_487_57627" style="mask-type:luminance" maskUnits="userSpaceOnUse" x="115" y="83" width="10" height="15">
<path d="M115.954 97.1599C115.432 92.52 117.428 84.5767 123.303 83.079C124.726 85.6192 124.988 92.8217 115.954 97.1599Z" fill="white"/>
</mask>
<g mask="url(#mask27_487_57627)">
<path d="M115.954 97.1599C115.432 92.52 117.428 84.5767 123.303 83.079C124.726 85.6192 124.988 92.8217 115.954 97.1599Z" fill="#EDA221" fill-opacity="0.9"/>
</g>
<mask id="mask28_487_57627" style="mask-type:luminance" maskUnits="userSpaceOnUse" x="113" y="95" width="22" height="7">
<path d="M113.928 98.6562C118.027 96.7153 127.857 94.0478 134.101 96.9933C125.427 104.4 116.031 100.381 113.928 98.6562Z" fill="white"/>
</mask>
<g mask="url(#mask28_487_57627)">
<path d="M113.928 98.6562C118.027 96.7153 127.857 94.0478 134.101 96.9933C125.427 104.4 116.031 100.381 113.928 98.6562Z" fill="#EDA221" fill-opacity="0.9"/>
</g>
<mask id="mask29_487_57627" style="mask-type:luminance" maskUnits="userSpaceOnUse" x="103" y="90" width="12" height="13">
<path d="M103.348 102.32C103.791 97.6098 106.464 91.4775 113.794 90.0087C114.593 92.5673 113.562 99.5441 103.348 102.32Z" fill="white"/>
</mask>
<g mask="url(#mask29_487_57627)">
<path d="M103.348 102.32C103.791 97.6098 106.464 91.4775 113.794 90.0087C114.593 92.5673 113.562 99.5441 103.348 102.32Z" fill="#EDA221" fill-opacity="0.9"/>
</g>
<mask id="mask30_487_57627" style="mask-type:luminance" maskUnits="userSpaceOnUse" x="101" y="102" width="23" height="7">
<path d="M101.292 103.463C105.835 102.277 118.249 100.878 123.647 104.941C112.959 111.944 102.977 105.459 101.292 103.463Z" fill="white"/>
</mask>
<g mask="url(#mask30_487_57627)">
<path d="M101.292 103.463C105.835 102.277 118.249 100.878 123.647 104.941C112.959 111.944 102.977 105.459 101.292 103.463Z" fill="#EDA221" fill-opacity="0.9"/>
</g>
<mask id="mask31_487_57627" style="mask-type:luminance" maskUnits="userSpaceOnUse" x="87" y="95" width="15" height="11">
<path d="M87.9834 105.425C89.2883 99.3775 95.9466 96.6746 101.168 95.5521C101.621 101.553 95.0457 104.939 87.9834 105.425Z" fill="white"/>
</mask>
<g mask="url(#mask31_487_57627)">
<path d="M87.9834 105.425C89.2883 99.3775 95.9466 96.6746 101.168 95.5521C101.621 101.553 95.0457 104.939 87.9834 105.425Z" fill="#EDA221" fill-opacity="0.9"/>
</g>
<mask id="mask32_487_57627" style="mask-type:luminance" maskUnits="userSpaceOnUse" x="87" y="105" width="20" height="6">
<path d="M106.734 108.893C93.4118 113.714 88.0402 109.146 87.9951 106.251C92.7178 105.878 103.999 105.253 106.734 108.893Z" fill="white"/>
</mask>
<g mask="url(#mask32_487_57627)">
<path d="M106.734 108.893C93.4118 113.714 88.0402 109.146 87.9951 106.251C92.7178 105.878 103.999 105.253 106.734 108.893Z" fill="#EDA221" fill-opacity="0.9"/>
</g>
<mask id="mask33_487_57627" style="mask-type:luminance" maskUnits="userSpaceOnUse" x="136" y="72" width="18" height="10">
<path d="M153.187 72.1535C153.671 82.4417 142.207 81.8778 136.821 81.9446C138.513 79.7795 147.902 71.9515 153.187 72.1535Z" fill="white"/>
</mask>
<g mask="url(#mask33_487_57627)">
<path d="M153.187 72.1535C153.671 82.4417 142.207 81.8778 136.821 81.9446C138.513 79.7795 147.902 71.9515 153.187 72.1535Z" fill="#EDA221" fill-opacity="0.9"/>
</g>
<mask id="mask34_487_57627" style="mask-type:luminance" maskUnits="userSpaceOnUse" x="144" y="57" width="16" height="14">
<path d="M159.208 57.9073C159.575 66.2834 152.105 70.4931 144.9 70.3659C147.075 66.3188 152.857 58.6417 159.208 57.9073Z" fill="white"/>
</mask>
<g mask="url(#mask34_487_57627)">
<path d="M159.208 57.9073C159.575 66.2834 152.105 70.4931 144.9 70.3659C147.075 66.3188 152.857 58.6417 159.208 57.9073Z" fill="#EDA221" fill-opacity="0.9"/>
</g>
<mask id="mask35_487_57627" style="mask-type:luminance" maskUnits="userSpaceOnUse" x="150" y="44" width="10" height="14">
<path d="M150.836 57.6372C151.837 54.0242 153.25 47.6218 159.518 44.5058C161.888 52.0295 154.946 57.1428 150.836 57.6372Z" fill="white"/>
</mask>
<g mask="url(#mask35_487_57627)">
<path d="M150.836 57.6372C151.837 54.0242 153.25 47.6218 159.518 44.5058C161.888 52.0295 154.946 57.1428 150.836 57.6372Z" fill="#EDA221" fill-opacity="0.9"/>
</g>
<mask id="mask36_487_57627" style="mask-type:luminance" maskUnits="userSpaceOnUse" x="152" y="32" width="9" height="14">
<path d="M152.777 45.7398C153.1 41.8186 155.76 34.0221 159.773 32.7972C163.017 42.0048 155.546 45.0106 152.777 45.7398Z" fill="white"/>
</mask>
<g mask="url(#mask36_487_57627)">
<path d="M152.777 45.7398C153.1 41.8186 155.76 34.0221 159.773 32.7972C163.017 42.0048 155.546 45.0106 152.777 45.7398Z" fill="#EDA221" fill-opacity="0.9"/>
</g>
<mask id="mask37_487_57627" style="mask-type:luminance" maskUnits="userSpaceOnUse" x="152" y="18" width="7" height="18">
<path d="M153.14 35.7269C152.829 32.1506 152.431 23.7876 157.561 18.8736C161.194 30.1494 155.127 34.805 153.14 35.7269Z" fill="white"/>
</mask>
<g mask="url(#mask37_487_57627)">
<path d="M153.14 35.7269C152.829 32.1506 152.431 23.7876 157.561 18.8736C161.194 30.1494 155.127 34.805 153.14 35.7269Z" fill="#EDA221" fill-opacity="0.9"/>
</g>
</svg>
