<svg width="123" height="95" viewBox="0 0 123 95" fill="none" xmlns="http://www.w3.org/2000/svg">
<path d="M68.2648 11.3176L67.8606 11.5197L66.8501 14.7534L66.648 16.9765H67.8606H68.0627L69.2753 11.3176H68.2648Z" fill="#1467F9"/>
<path d="M66.648 18.1891V19.8059V20.6143L68.2648 25.4648H69.2753L68.0627 20.6143L67.8606 18.1891H66.648Z" fill="#1467F9"/>
<path d="M24.6107 55.7802L23.1959 56.3865L22.1854 59.2159L21.7812 60.4285L21.377 61.2369L20.1644 64.6727L19.356 66.6937L17.1329 72.5547L16.1224 75.182L15.9203 75.7883L14.5055 79.6283L13.0908 83.8724L21.377 84.0745L21.7812 83.064L23.398 78.8199L24.2065 76.7988L25.0149 74.7778L25.4191 73.5652L26.2275 71.3421L27.0359 69.1189L27.4401 68.1084L28.2485 65.8853L30.0674 60.6306H30.6737L30.8758 62.8538L31.8864 67.9063V68.3105L32.2906 70.1295L32.4927 71.5442L32.6948 72.7568L33.099 74.3736L33.5032 76.7988L33.9074 79.4262L34.3116 81.2451V81.6493L34.7158 83.4682L35.3221 83.6703L36.1305 82.2556L36.5347 81.043L37.141 79.2241L37.5452 76.5967V71.9484V70.5337L36.7368 67.5021L33.7053 61.8433L29.4611 58.0033L24.6107 55.7802Z" fill="#1467F9"/>
<path d="M80.391 62.6517L77.5615 63.8643L74.7321 66.0874L72.1047 69.1189L71.4984 69.9274L71.7005 71.3421L74.3279 77.4051L74.7321 77.6072L77.5615 74.1715L78.572 72.5547L77.5615 71.14L78.7741 72.3526L79.7846 73.5652L83.2204 77.6072L84.2309 78.6178L88.4751 82.4577L89.2835 82.8619V78.6178L90.9003 73.9694L92.9213 70.5337L85.0393 63.4601L83.2204 62.6517H80.391Z" fill="#1467F9"/>
<path d="M66.2438 77.6072L65.4354 77.4051L64.8291 78.2136L64.0206 79.2241L57.7555 86.7019L56.5429 88.1166L57.1492 88.925H59.7765H61.7975H65.2333L67.6585 86.0956L69.2753 84.0745L68.8711 82.6598L68.4669 81.8514L67.4564 80.0325L66.2438 77.6072Z" fill="#1467F9"/>
<path d="M82.8162 78.8199L79.3804 80.0325L78.3699 80.2346L76.9552 80.8409L76.1468 81.8514L77.5615 85.2871L78.1678 86.904L79.5825 89.9355L82.6141 92.3607L84.6351 93.3712L92.5171 93.7754H95.7507V92.5628L95.5486 92.1586L94.1339 91.1481L91.9108 88.7229L90.4961 86.7019L88.4751 86.4998L80.9973 85.4892V84.8829H82.6141L88.4751 85.8934L90.0919 86.0956V85.085L88.2729 82.8619L84.0288 78.8199H82.8162Z" fill="#1467F9"/>
<path d="M69.8816 84.8829L68.0627 86.2977L67.6585 87.3082L67.8606 89.5313L68.669 90.7439L72.509 92.7649L74.7321 93.3712H75.7426L75.9447 92.5628V91.5523L75.5405 89.1271L75.3384 88.5208L74.7321 87.7124H71.2963L69.8816 84.8829Z" fill="#1467F9"/>
<path d="M57.5536 17.3807L57.3515 15.966H56.9473L56.341 17.785L55.5326 17.9871V18.1892L55.7347 18.9976L54.7242 18.7955H54.5221V19.806L51.4906 19.6039H51.0863L48.6611 21.0186L46.6401 23.848L46.0338 30.5174L46.2359 31.3258L46.8422 33.9532L48.2569 34.5595L47.8527 29.9111L48.0548 29.1027L48.2569 29.9111L48.459 32.7405L48.6611 33.3468V34.5595V34.7616L48.8632 35.57L49.6716 42.4415L49.8737 43.0478L49.4695 44.8667H49.8737L50.0758 43.6541H60.7873L61.1915 43.452V42.0373L60.9894 41.0267L60.3831 39.8141L58.362 37.591L56.5431 33.1447L55.3305 30.3153L55.7347 29.709L56.9473 33.1447L58.7662 37.3889L60.5852 39.612L66.4461 38.8036L73.3176 36.1763L72.9134 34.9637H74.9344V34.5595H72.3071L71.7008 33.7511L71.4987 33.3468H72.3071H74.126V32.7405L73.3176 32.9426H71.7008L71.0945 33.1447L62.6062 34.5595L60.3831 27.4859L57.9578 23.0396V22.4333L65.2335 15.5618V14.5513L65.4356 14.3492L66.244 13.3387L66.0419 13.1366L65.2335 13.7429V11.924L65.0314 11.5198L57.5536 17.3807Z" fill="#010101"/>
<path d="M25.8235 29.5069V30.1132H26.2277L26.6319 26.4754L28.2488 27.4859L28.8551 28.6985L29.2593 29.1027L29.8656 30.7195L30.2698 30.5174L30.4719 30.1132L31.0379 30.2749C31.5826 30.4306 32.1664 30.3702 32.6677 30.1063L35.2089 28.7688C35.5128 28.6089 35.668 28.262 35.5847 27.9289C35.5456 27.7725 35.4568 27.633 35.3317 27.5314L32.2908 25.0606L33.2303 23.8527C33.5346 23.4615 33.671 22.9654 33.6095 22.4736L33.5875 22.2977C33.5341 21.8705 33.2975 21.4876 32.9392 21.2488C32.5333 20.9782 32.0202 20.9247 31.5672 21.1059L31.3056 21.2106C30.6611 21.4684 30.1944 22.0395 30.0702 22.7226L29.8656 23.848L29.4467 23.7782C28.9264 23.6915 28.3925 23.7407 27.8967 23.9209C26.9342 24.2709 26.0748 24.8567 25.3972 25.6247L24.4166 26.736C23.7421 27.5005 23.1936 28.3676 22.792 29.3048L25.8235 29.5069Z" fill="#010101"/>
<path d="M100.601 49.9193H102.016L102.42 49.7171L102.218 50.1214L101.41 52.3445L100.399 52.5466V52.9508L101.006 53.1529L97.9741 57.8013L97.772 58.0033L97.9741 58.4076L100.804 54.1634L102.42 55.1739L103.229 55.376L105.654 52.9508L106.665 52.7487L107.675 55.7802H108.281L107.271 52.7487L106.462 52.3445L105.654 52.1424L105.048 51.9403L104.037 49.1108L105.654 46.8877L105.452 46.0793L104.239 45.6751L103.633 46.2814L101.814 44.8667L101.208 44.2604L99.9952 49.1108L100.601 49.9193Z" fill="#010101"/>
<path d="M55.5326 59.0139L56.9473 63.4601H57.5536V62.4496L57.7557 61.8433H57.9578L58.1599 61.6412L56.9473 59.0139H55.5326Z" fill="#010101"/>
<path d="M75.1365 60.8328H75.945H76.5513L79.5828 60.4286L80.7954 61.237L81.6038 60.6307V59.4181L74.126 59.0139V59.6202L75.1365 59.8223V60.8328Z" fill="#010101"/>
<path d="M83.0193 0.202393L80.392 0.404495L80.7962 1.21291L87.0613 0.606598L87.6677 0.8087H88.4761L88.6782 0.404495L86.6571 0.202393H83.6256H83.0193Z" fill="#0A090B"/>
<path d="M101.209 12.9349L101.411 14.3496L101.613 14.9559V15.5622H102.017V15.3601L101.613 12.9349H101.209Z" fill="#0A090B"/>
<path d="M56.746 13.5412L56.9481 15.9664H57.3523L57.1502 13.5412H56.746Z" fill="#0A090B"/>
<path d="M54.5228 17.5832V18.7958H54.7249L55.5334 18.1895V17.9874L55.3313 17.7853L54.5228 17.5832Z" fill="#0A090B"/>
<path d="M31.2811 32.3367L30.8769 32.943L30.4726 34.1556L30.8769 34.3577L31.4832 32.7409H32.6958L32.8979 32.3367H31.2811Z" fill="#0A090B"/>
<path d="M27.4411 34.3577L27.0369 34.5598V35.1661L27.239 35.7724L27.8453 38.3998L29.0579 37.7935L28.6537 37.5914H28.0474L27.6432 35.3682L27.4411 34.7619V34.3577Z" fill="#0A090B"/>
<path d="M88.8803 34.7619L87.4656 34.964L86.8592 35.1661H86.2529V35.5703H87.0613L87.8698 35.3682H88.274L88.8803 35.1661V34.7619Z" fill="#0A090B"/>
<path d="M24.6117 38.804L23.3991 40.4208L23.8033 40.6229L24.6117 39.6124L24.8138 41.0271L25.6222 42.6439L26.0264 42.4418L25.218 40.4208L25.0159 39.8145V37.9956L25.218 37.3893V36.9851L24.8138 36.5808L24.6117 38.804Z" fill="#0A090B"/>
<path d="M34.7168 40.825V43.6544V44.4628H35.121V43.2502L35.5252 42.6439L35.3231 41.2292H37.5462V40.825H35.9294H34.7168Z" fill="#0A090B"/>
<path d="M38.7589 42.2397L39.7694 48.5049H40.1736L39.9715 46.2818L39.7694 45.6755L39.1631 42.2397H38.7589Z" fill="#0A090B"/>
<path d="M31.2811 45.2713L29.4621 45.4734L29.8663 45.8776L32.0895 45.6755L31.2811 45.2713Z" fill="#0A090B"/>
<path d="M35.7273 46.8881L37.142 50.5259L37.5462 50.3238L36.7378 46.8881H35.7273Z" fill="#0A090B"/>
<path d="M48.864 48.5049V49.7175L48.6619 50.5259V52.5469H49.0661V51.3343L49.2682 50.1217V48.707L48.864 48.5049Z" fill="#0A090B"/>
<path d="M18.1444 54.7701L15.1129 55.1743L15.315 55.5785L16.9318 55.3764L17.5381 55.1743H18.1444V54.7701Z" fill="#0A090B"/>
<path d="M48.4598 54.9722V56.9932H48.864V54.9722H48.4598Z" fill="#0A090B"/>
<path d="M107.676 55.7806L107.878 56.7911L108.282 56.589V55.7806H107.676Z" fill="#0A090B"/>
<path d="M40.7799 56.3869V57.1953V58.2058L41.1841 57.8016V56.3869H40.982H40.7799Z" fill="#0A090B"/>
<path d="M39.3652 57.5995L39.7694 59.4184H40.1736V59.0142L39.9715 58.4079L39.7694 57.5995H39.3652Z" fill="#0A090B"/>
<path d="M108.686 59.2163L108.282 60.0247V61.8437L108.686 61.4395V59.2163Z" fill="#0A090B"/>
<path d="M81.6046 60.631L80.7962 61.2374L81.8067 62.0458L80.1899 62.2479L80.392 62.6521H83.2214L85.0403 63.4605V63.0563L84.6361 62.8542L85.0403 61.6416L85.8487 61.8437L86.0508 61.4395L81.6046 59.4184V60.631Z" fill="#0A090B"/>
<path d="M56.9481 63.4605V64.471L56.746 65.0773L56.5439 67.9067H56.9481L57.1502 65.6836L57.3523 65.0773L57.5544 63.4605H56.9481Z" fill="#0A090B"/>
<path d="M101.815 66.2899L99.3896 66.8962L99.1875 67.5025L99.7938 67.7046L102.219 67.0983L101.815 66.2899Z" fill="#0A090B"/>
<path d="M56.1397 70.1299V70.9383L56.5439 71.1404V70.332L56.1397 70.1299Z" fill="#0A090B"/>
<path d="M0.359375 71.9488V72.9593H0.76358V72.353L0.359375 71.9488Z" fill="#0A090B"/>
<path d="M55.7355 73.1614V73.7677L55.5334 74.5761V75.3845V75.7887H55.9376L56.1397 73.5656L55.7355 73.1614Z" fill="#0A090B"/>
<path d="M0.359375 76.7992L0.561477 78.8203H0.965683V78.0119L0.76358 77.2035V76.7992H0.359375Z" fill="#0A090B"/>
<path d="M43.6093 77.2035L43.8114 78.8203H44.2156L44.0135 77.2035H43.6093Z" fill="#0A090B"/>
<path d="M117.377 77.4056L116.973 77.6077L117.175 81.0434L117.579 81.2455V78.4161L117.377 77.8098V77.4056Z" fill="#0A090B"/>
<path d="M90.9013 78.6182V79.0224L91.3055 79.2245V78.6182H90.9013Z" fill="#0A090B"/>
<path d="M90.9013 82.0539L91.1034 83.8728L91.5076 83.6707L91.3055 82.0539H90.9013Z" fill="#0A090B"/>
<path d="M54.5228 83.0644L54.3207 84.8833V85.0854H54.7249L54.927 83.0644H54.5228Z" fill="#0A090B"/>
<path d="M34.7168 83.4686L34.3126 83.6707V85.4897L34.7168 86.096V86.5002L34.9189 87.3086L35.3231 89.9359H35.7273V89.3296L35.5252 88.7233L35.121 84.8833L37.5462 84.4791V84.0749L35.7273 83.6707H35.3231L34.7168 83.4686Z" fill="#0A090B"/>
<path d="M39.1631 84.0749V84.4791H40.3757V84.0749H39.1631Z" fill="#0A090B"/>
<path d="M41.5883 84.0749V84.4791L45.2261 84.0749H44.6198H41.5883Z" fill="#0A090B"/>
<path d="M49.4703 87.7128V88.7233L49.2682 89.7338V90.9464L49.0661 91.7548V92.9674H49.4703V92.159L49.6724 91.1485V90.138H52.2997L53.1081 91.3506L53.3102 91.1485L52.906 89.1275L53.1081 87.9149L53.7144 87.7128V87.3086H48.864V85.2876H48.4598V87.7128H49.4703Z" fill="#0A090B"/>
<path d="M16.5276 86.096V86.2981L16.3255 86.9044V87.3086L16.1234 87.9149L15.9213 89.7338H16.3255L16.9318 86.096H16.5276Z" fill="#0A090B"/>
<path d="M59.7775 88.9254V89.7338L60.9901 90.7443L60.788 91.3506L60.3838 93.1695H60.788L61.5964 89.5317L61.7985 89.3296V88.9254H59.7775Z" fill="#0A090B"/>
<path d="M38.3546 89.1275L38.1525 90.138V90.3401L38.3546 90.7443L39.9715 92.7653L41.9925 93.3717V92.9674L39.5673 91.7548L38.7589 89.1275H38.3546Z" fill="#0A090B"/>
<path d="M36.3336 93.1695H35.9294V93.7759L36.3336 94.1801V93.7759V93.1695Z" fill="#0A090B"/>
<path d="M99.1875 92.9674L98.5812 93.7759L98.7833 94.3822H107.069L107.272 93.7759V93.3717L102.421 93.5738L99.1875 92.9674Z" fill="#0A090B"/>
<path d="M22.7928 94.1801V93.3717L18.7507 93.5738H18.1444L14.7087 93.3717V94.1801H22.7928Z" fill="#0A090B"/>
<path d="M76.1478 94.1801L75.7436 93.3717H74.7331V94.1801H76.1478Z" fill="#0A090B"/>
<path d="M71.4995 5.45679L69.6806 6.4673L70.0848 7.07361L69.2764 7.88202L69.4785 8.48832L71.7016 5.65889L71.4995 5.45679Z" fill="#161422"/>
<path d="M52.0977 10.3072H51.2893L50.8851 10.7115H52.2998L54.9271 8.48832L55.1292 8.08412H54.1187L52.0977 10.3072Z" fill="#161422"/>
<path d="M70.2869 9.49884L69.4785 11.3178H69.8827L70.6911 9.49884H70.2869Z" fill="#161422"/>
<path d="M53.9166 13.743L53.5124 13.9451L54.1187 14.9556L53.7145 16.3703L53.9166 16.5724L54.725 14.7535L53.9166 13.743Z" fill="#161422"/>
<path d="M66.447 14.5514L66.0428 17.785H66.6491V16.9766L66.8512 14.7535L66.6491 14.5514H66.447Z" fill="#161422"/>
<path d="M101.613 15.5619L101.815 17.785L101.613 18.9977V20.2103H102.017V19.8061L102.219 18.9977V16.1682L102.017 15.5619H101.613Z" fill="#161422"/>
<path d="M66.2449 19.8061V20.2103V20.6145H66.6491V19.8061H66.2449Z" fill="#161422"/>
<path d="M27.6433 30.1133H26.2286H25.8244L26.2286 30.9217L27.4412 30.7196V32.5385L27.8454 32.7406L29.2601 29.1028L28.8559 28.6986L27.6433 30.1133Z" fill="#161422"/>
<path d="M77.7647 33.7511L77.1584 34.5595L77.3605 34.7616L77.9668 35.1658L77.3605 34.9637L75.5416 34.5595H74.9353V34.9637L80.7962 35.5701L81.6046 35.7722H82.8173V35.1658L81.8067 34.9637L77.7647 33.7511Z" fill="#161422"/>
<path d="M38.5568 39.8142L38.1526 40.0163V40.2184V40.8247H37.5463V41.2289H38.5568L38.7589 42.2394H39.1631L38.5568 39.8142Z" fill="#161422"/>
<path d="M19.3571 40.2184L18.5487 41.6331L18.9529 41.8352H22.1865L22.3886 41.431L19.3571 41.2289L19.7613 40.4205L19.3571 40.2184Z" fill="#161422"/>
<path d="M34.7169 44.4626L33.5043 44.8668L33.7064 45.271H34.919L35.3232 46.2815L35.7274 46.0794L35.1211 44.4626H34.7169Z" fill="#161422"/>
<path d="M109.293 45.8773L108.888 46.0794L109.091 49.313H109.495L109.293 45.8773Z" fill="#161422"/>
<path d="M39.7694 48.5046L40.3757 54.1635L40.5778 55.174V56.3866H40.7799H40.982V55.5782V54.3656L40.7799 53.5572V52.3446L40.5778 51.7383V50.7277L40.3757 50.1214L40.1736 48.5046H39.7694Z" fill="#161422"/>
<path d="M53.1082 50.1214L55.5334 59.0139H56.9481L53.7145 49.7172L53.1082 50.1214Z" fill="#161422"/>
<path d="M48.6619 52.5467L48.4598 54.9719H48.864L49.0661 52.5467H48.6619Z" fill="#161422"/>
<path d="M102.421 55.174L101.209 56.9929L101.613 57.195L103.23 55.3761L102.421 55.174Z" fill="#161422"/>
<path d="M11.0709 55.7803L9.25195 57.195L10.0604 57.8013L11.273 57.195L11.0709 56.7908H10.8688L10.4646 57.195L10.0604 56.9929L10.6667 56.7908L11.273 55.9824L11.0709 55.7803Z" fill="#161422"/>
<path d="M48.4598 56.9929V57.195V58.0034H48.864V56.9929H48.4598Z" fill="#161422"/>
<path d="M66.0428 57.195L65.8407 57.3971L66.447 59.216H66.8512L66.0428 57.195Z" fill="#161422"/>
<path d="M97.3686 58.6097L96.3581 59.8223L96.5602 60.4287V62.6518L94.7413 65.077L94.9434 65.2791L98.1771 61.2371L97.7729 61.035L97.5707 61.2371L96.9644 61.8434V60.2266L97.7729 58.8118L97.3686 58.6097Z" fill="#161422"/>
<path d="M28.2496 65.8854L27.4412 68.1086H27.8454L28.6538 65.8854H28.2496Z" fill="#161422"/>
<path d="M107.676 66.8959L107.878 67.3001L108.686 67.5022L108.282 66.8959H107.676Z" fill="#161422"/>
<path d="M31.8874 67.9064L31.4832 68.1086V68.7149L31.8874 68.3107V67.9064Z" fill="#161422"/>
<path d="M71.9037 68.917L71.0953 69.5233H70.6911L71.2974 71.3422H71.7016L71.4995 69.9275L72.1058 69.1191L71.9037 68.917Z" fill="#161422"/>
<path d="M27.037 69.1191L26.2286 71.3422H26.6328L27.4412 69.1191H27.037Z" fill="#161422"/>
<path d="M42.5989 69.5233L42.1947 69.7254L43.6094 77.2032H44.0136L42.5989 69.5233Z" fill="#161422"/>
<path d="M32.2916 70.1296L31.8874 70.3317L32.0895 71.5443H32.4937L32.2916 70.1296Z" fill="#161422"/>
<path d="M37.5463 70.5338V71.9485L38.1526 72.1506L37.9505 70.5338H37.5463Z" fill="#161422"/>
<path d="M114.952 71.7464L114.547 71.9485L116.164 74.98L116.568 74.7779L114.952 71.7464Z" fill="#161422"/>
<path d="M78.7752 72.3527L78.5731 72.5548L77.5626 74.1716L77.9668 74.3737L78.7752 73.3632L79.3815 73.7674L79.7857 73.5653L78.7752 72.3527Z" fill="#161422"/>
<path d="M25.0159 74.7779L24.2075 76.799H24.6117L25.2181 74.98L25.0159 74.7779Z" fill="#161422"/>
<path d="M55.5334 75.7884L55.3313 76.3948V77.0011L55.7355 77.2032L55.9376 75.7884H55.5334Z" fill="#161422"/>
<path d="M65.8407 75.9905L65.4364 76.1926L65.2343 77.0011L65.4364 77.4053L66.2449 77.6074L67.4575 80.0326L67.6596 79.6284L65.8407 75.9905Z" fill="#161422"/>
<path d="M37.5463 76.5969L37.1421 79.2242H37.5463L37.9505 76.799L37.5463 76.5969Z" fill="#161422"/>
<path d="M74.329 77.4053L73.9248 77.6074L74.329 78.82L74.7332 78.6179L74.9353 77.8095L74.7332 77.6074L74.329 77.4053Z" fill="#161422"/>
<path d="M23.3991 78.82L21.7823 83.0641H22.1865L23.8033 78.82H23.3991Z" fill="#161422"/>
<path d="M55.3313 79.4263H54.9271L54.725 82.0536L54.5229 82.4578V83.0641H54.9271L55.3313 79.4263Z" fill="#161422"/>
<path d="M33.9085 81.2452V81.8515L34.3127 81.6494V81.2452H33.9085Z" fill="#161422"/>
<path d="M44.822 81.8515L44.4178 82.0536L44.6199 84.0746H45.2262L44.822 81.8515Z" fill="#161422"/>
<path d="M69.0743 82.4578L68.8722 82.6599L69.2764 84.0746L67.6596 86.0957L68.0638 86.2978L69.8827 84.8831L71.2974 87.7125H74.7332L75.3395 88.5209L75.5416 88.3188L75.3395 87.7125L78.371 88.1167L78.9773 89.7335H76.7542V90.1377H79.1794L79.5836 89.9356L78.1689 86.9041L77.7647 87.1062L73.5205 87.3083L71.4995 87.1062L69.0743 82.4578Z" fill="#161422"/>
<path d="M16.7297 84.4789L16.5276 86.0957H16.9318L17.3361 84.4789H20.1655L19.9634 86.0957H20.3676L20.7718 84.4789H21.3781V84.0746L13.0919 83.8725L12.6877 83.6704L12.2835 84.4789H16.7297Z" fill="#161422"/>
<path d="M37.5463 84.0746V84.4789L37.9505 85.8936L38.1526 86.702L38.3547 89.1272H38.7589V88.5209L38.5568 87.5104V86.0957L38.3547 85.4894V84.681L39.1631 84.4789V84.0746H37.5463Z" fill="#161422"/>
<path d="M40.3757 84.0746V84.4789H41.5884V84.0746H40.3757Z" fill="#161422"/>
<path d="M48.4598 84.2767V85.2873H48.864V84.8831V84.2767H48.4598Z" fill="#161422"/>
<path d="M54.3208 85.0852L53.7145 87.3083V87.7125H54.5229L54.725 85.0852H54.3208Z" fill="#161422"/>
<path d="M57.1502 88.9251V89.3293L57.9587 89.5314L57.7566 89.9356L57.9587 90.1377L58.565 89.5314L59.7776 89.7335V88.9251H57.1502Z" fill="#161422"/>
<path d="M61.7986 88.9251V89.3293H62.607H65.4364V89.1272L65.2343 88.9251H61.7986Z" fill="#161422"/>
<path d="M31.079 89.1272L25.8244 92.3608V92.7651L29.058 91.3503L31.2811 89.3293L31.079 89.1272Z" fill="#161422"/>
<path d="M35.3232 89.9356L35.5253 91.5524L35.9295 91.3503L38.3547 90.744L38.1526 90.3398H37.5463L35.7274 89.9356H35.3232Z" fill="#161422"/>
<path d="M113.133 89.9356L111.718 91.1482V91.5524L113.537 89.9356H113.133Z" fill="#161422"/>
<path d="M17.134 90.3398L16.7297 90.744H17.5382L18.1445 90.9461L18.5487 91.9566L18.1445 93.5735H18.7508L19.155 90.5419L18.7508 90.3398H17.134Z" fill="#161422"/>
<path d="M53.3103 91.1482L53.1082 91.3503L53.7145 92.1587L52.5019 92.563L52.704 92.9672L55.3313 91.9566L55.1292 91.5524L54.1187 91.7545L53.3103 91.1482Z" fill="#161422"/>
<path d="M75.9458 91.5524V92.563H76.35V91.5524H75.9458Z" fill="#161422"/>
<path d="M49.0661 92.9672L48.864 93.7756V94.3819H51.2893V93.7756V93.5735L50.8851 93.3714L49.4703 93.7756V92.9672H49.0661Z" fill="#161422"/>
<path d="M11.8793 93.1693L10.8688 93.7756L11.0709 94.3819H12.4856V93.7756L12.0814 93.5735L11.8793 93.1693Z" fill="#161422"/>
<path d="M84.6362 93.3714L84.4341 93.5735V93.7756V94.3819H92.5182V93.7756L84.6362 93.3714Z" fill="#161422"/>
<path d="M36.3337 93.7756V94.1798L36.94 93.7756H36.3337Z" fill="#161422"/>
<path d="M40.1736 93.7756L40.3757 94.3819H41.1841V93.7756H40.1736Z" fill="#161422"/>
<path d="M53.3103 93.7756V94.3819H57.3523L57.5545 93.7756H53.3103Z" fill="#161422"/>
<path d="M95.9539 93.7756V94.3819H98.7834L98.5813 93.7756H98.1771H95.9539Z" fill="#161422"/>
<path d="M83.6256 0L83.0193 0.202102H83.6256V0Z" fill="#010101"/>
<path d="M88.6782 0.404205L88.4761 0.80841L91.9118 2.02102L92.1139 1.61682L88.6782 0.404205Z" fill="#010101"/>
<path d="M69.6805 6.46728L67.4574 9.49882L67.8616 9.70092L68.0637 10.1051H68.4679L69.4784 8.4883L69.2763 7.882L70.0847 7.07359L69.6805 6.46728Z" fill="#010101"/>
<path d="M51.2892 10.3072H50.4808V10.7114H50.885L51.2892 10.3072Z" fill="#010101"/>
<path d="M53.9165 12.9346L53.5123 13.9451L53.9165 13.743L54.3207 13.5409L54.5228 13.1367L53.9165 12.9346Z" fill="#010101"/>
<path d="M66.649 14.3493H66.4469V14.5514H66.649V14.3493Z" fill="#010101"/>
<path d="M55.3313 17.785L55.5334 17.9871L56.3418 17.785H55.3313Z" fill="#010101"/>
<path d="M55.5334 18.1892L54.7249 18.7955L55.7355 18.9976L55.5334 18.1892Z" fill="#010101"/>
<path d="M68.4679 20.2102V20.6145H68.67L68.4679 20.2102Z" fill="#010101"/>
<path d="M101.411 21.4229L100.602 23.8481H101.006L101.815 21.4229H101.411Z" fill="#010101"/>
<path d="M30.4726 34.1553L29.6642 35.57L28.6537 37.5911L29.0579 37.7932L30.4726 35.57L30.8769 34.3574L30.4726 34.1553Z" fill="#010101"/>
<path d="M22.9949 35.57L19.357 40.2184L19.7612 40.4205L20.3675 39.8142L23.197 35.9742L22.9949 35.57Z" fill="#010101"/>
<path d="M36.3336 35.57L36.1315 35.7721L38.1525 40.0163L38.5567 39.8142L36.3336 35.57Z" fill="#010101"/>
<path d="M105.857 42.4415V42.8457L106.261 43.0478L106.463 42.6436L105.857 42.4415Z" fill="#010101"/>
<path d="M27.0369 44.6646L26.6327 44.8668L26.2285 47.6962H26.6327L27.4411 46.2815L28.6537 46.0794L28.2495 45.6752L27.4411 45.8773L27.0369 44.6646Z" fill="#010101"/>
<path d="M33.5042 44.8668L31.2811 45.271L32.0895 45.6752L33.7063 45.271L33.5042 44.8668Z" fill="#010101"/>
<path d="M15.9213 46.6857L13.9002 50.5256H14.3044L16.3255 46.8878L15.9213 46.6857Z" fill="#010101"/>
<path d="M19.1549 46.6857L18.3465 47.6962L18.7507 47.8983L19.5591 46.8878L19.1549 46.6857Z" fill="#010101"/>
<path d="M109.091 49.313L108.888 49.7172L109.293 49.9193L109.495 49.313H109.091Z" fill="#010101"/>
<path d="M64.0217 51.7382L63.6175 51.9403L64.628 54.3656L65.0322 54.1635L64.0217 51.7382Z" fill="#010101"/>
<path d="M38.1525 52.3445L37.7483 52.5466L38.5567 54.7698L38.961 54.5677L38.1525 52.3445Z" fill="#010101"/>
<path d="M12.4855 53.153L11.0708 55.7803L11.2729 55.9824L12.6876 53.5572L12.4855 53.153Z" fill="#010101"/>
<path d="M97.5707 53.9614L95.3475 55.5782L95.5497 55.9824L97.7728 54.3656L97.5707 53.9614Z" fill="#010101"/>
<path d="M108.888 54.7698L108.484 54.9719L111.516 59.216L112.122 61.4392L112.728 61.2371L112.122 59.216L108.888 54.7698Z" fill="#010101"/>
<path d="M15.1129 55.174L14.1023 55.5782L14.3044 55.9824L15.315 55.5782L15.1129 55.174Z" fill="#010101"/>
<path d="M108.282 56.5887L107.878 56.7908L108.282 60.0244L108.686 59.216L108.282 56.5887Z" fill="#010101"/>
<path d="M41.1841 57.8013L40.7799 58.2055L41.3862 61.2371L41.7904 61.035L41.1841 57.8013Z" fill="#010101"/>
<path d="M92.1139 57.8013H91.9118V58.0034H92.1139V57.8013Z" fill="#010101"/>
<path d="M97.7728 58.0034L97.3686 58.6097L97.7728 58.8118L97.9749 58.4076L97.7728 58.0034Z" fill="#010101"/>
<path d="M66.4469 59.216L69.2763 66.0875L69.6805 65.8854L66.8511 59.216H66.4469Z" fill="#010101"/>
<path d="M7.02876 59.6202L6.62455 60.0244L6.82665 60.2265L7.23086 59.8223L7.02876 59.6202Z" fill="#010101"/>
<path d="M98.177 60.6307L97.7728 61.035L98.177 61.2371L98.5812 60.8328L98.177 60.6307Z" fill="#010101"/>
<path d="M105.857 60.8328L105.251 62.0455L105.655 62.2476L106.665 60.6307L105.857 60.8328Z" fill="#010101"/>
<path d="M90.9013 63.6623L90.6992 64.0665L92.1139 64.8749L92.316 64.4707L90.9013 63.6623Z" fill="#010101"/>
<path d="M41.7904 66.2896L41.3862 66.4917L42.1946 69.7254L42.5988 69.5233L41.7904 66.2896Z" fill="#010101"/>
<path d="M110.303 67.7043L110.101 68.1085L114.547 71.9485L114.951 71.7464L112.93 69.3212L110.303 67.7043Z" fill="#010101"/>
<path d="M0.76358 70.3317L0.359375 71.9485L0.76358 72.3527L1.16778 70.5338L0.76358 70.3317Z" fill="#010101"/>
<path d="M56.1397 70.938L55.7355 73.1611L56.1397 73.5653L56.5439 71.1401L56.1397 70.938Z" fill="#010101"/>
<path d="M116.568 74.7779L116.164 74.98L116.973 77.6074L117.377 77.4053L116.568 74.7779Z" fill="#010101"/>
<path d="M55.3313 77.001L54.927 79.4263H55.3313L55.7355 77.2031L55.3313 77.001Z" fill="#010101"/>
<path d="M91.5076 83.6704L91.1034 83.8725L91.9118 86.702L93.3265 88.723H93.7307L91.5076 83.6704Z" fill="#010101"/>
<path d="M116.568 84.2767L114.749 87.7125L115.154 87.9146L116.77 84.4788L116.568 84.2767Z" fill="#010101"/>
<path d="M4.80563 87.1062L4.60353 87.3083L7.23086 90.3398L11.8792 92.9671L12.0813 92.5629L7.83717 90.1377L4.80563 87.1062Z" fill="#010101"/>
<path d="M35.9294 91.3503L35.5252 91.5524L35.9294 93.1692H36.3336L35.9294 91.3503Z" fill="#010101"/>
<path d="M25.8243 92.3608L25.0159 92.765V93.1692L25.8243 92.765V92.3608Z" fill="#010101"/>
<path d="M109.293 92.5629L107.272 93.1692V93.3713V93.7756H107.676L109.495 92.9671L109.293 92.5629Z" fill="#010101"/>
<path fill-rule="evenodd" clip-rule="evenodd" d="M66.245 19.8064L66.0429 19.6042L66.245 20.2106V19.8064ZM10.6669 56.7911L10.0605 56.9932L10.4648 57.1953L10.869 56.7911H10.6669ZM48.46 58.0037V57.1953L48.2579 58.0037H48.46ZM95.752 69.5236L97.3688 68.311L95.3478 69.5236H95.752ZM65.4366 89.3296H62.6072V89.5317L65.4366 89.3296Z" fill="#A8A9A9"/>
<path d="M80.3922 0.404053L78.169 1.01036L78.3711 2.22298L80.7964 1.21246L80.3922 0.404053Z" fill="#131745"/>
<path d="M73.1165 3.63769L71.4996 5.45661L71.7018 5.65872L75.1375 3.03139L75.3396 2.42508L73.1165 3.63769Z" fill="#131745"/>
<path d="M71.7018 6.87133L70.287 9.49866H70.6912L71.9039 7.88184L75.5417 4.0419L75.3396 3.63769L71.7018 6.87133Z" fill="#131745"/>
<path d="M69.2765 11.3176L68.0639 16.9765L68.4681 17.1786L69.8828 11.3176H69.4786H69.2765Z" fill="#131745"/>
<path d="M66.0429 17.7849V19.6038L66.245 19.8059H66.6492V18.1891V17.7849H66.0429Z" fill="#131745"/>
<path d="M66.245 20.6143L67.8618 26.2732L68.266 26.0711V25.4648L66.6492 20.6143H66.245Z" fill="#131745"/>
<path d="M22.7929 56.3864L21.7824 59.2159H22.1866L23.1972 56.3864H22.7929Z" fill="#131745"/>
<path d="M30.0686 57.8012L29.4623 58.0033L33.7065 61.8432L33.9086 61.6411L30.0686 57.8012Z" fill="#131745"/>
<path d="M30.0686 60.6306L28.2497 65.8853H28.6539L30.0686 62.0453L30.4728 62.8537H30.877L30.6749 60.6306H30.0686Z" fill="#131745"/>
<path d="M20.974 61.0348L19.7614 64.4705L20.1656 64.6726L21.3782 61.2369L20.974 61.0348Z" fill="#131745"/>
<path d="M77.3606 63.46L74.5312 65.6832L74.7333 66.0874L77.5627 63.8642L77.3606 63.46Z" fill="#131745"/>
<path d="M27.4413 68.1084L27.0371 69.1189H27.4413L27.8455 68.1084H27.4413Z" fill="#131745"/>
<path d="M77.5627 71.1399L78.5732 72.5546L78.7753 72.3525L77.5627 71.1399Z" fill="#131745"/>
<path d="M26.2287 71.342L25.4203 73.5652H25.8245L26.6329 71.342H26.2287Z" fill="#131745"/>
<path d="M32.0897 71.5441L32.2918 72.9588L32.696 72.7567L32.4939 71.5441H32.0897Z" fill="#131745"/>
<path d="M89.2847 82.8619L88.4763 82.4577L88.2742 82.8619L90.0931 85.085V86.0955L88.4763 85.8934V86.4997L90.4973 86.7018L91.912 88.7228L92.1141 88.3186L90.6994 85.8934L89.891 81.6493V80.2345L90.0931 77.4051L90.2952 77.203L90.4973 76.5967L91.3057 74.3736V74.1715L90.9015 73.9694L89.2847 78.6177V82.8619Z" fill="#131745"/>
<path d="M15.5173 75.5862L14.1025 79.6282H14.5067L15.9215 75.7883L15.5173 75.5862Z" fill="#131745"/>
<path d="M24.2077 76.7988L23.3993 78.8198H23.8035L24.6119 76.7988H24.2077Z" fill="#131745"/>
<path d="M33.1002 76.7988L33.5044 79.6282L33.9086 79.4261L33.5044 76.7988H33.1002Z" fill="#131745"/>
<path d="M83.2216 77.6072V78.0114L82.6153 78.4156L82.8174 78.8198H84.03L84.2321 78.6177L83.2216 77.6072Z" fill="#131745"/>
<path d="M64.6282 77.8093L63.6176 79.0219L64.0219 79.224L64.8303 78.2135L64.6282 77.8093Z" fill="#131745"/>
<path d="M37.1422 79.224L36.5359 81.0429H36.9401L37.5464 79.224H37.1422Z" fill="#131745"/>
<path d="M78.169 80.0324L76.9564 80.4366V80.8408L78.3711 80.2345L78.169 80.0324Z" fill="#131745"/>
<path d="M68.4681 81.8514L68.8723 82.6598L69.0744 82.4577L68.8723 81.8514H68.4681Z" fill="#131745"/>
<path d="M36.1317 82.2556L35.3233 83.6703H35.7275L36.3338 82.4577L36.1317 82.2556Z" fill="#131745"/>
<path d="M21.7824 83.064L21.3782 84.0745V84.4787L21.9845 84.2766L22.1866 83.064H21.7824Z" fill="#131745"/>
<path d="M67.6597 86.0955L65.2345 88.9249L65.4366 89.1271L66.8513 87.5102L67.6597 87.3081L68.0639 86.2976L67.6597 86.0955Z" fill="#131745"/>
<path d="M55.1293 89.1271L55.5336 89.5313H56.5441H56.9483L57.1504 89.3292V88.9249L56.5441 88.1165L57.7567 86.7018L57.3525 86.4997L55.1293 89.1271Z" fill="#131745"/>
<path d="M75.5417 89.1271L75.9459 91.5523H76.3501L76.7543 90.1376V89.7334L76.148 89.1271H75.5417Z" fill="#131745"/>
<path d="M68.6702 90.7439L68.4681 90.946L69.6807 92.1586L72.5102 93.1691V92.7649L68.6702 90.7439Z" fill="#131745"/>
<path d="M95.7519 91.9565L95.5498 92.1586L95.7519 92.5628L96.7625 92.967V92.5628L96.3583 92.1586L95.7519 91.9565Z" fill="#131745"/>
<path d="M82.6153 92.3607L82.4132 92.7649L84.4342 93.5733L84.6363 93.3712L82.6153 92.3607Z" fill="#131745"/>
<path d="M92.5183 93.7754V94.3817H95.954V93.7754H95.7519H92.5183Z" fill="#131745"/>
<path d="M75.1377 3.03174L71.702 5.65907L69.4788 8.48851L68.4683 10.1053L68.2662 11.3179H69.2767H69.4788L70.2873 9.49902L71.702 6.87169L75.3398 3.63805L75.1377 3.03174Z" fill="#1B66EC"/>
<path d="M66.6494 16.9768V17.7852V18.1894H67.862V16.9768H66.6494Z" fill="#1B66EC"/>
<path d="M68.2662 25.4651V26.0714L72.5104 31.5282L73.3188 32.1345L73.9251 31.7303L71.2978 28.6988L69.2767 25.4651H68.2662Z" fill="#1B66EC"/>
<path d="M95.7522 92.5631V93.7758H95.9543H98.1774L96.7627 92.9673L95.7522 92.5631Z" fill="#1B66EC"/>
<path fill-rule="evenodd" clip-rule="evenodd" d="M91.9118 2.0209L92.1139 1.6167L95.3475 3.23352L98.177 5.86085L101.006 10.5092L101.613 12.9344H101.209L98.177 6.66926L94.7412 3.43562L91.9118 2.0209ZM54.927 8.48818L55.1292 8.08398L55.9376 9.7008L57.7565 9.29659L58.3628 9.9029L58.1607 11.7218L56.9481 12.5302L57.1502 13.5407H56.746L56.1397 12.9344L55.1292 14.7534L54.3207 13.5407L54.5228 13.1365L55.1292 13.3386L57.9586 10.9134L57.5544 9.7008L55.7355 10.105L54.927 8.48818ZM65.0322 11.5197L67.4574 9.4987L67.8616 9.7008L65.2343 11.9239L65.0322 11.5197ZM51.0871 19.6038L51.4913 16.9765L49.4703 15.1576L50.0766 13.3386L49.6724 10.7113L50.4808 10.3071V10.7113L50.0766 11.3176L50.6829 13.3386L50.0766 15.1576L51.8955 16.9765H53.3102L53.7144 16.3702L53.9165 16.5723L53.7144 17.5828H51.8955L51.4913 19.6038H51.0871ZM66.0427 13.1365L67.6595 11.1155L67.8616 11.5197L66.8511 14.7534L66.649 14.5513V14.3492L66.8511 12.9344L66.2448 13.3386L66.0427 13.1365ZM101.411 21.4227L101.613 20.2101H102.017L101.815 21.4227H101.411ZM69.2763 25.4648L68.0637 20.6143H68.4679H68.67L69.0742 23.4438L71.4995 28.4963L71.2973 28.6984L69.2763 25.4648ZM88.8803 34.7615L95.5497 31.3258L98.5812 27.89L100.602 23.848H101.006L98.7833 28.4963L95.5497 31.9321L91.7097 34.3573L88.8803 35.1657V34.7615ZM29.8663 30.7195L30.2705 30.5174L31.2811 32.3363L30.8769 32.9426L29.8663 30.7195ZM32.6958 32.7405L32.8979 32.3363L34.3126 32.9426L36.3336 35.5699L36.1315 35.772L34.3126 33.5489L32.6958 32.7405ZM22.9949 35.5699L24.8138 33.751L27.4411 32.5384L27.8453 32.7405L27.4411 34.3573L27.0369 34.5594L26.8348 33.5489H26.2285L24.6117 34.7615L23.197 35.9741L22.9949 35.5699ZM82.8172 35.772V35.1657H86.2529V35.5699L82.8172 35.772ZM22.7928 41.2288L23.3991 40.4204L23.8033 40.6225L23.6012 41.2288L19.5591 46.8877L19.1549 46.6856L22.1864 41.8351L22.3885 41.4309L22.7928 41.2288ZM15.9213 46.6856L18.5486 41.633L18.9528 41.8351L16.3255 46.8877L15.9213 46.6856ZM101.209 44.2603L103.027 42.4414H105.857V42.8456L102.623 43.2498L101.613 44.2603L101.815 44.8666L101.209 44.2603ZM25.6222 42.6435L26.0264 42.4414L27.0369 44.6645L26.6327 44.8666L25.6222 42.6435ZM35.121 43.2498L35.5252 42.6435L36.7378 46.8877H35.7273L35.3231 46.2813L35.7273 46.0792L35.121 43.2498ZM106.261 43.0477L106.463 42.6435L108.484 44.0582L109.293 45.8771L108.888 46.0792L107.878 44.0582L106.261 43.0477ZM60.788 43.654L61.1922 43.4519L64.0217 51.7381L63.6175 51.9402L60.788 43.654ZM48.864 48.5045L49.4703 44.8666H49.8745L49.2682 48.7066L48.864 48.5045ZM28.2495 45.675L29.4621 45.4729L29.8663 45.8771L28.6537 46.0792L28.2495 45.675ZM11.0708 56.7907L13.0918 55.5781L18.3465 47.6961L18.7507 47.8982L14.1023 54.5676L13.6981 55.5781H14.1023L14.3044 55.9823L11.2729 57.1949L11.0708 56.7907ZM18.1444 54.7697L23.3991 54.9718L26.2285 47.6961H26.6327L23.8033 55.1739L29.4621 57.397L29.0579 55.9823L29.4621 54.5676L30.0684 57.8012L29.4621 58.0033L24.6117 55.7802L23.197 56.3865H22.7928L22.9949 55.376L18.1444 55.1739V54.7697ZM108.484 52.5465L108.888 49.7171L109.293 49.9192L108.888 54.7697L108.484 54.9718V54.7697V52.5465ZM37.142 50.5255L37.5462 50.3234L38.1525 52.3444L37.7483 52.5465L37.142 50.5255ZM12.4855 53.1528L13.9002 50.5255H14.3044L12.6876 53.557L12.4855 53.1528ZM97.5707 53.9612L100.4 52.5465V52.9507L97.7728 54.3654L97.5707 53.9612ZM64.628 54.3654L65.0322 54.1633L66.0427 57.1949L65.8406 57.397L64.628 54.3654ZM38.5567 54.7697L38.961 54.5676L39.7694 57.5991H39.3652L38.5567 54.7697ZM92.1139 57.8012L95.3475 55.5781L95.5497 55.9823L87.4656 62.0453L89.2845 63.0559L91.9118 62.2474L92.1139 62.6516L90.6992 63.258L90.9013 63.6622L90.6992 64.0664L85.8487 61.8432L86.0508 61.439L87.0613 61.8432L91.5076 58.4075L91.9118 58.0033L92.1139 57.8012ZM98.177 60.6306L101.209 56.9928L101.613 57.1949L98.5812 60.8327L98.177 60.6306ZM7.02876 59.6201L9.25188 57.1949L10.0603 57.8012L7.23086 59.8222L7.02876 59.6201ZM48.4598 84.2766L48.2577 58.0033H48.4598H48.864V59.6201L48.6619 77.8093L48.864 79.2241V84.2766H48.4598ZM21.378 60.4285L21.7822 59.2159H22.1864L21.7822 60.4285H21.378ZM41.3862 66.4916L39.7694 59.418H40.1736L40.982 62.2474L41.3862 63.4601V62.2474V61.2369L41.7904 61.0348V66.2895L41.3862 66.4916ZM93.5286 61.2369L96.3581 59.8222L96.5602 60.4285L93.3265 61.8432V61.439L93.5286 61.2369ZM0.76358 70.3315L2.5825 64.8748L6.62455 60.0243L6.82665 60.2264L3.39091 64.4706L1.16778 70.5336L0.76358 70.3315ZM112.122 61.439L112.728 61.2369V62.0453H108.888V67.0979L110.303 67.7042L110.101 68.1084L108.686 67.5021L108.282 66.8958V61.8432L108.686 61.439H112.122ZM57.9586 61.8432L58.1607 61.6411L65.8406 75.9904L65.4364 76.1925L60.1817 66.6937L57.9586 61.8432ZM101.815 66.2895L105.251 62.0453L105.655 62.2474L103.634 65.0769L102.421 66.2895H104.644L107.676 66.8958L107.878 67.3H107.474L102.219 67.0979L101.815 66.2895ZM85.0403 63.4601V63.0559L93.3265 70.3315L96.5602 67.9063L99.3896 66.8958L99.1875 67.5021L99.7938 67.7042L96.5602 69.5231L93.9328 72.1505L92.316 74.9799L91.3055 78.6177H90.9013L91.9118 74.7778L93.7307 71.5442L95.7518 69.5231L97.3686 68.3105L95.3475 69.5231L93.1244 71.3421L91.3055 74.1715L90.9013 73.9694L92.9223 70.5336L85.0403 63.4601ZM18.9528 66.6937L19.7612 64.4706L20.1654 64.6727L19.357 66.6937H18.9528ZM92.1139 64.8748L92.316 64.4706L94.7412 65.0769L94.9433 65.279L97.1665 66.4916L96.7623 67.0979L92.1139 64.8748ZM69.2763 66.0874L69.6805 65.8853L71.0952 69.5231H70.691L69.8826 67.9063L69.2763 66.0874ZM37.5462 70.5336L36.7378 67.5021H37.142L37.9504 70.5336H37.5462ZM56.1397 70.1294L56.5439 67.9063H56.9481V68.3105L56.5439 70.3315L56.1397 70.1294ZM15.7192 75.182L16.7297 72.3526L17.1339 72.5547L16.1234 75.182H15.7192ZM0.359375 76.7988V72.9589H0.76358V76.7988H0.359375ZM25.0159 74.7778L25.4201 73.5652H25.8243L25.218 74.9799L25.0159 74.7778ZM79.3815 73.7673L79.7857 73.5652L83.2214 77.6072V78.0114L79.3815 73.7673ZM74.7331 77.6072L77.5625 74.1715L77.9667 74.3736L74.9352 77.8093L74.7331 77.6072ZM33.1 76.7988L32.4937 74.3736H33.1L33.5042 76.7988H33.1ZM74.3289 78.8198L74.7331 78.6177L75.7436 80.8409L76.9562 80.4367V80.8409L76.1478 81.8514L77.5625 85.2871L77.1583 85.4892L76.552 84.2766L74.3289 78.8198ZM4.60353 87.3082L1.77409 83.064L0.561477 78.8198H0.965683L2.1783 82.6598L4.80563 87.106L4.60353 87.3082ZM44.4177 82.0535L43.8114 78.8198H44.2156L44.8219 81.8514L44.4177 82.0535ZM90.9013 82.0535V79.0219L91.3055 79.2241V82.0535H90.9013ZM67.4574 80.0325L67.6595 79.6283L68.8721 81.8514H68.4679L67.4574 80.0325ZM78.1688 80.0325L79.3815 79.6283V80.0325L78.3709 80.2346L78.1688 80.0325ZM36.1315 82.2556L36.5357 81.043H36.9399L36.3336 82.4577L36.1315 82.2556ZM116.568 84.2766L117.175 81.043L117.579 81.2451L116.77 84.4787L116.568 84.2766ZM31.079 89.1271L34.3126 85.4892L34.7168 86.0955L31.2811 89.3292L31.079 89.1271ZM18.7507 90.3397L19.9633 86.0955H20.3675L19.1549 90.5418L18.7507 90.3397ZM66.8511 87.5103L67.6595 87.3082L67.8616 89.5313L67.6595 89.9355L66.8511 87.5103ZM113.133 89.9355L114.749 87.7124L115.154 87.9145L113.537 89.9355H113.133ZM75.3394 88.5208L75.5415 88.3187L76.1478 89.1271H75.5415L75.3394 88.5208ZM96.5602 91.9565L93.3265 88.7229H93.7307L96.3581 91.3502L99.1875 92.967L98.5812 93.7754H98.177L96.7623 92.967V92.5628L97.1665 92.3607L96.5602 91.9565ZM12.0813 92.5628L14.3044 92.3607L15.9213 89.7334H16.3255L17.1339 90.3397L16.7297 90.7439L14.1023 92.967L14.7087 93.3712V94.1796H22.7928V93.3712L25.0159 92.7649V93.1691L23.6012 93.7754H35.9294L36.3336 94.1796L36.9399 93.7754H40.1736L40.3757 94.3817H12.4855V93.7754L14.3044 93.5733H12.0813L11.8792 93.1691V92.967L12.0813 92.5628ZM55.1292 91.5523L57.5544 89.9355H57.7565L57.9586 90.1376L55.3313 91.9565L55.1292 91.5523ZM94.1349 91.1481L94.337 90.946L95.7518 91.9565L95.5497 92.1586L94.1349 91.1481ZM109.293 92.5628L111.314 91.1481H111.718V91.5523L110.909 92.3607L112.728 93.7754H122.833V94.3817H107.069L107.272 93.7754H107.676H111.92L110.707 92.7649L109.495 92.967L109.293 92.5628ZM50.885 93.3712L52.5018 92.5628L52.7039 92.967L51.2892 93.5733L50.885 93.3712ZM75.7436 93.3712L75.9457 92.5628H76.3499V93.7754H84.434V94.3817H57.3523L57.5544 93.7754H60.1817L60.3838 93.1691H60.788V93.7754H73.9247L72.51 93.1691V92.7649L74.7331 93.3712V94.1796H76.1478L75.7436 93.3712ZM41.9925 93.3712V92.967L43.6093 93.7754H48.864V94.3817H41.1841V93.7754H42.8009L41.9925 93.3712ZM11.0708 94.3817H5.61404V93.7754H10.8687L11.0708 94.3817ZM51.2892 94.3817V93.7754H53.3102V94.3817H51.2892Z" fill="#010101"/>
<path d="M102.017 15.3596V15.5617L102.219 16.168L102.017 15.3596Z" fill="#010101"/>
<path d="M48.0553 29.1026L47.8532 29.911H48.2574L48.0553 29.1026Z" fill="#010101"/>
<path d="M71.4991 33.3467L71.7013 33.7509L72.3076 33.3467H71.4991Z" fill="#010101"/>
<path d="M77.3601 34.7615V34.9636L77.9664 35.1657L77.3601 34.7615Z" fill="#010101"/>
<path d="M25.2177 35.3678L24.8135 36.5804L25.2177 36.9846L25.6219 35.5699L25.2177 35.3678Z" fill="#010101"/>
<path d="M102.421 49.717L102.017 49.9191L102.219 50.1213L102.421 49.717Z" fill="#010101"/>
<path d="M93.3262 61.439L91.9115 62.2474L92.1136 62.6516L93.3262 61.8432V61.439Z" fill="#010101"/>
<path d="M55.5331 75.3841L55.331 76.3946L55.5331 75.7883V75.3841Z" fill="#010101"/>
<path d="M38.1522 90.1375L37.5459 90.3396H38.1522V90.1375Z" fill="#010101"/>
<path fill-rule="evenodd" clip-rule="evenodd" d="M83.626 0.202102V0L86.6575 0.202102H83.626ZM56.5443 33.1448L55.3317 30.3154L55.7359 29.7091L56.9485 33.1448H56.5443ZM27.0373 35.57V35.1658L27.2394 35.7721L27.0373 35.57ZM22.389 41.431L19.3574 41.2289H22.7932L22.389 41.431ZM40.9824 56.3866V55.5782L41.1845 56.3866H40.9824ZM40.7803 57.195L40.5782 56.3866H40.7803V57.195ZM96.3585 92.1587L96.5606 91.9566L97.1669 92.3608L96.7627 92.5629L96.3585 92.1587Z" fill="#7B757B"/>
<path fill-rule="evenodd" clip-rule="evenodd" d="M75.5422 34.5592L75.9464 34.155L77.159 34.5592L77.3611 34.7613V34.9634L75.5422 34.5592ZM41.3869 62.2473V63.4599L40.9827 62.2473H41.3869ZM56.9488 89.5311L57.1509 89.329L57.9593 89.5311L57.7572 89.9353H57.5551L56.9488 89.5311ZM61.5971 89.5311L61.7992 89.329H62.6077V89.5311H61.5971ZM12.082 93.5732H14.3052L12.4862 93.7753L12.082 93.5732Z" fill="#C0C0C1"/>
<path d="M58.3638 37.5913L60.3849 39.8144L60.587 39.6123L58.768 37.3892L56.9491 33.145H56.5449L58.3638 37.5913Z" fill="#8E8B8E"/>
<path d="M66.8512 12.9346L66.2448 13.3388L65.4364 14.3493H66.4469H66.649L66.8512 12.9346Z" fill="#D5D5D5"/>
<path d="M54.3208 13.5409L53.9166 13.743L54.725 14.7535H55.1292L54.3208 13.5409Z" fill="#D5D5D5"/>
<path d="M47.8535 29.9112L48.2577 34.5595H48.6619V33.3469L48.4598 32.7406L48.2577 29.9112H47.8535Z" fill="#D5D5D5"/>
<path d="M93.1245 71.3422L91.3056 74.1716V74.3737L91.9119 74.7779L93.7308 71.5443L95.7518 69.5233H95.3476L93.1245 71.3422Z" fill="#D5D5D5"/>
<path d="M90.4971 76.5969L90.295 77.2032L90.9014 77.0011L90.4971 76.5969Z" fill="#D5D5D5"/>
<path d="M78.1687 1.0105L75.3393 2.42522L75.1372 3.03152L75.3393 3.63783L75.5414 4.04204L78.3708 2.22311L78.1687 1.0105Z" fill="#17376A"/>
<path d="M68.0636 10.1051L67.8615 10.3072L67.6594 11.1156L67.8615 11.5198L68.2657 11.3177L68.4678 10.1051H68.0636Z" fill="#17376A"/>
<path d="M67.8615 16.9766V18.1892L68.0636 20.6144H68.4678V20.2102V17.1787L68.0636 16.9766H67.8615Z" fill="#17376A"/>
<path d="M68.2657 26.0712L67.8615 26.2733L69.8825 29.7091L73.3183 32.9427L74.1267 32.7406V33.3469L75.9456 34.1553L77.1582 34.5595L77.7645 33.7511L74.5309 31.7301L71.4993 28.4964L71.2972 28.6985L73.9246 31.7301L73.3183 32.1343L72.5098 31.528L68.2657 26.0712Z" fill="#17376A"/>
<path d="M21.3779 60.4286L20.9737 61.0349L21.3779 61.237L21.7821 60.4286H21.3779Z" fill="#17376A"/>
<path d="M33.9083 61.6412L33.7062 61.8433L36.7377 67.5022H37.1419L36.1314 64.6728L33.9083 61.6412Z" fill="#17376A"/>
<path d="M80.1897 62.2476L77.3603 63.4602L77.5624 63.8644L80.3918 62.6518L80.1897 62.2476Z" fill="#17376A"/>
<path d="M30.4725 62.8539L31.483 68.1085L31.8872 67.9064L30.8767 62.8539H30.4725Z" fill="#17376A"/>
<path d="M74.5309 65.6833L71.9035 68.9169L72.1056 69.119L74.733 66.0875L74.5309 65.6833Z" fill="#17376A"/>
<path d="M18.9527 66.6938L16.7296 72.3527L17.1338 72.5548L19.3569 66.6938H18.9527Z" fill="#17376A"/>
<path d="M31.8872 68.3106L31.483 68.7148L31.8872 70.3317L32.2914 70.1296L31.8872 68.3106Z" fill="#17376A"/>
<path d="M71.2972 71.3422L73.9246 77.6073L74.3288 77.4052L71.7014 71.3422H71.2972Z" fill="#17376A"/>
<path d="M37.5461 71.9485V76.5968L37.9503 76.7989L38.1524 72.1506L37.5461 71.9485Z" fill="#17376A"/>
<path d="M32.6956 72.7569L32.2914 72.959L32.4935 74.3737H33.0999L32.6956 72.7569Z" fill="#17376A"/>
<path d="M15.719 75.1821L15.5169 75.5863L15.9211 75.7884L16.1232 75.1821H15.719Z" fill="#17376A"/>
<path d="M65.2342 77.001L64.6278 77.8094L64.8299 78.2137L65.4363 77.4052L65.2342 77.001Z" fill="#17376A"/>
<path d="M82.615 78.4158L79.3813 79.6284V80.0326L82.8171 78.82L82.615 78.4158Z" fill="#17376A"/>
<path d="M84.2318 78.6179L84.0297 78.82L88.2738 82.862L88.4759 82.4578L84.2318 78.6179Z" fill="#17376A"/>
<path d="M63.6173 79.0221L57.3522 86.4999L57.7564 86.702L64.0215 79.2242L63.6173 79.0221Z" fill="#17376A"/>
<path d="M33.9083 79.4263L33.5041 79.6284L33.9083 81.2452H34.3125L33.9083 79.4263Z" fill="#17376A"/>
<path d="M14.1022 79.6284L12.6875 83.6704L13.0917 83.8725L14.5064 79.6284H14.1022Z" fill="#17376A"/>
<path d="M34.3125 81.6494L33.9083 81.8515L34.3125 83.6704L34.7167 83.4683L34.3125 81.6494Z" fill="#17376A"/>
<path d="M80.9981 85.4893L88.4759 86.4999V85.8935L82.615 84.883H80.9981V85.4893Z" fill="#17376A"/>
<path d="M77.5624 85.2872L77.1582 85.4893L77.7645 87.1062L78.1687 86.9041L77.5624 85.2872Z" fill="#17376A"/>
<path d="M92.1138 88.3188L91.9117 88.723L94.1348 91.1482L94.3369 90.9461L92.1138 88.3188Z" fill="#17376A"/>
<path d="M67.8615 89.5314L67.6594 89.9356L68.4678 90.9461L68.6699 90.744L67.8615 89.5314Z" fill="#17376A"/>
<path d="M79.5834 89.9356L79.1792 90.1377L80.3918 91.7545L82.4129 92.765L82.615 92.3608L79.5834 89.9356Z" fill="#17376A"/>
<path d="M49.875 87.7124V88.925V89.7334H52.5023L52.7044 88.5208V87.7124H49.875Z" fill="#F5F5F5"/>
<path d="M93.528 61.2371H93.3271V61.4379H93.528V61.2371Z" fill="#676769"/>
<path d="M65.4375 14.3489H65.2354V14.551H65.4375V14.3489Z" fill="#D5D5D5"/>
<path d="M90.2961 77.2028H90.094V77.4049H90.2961V77.2028Z" fill="#D5D5D5"/>
<path d="M75.5407 15.9661H75.3398V16.1669H75.5407V15.9661Z" fill="#515653"/>
</svg>
