<svg width="16" height="12" viewBox="0 0 16 12" fill="none" xmlns="http://www.w3.org/2000/svg">
<path d="M14.411 4.46096C13.907 4.70439 13.4013 4.94954 12.8973 5.19297C12.6127 5.33011 12.3299 5.46725 12.0453 5.6044C11.531 5.85297 11.0167 6.10154 10.5024 6.35011C9.83386 6.6724 9.167 6.9964 8.49843 7.31868C8.11614 7.50383 7.73042 7.6804 7.35328 7.8724C7.34814 7.87583 7.34128 7.87754 7.33614 7.88097C7.50928 7.88097 7.68242 7.88097 7.85557 7.88097C7.53842 7.7284 7.22299 7.57411 6.90585 7.42154C6.24928 7.1044 5.59271 6.78726 4.93613 6.47011C4.37899 6.20097 3.82356 5.93182 3.26642 5.66268C3.01613 5.54268 2.76756 5.42097 2.51727 5.30097C1.95156 5.02668 1.38413 4.75411 0.818411 4.47982C0.806411 4.47296 0.792697 4.46782 0.780697 4.46096C0.780697 4.75754 0.780697 5.05239 0.780697 5.34897C1.01555 5.23582 1.25041 5.12097 1.48698 5.00782C2.04927 4.73525 2.61156 4.46439 3.17384 4.19182C3.85613 3.86268 4.53842 3.53182 5.22071 3.20268C5.80871 2.9181 6.39671 2.63353 6.98471 2.35067C7.27099 2.21182 7.56242 2.07982 7.84528 1.9341C7.84871 1.93239 7.85385 1.93067 7.85728 1.92896C7.68414 1.92896 7.511 1.92896 7.33785 1.92896C7.57271 2.0421 7.80757 2.15696 8.04414 2.2701C8.60643 2.54268 9.16871 2.81353 9.731 3.08611C10.4133 3.41525 11.0956 3.74611 11.7779 4.07525C12.3659 4.35982 12.9539 4.64439 13.5419 4.92725C13.8282 5.06611 14.1144 5.20668 14.4024 5.34382C14.4059 5.34554 14.411 5.34725 14.4144 5.34897C14.5413 5.41068 14.6716 5.43982 14.8104 5.4004C14.9304 5.36782 15.059 5.27525 15.1173 5.16382C15.239 4.93411 15.191 4.58439 14.9322 4.46096C14.6956 4.34611 14.459 4.23125 14.2224 4.11811C13.6567 3.84553 13.091 3.57125 12.527 3.29868C11.8447 2.96953 11.1624 2.63868 10.4801 2.30953C9.89043 2.02496 9.30071 1.73867 8.711 1.4541C8.42985 1.31867 8.15042 1.1781 7.86757 1.0461C7.75785 0.994672 7.655 0.963815 7.53157 0.980958C7.45957 0.991243 7.39614 1.01524 7.32928 1.04782C7.29842 1.06153 7.26757 1.07696 7.23671 1.09239C7.09099 1.16267 6.94528 1.23296 6.79957 1.30324C6.26642 1.56039 5.73499 1.81753 5.20185 2.07639C4.52128 2.40553 3.83899 2.73468 3.15842 3.06553C2.5447 3.36211 1.9327 3.65868 1.31898 3.95525C0.982983 4.11811 0.648696 4.27925 0.312696 4.44211C0.297267 4.44896 0.281839 4.45754 0.264696 4.46439C-0.0713048 4.62725 -0.0713048 5.18954 0.264696 5.3524C0.772125 5.59754 1.27955 5.84268 1.78527 6.08782C2.06984 6.22497 2.3527 6.36211 2.63727 6.49925C3.1567 6.75126 3.67613 7.00154 4.19556 7.25354C4.86413 7.57754 5.53442 7.90154 6.20299 8.22383C6.57671 8.40554 6.95042 8.59069 7.32585 8.76726C7.43728 8.81869 7.54185 8.85126 7.667 8.83412C7.74071 8.82383 7.80757 8.79812 7.87271 8.76554C7.91557 8.74497 7.95842 8.7244 8.00128 8.70383C8.19842 8.60954 8.39385 8.51354 8.591 8.41926C9.23043 8.11069 9.86814 7.80211 10.5076 7.49183C11.1024 7.20383 11.6973 6.91754 12.2904 6.62954C12.527 6.51468 12.7636 6.40154 13.0001 6.28668C13.5967 5.99868 14.1933 5.71068 14.7899 5.42097C14.8379 5.39868 14.8842 5.37468 14.9322 5.3524C15.1756 5.23582 15.2596 4.86897 15.1173 4.64954C14.9544 4.39582 14.6716 4.33411 14.411 4.46096Z" fill="white"/>
<path d="M11.9901 5.95408C11.9901 6.32094 11.9901 6.6878 11.9901 7.05466C11.9901 7.63923 11.9901 8.22552 11.9901 8.81009C11.9901 8.94552 11.9901 9.07923 11.9901 9.21466C12.0758 9.06723 12.1598 8.91809 12.2455 8.77066C11.6901 9.02609 11.1347 9.28152 10.5792 9.53523C9.69982 9.93809 8.82039 10.3427 7.94267 10.7455C7.74039 10.8381 7.5381 10.9324 7.3341 11.025C7.50724 11.025 7.68038 11.025 7.85353 11.025C7.2981 10.7695 6.74267 10.5141 6.18724 10.2604C5.30781 9.85752 4.42838 9.45295 3.55066 9.05009C3.34838 8.95752 3.14609 8.86323 2.94209 8.77066C3.0278 8.91809 3.1118 9.06723 3.19752 9.21466C3.19752 8.8478 3.19752 8.48095 3.19752 8.11409C3.19752 7.52951 3.19752 6.94323 3.19752 6.35866C3.19752 6.22323 3.19752 6.08951 3.19752 5.95408C3.19752 5.68494 2.96095 5.4278 2.68323 5.4398C2.4038 5.4518 2.16895 5.66608 2.16895 5.95408C2.16895 6.32094 2.16895 6.6878 2.16895 7.05466C2.16895 7.63923 2.16895 8.22552 2.16895 8.81009C2.16895 8.94552 2.16895 9.07923 2.16895 9.21466C2.16895 9.38266 2.26323 9.58495 2.42437 9.65866C2.98495 9.9158 3.54552 10.1729 4.10609 10.4301C4.98724 10.8347 5.86838 11.2392 6.74953 11.6438C6.94324 11.733 7.13695 11.8221 7.33067 11.9112C7.52267 11.9987 7.6701 11.997 7.8621 11.9112C7.88267 11.9027 7.90324 11.8924 7.92381 11.8821C8.02496 11.8358 8.12439 11.7895 8.22553 11.7432C9.06724 11.3558 9.91067 10.9701 10.7524 10.5827C11.4124 10.2792 12.0724 9.97581 12.7324 9.67409C12.7444 9.66895 12.7547 9.6638 12.7667 9.65866C12.9261 9.58495 13.0221 9.38266 13.0221 9.21466C13.0221 8.8478 13.0221 8.48095 13.0221 8.11409C13.0221 7.52951 13.0221 6.94323 13.0221 6.35866C13.0221 6.22323 13.0221 6.08951 13.0221 5.95408C13.0221 5.68494 12.7855 5.4278 12.5078 5.4398C12.2267 5.45351 11.9901 5.66608 11.9901 5.95408Z" fill="white"/>
<path d="M14.1572 7.09068C14.1572 7.83297 14.1572 8.57525 14.1572 9.31754C14.1572 9.42211 14.1572 9.52668 14.1572 9.63126C14.1572 9.9004 14.3938 10.1575 14.6715 10.1455C14.9509 10.1335 15.1858 9.91926 15.1858 9.63126C15.1858 8.88897 15.1858 8.14668 15.1858 7.40439C15.1858 7.29982 15.1858 7.19525 15.1858 7.09068C15.1858 6.82154 14.9492 6.56439 14.6715 6.57639C14.3921 6.58839 14.1572 6.80268 14.1572 7.09068Z" fill="white"/>
</svg>
