<svg width="28" height="28" viewBox="0 0 28 28" fill="none" xmlns="http://www.w3.org/2000/svg">
<circle cx="14" cy="14" r="13.5" fill="#F6F6F6" stroke="#DCDCDC"/>
<path d="M6.55762 21.5067L7.60528 17.682C6.95895 16.5627 6.61906 15.2926 6.61945 13.9918C6.62139 9.92208 9.93317 6.61108 14.0033 6.61108C15.9785 6.61185 17.8319 7.38069 19.2261 8.77563C20.6198 10.171 21.3875 12.0252 21.3867 13.9976C21.3852 18.0674 18.0726 21.3787 14.0033 21.3787H14.0002C12.7647 21.3784 11.5502 21.0684 10.4718 20.48L6.55762 21.5067Z" fill="white"/>
<path d="M6.55658 21.7011C6.50525 21.7011 6.45547 21.6809 6.41852 21.6436C6.36991 21.5942 6.35086 21.5223 6.36913 21.4558L7.39541 17.7084C6.75919 16.5783 6.42358 15.295 6.42436 13.9922C6.42591 9.81475 9.82519 6.41663 14.0022 6.41663C16.0284 6.41741 17.932 7.20647 19.3627 8.63836C20.7934 10.0706 21.5809 11.9739 21.5801 13.9976C21.5786 18.1747 18.1789 21.5732 14.0022 21.5732C12.7621 21.5728 11.5351 21.2668 10.4462 20.6877L6.60597 21.6945C6.58963 21.6992 6.5733 21.7011 6.55658 21.7011Z" fill="white"/>
<path d="M14.0027 6.61108C15.9779 6.61186 17.8313 7.38069 19.2255 8.77564C20.6192 10.171 21.3869 12.0252 21.3861 13.9976C21.3846 18.0674 18.072 21.3788 14.0027 21.3788H13.9996C12.7641 21.3784 11.5496 21.0684 10.4712 20.48L6.55702 21.5067L7.60468 17.682C6.95835 16.5627 6.61846 15.2926 6.61885 13.9918C6.6208 9.92208 9.93258 6.61108 14.0027 6.61108ZM14.0027 6.22219C9.71869 6.22219 6.23191 9.70741 6.22996 13.9918C6.22957 15.3012 6.56013 16.5915 7.18702 17.7337L6.18174 21.4044C6.14518 21.5386 6.18252 21.6817 6.28052 21.7805C6.35441 21.8551 6.45435 21.896 6.55702 21.896C6.59007 21.896 6.62313 21.8917 6.6558 21.8831L10.423 20.8954C11.5227 21.4663 12.7555 21.7676 13.9996 21.768C18.2867 21.768 21.7735 18.2824 21.7754 13.998C21.7762 11.9217 20.9685 9.96953 19.5012 8.50108C18.0331 7.03225 16.0805 6.22297 14.0027 6.22219Z" fill="#CFD8DC"/>
<path d="M18.3435 9.65686C17.1846 8.49719 15.6442 7.85825 14.0046 7.85786C10.6197 7.85786 7.86679 10.6096 7.86523 13.9922C7.86485 15.1515 8.18918 16.28 8.80362 17.2573L8.94985 17.4895L8.32957 19.7532L10.6524 19.1442L10.8768 19.2772C11.8187 19.8364 12.899 20.132 14.0003 20.1324H14.0027C17.3852 20.1324 20.1382 17.3802 20.1393 13.9972C20.1397 12.3581 19.5023 10.8165 18.3435 9.65686Z" fill="#40C351"/>
<path fill-rule="evenodd" clip-rule="evenodd" d="M12.1567 10.9064C12.0187 10.5991 11.8732 10.5929 11.7414 10.5875C11.6337 10.5828 11.5108 10.5832 11.3879 10.5832C11.265 10.5832 11.0651 10.6295 10.8959 10.8142C10.7268 10.9989 10.25 11.445 10.25 12.3526C10.25 13.2603 10.9111 14.1376 11.0033 14.2605C11.0954 14.3834 12.2796 16.3057 14.1548 17.0454C15.7131 17.6598 16.0304 17.5377 16.3688 17.507C16.7071 17.4762 17.4604 17.0609 17.614 16.63C17.7676 16.1991 17.7676 15.8301 17.7217 15.7531C17.6754 15.6761 17.5526 15.6302 17.3682 15.5376C17.1839 15.4451 16.2766 14.999 16.1074 14.9376C15.9383 14.8761 15.8154 14.8454 15.6921 15.0301C15.5692 15.2145 15.2157 15.6302 15.108 15.7531C15.0003 15.8764 14.8926 15.8919 14.7082 15.7994C14.5239 15.7068 13.9297 15.5124 13.2246 14.8839C12.6763 14.3951 12.3061 13.7911 12.1983 13.6064C12.0906 13.4221 12.1867 13.3221 12.2792 13.23C12.3621 13.1471 12.4636 13.0145 12.5561 12.9068C12.6483 12.7991 12.679 12.7221 12.7404 12.5992C12.8019 12.4759 12.7712 12.3682 12.7249 12.276C12.6794 12.1835 12.3208 11.2711 12.1567 10.9064Z" fill="white"/>
</svg>
